<svg width="268" height="79" viewBox="0 0 268 79" fill="none" xmlns="http://www.w3.org/2000/svg">
<g filter="url(#filter0_d_1232_1158)">
<path d="M2.16016 32.8002C2.16016 16.9602 12.6002 6.16016 27.0002 6.16016C35.1362 6.16016 42.2642 8.82416 45.5762 14.0802C49.2482 19.8402 44.6402 24.5202 40.3202 24.5202C38.5202 24.5202 36.8642 23.7282 35.7122 22.0002C31.9682 16.1682 29.0882 8.89616 20.8082 8.89616C14.5442 8.89616 10.9442 14.0802 10.9442 21.7122C10.9442 31.4322 19.8722 53.2482 32.4722 53.2482C38.4482 53.2482 43.8482 49.2162 46.3682 45.4722C46.8002 44.8242 47.3762 44.5362 47.8802 44.5362C48.8882 44.5362 49.7522 45.6162 48.9602 47.2002C46.7282 51.8082 38.3762 59.4402 27.0002 59.4402C12.6002 59.4402 2.16016 48.6402 2.16016 32.8002Z" fill="#0039A8"/>
<path d="M80.7498 59.4402C66.3498 59.4402 55.9098 48.6402 55.9098 32.8002C55.9098 16.9602 66.3498 6.16016 80.7498 6.16016C95.1498 6.16016 105.59 16.9602 105.59 32.8002C105.59 48.6402 95.1498 59.4402 80.7498 59.4402ZM70.6698 10.1922C61.3098 14.5122 64.9098 28.4802 69.2298 37.9842C72.9738 46.1202 79.3098 56.1282 86.8698 56.1282C88.1658 56.1282 89.4618 55.8402 90.8298 55.1922C100.262 50.8722 96.5178 37.0482 92.2698 27.6162C88.5978 19.4802 82.1898 9.32815 74.5578 9.32815C73.2618 9.32815 71.9658 9.61615 70.6698 10.1922Z" fill="#0039A8"/>
<path d="M114.302 58.0002C113.222 58.0002 113.366 56.4162 114.302 55.8402C117.47 53.9682 117.326 42.5202 117.326 32.8002C117.326 23.0802 117.614 11.7042 114.302 9.76016C113.366 9.18416 113.222 7.60015 114.302 7.60015H132.59C133.67 7.60015 133.67 9.11216 132.59 9.76016C129.422 11.7762 129.566 23.0802 129.566 32.8002C129.566 42.5202 129.35 55.8402 135.47 55.8402C139.79 55.8402 140.438 50.2962 141.878 46.4802C143.03 43.3122 144.254 40.7922 147.134 40.7922C149.798 40.7922 151.094 43.3122 151.094 45.6162C151.094 54.6162 150.662 58.0002 145.766 58.0002H114.302Z" fill="#0039A8"/>
<path d="M182.202 59.4402C167.802 59.4402 157.362 48.6402 157.362 32.8002C157.362 16.9602 167.802 6.16016 182.202 6.16016C196.602 6.16016 207.042 16.9602 207.042 32.8002C207.042 48.6402 196.602 59.4402 182.202 59.4402ZM172.122 10.1922C162.762 14.5122 166.362 28.4802 170.682 37.9842C174.426 46.1202 180.762 56.1282 188.322 56.1282C189.618 56.1282 190.914 55.8402 192.282 55.1922C201.714 50.8722 197.97 37.0482 193.722 27.6162C190.05 19.4802 183.642 9.32815 176.01 9.32815C174.714 9.32815 173.418 9.61615 172.122 10.1922Z" fill="#0039A8"/>
<path d="M214.489 9.76016C213.553 9.18416 213.409 7.60015 214.489 7.60015H236.521C245.377 7.60015 255.889 11.1282 255.889 21.4242C255.889 29.7042 245.233 35.3202 239.977 35.3202H237.673C246.169 35.3202 249.913 38.0562 253.945 45.5442C257.401 52.0242 258.913 54.8322 261.721 55.6242C263.233 56.0562 263.017 58.0002 261.577 58.0002H245.017C243.937 58.0002 243.937 56.4882 244.945 55.8402C246.529 54.8322 244.225 49.4322 243.217 47.2722C240.337 41.2962 238.681 35.9682 231.913 35.9682H229.609C229.681 44.8242 229.969 54.0402 232.777 55.8402C233.857 56.4882 233.857 58.0002 232.777 58.0002H214.489C213.409 58.0002 213.553 56.4162 214.489 55.8402C217.513 54.0402 217.369 42.5202 217.369 32.8002C217.369 23.0802 217.801 11.7042 214.489 9.76016ZM236.521 9.76016C228.313 9.76016 229.609 23.0802 229.609 32.8002C229.609 33.1602 229.609 33.4482 229.609 33.8082C239.617 33.5922 243.649 29.9922 243.649 21.8562C243.649 14.6562 241.057 9.76016 236.521 9.76016Z" fill="#0039A8"/>
<path d="M34.8706 22.5404L34.8753 22.5477L34.8801 22.5549C36.2218 24.5674 38.1934 25.5202 40.3202 25.5202C42.8142 25.5202 45.363 24.1827 46.7827 22.0065C48.2459 19.7636 48.4501 16.7296 46.4207 13.5447C42.8424 7.86865 35.288 5.16016 27.0002 5.16016C19.5399 5.16016 13.0615 7.96301 8.45237 12.8544C3.84637 17.7424 1.16016 24.6578 1.16016 32.8002C1.16016 40.9425 3.84637 47.858 8.45237 52.746C13.0615 57.6373 19.5399 60.4402 27.0002 60.4402C32.916 60.4402 38.0355 58.4556 41.9574 55.8845C45.8571 53.3279 48.6435 50.144 49.8574 47.6416C50.3568 46.6394 50.4068 45.6303 49.9827 44.8133C49.5631 44.0054 48.7475 43.5362 47.8802 43.5362C46.9859 43.5362 46.1211 44.0411 45.5373 44.9156C43.1492 48.4623 38.029 52.2482 32.4722 52.2482C29.6258 52.2482 26.9253 51.0183 24.4369 48.9226C21.9456 46.8245 19.7178 43.8985 17.8516 40.6294C14.1054 34.0669 11.9442 26.3534 11.9442 21.7122C11.9442 18.0385 12.8123 15.0673 14.3279 13.0411C15.8192 11.0474 17.9865 9.89616 20.8082 9.89616C24.5887 9.89616 27.1227 11.5298 29.2078 13.9187C30.2645 15.1295 31.2001 16.5297 32.117 18.0171C32.4694 18.5886 32.8261 19.1853 33.1862 19.7877C33.7406 20.7153 34.3032 21.6565 34.8706 22.5404ZM90.4134 54.283L90.4134 54.2829L90.4018 54.2884C89.158 54.8776 88.0076 55.1282 86.8698 55.1282C83.5391 55.1282 80.3196 52.9102 77.3802 49.4588C74.4676 46.0389 71.9929 41.596 70.1394 37.5685C68.0018 32.8655 66.0791 27.1307 65.8185 22.0925C65.5582 17.0589 66.9475 13.015 71.0826 11.103C72.2606 10.5804 73.4166 10.3282 74.5578 10.3282C77.9232 10.3282 81.1784 12.5804 84.1362 16.068C87.067 19.5237 89.5419 24.0028 91.3584 28.0275C93.4634 32.7015 95.4035 38.3833 95.6814 43.3767C95.9588 48.3616 94.5886 52.3707 90.4134 54.283ZM113.793 54.9792L113.785 54.9838L113.778 54.9885C113.001 55.4663 112.576 56.3259 112.547 57.0977C112.531 57.4937 112.617 57.9658 112.928 58.3615C113.264 58.7888 113.763 59.0002 114.302 59.0002H145.766C147.094 59.0002 148.249 58.7723 149.196 58.1776C150.16 57.5722 150.791 56.6613 151.205 55.5263C151.612 54.4116 151.828 53.0368 151.947 51.4217C152.067 49.7989 152.094 47.8676 152.094 45.6162C152.094 44.2952 151.726 42.8756 150.926 41.7582C150.106 40.6117 148.828 39.7922 147.134 39.7922C145.335 39.7922 144.037 40.6072 143.073 41.8285C142.153 42.9933 141.515 44.5535 140.94 46.132C140.645 46.9164 140.38 47.7749 140.122 48.6095C140.055 48.8264 139.989 49.0417 139.922 49.2537C139.593 50.3069 139.259 51.2998 138.85 52.1633C138.44 53.0287 137.985 53.6981 137.448 54.1481C136.935 54.5786 136.312 54.8402 135.47 54.8402C134.39 54.8402 133.54 54.2878 132.823 53.0925C132.082 51.8579 131.56 50.041 131.211 47.8106C130.559 43.6434 130.562 38.4087 130.565 33.741C130.566 33.4246 130.566 33.1108 130.566 32.8002C130.566 32.3991 130.566 31.9959 130.565 31.5912C130.563 27.0711 130.56 22.367 130.886 18.4747C131.064 16.3534 131.336 14.5234 131.742 13.1214C132.159 11.6762 132.657 10.9082 133.119 10.609C133.937 10.1111 134.4 9.25809 134.4 8.43716C134.4 8.01929 134.276 7.55536 133.945 7.18217C133.598 6.79156 133.11 6.60015 132.59 6.60015H114.302C113.763 6.60015 113.264 6.8115 112.928 7.23883C112.617 7.63453 112.531 8.10662 112.547 8.50259C112.576 9.27444 113.001 10.134 113.778 10.6118L113.787 10.6173L113.796 10.6226C114.276 10.9044 114.788 11.652 115.212 13.0956C115.622 14.4895 115.89 16.3177 116.059 18.4434C116.347 22.0676 116.338 26.3946 116.329 30.6207C116.327 31.3516 116.326 32.0795 116.326 32.8002C116.326 33.2009 116.326 33.6042 116.326 34.0091C116.329 38.5344 116.332 43.2707 116.005 47.1799C115.827 49.3109 115.555 51.1444 115.15 52.5385C114.729 53.9906 114.232 54.7199 113.793 54.9792ZM191.866 54.2829L191.854 54.2884C190.611 54.8776 189.46 55.1282 188.322 55.1282C184.992 55.1282 181.772 52.9102 178.833 49.4588C175.92 46.0389 173.445 41.596 171.592 37.5685C169.454 32.8655 167.532 27.1307 167.271 22.0925C167.011 17.0591 168.4 13.0152 172.535 11.1032C173.713 10.5805 174.869 10.3282 176.01 10.3282C179.376 10.3282 182.631 12.5804 185.589 16.068C188.52 19.5237 190.994 24.0028 192.811 28.0275C194.916 32.7015 196.856 38.3833 197.134 43.3767C197.411 48.3616 196.041 52.3707 191.866 54.2829ZM213.965 10.6118L213.974 10.6173L213.983 10.6226C214.458 10.9019 214.963 11.6443 215.374 13.0876C215.771 14.4808 216.022 16.3086 216.173 18.4351C216.413 21.8101 216.396 25.7885 216.378 29.7327C216.373 30.7613 216.369 31.7875 216.369 32.8002C216.369 33.2189 216.369 33.6404 216.369 34.0638C216.372 38.5752 216.375 43.3071 216.066 47.2112C215.897 49.3482 215.637 51.1867 215.251 52.5805C214.846 54.0418 214.371 54.7467 213.977 54.9809L213.971 54.9846L213.965 54.9885C213.188 55.4663 212.763 56.3259 212.733 57.0977C212.718 57.4937 212.804 57.9658 213.115 58.3615C213.451 58.7888 213.95 59.0002 214.489 59.0002H232.777C233.297 59.0002 233.784 58.8088 234.132 58.4181C234.463 58.045 234.587 57.581 234.587 57.1632C234.587 56.3428 234.125 55.4904 233.307 54.9924C232.903 54.7283 232.455 54.0908 232.055 52.9019C231.664 51.7406 231.372 50.2207 231.16 48.4322C230.767 45.1294 230.66 41.0647 230.618 36.9682H231.913C234.958 36.9682 236.784 38.133 238.234 39.9938C239.426 41.5238 240.333 43.471 241.377 45.7135C241.674 46.3528 241.983 47.0161 242.313 47.7005C242.811 48.7686 243.611 50.5987 244.092 52.2655C244.335 53.1078 244.478 53.8442 244.485 54.3931C244.491 54.8509 244.405 54.987 244.391 55.0075C243.606 55.5184 243.182 56.3776 243.198 57.1828C243.206 57.5945 243.333 58.0525 243.663 58.4212C244.01 58.8082 244.496 59.0002 245.017 59.0002H261.577C262.845 59.0002 263.666 58.0873 263.752 57.0572C263.838 56.032 263.202 55.0072 261.995 54.6626L261.992 54.6617C260.889 54.3504 259.977 53.6451 258.887 52.1325C257.775 50.5893 256.569 48.3394 254.827 45.0736L254.825 45.0701C252.78 41.2725 250.738 38.5408 248.026 36.7847C247.063 36.1609 246.03 35.6702 244.906 35.2964C246.783 34.6018 248.736 33.5753 250.496 32.2831C253.941 29.753 256.889 26.0172 256.889 21.4242C256.889 15.8587 254.014 12.1014 250.028 9.7864C246.09 7.49956 241.056 6.60015 236.521 6.60015H214.489C213.95 6.60015 213.451 6.8115 213.115 7.23883C212.804 7.63453 212.718 8.10662 212.733 8.50259C212.763 9.27444 213.188 10.134 213.965 10.6118ZM261.721 55.6242C263.233 56.0562 263.017 58.0002 261.577 58.0002H245.017C243.937 58.0002 243.937 56.4882 244.945 55.8402L261.721 55.6242ZM54.9098 32.8002C54.9098 40.9425 57.5961 47.858 62.2021 52.746C66.8112 57.6373 73.2896 60.4402 80.7498 60.4402C88.2101 60.4402 94.6885 57.6373 99.2976 52.746C103.904 47.858 106.59 40.9425 106.59 32.8002C106.59 24.6578 103.904 17.7424 99.2976 12.8544C94.6885 7.96301 88.2101 5.16016 80.7498 5.16016C73.2896 5.16016 66.8112 7.96301 62.2021 12.8544C57.5961 17.7424 54.9098 24.6578 54.9098 32.8002ZM156.362 32.8002C156.362 40.9425 159.049 47.858 163.655 52.746C168.264 57.6373 174.742 60.4402 182.202 60.4402C189.663 60.4402 196.141 57.6373 200.75 52.746C205.356 47.858 208.042 40.9425 208.042 32.8002C208.042 24.6578 205.356 17.7424 200.75 12.8544C196.141 7.96301 189.663 5.16016 182.202 5.16016C174.742 5.16016 168.264 7.96301 163.655 12.8544C159.049 17.7424 156.362 24.6578 156.362 32.8002ZM239.729 30.0442C237.876 31.6388 234.963 32.5647 230.609 32.7732C230.608 31.5982 230.59 30.3865 230.572 29.1624C230.513 25.2305 230.453 21.1705 230.975 17.7878C231.317 15.5747 231.892 13.7949 232.783 12.5867C233.631 11.4362 234.793 10.7602 236.521 10.7602C238.356 10.7602 239.841 11.7224 240.918 13.6047C242.015 15.5236 242.649 18.3555 242.649 21.8562C242.649 25.7684 241.682 28.3636 239.729 30.0442Z" stroke="#0039A8" stroke-width="2"/>
</g>
<mask id="path-3-outside-1_1232_1158" maskUnits="userSpaceOnUse" x="1" y="5" width="263" height="55" fill="black">
<rect fill="white" x="1" y="5" width="263" height="55"/>
<path d="M2.16 32.8C2.16 16.96 12.6 6.16 27 6.16C35.136 6.16 42.264 8.824 45.576 14.08C49.248 19.84 44.64 24.52 40.32 24.52C38.52 24.52 36.864 23.728 35.712 22C31.968 16.168 29.088 8.896 20.808 8.896C14.544 8.896 10.944 14.08 10.944 21.712C10.944 31.432 19.872 53.248 32.472 53.248C38.448 53.248 43.848 49.216 46.368 45.472C46.8 44.824 47.376 44.536 47.88 44.536C48.888 44.536 49.752 45.616 48.96 47.2C46.728 51.808 38.376 59.44 27 59.44C12.6 59.44 2.16 48.64 2.16 32.8ZM80.7497 59.44C66.3497 59.44 55.9097 48.64 55.9097 32.8C55.9097 16.96 66.3497 6.16 80.7497 6.16C95.1497 6.16 105.59 16.96 105.59 32.8C105.59 48.64 95.1497 59.44 80.7497 59.44ZM70.6697 10.192C61.3097 14.512 64.9097 28.48 69.2297 37.984C72.9737 46.12 79.3097 56.128 86.8697 56.128C88.1657 56.128 89.4617 55.84 90.8297 55.192C100.262 50.872 96.5177 37.048 92.2697 27.616C88.5977 19.48 82.1897 9.328 74.5577 9.328C73.2617 9.328 71.9657 9.616 70.6697 10.192ZM114.302 58C113.222 58 113.366 56.416 114.302 55.84C117.47 53.968 117.326 42.52 117.326 32.8C117.326 23.08 117.614 11.704 114.302 9.76C113.366 9.184 113.222 7.6 114.302 7.6H132.59C133.67 7.6 133.67 9.112 132.59 9.76C129.422 11.776 129.566 23.08 129.566 32.8C129.566 42.52 129.35 55.84 135.47 55.84C139.79 55.84 140.438 50.296 141.878 46.48C143.03 43.312 144.254 40.792 147.134 40.792C149.798 40.792 151.094 43.312 151.094 45.616C151.094 54.616 150.662 58 145.766 58H114.302ZM182.202 59.44C167.802 59.44 157.362 48.64 157.362 32.8C157.362 16.96 167.802 6.16 182.202 6.16C196.602 6.16 207.042 16.96 207.042 32.8C207.042 48.64 196.602 59.44 182.202 59.44ZM172.122 10.192C162.762 14.512 166.362 28.48 170.682 37.984C174.426 46.12 180.762 56.128 188.322 56.128C189.618 56.128 190.914 55.84 192.282 55.192C201.714 50.872 197.97 37.048 193.722 27.616C190.05 19.48 183.642 9.328 176.01 9.328C174.714 9.328 173.418 9.616 172.122 10.192ZM214.489 9.76C213.553 9.184 213.409 7.6 214.489 7.6H236.521C245.377 7.6 255.889 11.128 255.889 21.424C255.889 29.704 245.233 35.32 239.977 35.32H237.673C246.169 35.32 249.913 38.056 253.945 45.544C257.401 52.024 258.913 54.832 261.721 55.624C263.233 56.056 263.017 58 261.577 58H245.017C243.937 58 243.937 56.488 244.945 55.84C246.529 54.832 244.225 49.432 243.217 47.272C240.337 41.296 238.681 35.968 231.913 35.968H229.609C229.681 44.824 229.969 54.04 232.777 55.84C233.857 56.488 233.857 58 232.777 58H214.489C213.409 58 213.553 56.416 214.489 55.84C217.513 54.04 217.369 42.52 217.369 32.8C217.369 23.08 217.801 11.704 214.489 9.76ZM236.521 9.76C228.313 9.76 229.609 23.08 229.609 32.8C229.609 33.16 229.609 33.448 229.609 33.808C239.617 33.592 243.649 29.992 243.649 21.856C243.649 14.656 241.057 9.76 236.521 9.76Z"/>
</mask>
<path d="M2.16 32.8C2.16 16.96 12.6 6.16 27 6.16C35.136 6.16 42.264 8.824 45.576 14.08C49.248 19.84 44.64 24.52 40.32 24.52C38.52 24.52 36.864 23.728 35.712 22C31.968 16.168 29.088 8.896 20.808 8.896C14.544 8.896 10.944 14.08 10.944 21.712C10.944 31.432 19.872 53.248 32.472 53.248C38.448 53.248 43.848 49.216 46.368 45.472C46.8 44.824 47.376 44.536 47.88 44.536C48.888 44.536 49.752 45.616 48.96 47.2C46.728 51.808 38.376 59.44 27 59.44C12.6 59.44 2.16 48.64 2.16 32.8ZM80.7497 59.44C66.3497 59.44 55.9097 48.64 55.9097 32.8C55.9097 16.96 66.3497 6.16 80.7497 6.16C95.1497 6.16 105.59 16.96 105.59 32.8C105.59 48.64 95.1497 59.44 80.7497 59.44ZM70.6697 10.192C61.3097 14.512 64.9097 28.48 69.2297 37.984C72.9737 46.12 79.3097 56.128 86.8697 56.128C88.1657 56.128 89.4617 55.84 90.8297 55.192C100.262 50.872 96.5177 37.048 92.2697 27.616C88.5977 19.48 82.1897 9.328 74.5577 9.328C73.2617 9.328 71.9657 9.616 70.6697 10.192ZM114.302 58C113.222 58 113.366 56.416 114.302 55.84C117.47 53.968 117.326 42.52 117.326 32.8C117.326 23.08 117.614 11.704 114.302 9.76C113.366 9.184 113.222 7.6 114.302 7.6H132.59C133.67 7.6 133.67 9.112 132.59 9.76C129.422 11.776 129.566 23.08 129.566 32.8C129.566 42.52 129.35 55.84 135.47 55.84C139.79 55.84 140.438 50.296 141.878 46.48C143.03 43.312 144.254 40.792 147.134 40.792C149.798 40.792 151.094 43.312 151.094 45.616C151.094 54.616 150.662 58 145.766 58H114.302ZM182.202 59.44C167.802 59.44 157.362 48.64 157.362 32.8C157.362 16.96 167.802 6.16 182.202 6.16C196.602 6.16 207.042 16.96 207.042 32.8C207.042 48.64 196.602 59.44 182.202 59.44ZM172.122 10.192C162.762 14.512 166.362 28.48 170.682 37.984C174.426 46.12 180.762 56.128 188.322 56.128C189.618 56.128 190.914 55.84 192.282 55.192C201.714 50.872 197.97 37.048 193.722 27.616C190.05 19.48 183.642 9.328 176.01 9.328C174.714 9.328 173.418 9.616 172.122 10.192ZM214.489 9.76C213.553 9.184 213.409 7.6 214.489 7.6H236.521C245.377 7.6 255.889 11.128 255.889 21.424C255.889 29.704 245.233 35.32 239.977 35.32H237.673C246.169 35.32 249.913 38.056 253.945 45.544C257.401 52.024 258.913 54.832 261.721 55.624C263.233 56.056 263.017 58 261.577 58H245.017C243.937 58 243.937 56.488 244.945 55.84C246.529 54.832 244.225 49.432 243.217 47.272C240.337 41.296 238.681 35.968 231.913 35.968H229.609C229.681 44.824 229.969 54.04 232.777 55.84C233.857 56.488 233.857 58 232.777 58H214.489C213.409 58 213.553 56.416 214.489 55.84C217.513 54.04 217.369 42.52 217.369 32.8C217.369 23.08 217.801 11.704 214.489 9.76ZM236.521 9.76C228.313 9.76 229.609 23.08 229.609 32.8C229.609 33.16 229.609 33.448 229.609 33.808C239.617 33.592 243.649 29.992 243.649 21.856C243.649 14.656 241.057 9.76 236.521 9.76Z" fill="#87FFF1"/>
<path d="M45.576 14.08L45.153 14.3466L45.1544 14.3488L45.576 14.08ZM35.712 22L35.2912 22.2702L35.296 22.2774L35.712 22ZM46.368 45.472L46.7828 45.7512L46.784 45.7493L46.368 45.472ZM48.96 47.2L48.5128 46.9764L48.51 46.982L48.96 47.2ZM2.66 32.8C2.66 24.9912 5.2319 18.4589 9.5439 13.8829C13.8543 9.30857 19.9301 6.66 27 6.66V5.66C19.6699 5.66 13.3257 8.41142 8.81611 13.1971C4.30811 17.9811 1.66 24.7688 1.66 32.8H2.66ZM27 6.66C35.0595 6.66 41.9738 9.30138 45.153 14.3466L45.999 13.8134C42.5542 8.34661 35.2125 5.66 27 5.66V6.66ZM45.1544 14.3488C46.893 17.076 46.6439 19.4735 45.5262 21.1868C44.3866 22.9337 42.313 24.02 40.32 24.02V25.02C42.647 25.02 45.0374 23.7663 46.3638 21.7332C47.7121 19.6665 47.931 16.844 45.9976 13.8112L45.1544 14.3488ZM40.32 24.02C38.6834 24.02 37.1852 23.3084 36.128 21.7226L35.296 22.2774C36.5428 24.1476 38.3566 25.02 40.32 25.02V24.02ZM36.1328 21.7299C35.1967 20.2718 34.3351 18.7567 33.3937 17.2297C32.4634 15.7206 31.4766 14.2371 30.3377 12.9322C28.0457 10.3062 25.1277 8.396 20.808 8.396V9.396C24.7683 9.396 27.4303 11.1218 29.5843 13.5898C30.6684 14.8319 31.6211 16.2599 32.5425 17.7545C33.4529 19.2313 34.3553 20.8122 35.2912 22.2701L36.1328 21.7299ZM20.808 8.396C17.5208 8.396 14.9055 9.76438 13.1266 12.1425C11.3599 14.5044 10.444 17.8248 10.444 21.712H11.444C11.444 17.9672 12.3281 14.8796 13.9274 12.7415C15.5145 10.6196 17.8312 9.396 20.808 9.396V8.396ZM10.444 21.712C10.444 26.6814 12.7114 34.6506 16.5488 41.3729C18.4709 44.7401 20.8029 47.8232 23.4705 50.0698C26.1397 52.3177 29.1702 53.748 32.472 53.748V52.748C29.4738 52.748 26.6633 51.4513 24.1147 49.3049C21.5646 47.1573 19.3021 44.1789 17.4172 40.8771C13.6406 34.2614 11.444 26.4626 11.444 21.712H10.444ZM32.472 53.748C38.6571 53.748 44.1966 49.5936 46.7828 45.7512L45.9532 45.1928C43.4994 48.8384 38.2389 52.748 32.472 52.748V53.748ZM46.784 45.7493C47.1402 45.2151 47.5715 45.036 47.88 45.036V44.036C47.1805 44.036 46.4598 44.4329 45.952 45.1946L46.784 45.7493ZM47.88 45.036C48.2023 45.036 48.4965 45.2064 48.6513 45.5044C48.8033 45.7972 48.8558 46.2905 48.5128 46.9764L49.4072 47.4236C49.8562 46.5255 49.8727 45.6868 49.5388 45.0436C49.2075 44.4056 48.5657 44.036 47.88 44.036V45.036ZM48.51 46.982C47.4422 49.1865 44.8671 52.1831 41.1349 54.6298C37.4123 57.0703 32.5741 58.94 27 58.94V59.94C32.8019 59.94 37.8277 57.9937 41.6831 55.4662C45.5289 52.9449 48.2458 49.8215 49.41 47.418L48.51 46.982ZM27 58.94C19.9301 58.94 13.8543 56.2914 9.5439 51.7171C5.2319 47.1411 2.66 40.6088 2.66 32.8H1.66C1.66 40.8312 4.30811 47.6189 8.81611 52.4029C13.3257 57.1886 19.6699 59.94 27 59.94V58.94ZM70.6697 10.192L70.4666 9.73505L70.4602 9.73802L70.6697 10.192ZM69.2297 37.984L68.7745 38.1909L68.7755 38.193L69.2297 37.984ZM90.8297 55.192L90.6215 54.7374L90.6156 54.7401L90.8297 55.192ZM92.2697 27.616L92.7256 27.4107L92.7254 27.4103L92.2697 27.616ZM80.7497 58.94C73.6798 58.94 67.604 56.2914 63.2936 51.7171C58.9816 47.1411 56.4097 40.6088 56.4097 32.8H55.4097C55.4097 40.8312 58.0578 47.6189 62.5658 52.4029C67.0754 57.1886 73.4195 59.94 80.7497 59.94V58.94ZM56.4097 32.8C56.4097 24.9912 58.9816 18.4589 63.2936 13.8829C67.604 9.30857 73.6798 6.66 80.7497 6.66V5.66C73.4195 5.66 67.0754 8.41142 62.5658 13.1971C58.0578 17.9811 55.4097 24.7688 55.4097 32.8H56.4097ZM80.7497 6.66C87.8195 6.66 93.8954 9.30857 98.2058 13.8829C102.518 18.4589 105.09 24.9912 105.09 32.8H106.09C106.09 24.7688 103.442 17.9811 98.9336 13.1971C94.424 8.41142 88.0798 5.66 80.7497 5.66V6.66ZM105.09 32.8C105.09 40.6088 102.518 47.1411 98.2058 51.7171C93.8954 56.2914 87.8195 58.94 80.7497 58.94V59.94C88.0798 59.94 94.424 57.1886 98.9336 52.4029C103.442 47.6189 106.09 40.8312 106.09 32.8H105.09ZM70.4602 9.73802C65.5102 12.0226 64.0456 16.8579 64.3204 22.1698C64.595 27.4804 66.6034 33.4146 68.7745 38.1909L69.6849 37.7771C67.5359 33.0494 65.5843 27.2476 65.319 22.1182C65.0538 16.9901 66.4692 12.6814 70.8792 10.646L70.4602 9.73802ZM68.7755 38.193C70.6566 42.2809 73.1991 46.8629 76.238 50.4312C79.2638 53.984 82.8651 56.628 86.8697 56.628V55.628C83.3143 55.628 79.9676 53.268 76.9993 49.7828C74.0443 46.3131 71.5467 41.8231 69.6839 37.775L68.7755 38.193ZM86.8697 56.628C88.2448 56.628 89.6136 56.3213 91.0437 55.6439L90.6156 54.7401C89.3098 55.3587 88.0865 55.628 86.8697 55.628V56.628ZM91.0379 55.6466C96.0243 53.3627 97.4722 48.5633 97.1789 43.2932C96.8859 38.0276 94.859 32.1476 92.7256 27.4107L91.8138 27.8213C93.9284 32.5164 95.8975 38.2644 96.1805 43.3488C96.4632 48.4287 95.0671 52.7013 90.6215 54.7374L91.0379 55.6466ZM92.7254 27.4103C90.8797 23.3207 88.3371 18.7022 85.28 15.0976C82.2364 11.5089 78.599 8.828 74.5577 8.828V9.828C78.1484 9.828 81.531 12.2231 84.5174 15.7444C87.4903 19.2498 89.9877 23.7753 91.814 27.8217L92.7254 27.4103ZM74.5577 8.828C73.1854 8.828 71.8205 9.13338 70.4666 9.73509L70.8728 10.6489C72.1109 10.0986 73.338 9.828 74.5577 9.828V8.828ZM114.302 55.84L114.047 55.4095L114.04 55.4142L114.302 55.84ZM114.302 9.76L114.04 10.1859L114.049 10.1912L114.302 9.76ZM132.59 9.76L132.332 9.3311L132.321 9.33817L132.59 9.76ZM141.878 46.48L142.346 46.6565L142.348 46.6509L141.878 46.48ZM114.302 57.5C114.166 57.5 114.125 57.4572 114.108 57.4346C114.077 57.3962 114.039 57.3082 114.045 57.1552C114.057 56.8391 114.25 56.4589 114.564 56.2658L114.04 55.4142C113.417 55.7971 113.07 56.4969 113.046 57.1168C113.034 57.4318 113.104 57.7758 113.321 58.0524C113.551 58.3448 113.897 58.5 114.302 58.5V57.5ZM114.556 56.2705C115.525 55.6981 116.154 54.463 116.591 52.9565C117.037 51.421 117.319 49.4724 117.5 47.3046C117.862 42.9676 117.826 37.65 117.826 32.8H116.826C116.826 37.67 116.861 42.9364 116.503 47.2214C116.324 49.3646 116.049 51.2365 115.631 52.6778C115.204 54.148 114.663 55.0459 114.047 55.4095L114.556 56.2705ZM117.826 32.8C117.826 27.9539 117.898 22.6519 117.554 18.3244C117.382 16.1607 117.104 14.2128 116.651 12.6722C116.205 11.1563 115.557 9.91687 114.555 9.32879L114.049 10.1912C114.703 10.5751 115.26 11.4867 115.692 12.9543C116.116 14.3972 116.387 16.2653 116.557 18.4036C116.897 22.6801 116.826 27.9261 116.826 32.8H117.826ZM114.564 9.33417C114.25 9.14106 114.057 8.76086 114.045 8.44478C114.039 8.29177 114.077 8.20381 114.108 8.16541C114.125 8.14282 114.166 8.1 114.302 8.1V7.1C113.897 7.1 113.551 7.25517 113.321 7.54759C113.104 7.82419 113.034 8.16823 113.046 8.48321C113.07 9.10314 113.417 9.80294 114.04 10.1858L114.564 9.33417ZM114.302 8.1H132.59V7.1H114.302V8.1ZM132.59 8.1C132.735 8.1 132.795 8.14605 132.823 8.17855C132.86 8.21977 132.9 8.30168 132.9 8.437C132.9 8.71264 132.729 9.09357 132.332 9.33125L132.847 10.1887C133.531 9.77843 133.9 9.07936 133.9 8.437C133.9 8.11332 133.804 7.77672 133.571 7.51419C133.33 7.24295 132.985 7.1 132.59 7.1V8.1ZM132.321 9.33817C131.365 9.94642 130.738 11.1889 130.3 12.7048C129.855 14.2465 129.572 16.1901 129.391 18.3492C129.029 22.6683 129.066 27.9501 129.066 32.8H130.066C130.066 27.9299 130.03 22.6997 130.388 18.4328C130.567 16.2989 130.842 14.431 131.261 12.9824C131.687 11.5081 132.23 10.5816 132.858 10.1818L132.321 9.33817ZM129.066 32.8C129.066 37.643 129.01 43.4496 129.729 48.0423C130.087 50.3358 130.646 52.3805 131.537 53.8641C132.439 55.3674 133.715 56.34 135.47 56.34V55.34C134.165 55.34 133.173 54.6476 132.394 53.3496C131.603 52.032 131.069 50.1392 130.717 47.8877C130.013 43.3904 130.066 37.677 130.066 32.8H129.066ZM135.47 56.34C136.669 56.34 137.633 55.951 138.412 55.2972C139.18 54.6531 139.749 53.7695 140.206 52.8049C140.663 51.8394 141.022 50.7597 141.354 49.7018C141.689 48.6318 141.992 47.5928 142.345 46.6565L141.41 46.3035C141.043 47.2752 140.726 48.3602 140.399 49.403C140.069 50.4578 139.727 51.4796 139.302 52.3771C138.876 53.2755 138.383 54.0164 137.77 54.531C137.168 55.036 136.431 55.34 135.47 55.34V56.34ZM142.348 46.6509C142.924 45.0652 143.496 43.7137 144.25 42.7578C144.983 41.8295 145.873 41.292 147.134 41.292V40.292C145.514 40.292 144.352 41.0145 143.465 42.1382C142.6 43.2343 141.983 44.7268 141.408 46.3091L142.348 46.6509ZM147.134 41.292C148.285 41.292 149.131 41.8272 149.706 42.631C150.292 43.4493 150.594 44.5485 150.594 45.616H151.594C151.594 44.3795 151.248 43.0667 150.519 42.049C149.781 41.0168 148.647 40.292 147.134 40.292V41.292ZM150.594 45.616C150.594 47.8653 150.567 49.7482 150.451 51.311C150.335 52.8778 150.132 54.0905 149.796 55.0114C149.463 55.9222 149.009 56.5231 148.398 56.9072C147.778 57.2967 146.937 57.5 145.766 57.5V58.5C147.042 58.5 148.092 58.2803 148.93 57.754C149.776 57.2224 150.348 56.4148 150.735 55.3546C151.119 54.3045 151.33 52.9837 151.448 51.3847C151.567 49.7818 151.594 47.8667 151.594 45.616H150.594ZM145.766 57.5H114.302V58.5H145.766V57.5ZM172.122 10.192L171.919 9.73505L171.913 9.73802L172.122 10.192ZM170.682 37.984L170.227 38.1909L170.228 38.193L170.682 37.984ZM192.282 55.192L192.074 54.7374L192.068 54.7401L192.282 55.192ZM193.722 27.616L194.178 27.4107L194.178 27.4103L193.722 27.616ZM182.202 58.94C175.132 58.94 169.057 56.2914 164.746 51.7171C160.434 47.1411 157.862 40.6088 157.862 32.8H156.862C156.862 40.8312 159.51 47.6189 164.018 52.4029C168.528 57.1886 174.872 59.94 182.202 59.94V58.94ZM157.862 32.8C157.862 24.9912 160.434 18.4589 164.746 13.8829C169.057 9.30857 175.132 6.66 182.202 6.66V5.66C174.872 5.66 168.528 8.41142 164.018 13.1971C159.51 17.9811 156.862 24.7688 156.862 32.8H157.862ZM182.202 6.66C189.272 6.66 195.348 9.30857 199.658 13.8829C203.97 18.4589 206.542 24.9912 206.542 32.8H207.542C207.542 24.7688 204.894 17.9811 200.386 13.1971C195.877 8.41142 189.532 5.66 182.202 5.66V6.66ZM206.542 32.8C206.542 40.6088 203.97 47.1411 199.658 51.7171C195.348 56.2914 189.272 58.94 182.202 58.94V59.94C189.532 59.94 195.877 57.1886 200.386 52.4029C204.894 47.6189 207.542 40.8312 207.542 32.8H206.542ZM171.913 9.73802C166.963 12.0226 165.498 16.8579 165.773 22.1698C166.048 27.4804 168.056 33.4146 170.227 38.1909L171.137 37.7771C168.988 33.0494 167.037 27.2476 166.772 22.1182C166.506 16.9901 167.922 12.6814 172.332 10.646L171.913 9.73802ZM170.228 38.193C172.109 42.2809 174.652 46.8629 177.691 50.4312C180.716 53.984 184.318 56.628 188.322 56.628V55.628C184.767 55.628 181.42 53.268 178.452 49.7828C175.497 46.3131 172.999 41.8231 171.136 37.775L170.228 38.193ZM188.322 56.628C189.697 56.628 191.066 56.3213 192.496 55.6439L192.068 54.7401C190.762 55.3587 189.539 55.628 188.322 55.628V56.628ZM192.49 55.6466C197.477 53.3627 198.925 48.5633 198.631 43.2932C198.338 38.0276 196.312 32.1476 194.178 27.4107L193.266 27.8213C195.381 32.5164 197.35 38.2644 197.633 43.3488C197.916 48.4287 196.52 52.7013 192.074 54.7374L192.49 55.6466ZM194.178 27.4103C192.332 23.3207 189.79 18.7022 186.733 15.0976C183.689 11.5089 180.052 8.828 176.01 8.828V9.828C179.601 9.828 182.983 12.2231 185.97 15.7444C188.943 19.2498 191.44 23.7753 193.266 27.8217L194.178 27.4103ZM176.01 8.828C174.638 8.828 173.273 9.13338 171.919 9.73509L172.325 10.6489C173.563 10.0986 174.791 9.828 176.01 9.828V8.828ZM214.489 9.76L214.226 10.1859L214.235 10.1912L214.489 9.76ZM253.945 45.544L254.386 45.3087L254.385 45.3069L253.945 45.544ZM261.721 55.624L261.858 55.1432L261.856 55.1428L261.721 55.624ZM244.945 55.84L244.676 55.4182L244.674 55.4194L244.945 55.84ZM243.217 47.272L243.67 47.0605L243.667 47.0549L243.217 47.272ZM229.609 35.968V35.468H229.104L229.109 35.9721L229.609 35.968ZM232.777 55.84L232.507 56.2609L232.513 56.2649L232.519 56.2687L232.777 55.84ZM214.489 55.84L214.233 55.4103L214.227 55.4142L214.489 55.84ZM229.609 33.808H229.109V34.3189L229.619 34.3079L229.609 33.808ZM214.751 9.33417C214.437 9.14106 214.244 8.76086 214.232 8.44478C214.226 8.29177 214.264 8.20381 214.294 8.16541C214.312 8.14282 214.353 8.1 214.489 8.1V7.1C214.084 7.1 213.738 7.25517 213.508 7.54759C213.291 7.82419 213.221 8.16823 213.233 8.48321C213.257 9.10314 213.604 9.80294 214.227 10.1858L214.751 9.33417ZM214.489 8.1H236.521V7.1H214.489V8.1ZM236.521 8.1C240.895 8.1 245.641 8.97329 249.274 11.0834C252.884 13.1794 255.389 16.4847 255.389 21.424H256.389C256.389 16.0673 253.637 12.4606 249.777 10.2186C245.94 7.9907 241.002 7.1 236.521 7.1V8.1ZM255.389 21.424C255.389 25.3375 252.867 28.6806 249.608 31.074C246.346 33.4695 242.469 34.82 239.977 34.82V35.82C242.74 35.82 246.819 34.3625 250.2 31.88C253.583 29.3954 256.389 25.7905 256.389 21.424H255.389ZM239.977 34.82H237.673V35.82H239.977V34.82ZM237.673 35.82C241.869 35.82 244.821 36.4962 247.211 38.0437C249.608 39.5957 251.503 42.0638 253.504 45.781L254.385 45.3069C252.354 41.5362 250.361 38.8923 247.754 37.2043C245.14 35.5118 241.972 34.82 237.673 34.82V35.82ZM253.503 45.7793C255.224 49.0064 256.484 51.3644 257.67 53.0093C258.866 54.6695 260.031 55.6669 261.585 56.1052L261.856 55.1428C260.602 54.7891 259.607 53.9865 258.481 52.4247C257.345 50.8476 256.121 48.5616 254.386 45.3087L253.503 45.7793ZM261.583 56.1048C262.114 56.2565 262.282 56.6351 262.257 56.9325C262.233 57.2274 262.023 57.5 261.577 57.5V58.5C262.571 58.5 263.188 57.8006 263.254 57.0155C263.319 56.2329 262.839 55.4235 261.858 55.1432L261.583 56.1048ZM261.577 57.5H245.017V58.5H261.577V57.5ZM245.017 57.5C244.872 57.5 244.811 57.4542 244.78 57.4199C244.741 57.3765 244.7 57.2916 244.697 57.1532C244.692 56.8695 244.856 56.4916 245.215 56.2606L244.674 55.4194C244.026 55.8363 243.685 56.5385 243.698 57.1728C243.704 57.4934 243.802 57.827 244.036 58.0873C244.277 58.3568 244.621 58.5 245.017 58.5V57.5ZM245.213 56.2618C245.843 55.8609 245.994 55.0893 245.985 54.3731C245.975 53.625 245.789 52.7377 245.533 51.8493C245.018 50.0651 244.177 48.1469 243.67 47.0606L242.763 47.4834C243.265 48.5571 244.079 50.4189 244.572 52.1267C244.82 52.9843 244.976 53.771 244.985 54.3863C244.993 55.0337 244.838 55.3151 244.676 55.4182L245.213 56.2618ZM243.667 47.0549C242.251 44.1168 241.08 41.2065 239.417 39.0717C237.712 36.8836 235.466 35.468 231.913 35.468V36.468C235.127 36.468 237.093 37.7164 238.628 39.6863C240.205 41.7095 241.302 44.4512 242.766 47.4891L243.667 47.0549ZM231.913 35.468H229.609V36.468H231.913V35.468ZM229.109 35.9721C229.145 40.3976 229.234 44.9418 229.67 48.609C229.888 50.4417 230.194 52.078 230.633 53.3806C231.066 54.6649 231.657 55.7161 232.507 56.2609L233.046 55.4191C232.492 55.0639 231.994 54.2881 231.581 53.0614C231.174 51.853 230.877 50.2942 230.663 48.491C230.235 44.8862 230.145 40.3944 230.109 35.9639L229.109 35.9721ZM232.519 56.2687C232.915 56.5064 233.087 56.8874 233.087 57.163C233.087 57.2983 233.047 57.3802 233.01 57.4214C232.981 57.454 232.922 57.5 232.777 57.5V58.5C233.172 58.5 233.517 58.357 233.758 58.0858C233.991 57.8233 234.087 57.4867 234.087 57.163C234.087 56.5206 233.718 55.8216 233.034 55.4113L232.519 56.2687ZM232.777 57.5H214.489V58.5H232.777V57.5ZM214.489 57.5C214.353 57.5 214.312 57.4572 214.294 57.4346C214.264 57.3962 214.226 57.3082 214.232 57.1552C214.244 56.8391 214.437 56.4589 214.751 56.2658L214.227 55.4142C213.604 55.7971 213.257 56.4969 213.233 57.1168C213.221 57.4318 213.291 57.7758 213.508 58.0524C213.738 58.3448 214.084 58.5 214.489 58.5V57.5ZM214.744 56.2696C215.682 55.7117 216.281 54.4779 216.696 52.9811C217.121 51.4505 217.389 49.501 217.561 47.3295C217.905 42.9848 217.869 37.6503 217.869 32.8H216.869C216.869 37.6697 216.904 42.9552 216.564 47.2505C216.394 49.399 216.132 51.2745 215.732 52.7139C215.324 54.1871 214.808 55.0683 214.233 55.4104L214.744 56.2696ZM217.869 32.8C217.869 27.9578 217.977 22.6539 217.669 18.3285C217.515 16.1653 217.256 14.2172 216.817 12.6762C216.384 11.1602 215.746 9.91811 214.742 9.32879L214.235 10.1912C214.887 10.5739 215.437 11.4828 215.855 12.9503C216.266 14.3928 216.52 16.2607 216.672 18.3995C216.976 22.678 216.869 27.9222 216.869 32.8H217.869ZM236.521 9.26C234.306 9.26 232.7 10.1707 231.575 11.6964C230.472 13.1932 229.848 15.2565 229.492 17.5587C228.783 22.1542 229.109 27.9878 229.109 32.8H230.109C230.109 27.8922 229.787 22.2058 230.481 17.7113C230.827 15.4685 231.418 13.5942 232.38 12.2899C233.321 11.0143 234.631 10.26 236.521 10.26V9.26ZM229.109 32.8C229.109 32.8007 229.109 32.8014 229.109 32.8021C229.109 32.8028 229.109 32.8035 229.109 32.8042C229.109 32.8049 229.109 32.8056 229.109 32.8063C229.109 32.807 229.109 32.8077 229.109 32.8084C229.109 32.8091 229.109 32.8098 229.109 32.8105C229.109 32.8112 229.109 32.8119 229.109 32.8126C229.109 32.8133 229.109 32.814 229.109 32.8147C229.109 32.8154 229.109 32.8161 229.109 32.8168C229.109 32.8175 229.109 32.8182 229.109 32.8189C229.109 32.8196 229.109 32.8203 229.109 32.821C229.109 32.8217 229.109 32.8224 229.109 32.8231C229.109 32.8238 229.109 32.8245 229.109 32.8252C229.109 32.8259 229.109 32.8266 229.109 32.8273C229.109 32.828 229.109 32.8287 229.109 32.8294C229.109 32.8301 229.109 32.8308 229.109 32.8315C229.109 32.8322 229.109 32.8328 229.109 32.8335C229.109 32.8342 229.109 32.8349 229.109 32.8356C229.109 32.8363 229.109 32.837 229.109 32.8377C229.109 32.8384 229.109 32.8391 229.109 32.8398C229.109 32.8405 229.109 32.8412 229.109 32.8419C229.109 32.8426 229.109 32.8432 229.109 32.8439C229.109 32.8446 229.109 32.8453 229.109 32.846C229.109 32.8467 229.109 32.8474 229.109 32.8481C229.109 32.8488 229.109 32.8495 229.109 32.8502C229.109 32.8509 229.109 32.8515 229.109 32.8522C229.109 32.8529 229.109 32.8536 229.109 32.8543C229.109 32.855 229.109 32.8557 229.109 32.8564C229.109 32.8571 229.109 32.8577 229.109 32.8584C229.109 32.8591 229.109 32.8598 229.109 32.8605C229.109 32.8612 229.109 32.8619 229.109 32.8626C229.109 32.8633 229.109 32.8639 229.109 32.8646C229.109 32.8653 229.109 32.866 229.109 32.8667C229.109 32.8674 229.109 32.8681 229.109 32.8687C229.109 32.8694 229.109 32.8701 229.109 32.8708C229.109 32.8715 229.109 32.8722 229.109 32.8729C229.109 32.8735 229.109 32.8742 229.109 32.8749C229.109 32.8756 229.109 32.8763 229.109 32.877C229.109 32.8777 229.109 32.8783 229.109 32.879C229.109 32.8797 229.109 32.8804 229.109 32.8811C229.109 32.8818 229.109 32.8824 229.109 32.8831C229.109 32.8838 229.109 32.8845 229.109 32.8852C229.109 32.8859 229.109 32.8865 229.109 32.8872C229.109 32.8879 229.109 32.8886 229.109 32.8893C229.109 32.8899 229.109 32.8906 229.109 32.8913C229.109 32.892 229.109 32.8927 229.109 32.8933C229.109 32.894 229.109 32.8947 229.109 32.8954C229.109 32.8961 229.109 32.8968 229.109 32.8974C229.109 32.8981 229.109 32.8988 229.109 32.8995C229.109 32.9001 229.109 32.9008 229.109 32.9015C229.109 32.9022 229.109 32.9029 229.109 32.9035C229.109 32.9042 229.109 32.9049 229.109 32.9056C229.109 32.9063 229.109 32.9069 229.109 32.9076C229.109 32.9083 229.109 32.909 229.109 32.9096C229.109 32.9103 229.109 32.911 229.109 32.9117C229.109 32.9123 229.109 32.913 229.109 32.9137C229.109 32.9144 229.109 32.9151 229.109 32.9157C229.109 32.9164 229.109 32.9171 229.109 32.9178C229.109 32.9184 229.109 32.9191 229.109 32.9198C229.109 32.9205 229.109 32.9211 229.109 32.9218C229.109 32.9225 229.109 32.9232 229.109 32.9238C229.109 32.9245 229.109 32.9252 229.109 32.9258C229.109 32.9265 229.109 32.9272 229.109 32.9279C229.109 32.9285 229.109 32.9292 229.109 32.9299C229.109 32.9306 229.109 32.9312 229.109 32.9319C229.109 32.9326 229.109 32.9332 229.109 32.9339C229.109 32.9346 229.109 32.9353 229.109 32.9359C229.109 32.9366 229.109 32.9373 229.109 32.938C229.109 32.9386 229.109 32.9393 229.109 32.94C229.109 32.9406 229.109 32.9413 229.109 32.942C229.109 32.9426 229.109 32.9433 229.109 32.944C229.109 32.9447 229.109 32.9453 229.109 32.946C229.109 32.9467 229.109 32.9473 229.109 32.948C229.109 32.9487 229.109 32.9493 229.109 32.95C229.109 32.9507 229.109 32.9513 229.109 32.952C229.109 32.9527 229.109 32.9534 229.109 32.954C229.109 32.9547 229.109 32.9554 229.109 32.956C229.109 32.9567 229.109 32.9574 229.109 32.958C229.109 32.9587 229.109 32.9594 229.109 32.96C229.109 32.9607 229.109 32.9614 229.109 32.962C229.109 32.9627 229.109 32.9634 229.109 32.964C229.109 32.9647 229.109 32.9654 229.109 32.966C229.109 32.9667 229.109 32.9674 229.109 32.968C229.109 32.9687 229.109 32.9693 229.109 32.97C229.109 32.9707 229.109 32.9713 229.109 32.972C229.109 32.9727 229.109 32.9733 229.109 32.974C229.109 32.9747 229.109 32.9753 229.109 32.976C229.109 32.9767 229.109 32.9773 229.109 32.978C229.109 32.9786 229.109 32.9793 229.109 32.98C229.109 32.9806 229.109 32.9813 229.109 32.982C229.109 32.9826 229.109 32.9833 229.109 32.9839C229.109 32.9846 229.109 32.9853 229.109 32.9859C229.109 32.9866 229.109 32.9873 229.109 32.9879C229.109 32.9886 229.109 32.9892 229.109 32.9899C229.109 32.9906 229.109 32.9912 229.109 32.9919C229.109 32.9926 229.109 32.9932 229.109 32.9939C229.109 32.9945 229.109 32.9952 229.109 32.9959C229.109 32.9965 229.109 32.9972 229.109 32.9978C229.109 32.9985 229.109 32.9992 229.109 32.9998C229.109 33.0005 229.109 33.0011 229.109 33.0018C229.109 33.0025 229.109 33.0031 229.109 33.0038C229.109 33.0044 229.109 33.0051 229.109 33.0057C229.109 33.0064 229.109 33.0071 229.109 33.0077C229.109 33.0084 229.109 33.009 229.109 33.0097C229.109 33.0104 229.109 33.011 229.109 33.0117C229.109 33.0123 229.109 33.013 229.109 33.0136C229.109 33.0143 229.109 33.015 229.109 33.0156C229.109 33.0163 229.109 33.0169 229.109 33.0176C229.109 33.0182 229.109 33.0189 229.109 33.0196C229.109 33.0202 229.109 33.0209 229.109 33.0215C229.109 33.0222 229.109 33.0228 229.109 33.0235C229.109 33.0241 229.109 33.0248 229.109 33.0255C229.109 33.0261 229.109 33.0268 229.109 33.0274C229.109 33.0281 229.109 33.0287 229.109 33.0294C229.109 33.03 229.109 33.0307 229.109 33.0313C229.109 33.032 229.109 33.0327 229.109 33.0333C229.109 33.034 229.109 33.0346 229.109 33.0353C229.109 33.0359 229.109 33.0366 229.109 33.0372C229.109 33.0379 229.109 33.0385 229.109 33.0392C229.109 33.0398 229.109 33.0405 229.109 33.0412C229.109 33.0418 229.109 33.0425 229.109 33.0431C229.109 33.0438 229.109 33.0444 229.109 33.0451C229.109 33.0457 229.109 33.0464 229.109 33.047C229.109 33.0477 229.109 33.0483 229.109 33.049C229.109 33.0496 229.109 33.0503 229.109 33.0509C229.109 33.0516 229.109 33.0522 229.109 33.0529C229.109 33.0535 229.109 33.0542 229.109 33.0548C229.109 33.0555 229.109 33.0561 229.109 33.0568C229.109 33.0574 229.109 33.0581 229.109 33.0587C229.109 33.0594 229.109 33.06 229.109 33.0607C229.109 33.0613 229.109 33.062 229.109 33.0626C229.109 33.0633 229.109 33.0639 229.109 33.0646C229.109 33.0652 229.109 33.0659 229.109 33.0665C229.109 33.0672 229.109 33.0678 229.109 33.0685C229.109 33.0691 229.109 33.0698 229.109 33.0704C229.109 33.0711 229.109 33.0717 229.109 33.0724C229.109 33.073 229.109 33.0737 229.109 33.0743C229.109 33.075 229.109 33.0756 229.109 33.0763C229.109 33.0769 229.109 33.0776 229.109 33.0782C229.109 33.0789 229.109 33.0795 229.109 33.0802C229.109 33.0808 229.109 33.0815 229.109 33.0821C229.109 33.0828 229.109 33.0834 229.109 33.084C229.109 33.0847 229.109 33.0853 229.109 33.086C229.109 33.0866 229.109 33.0873 229.109 33.0879C229.109 33.0886 229.109 33.0892 229.109 33.0899C229.109 33.0905 229.109 33.0912 229.109 33.0918C229.109 33.0925 229.109 33.0931 229.109 33.0937C229.109 33.0944 229.109 33.095 229.109 33.0957C229.109 33.0963 229.109 33.097 229.109 33.0976C229.109 33.0983 229.109 33.0989 229.109 33.0996C229.109 33.1002 229.109 33.1008 229.109 33.1015C229.109 33.1021 229.109 33.1028 229.109 33.1034C229.109 33.1041 229.109 33.1047 229.109 33.1054C229.109 33.106 229.109 33.1066 229.109 33.1073C229.109 33.1079 229.109 33.1086 229.109 33.1092C229.109 33.1099 229.109 33.1105 229.109 33.1112C229.109 33.1118 229.109 33.1124 229.109 33.1131C229.109 33.1137 229.109 33.1144 229.109 33.115C229.109 33.1157 229.109 33.1163 229.109 33.1169C229.109 33.1176 229.109 33.1182 229.109 33.1189C229.109 33.1195 229.109 33.1202 229.109 33.1208C229.109 33.1214 229.109 33.1221 229.109 33.1227C229.109 33.1234 229.109 33.124 229.109 33.1247C229.109 33.1253 229.109 33.1259 229.109 33.1266C229.109 33.1272 229.109 33.1279 229.109 33.1285C229.109 33.1291 229.109 33.1298 229.109 33.1304C229.109 33.1311 229.109 33.1317 229.109 33.1324C229.109 33.133 229.109 33.1336 229.109 33.1343C229.109 33.1349 229.109 33.1356 229.109 33.1362C229.109 33.1368 229.109 33.1375 229.109 33.1381C229.109 33.1388 229.109 33.1394 229.109 33.1401C229.109 33.1407 229.109 33.1413 229.109 33.142C229.109 33.1426 229.109 33.1433 229.109 33.1439C229.109 33.1445 229.109 33.1452 229.109 33.1458C229.109 33.1465 229.109 33.1471 229.109 33.1477C229.109 33.1484 229.109 33.149 229.109 33.1497C229.109 33.1503 229.109 33.1509 229.109 33.1516C229.109 33.1522 229.109 33.1529 229.109 33.1535C229.109 33.1541 229.109 33.1548 229.109 33.1554C229.109 33.1561 229.109 33.1567 229.109 33.1573C229.109 33.158 229.109 33.1586 229.109 33.1592C229.109 33.1599 229.109 33.1605 229.109 33.1612C229.109 33.1618 229.109 33.1624 229.109 33.1631C229.109 33.1637 229.109 33.1644 229.109 33.165C229.109 33.1656 229.109 33.1663 229.109 33.1669C229.109 33.1675 229.109 33.1682 229.109 33.1688C229.109 33.1695 229.109 33.1701 229.109 33.1707C229.109 33.1714 229.109 33.172 229.109 33.1727C229.109 33.1733 229.109 33.1739 229.109 33.1746C229.109 33.1752 229.109 33.1758 229.109 33.1765C229.109 33.1771 229.109 33.1778 229.109 33.1784C229.109 33.179 229.109 33.1797 229.109 33.1803C229.109 33.1809 229.109 33.1816 229.109 33.1822C229.109 33.1829 229.109 33.1835 229.109 33.1841C229.109 33.1848 229.109 33.1854 229.109 33.186C229.109 33.1867 229.109 33.1873 229.109 33.1879C229.109 33.1886 229.109 33.1892 229.109 33.1899C229.109 33.1905 229.109 33.1911 229.109 33.1918C229.109 33.1924 229.109 33.193 229.109 33.1937C229.109 33.1943 229.109 33.195 229.109 33.1956C229.109 33.1962 229.109 33.1969 229.109 33.1975C229.109 33.1981 229.109 33.1988 229.109 33.1994C229.109 33.2 229.109 33.2007 229.109 33.2013C229.109 33.2019 229.109 33.2026 229.109 33.2032C229.109 33.2039 229.109 33.2045 229.109 33.2051C229.109 33.2058 229.109 33.2064 229.109 33.207C229.109 33.2077 229.109 33.2083 229.109 33.2089C229.109 33.2096 229.109 33.2102 229.109 33.2108C229.109 33.2115 229.109 33.2121 229.109 33.2128C229.109 33.2134 229.109 33.214 229.109 33.2147C229.109 33.2153 229.109 33.2159 229.109 33.2166C229.109 33.2172 229.109 33.2178 229.109 33.2185C229.109 33.2191 229.109 33.2197 229.109 33.2204C229.109 33.221 229.109 33.2216 229.109 33.2223C229.109 33.2229 229.109 33.2235 229.109 33.2242C229.109 33.2248 229.109 33.2255 229.109 33.2261C229.109 33.2267 229.109 33.2274 229.109 33.228C229.109 33.2286 229.109 33.2293 229.109 33.2299C229.109 33.2305 229.109 33.2312 229.109 33.2318C229.109 33.2324 229.109 33.2331 229.109 33.2337C229.109 33.2343 229.109 33.235 229.109 33.2356C229.109 33.2362 229.109 33.2369 229.109 33.2375C229.109 33.2381 229.109 33.2388 229.109 33.2394C229.109 33.24 229.109 33.2407 229.109 33.2413C229.109 33.2419 229.109 33.2426 229.109 33.2432C229.109 33.2438 229.109 33.2445 229.109 33.2451C229.109 33.2457 229.109 33.2464 229.109 33.247C229.109 33.2476 229.109 33.2483 229.109 33.2489C229.109 33.2496 229.109 33.2502 229.109 33.2508C229.109 33.2515 229.109 33.2521 229.109 33.2527C229.109 33.2534 229.109 33.254 229.109 33.2546C229.109 33.2553 229.109 33.2559 229.109 33.2565C229.109 33.2572 229.109 33.2578 229.109 33.2584C229.109 33.2591 229.109 33.2597 229.109 33.2603C229.109 33.261 229.109 33.2616 229.109 33.2622C229.109 33.2629 229.109 33.2635 229.109 33.2641C229.109 33.2648 229.109 33.2654 229.109 33.266C229.109 33.2667 229.109 33.2673 229.109 33.2679C229.109 33.2686 229.109 33.2692 229.109 33.2698C229.109 33.2705 229.109 33.2711 229.109 33.2717C229.109 33.2724 229.109 33.273 229.109 33.2736C229.109 33.2743 229.109 33.2749 229.109 33.2755C229.109 33.2762 229.109 33.2768 229.109 33.2774C229.109 33.2781 229.109 33.2787 229.109 33.2793C229.109 33.2799 229.109 33.2806 229.109 33.2812C229.109 33.2818 229.109 33.2825 229.109 33.2831C229.109 33.2837 229.109 33.2844 229.109 33.285C229.109 33.2856 229.109 33.2863 229.109 33.2869C229.109 33.2875 229.109 33.2882 229.109 33.2888C229.109 33.2894 229.109 33.2901 229.109 33.2907C229.109 33.2913 229.109 33.292 229.109 33.2926C229.109 33.2932 229.109 33.2939 229.109 33.2945C229.109 33.2951 229.109 33.2958 229.109 33.2964C229.109 33.297 229.109 33.2977 229.109 33.2983C229.109 33.2989 229.109 33.2996 229.109 33.3002C229.109 33.3008 229.109 33.3015 229.109 33.3021C229.109 33.3027 229.109 33.3034 229.109 33.304C229.109 33.3046 229.109 33.3053 229.109 33.3059C229.109 33.3065 229.109 33.3072 229.109 33.3078C229.109 33.3084 229.109 33.3091 229.109 33.3097C229.109 33.3103 229.109 33.311 229.109 33.3116C229.109 33.3122 229.109 33.3129 229.109 33.3135C229.109 33.3141 229.109 33.3148 229.109 33.3154C229.109 33.316 229.109 33.3167 229.109 33.3173C229.109 33.3179 229.109 33.3186 229.109 33.3192C229.109 33.3198 229.109 33.3205 229.109 33.3211C229.109 33.3217 229.109 33.3224 229.109 33.323C229.109 33.3236 229.109 33.3242 229.109 33.3249C229.109 33.3255 229.109 33.3261 229.109 33.3268C229.109 33.3274 229.109 33.328 229.109 33.3287C229.109 33.3293 229.109 33.3299 229.109 33.3306C229.109 33.3312 229.109 33.3318 229.109 33.3325C229.109 33.3331 229.109 33.3337 229.109 33.3344C229.109 33.335 229.109 33.3356 229.109 33.3363C229.109 33.3369 229.109 33.3375 229.109 33.3382C229.109 33.3388 229.109 33.3394 229.109 33.3401C229.109 33.3407 229.109 33.3413 229.109 33.342C229.109 33.3426 229.109 33.3432 229.109 33.3439C229.109 33.3445 229.109 33.3451 229.109 33.3458C229.109 33.3464 229.109 33.347 229.109 33.3477C229.109 33.3483 229.109 33.3489 229.109 33.3496C229.109 33.3502 229.109 33.3508 229.109 33.3515C229.109 33.3521 229.109 33.3527 229.109 33.3534C229.109 33.354 229.109 33.3546 229.109 33.3553C229.109 33.3559 229.109 33.3565 229.109 33.3572C229.109 33.3578 229.109 33.3584 229.109 33.3591C229.109 33.3597 229.109 33.3603 229.109 33.361C229.109 33.3616 229.109 33.3622 229.109 33.3629C229.109 33.3635 229.109 33.3641 229.109 33.3648C229.109 33.3654 229.109 33.3661 229.109 33.3667C229.109 33.3673 229.109 33.368 229.109 33.3686C229.109 33.3692 229.109 33.3699 229.109 33.3705C229.109 33.3711 229.109 33.3718 229.109 33.3724C229.109 33.373 229.109 33.3737 229.109 33.3743C229.109 33.3749 229.109 33.3756 229.109 33.3762C229.109 33.3768 229.109 33.3775 229.109 33.3781C229.109 33.3787 229.109 33.3794 229.109 33.38C229.109 33.3806 229.109 33.3813 229.109 33.3819C229.109 33.3825 229.109 33.3832 229.109 33.3838C229.109 33.3844 229.109 33.3851 229.109 33.3857C229.109 33.3864 229.109 33.387 229.109 33.3876C229.109 33.3883 229.109 33.3889 229.109 33.3895C229.109 33.3902 229.109 33.3908 229.109 33.3914C229.109 33.3921 229.109 33.3927 229.109 33.3933C229.109 33.394 229.109 33.3946 229.109 33.3952C229.109 33.3959 229.109 33.3965 229.109 33.3971C229.109 33.3978 229.109 33.3984 229.109 33.3991C229.109 33.3997 229.109 33.4003 229.109 33.401C229.109 33.4016 229.109 33.4022 229.109 33.4029C229.109 33.4035 229.109 33.4041 229.109 33.4048C229.109 33.4054 229.109 33.406 229.109 33.4067C229.109 33.4073 229.109 33.408 229.109 33.4086C229.109 33.4092 229.109 33.4099 229.109 33.4105C229.109 33.4111 229.109 33.4118 229.109 33.4124C229.109 33.413 229.109 33.4137 229.109 33.4143C229.109 33.415 229.109 33.4156 229.109 33.4162C229.109 33.4169 229.109 33.4175 229.109 33.4181C229.109 33.4188 229.109 33.4194 229.109 33.42C229.109 33.4207 229.109 33.4213 229.109 33.422C229.109 33.4226 229.109 33.4232 229.109 33.4239C229.109 33.4245 229.109 33.4251 229.109 33.4258C229.109 33.4264 229.109 33.4271 229.109 33.4277C229.109 33.4283 229.109 33.429 229.109 33.4296C229.109 33.4302 229.109 33.4309 229.109 33.4315C229.109 33.4322 229.109 33.4328 229.109 33.4334C229.109 33.4341 229.109 33.4347 229.109 33.4353C229.109 33.436 229.109 33.4366 229.109 33.4373C229.109 33.4379 229.109 33.4385 229.109 33.4392C229.109 33.4398 229.109 33.4404 229.109 33.4411C229.109 33.4417 229.109 33.4424 229.109 33.443C229.109 33.4436 229.109 33.4443 229.109 33.4449C229.109 33.4456 229.109 33.4462 229.109 33.4468C229.109 33.4475 229.109 33.4481 229.109 33.4488C229.109 33.4494 229.109 33.45 229.109 33.4507C229.109 33.4513 229.109 33.4519 229.109 33.4526C229.109 33.4532 229.109 33.4539 229.109 33.4545C229.109 33.4551 229.109 33.4558 229.109 33.4564C229.109 33.4571 229.109 33.4577 229.109 33.4583C229.109 33.459 229.109 33.4596 229.109 33.4603C229.109 33.4609 229.109 33.4615 229.109 33.4622C229.109 33.4628 229.109 33.4635 229.109 33.4641C229.109 33.4647 229.109 33.4654 229.109 33.466C229.109 33.4667 229.109 33.4673 229.109 33.4679C229.109 33.4686 229.109 33.4692 229.109 33.4699C229.109 33.4705 229.109 33.4712 229.109 33.4718C229.109 33.4724 229.109 33.4731 229.109 33.4737C229.109 33.4744 229.109 33.475 229.109 33.4756C229.109 33.4763 229.109 33.4769 229.109 33.4776C229.109 33.4782 229.109 33.4788 229.109 33.4795C229.109 33.4801 229.109 33.4808 229.109 33.4814C229.109 33.4821 229.109 33.4827 229.109 33.4833C229.109 33.484 229.109 33.4846 229.109 33.4853C229.109 33.4859 229.109 33.4866 229.109 33.4872C229.109 33.4878 229.109 33.4885 229.109 33.4891C229.109 33.4898 229.109 33.4904 229.109 33.4911C229.109 33.4917 229.109 33.4923 229.109 33.493C229.109 33.4936 229.109 33.4943 229.109 33.4949C229.109 33.4956 229.109 33.4962 229.109 33.4968C229.109 33.4975 229.109 33.4981 229.109 33.4988C229.109 33.4994 229.109 33.5001 229.109 33.5007C229.109 33.5014 229.109 33.502 229.109 33.5026C229.109 33.5033 229.109 33.5039 229.109 33.5046C229.109 33.5052 229.109 33.5059 229.109 33.5065C229.109 33.5072 229.109 33.5078 229.109 33.5084C229.109 33.5091 229.109 33.5097 229.109 33.5104C229.109 33.511 229.109 33.5117 229.109 33.5123C229.109 33.513 229.109 33.5136 229.109 33.5143C229.109 33.5149 229.109 33.5155 229.109 33.5162C229.109 33.5168 229.109 33.5175 229.109 33.5181C229.109 33.5188 229.109 33.5194 229.109 33.5201C229.109 33.5207 229.109 33.5214 229.109 33.522C229.109 33.5227 229.109 33.5233 229.109 33.524C229.109 33.5246 229.109 33.5252 229.109 33.5259C229.109 33.5265 229.109 33.5272 229.109 33.5278C229.109 33.5285 229.109 33.5291 229.109 33.5298C229.109 33.5304 229.109 33.5311 229.109 33.5317C229.109 33.5324 229.109 33.533 229.109 33.5337C229.109 33.5343 229.109 33.535 229.109 33.5356C229.109 33.5363 229.109 33.5369 229.109 33.5376C229.109 33.5382 229.109 33.5389 229.109 33.5395C229.109 33.5402 229.109 33.5408 229.109 33.5415C229.109 33.5421 229.109 33.5427 229.109 33.5434C229.109 33.544 229.109 33.5447 229.109 33.5453C229.109 33.546 229.109 33.5466 229.109 33.5473C229.109 33.5479 229.109 33.5486 229.109 33.5492C229.109 33.5499 229.109 33.5505 229.109 33.5512C229.109 33.5519 229.109 33.5525 229.109 33.5532C229.109 33.5538 229.109 33.5545 229.109 33.5551C229.109 33.5558 229.109 33.5564 229.109 33.5571C229.109 33.5577 229.109 33.5584 229.109 33.559C229.109 33.5597 229.109 33.5603 229.109 33.561C229.109 33.5616 229.109 33.5623 229.109 33.5629C229.109 33.5636 229.109 33.5642 229.109 33.5649C229.109 33.5655 229.109 33.5662 229.109 33.5668C229.109 33.5675 229.109 33.5681 229.109 33.5688C229.109 33.5695 229.109 33.5701 229.109 33.5708C229.109 33.5714 229.109 33.5721 229.109 33.5727C229.109 33.5734 229.109 33.574 229.109 33.5747C229.109 33.5753 229.109 33.576 229.109 33.5766C229.109 33.5773 229.109 33.578 229.109 33.5786C229.109 33.5793 229.109 33.5799 229.109 33.5806C229.109 33.5812 229.109 33.5819 229.109 33.5825C229.109 33.5832 229.109 33.5839 229.109 33.5845C229.109 33.5852 229.109 33.5858 229.109 33.5865C229.109 33.5871 229.109 33.5878 229.109 33.5884C229.109 33.5891 229.109 33.5898 229.109 33.5904C229.109 33.5911 229.109 33.5917 229.109 33.5924C229.109 33.593 229.109 33.5937 229.109 33.5944C229.109 33.595 229.109 33.5957 229.109 33.5963C229.109 33.597 229.109 33.5976 229.109 33.5983C229.109 33.599 229.109 33.5996 229.109 33.6003C229.109 33.6009 229.109 33.6016 229.109 33.6023C229.109 33.6029 229.109 33.6036 229.109 33.6042C229.109 33.6049 229.109 33.6055 229.109 33.6062C229.109 33.6069 229.109 33.6075 229.109 33.6082C229.109 33.6088 229.109 33.6095 229.109 33.6102C229.109 33.6108 229.109 33.6115 229.109 33.6121C229.109 33.6128 229.109 33.6135 229.109 33.6141C229.109 33.6148 229.109 33.6154 229.109 33.6161C229.109 33.6168 229.109 33.6174 229.109 33.6181C229.109 33.6188 229.109 33.6194 229.109 33.6201C229.109 33.6207 229.109 33.6214 229.109 33.6221C229.109 33.6227 229.109 33.6234 229.109 33.624C229.109 33.6247 229.109 33.6254 229.109 33.626C229.109 33.6267 229.109 33.6274 229.109 33.628C229.109 33.6287 229.109 33.6293 229.109 33.63C229.109 33.6307 229.109 33.6313 229.109 33.632C229.109 33.6327 229.109 33.6333 229.109 33.634C229.109 33.6347 229.109 33.6353 229.109 33.636C229.109 33.6367 229.109 33.6373 229.109 33.638C229.109 33.6386 229.109 33.6393 229.109 33.64C229.109 33.6406 229.109 33.6413 229.109 33.642C229.109 33.6426 229.109 33.6433 229.109 33.644C229.109 33.6446 229.109 33.6453 229.109 33.646C229.109 33.6466 229.109 33.6473 229.109 33.648C229.109 33.6486 229.109 33.6493 229.109 33.65C229.109 33.6506 229.109 33.6513 229.109 33.652C229.109 33.6526 229.109 33.6533 229.109 33.654C229.109 33.6546 229.109 33.6553 229.109 33.656C229.109 33.6567 229.109 33.6573 229.109 33.658C229.109 33.6587 229.109 33.6593 229.109 33.66C229.109 33.6607 229.109 33.6613 229.109 33.662C229.109 33.6627 229.109 33.6633 229.109 33.664C229.109 33.6647 229.109 33.6654 229.109 33.666C229.109 33.6667 229.109 33.6674 229.109 33.668C229.109 33.6687 229.109 33.6694 229.109 33.67C229.109 33.6707 229.109 33.6714 229.109 33.6721C229.109 33.6727 229.109 33.6734 229.109 33.6741C229.109 33.6747 229.109 33.6754 229.109 33.6761C229.109 33.6768 229.109 33.6774 229.109 33.6781C229.109 33.6788 229.109 33.6795 229.109 33.6801C229.109 33.6808 229.109 33.6815 229.109 33.6821C229.109 33.6828 229.109 33.6835 229.109 33.6842C229.109 33.6848 229.109 33.6855 229.109 33.6862C229.109 33.6869 229.109 33.6875 229.109 33.6882C229.109 33.6889 229.109 33.6896 229.109 33.6902C229.109 33.6909 229.109 33.6916 229.109 33.6923C229.109 33.6929 229.109 33.6936 229.109 33.6943C229.109 33.695 229.109 33.6956 229.109 33.6963C229.109 33.697 229.109 33.6977 229.109 33.6984C229.109 33.699 229.109 33.6997 229.109 33.7004C229.109 33.7011 229.109 33.7017 229.109 33.7024C229.109 33.7031 229.109 33.7038 229.109 33.7045C229.109 33.7051 229.109 33.7058 229.109 33.7065C229.109 33.7072 229.109 33.7078 229.109 33.7085C229.109 33.7092 229.109 33.7099 229.109 33.7106C229.109 33.7112 229.109 33.7119 229.109 33.7126C229.109 33.7133 229.109 33.714 229.109 33.7146C229.109 33.7153 229.109 33.716 229.109 33.7167C229.109 33.7174 229.109 33.7181 229.109 33.7187C229.109 33.7194 229.109 33.7201 229.109 33.7208C229.109 33.7215 229.109 33.7221 229.109 33.7228C229.109 33.7235 229.109 33.7242 229.109 33.7249C229.109 33.7256 229.109 33.7262 229.109 33.7269C229.109 33.7276 229.109 33.7283 229.109 33.729C229.109 33.7297 229.109 33.7303 229.109 33.731C229.109 33.7317 229.109 33.7324 229.109 33.7331C229.109 33.7338 229.109 33.7344 229.109 33.7351C229.109 33.7358 229.109 33.7365 229.109 33.7372C229.109 33.7379 229.109 33.7386 229.109 33.7392C229.109 33.7399 229.109 33.7406 229.109 33.7413C229.109 33.742 229.109 33.7427 229.109 33.7434C229.109 33.7441 229.109 33.7447 229.109 33.7454C229.109 33.7461 229.109 33.7468 229.109 33.7475C229.109 33.7482 229.109 33.7489 229.109 33.7496C229.109 33.7502 229.109 33.7509 229.109 33.7516C229.109 33.7523 229.109 33.753 229.109 33.7537C229.109 33.7544 229.109 33.7551 229.109 33.7558C229.109 33.7565 229.109 33.7571 229.109 33.7578C229.109 33.7585 229.109 33.7592 229.109 33.7599C229.109 33.7606 229.109 33.7613 229.109 33.762C229.109 33.7627 229.109 33.7634 229.109 33.7641C229.109 33.7647 229.109 33.7654 229.109 33.7661C229.109 33.7668 229.109 33.7675 229.109 33.7682C229.109 33.7689 229.109 33.7696 229.109 33.7703C229.109 33.771 229.109 33.7717 229.109 33.7724C229.109 33.7731 229.109 33.7738 229.109 33.7745C229.109 33.7751 229.109 33.7758 229.109 33.7765C229.109 33.7772 229.109 33.7779 229.109 33.7786C229.109 33.7793 229.109 33.78 229.109 33.7807C229.109 33.7814 229.109 33.7821 229.109 33.7828C229.109 33.7835 229.109 33.7842 229.109 33.7849C229.109 33.7856 229.109 33.7863 229.109 33.787C229.109 33.7877 229.109 33.7884 229.109 33.7891C229.109 33.7898 229.109 33.7905 229.109 33.7912C229.109 33.7919 229.109 33.7926 229.109 33.7933C229.109 33.794 229.109 33.7947 229.109 33.7954C229.109 33.7961 229.109 33.7968 229.109 33.7975C229.109 33.7982 229.109 33.7989 229.109 33.7996C229.109 33.8003 229.109 33.801 229.109 33.8017C229.109 33.8024 229.109 33.8031 229.109 33.8038C229.109 33.8045 229.109 33.8052 229.109 33.8059C229.109 33.8066 229.109 33.8073 229.109 33.808H230.109C230.109 33.8073 230.109 33.8066 230.109 33.8059C230.109 33.8052 230.109 33.8045 230.109 33.8038C230.109 33.8031 230.109 33.8024 230.109 33.8017C230.109 33.801 230.109 33.8003 230.109 33.7996C230.109 33.7989 230.109 33.7982 230.109 33.7975C230.109 33.7968 230.109 33.7961 230.109 33.7954C230.109 33.7947 230.109 33.794 230.109 33.7933C230.109 33.7926 230.109 33.7919 230.109 33.7912C230.109 33.7905 230.109 33.7898 230.109 33.7891C230.109 33.7884 230.109 33.7877 230.109 33.787C230.109 33.7863 230.109 33.7856 230.109 33.7849C230.109 33.7842 230.109 33.7835 230.109 33.7828C230.109 33.7821 230.109 33.7814 230.109 33.7807C230.109 33.78 230.109 33.7793 230.109 33.7786C230.109 33.7779 230.109 33.7772 230.109 33.7765C230.109 33.7758 230.109 33.7751 230.109 33.7745C230.109 33.7738 230.109 33.7731 230.109 33.7724C230.109 33.7717 230.109 33.771 230.109 33.7703C230.109 33.7696 230.109 33.7689 230.109 33.7682C230.109 33.7675 230.109 33.7668 230.109 33.7661C230.109 33.7654 230.109 33.7647 230.109 33.7641C230.109 33.7634 230.109 33.7627 230.109 33.762C230.109 33.7613 230.109 33.7606 230.109 33.7599C230.109 33.7592 230.109 33.7585 230.109 33.7578C230.109 33.7571 230.109 33.7565 230.109 33.7558C230.109 33.7551 230.109 33.7544 230.109 33.7537C230.109 33.753 230.109 33.7523 230.109 33.7516C230.109 33.7509 230.109 33.7502 230.109 33.7496C230.109 33.7489 230.109 33.7482 230.109 33.7475C230.109 33.7468 230.109 33.7461 230.109 33.7454C230.109 33.7447 230.109 33.7441 230.109 33.7434C230.109 33.7427 230.109 33.742 230.109 33.7413C230.109 33.7406 230.109 33.7399 230.109 33.7392C230.109 33.7386 230.109 33.7379 230.109 33.7372C230.109 33.7365 230.109 33.7358 230.109 33.7351C230.109 33.7344 230.109 33.7338 230.109 33.7331C230.109 33.7324 230.109 33.7317 230.109 33.731C230.109 33.7303 230.109 33.7297 230.109 33.729C230.109 33.7283 230.109 33.7276 230.109 33.7269C230.109 33.7262 230.109 33.7256 230.109 33.7249C230.109 33.7242 230.109 33.7235 230.109 33.7228C230.109 33.7221 230.109 33.7215 230.109 33.7208C230.109 33.7201 230.109 33.7194 230.109 33.7187C230.109 33.7181 230.109 33.7174 230.109 33.7167C230.109 33.716 230.109 33.7153 230.109 33.7146C230.109 33.714 230.109 33.7133 230.109 33.7126C230.109 33.7119 230.109 33.7112 230.109 33.7106C230.109 33.7099 230.109 33.7092 230.109 33.7085C230.109 33.7078 230.109 33.7072 230.109 33.7065C230.109 33.7058 230.109 33.7051 230.109 33.7045C230.109 33.7038 230.109 33.7031 230.109 33.7024C230.109 33.7017 230.109 33.7011 230.109 33.7004C230.109 33.6997 230.109 33.699 230.109 33.6984C230.109 33.6977 230.109 33.697 230.109 33.6963C230.109 33.6956 230.109 33.695 230.109 33.6943C230.109 33.6936 230.109 33.6929 230.109 33.6923C230.109 33.6916 230.109 33.6909 230.109 33.6902C230.109 33.6896 230.109 33.6889 230.109 33.6882C230.109 33.6875 230.109 33.6869 230.109 33.6862C230.109 33.6855 230.109 33.6848 230.109 33.6842C230.109 33.6835 230.109 33.6828 230.109 33.6821C230.109 33.6815 230.109 33.6808 230.109 33.6801C230.109 33.6795 230.109 33.6788 230.109 33.6781C230.109 33.6774 230.109 33.6768 230.109 33.6761C230.109 33.6754 230.109 33.6747 230.109 33.6741C230.109 33.6734 230.109 33.6727 230.109 33.6721C230.109 33.6714 230.109 33.6707 230.109 33.67C230.109 33.6694 230.109 33.6687 230.109 33.668C230.109 33.6674 230.109 33.6667 230.109 33.666C230.109 33.6654 230.109 33.6647 230.109 33.664C230.109 33.6633 230.109 33.6627 230.109 33.662C230.109 33.6613 230.109 33.6607 230.109 33.66C230.109 33.6593 230.109 33.6587 230.109 33.658C230.109 33.6573 230.109 33.6567 230.109 33.656C230.109 33.6553 230.109 33.6546 230.109 33.654C230.109 33.6533 230.109 33.6526 230.109 33.652C230.109 33.6513 230.109 33.6506 230.109 33.65C230.109 33.6493 230.109 33.6486 230.109 33.648C230.109 33.6473 230.109 33.6466 230.109 33.646C230.109 33.6453 230.109 33.6446 230.109 33.644C230.109 33.6433 230.109 33.6426 230.109 33.642C230.109 33.6413 230.109 33.6406 230.109 33.64C230.109 33.6393 230.109 33.6386 230.109 33.638C230.109 33.6373 230.109 33.6367 230.109 33.636C230.109 33.6353 230.109 33.6347 230.109 33.634C230.109 33.6333 230.109 33.6327 230.109 33.632C230.109 33.6313 230.109 33.6307 230.109 33.63C230.109 33.6293 230.109 33.6287 230.109 33.628C230.109 33.6274 230.109 33.6267 230.109 33.626C230.109 33.6254 230.109 33.6247 230.109 33.624C230.109 33.6234 230.109 33.6227 230.109 33.6221C230.109 33.6214 230.109 33.6207 230.109 33.6201C230.109 33.6194 230.109 33.6188 230.109 33.6181C230.109 33.6174 230.109 33.6168 230.109 33.6161C230.109 33.6154 230.109 33.6148 230.109 33.6141C230.109 33.6135 230.109 33.6128 230.109 33.6121C230.109 33.6115 230.109 33.6108 230.109 33.6102C230.109 33.6095 230.109 33.6088 230.109 33.6082C230.109 33.6075 230.109 33.6069 230.109 33.6062C230.109 33.6055 230.109 33.6049 230.109 33.6042C230.109 33.6036 230.109 33.6029 230.109 33.6023C230.109 33.6016 230.109 33.6009 230.109 33.6003C230.109 33.5996 230.109 33.599 230.109 33.5983C230.109 33.5976 230.109 33.597 230.109 33.5963C230.109 33.5957 230.109 33.595 230.109 33.5944C230.109 33.5937 230.109 33.593 230.109 33.5924C230.109 33.5917 230.109 33.5911 230.109 33.5904C230.109 33.5898 230.109 33.5891 230.109 33.5884C230.109 33.5878 230.109 33.5871 230.109 33.5865C230.109 33.5858 230.109 33.5852 230.109 33.5845C230.109 33.5839 230.109 33.5832 230.109 33.5825C230.109 33.5819 230.109 33.5812 230.109 33.5806C230.109 33.5799 230.109 33.5793 230.109 33.5786C230.109 33.578 230.109 33.5773 230.109 33.5766C230.109 33.576 230.109 33.5753 230.109 33.5747C230.109 33.574 230.109 33.5734 230.109 33.5727C230.109 33.5721 230.109 33.5714 230.109 33.5708C230.109 33.5701 230.109 33.5695 230.109 33.5688C230.109 33.5681 230.109 33.5675 230.109 33.5668C230.109 33.5662 230.109 33.5655 230.109 33.5649C230.109 33.5642 230.109 33.5636 230.109 33.5629C230.109 33.5623 230.109 33.5616 230.109 33.561C230.109 33.5603 230.109 33.5597 230.109 33.559C230.109 33.5584 230.109 33.5577 230.109 33.5571C230.109 33.5564 230.109 33.5558 230.109 33.5551C230.109 33.5545 230.109 33.5538 230.109 33.5532C230.109 33.5525 230.109 33.5519 230.109 33.5512C230.109 33.5505 230.109 33.5499 230.109 33.5492C230.109 33.5486 230.109 33.5479 230.109 33.5473C230.109 33.5466 230.109 33.546 230.109 33.5453C230.109 33.5447 230.109 33.544 230.109 33.5434C230.109 33.5427 230.109 33.5421 230.109 33.5415C230.109 33.5408 230.109 33.5402 230.109 33.5395C230.109 33.5389 230.109 33.5382 230.109 33.5376C230.109 33.5369 230.109 33.5363 230.109 33.5356C230.109 33.535 230.109 33.5343 230.109 33.5337C230.109 33.533 230.109 33.5324 230.109 33.5317C230.109 33.5311 230.109 33.5304 230.109 33.5298C230.109 33.5291 230.109 33.5285 230.109 33.5278C230.109 33.5272 230.109 33.5265 230.109 33.5259C230.109 33.5252 230.109 33.5246 230.109 33.524C230.109 33.5233 230.109 33.5227 230.109 33.522C230.109 33.5214 230.109 33.5207 230.109 33.5201C230.109 33.5194 230.109 33.5188 230.109 33.5181C230.109 33.5175 230.109 33.5168 230.109 33.5162C230.109 33.5155 230.109 33.5149 230.109 33.5143C230.109 33.5136 230.109 33.513 230.109 33.5123C230.109 33.5117 230.109 33.511 230.109 33.5104C230.109 33.5097 230.109 33.5091 230.109 33.5084C230.109 33.5078 230.109 33.5072 230.109 33.5065C230.109 33.5059 230.109 33.5052 230.109 33.5046C230.109 33.5039 230.109 33.5033 230.109 33.5026C230.109 33.502 230.109 33.5014 230.109 33.5007C230.109 33.5001 230.109 33.4994 230.109 33.4988C230.109 33.4981 230.109 33.4975 230.109 33.4968C230.109 33.4962 230.109 33.4956 230.109 33.4949C230.109 33.4943 230.109 33.4936 230.109 33.493C230.109 33.4923 230.109 33.4917 230.109 33.4911C230.109 33.4904 230.109 33.4898 230.109 33.4891C230.109 33.4885 230.109 33.4878 230.109 33.4872C230.109 33.4866 230.109 33.4859 230.109 33.4853C230.109 33.4846 230.109 33.484 230.109 33.4833C230.109 33.4827 230.109 33.4821 230.109 33.4814C230.109 33.4808 230.109 33.4801 230.109 33.4795C230.109 33.4788 230.109 33.4782 230.109 33.4776C230.109 33.4769 230.109 33.4763 230.109 33.4756C230.109 33.475 230.109 33.4744 230.109 33.4737C230.109 33.4731 230.109 33.4724 230.109 33.4718C230.109 33.4712 230.109 33.4705 230.109 33.4699C230.109 33.4692 230.109 33.4686 230.109 33.4679C230.109 33.4673 230.109 33.4667 230.109 33.466C230.109 33.4654 230.109 33.4647 230.109 33.4641C230.109 33.4635 230.109 33.4628 230.109 33.4622C230.109 33.4615 230.109 33.4609 230.109 33.4603C230.109 33.4596 230.109 33.459 230.109 33.4583C230.109 33.4577 230.109 33.4571 230.109 33.4564C230.109 33.4558 230.109 33.4551 230.109 33.4545C230.109 33.4539 230.109 33.4532 230.109 33.4526C230.109 33.4519 230.109 33.4513 230.109 33.4507C230.109 33.45 230.109 33.4494 230.109 33.4488C230.109 33.4481 230.109 33.4475 230.109 33.4468C230.109 33.4462 230.109 33.4456 230.109 33.4449C230.109 33.4443 230.109 33.4436 230.109 33.443C230.109 33.4424 230.109 33.4417 230.109 33.4411C230.109 33.4404 230.109 33.4398 230.109 33.4392C230.109 33.4385 230.109 33.4379 230.109 33.4373C230.109 33.4366 230.109 33.436 230.109 33.4353C230.109 33.4347 230.109 33.4341 230.109 33.4334C230.109 33.4328 230.109 33.4322 230.109 33.4315C230.109 33.4309 230.109 33.4302 230.109 33.4296C230.109 33.429 230.109 33.4283 230.109 33.4277C230.109 33.4271 230.109 33.4264 230.109 33.4258C230.109 33.4251 230.109 33.4245 230.109 33.4239C230.109 33.4232 230.109 33.4226 230.109 33.422C230.109 33.4213 230.109 33.4207 230.109 33.42C230.109 33.4194 230.109 33.4188 230.109 33.4181C230.109 33.4175 230.109 33.4169 230.109 33.4162C230.109 33.4156 230.109 33.415 230.109 33.4143C230.109 33.4137 230.109 33.413 230.109 33.4124C230.109 33.4118 230.109 33.4111 230.109 33.4105C230.109 33.4099 230.109 33.4092 230.109 33.4086C230.109 33.408 230.109 33.4073 230.109 33.4067C230.109 33.406 230.109 33.4054 230.109 33.4048C230.109 33.4041 230.109 33.4035 230.109 33.4029C230.109 33.4022 230.109 33.4016 230.109 33.401C230.109 33.4003 230.109 33.3997 230.109 33.3991C230.109 33.3984 230.109 33.3978 230.109 33.3971C230.109 33.3965 230.109 33.3959 230.109 33.3952C230.109 33.3946 230.109 33.394 230.109 33.3933C230.109 33.3927 230.109 33.3921 230.109 33.3914C230.109 33.3908 230.109 33.3902 230.109 33.3895C230.109 33.3889 230.109 33.3883 230.109 33.3876C230.109 33.387 230.109 33.3864 230.109 33.3857C230.109 33.3851 230.109 33.3844 230.109 33.3838C230.109 33.3832 230.109 33.3825 230.109 33.3819C230.109 33.3813 230.109 33.3806 230.109 33.38C230.109 33.3794 230.109 33.3787 230.109 33.3781C230.109 33.3775 230.109 33.3768 230.109 33.3762C230.109 33.3756 230.109 33.3749 230.109 33.3743C230.109 33.3737 230.109 33.373 230.109 33.3724C230.109 33.3718 230.109 33.3711 230.109 33.3705C230.109 33.3699 230.109 33.3692 230.109 33.3686C230.109 33.368 230.109 33.3673 230.109 33.3667C230.109 33.3661 230.109 33.3654 230.109 33.3648C230.109 33.3641 230.109 33.3635 230.109 33.3629C230.109 33.3622 230.109 33.3616 230.109 33.361C230.109 33.3603 230.109 33.3597 230.109 33.3591C230.109 33.3584 230.109 33.3578 230.109 33.3572C230.109 33.3565 230.109 33.3559 230.109 33.3553C230.109 33.3546 230.109 33.354 230.109 33.3534C230.109 33.3527 230.109 33.3521 230.109 33.3515C230.109 33.3508 230.109 33.3502 230.109 33.3496C230.109 33.3489 230.109 33.3483 230.109 33.3477C230.109 33.347 230.109 33.3464 230.109 33.3458C230.109 33.3451 230.109 33.3445 230.109 33.3439C230.109 33.3432 230.109 33.3426 230.109 33.342C230.109 33.3413 230.109 33.3407 230.109 33.3401C230.109 33.3394 230.109 33.3388 230.109 33.3382C230.109 33.3375 230.109 33.3369 230.109 33.3363C230.109 33.3356 230.109 33.335 230.109 33.3344C230.109 33.3337 230.109 33.3331 230.109 33.3325C230.109 33.3318 230.109 33.3312 230.109 33.3306C230.109 33.3299 230.109 33.3293 230.109 33.3287C230.109 33.328 230.109 33.3274 230.109 33.3268C230.109 33.3261 230.109 33.3255 230.109 33.3249C230.109 33.3242 230.109 33.3236 230.109 33.323C230.109 33.3224 230.109 33.3217 230.109 33.3211C230.109 33.3205 230.109 33.3198 230.109 33.3192C230.109 33.3186 230.109 33.3179 230.109 33.3173C230.109 33.3167 230.109 33.316 230.109 33.3154C230.109 33.3148 230.109 33.3141 230.109 33.3135C230.109 33.3129 230.109 33.3122 230.109 33.3116C230.109 33.311 230.109 33.3103 230.109 33.3097C230.109 33.3091 230.109 33.3084 230.109 33.3078C230.109 33.3072 230.109 33.3065 230.109 33.3059C230.109 33.3053 230.109 33.3046 230.109 33.304C230.109 33.3034 230.109 33.3027 230.109 33.3021C230.109 33.3015 230.109 33.3008 230.109 33.3002C230.109 33.2996 230.109 33.2989 230.109 33.2983C230.109 33.2977 230.109 33.297 230.109 33.2964C230.109 33.2958 230.109 33.2951 230.109 33.2945C230.109 33.2939 230.109 33.2932 230.109 33.2926C230.109 33.292 230.109 33.2913 230.109 33.2907C230.109 33.2901 230.109 33.2894 230.109 33.2888C230.109 33.2882 230.109 33.2875 230.109 33.2869C230.109 33.2863 230.109 33.2856 230.109 33.285C230.109 33.2844 230.109 33.2837 230.109 33.2831C230.109 33.2825 230.109 33.2818 230.109 33.2812C230.109 33.2806 230.109 33.2799 230.109 33.2793C230.109 33.2787 230.109 33.2781 230.109 33.2774C230.109 33.2768 230.109 33.2762 230.109 33.2755C230.109 33.2749 230.109 33.2743 230.109 33.2736C230.109 33.273 230.109 33.2724 230.109 33.2717C230.109 33.2711 230.109 33.2705 230.109 33.2698C230.109 33.2692 230.109 33.2686 230.109 33.2679C230.109 33.2673 230.109 33.2667 230.109 33.266C230.109 33.2654 230.109 33.2648 230.109 33.2641C230.109 33.2635 230.109 33.2629 230.109 33.2622C230.109 33.2616 230.109 33.261 230.109 33.2603C230.109 33.2597 230.109 33.2591 230.109 33.2584C230.109 33.2578 230.109 33.2572 230.109 33.2565C230.109 33.2559 230.109 33.2553 230.109 33.2546C230.109 33.254 230.109 33.2534 230.109 33.2527C230.109 33.2521 230.109 33.2515 230.109 33.2508C230.109 33.2502 230.109 33.2496 230.109 33.2489C230.109 33.2483 230.109 33.2476 230.109 33.247C230.109 33.2464 230.109 33.2457 230.109 33.2451C230.109 33.2445 230.109 33.2438 230.109 33.2432C230.109 33.2426 230.109 33.2419 230.109 33.2413C230.109 33.2407 230.109 33.24 230.109 33.2394C230.109 33.2388 230.109 33.2381 230.109 33.2375C230.109 33.2369 230.109 33.2362 230.109 33.2356C230.109 33.235 230.109 33.2343 230.109 33.2337C230.109 33.2331 230.109 33.2324 230.109 33.2318C230.109 33.2312 230.109 33.2305 230.109 33.2299C230.109 33.2293 230.109 33.2286 230.109 33.228C230.109 33.2274 230.109 33.2267 230.109 33.2261C230.109 33.2255 230.109 33.2248 230.109 33.2242C230.109 33.2235 230.109 33.2229 230.109 33.2223C230.109 33.2216 230.109 33.221 230.109 33.2204C230.109 33.2197 230.109 33.2191 230.109 33.2185C230.109 33.2178 230.109 33.2172 230.109 33.2166C230.109 33.2159 230.109 33.2153 230.109 33.2147C230.109 33.214 230.109 33.2134 230.109 33.2128C230.109 33.2121 230.109 33.2115 230.109 33.2108C230.109 33.2102 230.109 33.2096 230.109 33.2089C230.109 33.2083 230.109 33.2077 230.109 33.207C230.109 33.2064 230.109 33.2058 230.109 33.2051C230.109 33.2045 230.109 33.2039 230.109 33.2032C230.109 33.2026 230.109 33.2019 230.109 33.2013C230.109 33.2007 230.109 33.2 230.109 33.1994C230.109 33.1988 230.109 33.1981 230.109 33.1975C230.109 33.1969 230.109 33.1962 230.109 33.1956C230.109 33.195 230.109 33.1943 230.109 33.1937C230.109 33.193 230.109 33.1924 230.109 33.1918C230.109 33.1911 230.109 33.1905 230.109 33.1899C230.109 33.1892 230.109 33.1886 230.109 33.1879C230.109 33.1873 230.109 33.1867 230.109 33.186C230.109 33.1854 230.109 33.1848 230.109 33.1841C230.109 33.1835 230.109 33.1829 230.109 33.1822C230.109 33.1816 230.109 33.1809 230.109 33.1803C230.109 33.1797 230.109 33.179 230.109 33.1784C230.109 33.1778 230.109 33.1771 230.109 33.1765C230.109 33.1758 230.109 33.1752 230.109 33.1746C230.109 33.1739 230.109 33.1733 230.109 33.1727C230.109 33.172 230.109 33.1714 230.109 33.1707C230.109 33.1701 230.109 33.1695 230.109 33.1688C230.109 33.1682 230.109 33.1675 230.109 33.1669C230.109 33.1663 230.109 33.1656 230.109 33.165C230.109 33.1644 230.109 33.1637 230.109 33.1631C230.109 33.1624 230.109 33.1618 230.109 33.1612C230.109 33.1605 230.109 33.1599 230.109 33.1592C230.109 33.1586 230.109 33.158 230.109 33.1573C230.109 33.1567 230.109 33.1561 230.109 33.1554C230.109 33.1548 230.109 33.1541 230.109 33.1535C230.109 33.1529 230.109 33.1522 230.109 33.1516C230.109 33.1509 230.109 33.1503 230.109 33.1497C230.109 33.149 230.109 33.1484 230.109 33.1477C230.109 33.1471 230.109 33.1465 230.109 33.1458C230.109 33.1452 230.109 33.1445 230.109 33.1439C230.109 33.1433 230.109 33.1426 230.109 33.142C230.109 33.1413 230.109 33.1407 230.109 33.1401C230.109 33.1394 230.109 33.1388 230.109 33.1381C230.109 33.1375 230.109 33.1368 230.109 33.1362C230.109 33.1356 230.109 33.1349 230.109 33.1343C230.109 33.1336 230.109 33.133 230.109 33.1324C230.109 33.1317 230.109 33.1311 230.109 33.1304C230.109 33.1298 230.109 33.1291 230.109 33.1285C230.109 33.1279 230.109 33.1272 230.109 33.1266C230.109 33.1259 230.109 33.1253 230.109 33.1247C230.109 33.124 230.109 33.1234 230.109 33.1227C230.109 33.1221 230.109 33.1214 230.109 33.1208C230.109 33.1202 230.109 33.1195 230.109 33.1189C230.109 33.1182 230.109 33.1176 230.109 33.1169C230.109 33.1163 230.109 33.1157 230.109 33.115C230.109 33.1144 230.109 33.1137 230.109 33.1131C230.109 33.1124 230.109 33.1118 230.109 33.1112C230.109 33.1105 230.109 33.1099 230.109 33.1092C230.109 33.1086 230.109 33.1079 230.109 33.1073C230.109 33.1066 230.109 33.106 230.109 33.1054C230.109 33.1047 230.109 33.1041 230.109 33.1034C230.109 33.1028 230.109 33.1021 230.109 33.1015C230.109 33.1008 230.109 33.1002 230.109 33.0996C230.109 33.0989 230.109 33.0983 230.109 33.0976C230.109 33.097 230.109 33.0963 230.109 33.0957C230.109 33.095 230.109 33.0944 230.109 33.0937C230.109 33.0931 230.109 33.0925 230.109 33.0918C230.109 33.0912 230.109 33.0905 230.109 33.0899C230.109 33.0892 230.109 33.0886 230.109 33.0879C230.109 33.0873 230.109 33.0866 230.109 33.086C230.109 33.0853 230.109 33.0847 230.109 33.084C230.109 33.0834 230.109 33.0828 230.109 33.0821C230.109 33.0815 230.109 33.0808 230.109 33.0802C230.109 33.0795 230.109 33.0789 230.109 33.0782C230.109 33.0776 230.109 33.0769 230.109 33.0763C230.109 33.0756 230.109 33.075 230.109 33.0743C230.109 33.0737 230.109 33.073 230.109 33.0724C230.109 33.0717 230.109 33.0711 230.109 33.0704C230.109 33.0698 230.109 33.0691 230.109 33.0685C230.109 33.0678 230.109 33.0672 230.109 33.0665C230.109 33.0659 230.109 33.0652 230.109 33.0646C230.109 33.0639 230.109 33.0633 230.109 33.0626C230.109 33.062 230.109 33.0613 230.109 33.0607C230.109 33.06 230.109 33.0594 230.109 33.0587C230.109 33.0581 230.109 33.0574 230.109 33.0568C230.109 33.0561 230.109 33.0555 230.109 33.0548C230.109 33.0542 230.109 33.0535 230.109 33.0529C230.109 33.0522 230.109 33.0516 230.109 33.0509C230.109 33.0503 230.109 33.0496 230.109 33.049C230.109 33.0483 230.109 33.0477 230.109 33.047C230.109 33.0464 230.109 33.0457 230.109 33.0451C230.109 33.0444 230.109 33.0438 230.109 33.0431C230.109 33.0425 230.109 33.0418 230.109 33.0412C230.109 33.0405 230.109 33.0398 230.109 33.0392C230.109 33.0385 230.109 33.0379 230.109 33.0372C230.109 33.0366 230.109 33.0359 230.109 33.0353C230.109 33.0346 230.109 33.034 230.109 33.0333C230.109 33.0327 230.109 33.032 230.109 33.0313C230.109 33.0307 230.109 33.03 230.109 33.0294C230.109 33.0287 230.109 33.0281 230.109 33.0274C230.109 33.0268 230.109 33.0261 230.109 33.0255C230.109 33.0248 230.109 33.0241 230.109 33.0235C230.109 33.0228 230.109 33.0222 230.109 33.0215C230.109 33.0209 230.109 33.0202 230.109 33.0196C230.109 33.0189 230.109 33.0182 230.109 33.0176C230.109 33.0169 230.109 33.0163 230.109 33.0156C230.109 33.015 230.109 33.0143 230.109 33.0136C230.109 33.013 230.109 33.0123 230.109 33.0117C230.109 33.011 230.109 33.0104 230.109 33.0097C230.109 33.009 230.109 33.0084 230.109 33.0077C230.109 33.0071 230.109 33.0064 230.109 33.0057C230.109 33.0051 230.109 33.0044 230.109 33.0038C230.109 33.0031 230.109 33.0025 230.109 33.0018C230.109 33.0011 230.109 33.0005 230.109 32.9998C230.109 32.9992 230.109 32.9985 230.109 32.9978C230.109 32.9972 230.109 32.9965 230.109 32.9959C230.109 32.9952 230.109 32.9945 230.109 32.9939C230.109 32.9932 230.109 32.9926 230.109 32.9919C230.109 32.9912 230.109 32.9906 230.109 32.9899C230.109 32.9892 230.109 32.9886 230.109 32.9879C230.109 32.9873 230.109 32.9866 230.109 32.9859C230.109 32.9853 230.109 32.9846 230.109 32.9839C230.109 32.9833 230.109 32.9826 230.109 32.982C230.109 32.9813 230.109 32.9806 230.109 32.98C230.109 32.9793 230.109 32.9786 230.109 32.978C230.109 32.9773 230.109 32.9767 230.109 32.976C230.109 32.9753 230.109 32.9747 230.109 32.974C230.109 32.9733 230.109 32.9727 230.109 32.972C230.109 32.9713 230.109 32.9707 230.109 32.97C230.109 32.9693 230.109 32.9687 230.109 32.968C230.109 32.9674 230.109 32.9667 230.109 32.966C230.109 32.9654 230.109 32.9647 230.109 32.964C230.109 32.9634 230.109 32.9627 230.109 32.962C230.109 32.9614 230.109 32.9607 230.109 32.96C230.109 32.9594 230.109 32.9587 230.109 32.958C230.109 32.9574 230.109 32.9567 230.109 32.956C230.109 32.9554 230.109 32.9547 230.109 32.954C230.109 32.9534 230.109 32.9527 230.109 32.952C230.109 32.9513 230.109 32.9507 230.109 32.95C230.109 32.9493 230.109 32.9487 230.109 32.948C230.109 32.9473 230.109 32.9467 230.109 32.946C230.109 32.9453 230.109 32.9447 230.109 32.944C230.109 32.9433 230.109 32.9426 230.109 32.942C230.109 32.9413 230.109 32.9406 230.109 32.94C230.109 32.9393 230.109 32.9386 230.109 32.938C230.109 32.9373 230.109 32.9366 230.109 32.9359C230.109 32.9353 230.109 32.9346 230.109 32.9339C230.109 32.9332 230.109 32.9326 230.109 32.9319C230.109 32.9312 230.109 32.9306 230.109 32.9299C230.109 32.9292 230.109 32.9285 230.109 32.9279C230.109 32.9272 230.109 32.9265 230.109 32.9258C230.109 32.9252 230.109 32.9245 230.109 32.9238C230.109 32.9232 230.109 32.9225 230.109 32.9218C230.109 32.9211 230.109 32.9205 230.109 32.9198C230.109 32.9191 230.109 32.9184 230.109 32.9178C230.109 32.9171 230.109 32.9164 230.109 32.9157C230.109 32.9151 230.109 32.9144 230.109 32.9137C230.109 32.913 230.109 32.9123 230.109 32.9117C230.109 32.911 230.109 32.9103 230.109 32.9096C230.109 32.909 230.109 32.9083 230.109 32.9076C230.109 32.9069 230.109 32.9063 230.109 32.9056C230.109 32.9049 230.109 32.9042 230.109 32.9035C230.109 32.9029 230.109 32.9022 230.109 32.9015C230.109 32.9008 230.109 32.9001 230.109 32.8995C230.109 32.8988 230.109 32.8981 230.109 32.8974C230.109 32.8968 230.109 32.8961 230.109 32.8954C230.109 32.8947 230.109 32.894 230.109 32.8933C230.109 32.8927 230.109 32.892 230.109 32.8913C230.109 32.8906 230.109 32.8899 230.109 32.8893C230.109 32.8886 230.109 32.8879 230.109 32.8872C230.109 32.8865 230.109 32.8859 230.109 32.8852C230.109 32.8845 230.109 32.8838 230.109 32.8831C230.109 32.8824 230.109 32.8818 230.109 32.8811C230.109 32.8804 230.109 32.8797 230.109 32.879C230.109 32.8783 230.109 32.8777 230.109 32.877C230.109 32.8763 230.109 32.8756 230.109 32.8749C230.109 32.8742 230.109 32.8735 230.109 32.8729C230.109 32.8722 230.109 32.8715 230.109 32.8708C230.109 32.8701 230.109 32.8694 230.109 32.8687C230.109 32.8681 230.109 32.8674 230.109 32.8667C230.109 32.866 230.109 32.8653 230.109 32.8646C230.109 32.8639 230.109 32.8633 230.109 32.8626C230.109 32.8619 230.109 32.8612 230.109 32.8605C230.109 32.8598 230.109 32.8591 230.109 32.8584C230.109 32.8577 230.109 32.8571 230.109 32.8564C230.109 32.8557 230.109 32.855 230.109 32.8543C230.109 32.8536 230.109 32.8529 230.109 32.8522C230.109 32.8515 230.109 32.8509 230.109 32.8502C230.109 32.8495 230.109 32.8488 230.109 32.8481C230.109 32.8474 230.109 32.8467 230.109 32.846C230.109 32.8453 230.109 32.8446 230.109 32.8439C230.109 32.8432 230.109 32.8426 230.109 32.8419C230.109 32.8412 230.109 32.8405 230.109 32.8398C230.109 32.8391 230.109 32.8384 230.109 32.8377C230.109 32.837 230.109 32.8363 230.109 32.8356C230.109 32.8349 230.109 32.8342 230.109 32.8335C230.109 32.8328 230.109 32.8322 230.109 32.8315C230.109 32.8308 230.109 32.8301 230.109 32.8294C230.109 32.8287 230.109 32.828 230.109 32.8273C230.109 32.8266 230.109 32.8259 230.109 32.8252C230.109 32.8245 230.109 32.8238 230.109 32.8231C230.109 32.8224 230.109 32.8217 230.109 32.821C230.109 32.8203 230.109 32.8196 230.109 32.8189C230.109 32.8182 230.109 32.8175 230.109 32.8168C230.109 32.8161 230.109 32.8154 230.109 32.8147C230.109 32.814 230.109 32.8133 230.109 32.8126C230.109 32.8119 230.109 32.8112 230.109 32.8105C230.109 32.8098 230.109 32.8091 230.109 32.8084C230.109 32.8077 230.109 32.807 230.109 32.8063C230.109 32.8056 230.109 32.8049 230.109 32.8042C230.109 32.8035 230.109 32.8028 230.109 32.8021C230.109 32.8014 230.109 32.8007 230.109 32.8H229.109ZM229.619 34.3079C234.663 34.199 238.316 33.2389 240.708 31.181C243.12 29.1053 244.149 26.0019 244.149 21.856H243.149C243.149 25.8461 242.161 28.6107 240.055 30.423C237.929 32.2531 234.562 33.201 229.598 33.3081L229.619 34.3079ZM244.149 21.856C244.149 18.2063 243.493 15.0863 242.22 12.8597C240.935 10.6149 239.005 9.26 236.521 9.26V10.26C238.572 10.26 240.206 11.3531 241.352 13.3563C242.508 15.3777 243.149 18.3057 243.149 21.856H244.149Z" fill="#87FFF1" mask="url(#path-3-outside-1_1232_1158)"/>
<defs>
<filter id="filter0_d_1232_1158" x="0.160156" y="4.16016" width="267.6" height="60.2793" filterUnits="userSpaceOnUse" color-interpolation-filters="sRGB">
<feFlood flood-opacity="0" result="BackgroundImageFix"/>
<feColorMatrix in="SourceAlpha" type="matrix" values="0 0 0 0 0 0 0 0 0 0 0 0 0 0 0 0 0 0 127 0" result="hardAlpha"/>
<feOffset dx="3" dy="3"/>
<feComposite in2="hardAlpha" operator="out"/>
<feColorMatrix type="matrix" values="0 0 0 0 0 0 0 0 0 0.224376 0 0 0 0 0.659928 0 0 0 1 0"/>
<feBlend mode="normal" in2="BackgroundImageFix" result="effect1_dropShadow_1232_1158"/>
<feBlend mode="normal" in="SourceGraphic" in2="effect1_dropShadow_1232_1158" result="shape"/>
</filter>
</defs>
</svg>
