<svg width="201" height="79" viewBox="0 0 201 79" fill="none" xmlns="http://www.w3.org/2000/svg">
<g filter="url(#filter0_d_1226_1154)">
<mask id="path-1-outside-1_1226_1154" maskUnits="userSpaceOnUse" x="-1" y="4" width="201" height="58" fill="black">
<rect fill="white" x="-1" y="4" width="201" height="58"/>
<path d="M2.232 9.76C1.296 9.184 1.152 7.6 2.232 7.6H31.176C37.656 7.6 40.392 11.992 40.392 17.032C40.392 19.408 39.816 23.368 36.432 23.368C33.408 23.368 32.4 20.848 31.536 18.472C29.808 13.864 28.8 9.76 23.4 9.76C17.856 9.832 17.496 20.632 17.496 29.848C20.304 29.128 22.176 27.472 23.184 25.528C24.12 23.656 25.2 22.792 25.992 22.792C26.856 22.792 27.504 23.728 27.504 25.528V37.264C27.504 39.064 26.856 39.928 25.992 39.928C25.2 39.928 24.12 39.064 23.184 37.264C22.176 35.32 20.304 33.664 17.496 32.944C17.496 42.592 17.28 55.84 23.4 55.84C24.48 55.84 24.48 58 23.4 58H2.232C1.152 58 1.296 56.416 2.232 55.84C5.4 53.968 5.256 42.52 5.256 32.8C5.256 23.08 5.544 11.704 2.232 9.76ZM71.1872 59.44C56.7872 59.44 46.3472 48.64 46.3472 32.8C46.3472 16.96 56.7872 6.16 71.1872 6.16C85.5872 6.16 96.0272 16.96 96.0272 32.8C96.0272 48.64 85.5872 59.44 71.1872 59.44ZM61.1072 10.192C51.7472 14.512 55.3472 28.48 59.6672 37.984C63.4112 46.12 69.7472 56.128 77.3072 56.128C78.6032 56.128 79.8992 55.84 81.2672 55.192C90.6992 50.872 86.9552 37.048 82.7072 27.616C79.0352 19.48 72.6272 9.328 64.9952 9.328C63.6992 9.328 62.4032 9.616 61.1072 10.192ZM103.052 58C101.972 58 102.116 56.416 103.052 55.84C106.652 53.68 106.796 43.456 106.796 32.872C106.796 22.288 106.652 11.92 103.052 9.76C102.116 9.184 101.972 7.6 103.052 7.6H114.212C114.86 7.6 115.508 7.96 115.868 8.536L138.98 47.2C139.484 43.096 139.484 38.272 139.484 34.096C139.484 25.672 139.34 11.92 135.74 9.76C134.804 9.184 134.66 7.6 135.74 7.6H145.388C146.468 7.6 146.396 9.184 145.388 9.76C141.788 11.92 141.644 25.672 141.644 34.096C141.644 42.52 142.004 53.32 144.596 54.904C146.396 56.056 145.676 58 144.596 58H134.3C133.652 58 133.004 57.64 132.644 57.064L109.46 18.328C108.956 22.504 108.956 27.688 108.956 32.872C108.956 43.456 109.1 53.68 112.7 55.84C113.636 56.416 113.78 58 112.7 58H103.052ZM152.688 19.984C152.688 10.984 153.12 7.6 158.016 7.6H192.576C197.472 7.6 197.904 10.984 197.904 19.984C197.904 22.288 196.608 24.808 193.944 24.808C191.064 24.808 189.84 22.288 188.688 19.12C187.248 15.304 186.6 9.76 182.28 9.76C180.84 9.76 180.696 25.672 180.696 34.096C180.696 42.52 180.84 53.68 184.44 55.84C185.376 56.416 185.52 58 184.44 58H166.152C165.072 58 165.216 56.416 166.152 55.84C169.752 53.68 169.896 42.52 169.896 34.096C169.896 25.672 169.752 9.76 168.312 9.76C163.992 9.76 163.344 15.304 161.904 19.12C160.752 22.288 159.528 24.808 156.648 24.808C153.984 24.808 152.688 22.288 152.688 19.984Z"/>
</mask>
<path d="M2.232 9.76C1.296 9.184 1.152 7.6 2.232 7.6H31.176C37.656 7.6 40.392 11.992 40.392 17.032C40.392 19.408 39.816 23.368 36.432 23.368C33.408 23.368 32.4 20.848 31.536 18.472C29.808 13.864 28.8 9.76 23.4 9.76C17.856 9.832 17.496 20.632 17.496 29.848C20.304 29.128 22.176 27.472 23.184 25.528C24.12 23.656 25.2 22.792 25.992 22.792C26.856 22.792 27.504 23.728 27.504 25.528V37.264C27.504 39.064 26.856 39.928 25.992 39.928C25.2 39.928 24.12 39.064 23.184 37.264C22.176 35.32 20.304 33.664 17.496 32.944C17.496 42.592 17.28 55.84 23.4 55.84C24.48 55.84 24.48 58 23.4 58H2.232C1.152 58 1.296 56.416 2.232 55.84C5.4 53.968 5.256 42.52 5.256 32.8C5.256 23.08 5.544 11.704 2.232 9.76ZM71.1872 59.44C56.7872 59.44 46.3472 48.64 46.3472 32.8C46.3472 16.96 56.7872 6.16 71.1872 6.16C85.5872 6.16 96.0272 16.96 96.0272 32.8C96.0272 48.64 85.5872 59.44 71.1872 59.44ZM61.1072 10.192C51.7472 14.512 55.3472 28.48 59.6672 37.984C63.4112 46.12 69.7472 56.128 77.3072 56.128C78.6032 56.128 79.8992 55.84 81.2672 55.192C90.6992 50.872 86.9552 37.048 82.7072 27.616C79.0352 19.48 72.6272 9.328 64.9952 9.328C63.6992 9.328 62.4032 9.616 61.1072 10.192ZM103.052 58C101.972 58 102.116 56.416 103.052 55.84C106.652 53.68 106.796 43.456 106.796 32.872C106.796 22.288 106.652 11.92 103.052 9.76C102.116 9.184 101.972 7.6 103.052 7.6H114.212C114.86 7.6 115.508 7.96 115.868 8.536L138.98 47.2C139.484 43.096 139.484 38.272 139.484 34.096C139.484 25.672 139.34 11.92 135.74 9.76C134.804 9.184 134.66 7.6 135.74 7.6H145.388C146.468 7.6 146.396 9.184 145.388 9.76C141.788 11.92 141.644 25.672 141.644 34.096C141.644 42.52 142.004 53.32 144.596 54.904C146.396 56.056 145.676 58 144.596 58H134.3C133.652 58 133.004 57.64 132.644 57.064L109.46 18.328C108.956 22.504 108.956 27.688 108.956 32.872C108.956 43.456 109.1 53.68 112.7 55.84C113.636 56.416 113.78 58 112.7 58H103.052ZM152.688 19.984C152.688 10.984 153.12 7.6 158.016 7.6H192.576C197.472 7.6 197.904 10.984 197.904 19.984C197.904 22.288 196.608 24.808 193.944 24.808C191.064 24.808 189.84 22.288 188.688 19.12C187.248 15.304 186.6 9.76 182.28 9.76C180.84 9.76 180.696 25.672 180.696 34.096C180.696 42.52 180.84 53.68 184.44 55.84C185.376 56.416 185.52 58 184.44 58H166.152C165.072 58 165.216 56.416 166.152 55.84C169.752 53.68 169.896 42.52 169.896 34.096C169.896 25.672 169.752 9.76 168.312 9.76C163.992 9.76 163.344 15.304 161.904 19.12C160.752 22.288 159.528 24.808 156.648 24.808C153.984 24.808 152.688 22.288 152.688 19.984Z" fill="#D53400"/>
<path d="M2.232 9.76L1.1838 11.4633L1.20159 11.4743L1.2196 11.4848L2.232 9.76ZM31.536 18.472L33.4156 17.7885L33.4122 17.7791L33.4087 17.7698L31.536 18.472ZM23.4 9.76V7.76H23.387L23.374 7.76017L23.4 9.76ZM17.496 29.848H15.496V32.4255L17.9928 31.7853L17.496 29.848ZM23.184 25.528L24.9595 26.4486L24.9663 26.4356L24.9729 26.4224L23.184 25.528ZM23.184 37.264L21.4085 38.1846L21.4096 38.1867L23.184 37.264ZM17.496 32.944L17.9928 31.0067L15.496 30.3665V32.944H17.496ZM2.232 55.84L1.21454 54.1181L1.19909 54.1273L1.18381 54.1367L2.232 55.84ZM3.2802 8.05668C3.37345 8.11407 3.41492 8.17484 3.43114 8.20386C3.44472 8.22816 3.47048 8.28191 3.47452 8.38713C3.47798 8.47707 3.46795 8.77324 3.21739 9.09214C2.91712 9.4743 2.49928 9.6 2.232 9.6V5.6C1.42472 5.6 0.61988 5.9237 0.072113 6.62085C-0.42595 7.25475 -0.543981 7.98292 -0.522522 8.54086C-0.481149 9.61656 0.0990227 10.7958 1.1838 11.4633L3.2802 8.05668ZM2.232 9.6H31.176V5.6H2.232V9.6ZM31.176 9.6C33.93 9.6 35.6449 10.5125 36.7011 11.7341C37.7983 13.0032 38.392 14.8489 38.392 17.032H42.392C42.392 14.1751 41.6177 11.3048 39.7269 9.11794C37.7951 6.88351 34.902 5.6 31.176 5.6V9.6ZM38.392 17.032C38.392 18.119 38.2516 19.3748 37.8507 20.2847C37.6592 20.7194 37.4493 20.9802 37.2575 21.128C37.0936 21.2543 36.8571 21.368 36.432 21.368V25.368C37.6989 25.368 38.8034 24.9867 39.6993 24.2962C40.5672 23.6273 41.1358 22.7496 41.5113 21.8973C42.2444 20.2332 42.392 18.321 42.392 17.032H38.392ZM36.432 21.368C35.5999 21.368 35.1436 21.0739 34.7387 20.5653C34.2353 19.933 33.8631 19.0191 33.4156 17.7885L29.6564 19.1555C30.0729 20.3009 30.6367 21.835 31.6093 23.0567C32.6804 24.4021 34.2401 25.368 36.432 25.368V21.368ZM33.4087 17.7698C32.6161 15.6563 31.8143 13.1061 30.4731 11.2264C29.7575 10.2234 28.8441 9.32882 27.627 8.69774C26.4119 8.06767 25.0092 7.76 23.4 7.76V11.76C24.4908 11.76 25.2391 11.9653 25.7857 12.2488C26.3304 12.5312 26.7895 12.9506 27.2169 13.5496C28.1617 14.8739 28.7279 16.6797 29.6633 19.1742L33.4087 17.7698ZM23.374 7.76017C21.2078 7.7883 19.5951 8.91569 18.498 10.4893C17.4551 11.9852 16.8217 13.942 16.4089 15.9775C15.5799 20.0652 15.496 25.2657 15.496 29.848H19.496C19.496 25.2143 19.5921 20.4068 20.3291 16.7725C20.6993 14.947 21.1954 13.6143 21.7792 12.777C22.3089 12.0173 22.8202 11.7677 23.426 11.7598L23.374 7.76017ZM17.9928 31.7853C21.3443 30.926 23.6856 28.9054 24.9595 26.4486L21.4085 24.6074C20.6664 26.0386 19.2637 27.33 16.9993 27.9107L17.9928 31.7853ZM24.9729 26.4224C25.3652 25.6378 25.7373 25.1695 26.0008 24.9255C26.2977 24.6506 26.3013 24.792 25.992 24.792V20.792C24.8907 20.792 23.9583 21.3654 23.2832 21.9905C22.5747 22.6465 21.9388 23.5462 21.3951 24.6336L24.9729 26.4224ZM25.992 24.792C25.8306 24.792 25.6605 24.7437 25.5197 24.6541C25.389 24.571 25.3437 24.4915 25.3481 24.499C25.3541 24.5092 25.3959 24.5869 25.4351 24.7668C25.4737 24.9441 25.504 25.1946 25.504 25.528H29.504C29.504 24.4268 29.3119 23.3481 28.7959 22.471C28.2424 21.53 27.2705 20.792 25.992 20.792V24.792ZM25.504 25.528V37.264H29.504V25.528H25.504ZM25.504 37.264C25.504 37.5979 25.4736 37.8405 25.4369 38.0058C25.3997 38.1731 25.3624 38.2331 25.3663 38.2267C25.3732 38.2153 25.4299 38.13 25.5653 38.049C25.7071 37.9641 25.8622 37.928 25.992 37.928V41.928C27.2059 41.928 28.1914 41.273 28.7777 40.3153C29.3131 39.4408 29.504 38.362 29.504 37.264H25.504ZM25.992 37.928C26.2959 37.928 26.2888 38.0646 25.986 37.7899C25.7195 37.5481 25.3485 37.0914 24.9584 36.3413L21.4096 38.1867C21.9555 39.2366 22.5925 40.1119 23.298 40.7521C23.9672 41.3594 24.8961 41.928 25.992 41.928V37.928ZM24.9595 36.3434C23.6856 33.8866 21.3443 31.866 17.9928 31.0067L16.9993 34.8813C19.2637 35.462 20.6664 36.7534 21.4085 38.1846L24.9595 36.3434ZM15.496 32.944C15.496 37.6998 15.4361 43.6112 16.1773 48.3209C16.5462 50.6648 17.1422 52.9272 18.1832 54.6525C19.2725 56.4577 20.975 57.84 23.4 57.84V53.84C22.765 53.84 22.1995 53.5663 21.608 52.586C20.9684 51.5258 20.4708 49.8732 20.1287 47.6991C19.4479 43.3728 19.496 37.8362 19.496 32.944H15.496ZM23.4 57.84C23.1873 57.84 22.9568 57.783 22.7466 57.6604C22.5455 57.543 22.4175 57.3981 22.3434 57.2869C22.2106 57.0877 22.21 56.9467 22.21 56.92C22.21 56.8933 22.2106 56.7523 22.3434 56.5531C22.4175 56.4419 22.5455 56.297 22.7466 56.1796C22.9568 56.057 23.1873 56 23.4 56V60C24.4458 60 25.2293 59.4354 25.6716 58.7719C26.0744 58.1677 26.21 57.4867 26.21 56.92C26.21 56.3533 26.0744 55.6723 25.6716 55.0681C25.2293 54.4046 24.4458 53.84 23.4 53.84V57.84ZM23.4 56H2.232V60H23.4V56ZM2.232 56C2.49928 56 2.91712 56.1257 3.21739 56.5079C3.46795 56.8268 3.47798 57.1229 3.47452 57.2129C3.47048 57.3181 3.44472 57.3718 3.43114 57.3961C3.41492 57.4252 3.37345 57.4859 3.28019 57.5433L1.18381 54.1367C0.0990234 54.8042 -0.481149 55.9834 -0.522522 57.0591C-0.543981 57.6171 -0.425949 58.3452 0.0721134 58.9791C0.619881 59.6763 1.42472 60 2.232 60V56ZM3.24946 57.5619C4.74758 56.6766 5.50866 54.9356 5.96173 53.3746C6.44844 51.6977 6.74096 49.6341 6.92506 47.4294C7.29375 43.0145 7.256 37.6198 7.256 32.8H3.256C3.256 37.7002 3.29025 42.8895 2.93894 47.0966C2.76304 49.2029 2.49756 50.9598 2.12027 52.2596C1.70934 53.6754 1.30042 54.0674 1.21454 54.1181L3.24946 57.5619ZM7.256 32.8C7.256 27.9956 7.32983 22.6096 6.97971 18.2055C6.80468 16.0039 6.51679 13.9363 6.02048 12.2489C5.55337 10.6607 4.76808 8.9295 3.2444 8.03517L1.2196 11.4848C1.35192 11.5625 1.77263 11.9823 2.18302 13.3776C2.56422 14.6736 2.82532 16.4221 2.99229 18.5225C3.32617 22.7224 3.256 27.8844 3.256 32.8H7.256ZM61.1072 10.192L60.2949 8.36438L60.2819 8.37014L60.2691 8.37608L61.1072 10.192ZM59.6672 37.984L57.8464 38.8116L57.8503 38.8201L59.6672 37.984ZM81.2672 55.192L80.4344 53.3736L80.4227 53.379L80.411 53.3845L81.2672 55.192ZM82.7072 27.616L84.5308 26.7947L84.5301 26.7933L82.7072 27.616ZM71.1872 57.44C64.5078 57.44 58.8345 54.9457 54.8228 50.6884C50.8048 46.4244 48.3472 40.2754 48.3472 32.8H44.3472C44.3472 41.1646 47.1096 48.3356 51.9116 53.4316C56.7199 58.5343 63.4666 61.44 71.1872 61.44V57.44ZM48.3472 32.8C48.3472 25.3246 50.8048 19.1756 54.8228 14.9116C58.8345 10.6543 64.5078 8.16 71.1872 8.16V4.16C63.4666 4.16 56.7199 7.06571 51.9116 12.1684C47.1096 17.2644 44.3472 24.4354 44.3472 32.8H48.3472ZM71.1872 8.16C77.8666 8.16 83.5399 10.6543 87.5516 14.9116C91.5696 19.1756 94.0272 25.3246 94.0272 32.8H98.0272C98.0272 24.4354 95.2648 17.2644 90.4628 12.1684C85.6545 7.06571 78.9078 4.16 71.1872 4.16V8.16ZM94.0272 32.8C94.0272 40.2754 91.5696 46.4244 87.5516 50.6884C83.5399 54.9457 77.8666 57.44 71.1872 57.44V61.44C78.9078 61.44 85.6545 58.5343 90.4628 53.4316C95.2648 48.3356 98.0272 41.1646 98.0272 32.8H94.0272ZM60.2691 8.37608C54.5091 11.0345 52.9708 16.6596 53.2599 22.2473C53.5486 27.8295 55.6422 33.9622 57.8465 38.8116L61.4879 37.1564C59.3722 32.5018 57.5058 26.8985 57.2545 22.0407C57.0035 17.1884 58.3453 13.6695 61.9453 12.0079L60.2691 8.37608ZM57.8503 38.8201C59.759 42.9677 62.3688 47.6878 65.5336 51.4038C68.6456 55.0579 72.6287 58.128 77.3072 58.128V54.128C74.4257 54.128 71.4607 52.1941 68.5788 48.8102C65.7496 45.4882 63.3194 41.1363 61.484 37.1479L57.8503 38.8201ZM77.3072 58.128C78.9198 58.128 80.5069 57.7652 82.1234 56.9995L80.411 53.3845C79.2915 53.9148 78.2866 54.128 77.3072 54.128V58.128ZM82.1 57.0103C87.8977 54.3549 89.4233 48.7651 89.1141 43.2099C88.8059 37.6723 86.6925 31.5944 84.5308 26.7947L80.8836 28.4373C82.9699 33.0696 84.8525 38.6197 85.1203 43.4321C85.3871 48.2269 84.0686 51.7091 80.4344 53.3736L82.1 57.0103ZM84.5301 26.7933C82.6551 22.6388 80.0448 17.8809 76.8615 14.1274C73.732 10.4374 69.7125 7.328 64.9952 7.328V11.328C67.9099 11.328 70.9103 13.2946 73.8109 16.7146C76.6576 20.0711 79.0873 24.4572 80.8843 28.4387L84.5301 26.7933ZM64.9952 7.328C63.3939 7.328 61.8223 7.68554 60.2949 8.36438L61.9195 12.0196C62.9841 11.5465 64.0045 11.328 64.9952 11.328V7.328ZM103.052 55.84L102.023 54.125L102.013 54.1308L102.003 54.1367L103.052 55.84ZM103.052 9.76L102.003 11.4633L102.013 11.4692L102.023 11.475L103.052 9.76ZM115.868 8.536L117.584 7.50983L117.574 7.49281L117.564 7.476L115.868 8.536ZM138.98 47.2L137.263 48.2262L140.254 53.2301L140.965 47.4438L138.98 47.2ZM135.74 9.76L134.691 11.4633L134.701 11.4692L134.711 11.475L135.74 9.76ZM145.388 9.76L144.395 8.02351L144.377 8.03407L144.359 8.04501L145.388 9.76ZM144.596 54.904L145.674 53.2195L145.656 53.2083L145.639 53.1974L144.596 54.904ZM132.644 57.064L130.928 58.0911L130.937 58.1077L130.948 58.124L132.644 57.064ZM109.46 18.328L111.176 17.3009L108.174 12.2861L107.474 18.0884L109.46 18.328ZM112.7 55.84L113.748 54.1367L113.738 54.1308L113.729 54.125L112.7 55.84ZM103.052 56C103.319 56 103.737 56.1257 104.037 56.5079C104.288 56.8268 104.298 57.1229 104.294 57.2129C104.29 57.3181 104.264 57.3718 104.251 57.3961C104.235 57.4252 104.193 57.4859 104.1 57.5433L102.003 54.1367C100.919 54.8042 100.339 55.9834 100.297 57.0591C100.276 57.6171 100.394 58.3452 100.892 58.9791C101.44 59.6763 102.244 60 103.052 60V56ZM104.081 57.555C105.56 56.6675 106.453 55.1099 107.035 53.5126C107.631 51.8752 108.009 49.8897 108.26 47.7477C108.762 43.4621 108.796 38.1403 108.796 32.872H104.796C104.796 38.1877 104.757 43.2699 104.287 47.2823C104.052 49.2893 103.72 50.9263 103.276 52.1442C102.818 53.4021 102.344 53.9325 102.023 54.125L104.081 57.555ZM108.796 32.872C108.796 27.6032 108.762 22.2466 108.26 17.9263C108.01 15.7672 107.632 13.765 107.037 12.1156C106.458 10.5096 105.566 8.936 104.081 8.04501L102.023 11.475C102.338 11.664 102.814 12.1964 103.274 13.4727C103.719 14.7055 104.052 16.3618 104.287 18.3877C104.757 22.4374 104.796 27.5568 104.796 32.872H108.796ZM104.1 8.05668C104.193 8.11407 104.235 8.17484 104.251 8.20386C104.264 8.22816 104.29 8.28191 104.294 8.38713C104.298 8.47707 104.288 8.77324 104.037 9.09214C103.737 9.4743 103.319 9.6 103.052 9.6V5.6C102.244 5.6 101.44 5.9237 100.892 6.62085C100.394 7.25475 100.276 7.98292 100.297 8.54086C100.339 9.61656 100.919 10.7958 102.003 11.4633L104.1 8.05668ZM103.052 9.6H114.212V5.6H103.052V9.6ZM114.212 9.6C114.189 9.6 114.175 9.59687 114.169 9.59541C114.164 9.59398 114.164 9.59333 114.167 9.59515C114.17 9.59693 114.173 9.59914 114.175 9.60077C114.177 9.60226 114.175 9.60116 114.172 9.59599L117.564 7.476C116.848 6.33159 115.568 5.6 114.212 5.6V9.6ZM114.151 9.56217L137.263 48.2262L140.696 46.1738L117.584 7.50983L114.151 9.56217ZM140.965 47.4438C141.487 43.195 141.484 38.2416 141.484 34.096H137.484C137.484 38.3024 137.481 42.997 136.995 46.9562L140.965 47.4438ZM141.484 34.096C141.484 29.8917 141.449 24.2517 140.951 19.3759C140.703 16.9441 140.332 14.6145 139.758 12.712C139.225 10.9432 138.367 9.00409 136.769 8.04501L134.711 11.475C134.912 11.5959 135.422 12.1858 135.929 13.8662C136.395 15.413 136.734 17.4529 136.972 19.7821C137.446 24.4282 137.484 29.8763 137.484 34.096H141.484ZM136.788 8.05668C136.881 8.11407 136.923 8.17484 136.939 8.20386C136.952 8.22816 136.978 8.28191 136.982 8.38713C136.986 8.47707 136.976 8.77324 136.725 9.09214C136.425 9.4743 136.007 9.6 135.74 9.6V5.6C134.932 5.6 134.128 5.9237 133.58 6.62086C133.082 7.25475 132.964 7.98292 132.985 8.54086C133.027 9.61656 133.607 10.7958 134.691 11.4633L136.788 8.05668ZM135.74 9.6H145.388V5.6H135.74V9.6ZM145.388 9.6C145.123 9.6 144.729 9.47828 144.44 9.12597C144.193 8.82556 144.169 8.53677 144.171 8.42554C144.175 8.23537 144.25 8.10688 144.395 8.02351L146.38 11.4965C147.534 10.8371 148.149 9.62862 148.17 8.50245C148.181 7.92323 148.036 7.20243 147.531 6.58702C146.982 5.91972 146.192 5.6 145.388 5.6V9.6ZM144.359 8.04501C142.76 9.00409 141.902 10.9432 141.369 12.712C140.796 14.6145 140.424 16.9441 140.176 19.3759C139.678 24.2517 139.644 29.8917 139.644 34.096H143.644C143.644 29.8763 143.681 24.4282 144.155 19.7821C144.393 17.4529 144.733 15.413 145.199 13.8662C145.705 12.1858 146.215 11.5959 146.417 11.475L144.359 8.04501ZM139.644 34.096C139.644 38.3184 139.733 43.2122 140.159 47.2734C140.371 49.2967 140.674 51.1943 141.121 52.7286C141.344 53.496 141.621 54.2341 141.977 54.8733C142.324 55.4961 142.822 56.1637 143.553 56.6106L145.639 53.1974C145.722 53.2482 145.641 53.2319 145.472 52.928C145.312 52.6405 145.136 52.2091 144.961 51.6097C144.612 50.4102 144.339 48.7843 144.137 46.8566C143.734 43.0157 143.644 38.2976 143.644 34.096H139.644ZM143.518 56.5885C143.697 56.7031 143.722 56.7762 143.711 56.7541C143.702 56.7349 143.684 56.6803 143.696 56.6012C143.705 56.5355 143.74 56.4209 143.858 56.2969C143.982 56.1668 144.236 56 144.596 56V60C146.444 60 147.474 58.4366 147.656 57.1668C147.868 55.6811 147.163 54.1726 145.674 53.2195L143.518 56.5885ZM144.596 56H134.3V60H144.596V56ZM134.3 56C134.323 56 134.337 56.0031 134.342 56.0046C134.347 56.006 134.347 56.0067 134.344 56.0048C134.341 56.0031 134.338 56.0009 134.336 55.9992C134.335 55.9977 134.336 55.9988 134.34 56.004L130.948 58.124C131.663 59.2684 132.943 60 134.3 60V56ZM134.36 56.0369L111.176 17.3009L107.744 19.3551L130.928 58.0911L134.36 56.0369ZM107.474 18.0884C106.953 22.4091 106.956 27.7265 106.956 32.872H110.956C110.956 27.6495 110.959 22.5989 111.445 18.5676L107.474 18.0884ZM106.956 32.872C106.956 38.1403 106.989 43.4621 107.491 47.7477C107.742 49.8897 108.121 51.8752 108.717 53.5126C109.298 55.1099 110.192 56.6675 111.671 57.555L113.729 54.125C113.408 53.9325 112.933 53.4021 112.475 52.1442C112.032 50.9263 111.699 49.2893 111.464 47.2823C110.994 43.2699 110.956 38.1877 110.956 32.872H106.956ZM111.651 57.5433C111.558 57.4859 111.517 57.4252 111.501 57.3961C111.487 57.3718 111.461 57.3181 111.457 57.2129C111.454 57.1229 111.464 56.8268 111.714 56.5079C112.015 56.1257 112.432 56 112.7 56V60C113.507 60 114.312 59.6763 114.86 58.9791C115.358 58.3452 115.476 57.6171 115.454 57.0591C115.413 55.9834 114.833 54.8042 113.748 54.1367L111.651 57.5433ZM112.7 56H103.052V60H112.7V56ZM188.688 19.12L190.567 18.4365L190.563 18.4252L190.559 18.4139L188.688 19.12ZM184.44 55.84L185.488 54.1367L185.478 54.1308L185.469 54.125L184.44 55.84ZM166.152 55.84L165.123 54.125L165.113 54.1308L165.104 54.1367L166.152 55.84ZM161.904 19.12L160.033 18.4139L160.028 18.4252L160.024 18.4365L161.904 19.12ZM154.688 19.984C154.688 17.737 154.715 15.9024 154.826 14.3996C154.939 12.881 155.129 11.8304 155.394 11.1032C155.645 10.4167 155.923 10.1257 156.182 9.96301C156.475 9.7788 157.001 9.6 158.016 9.6V5.6C156.583 5.6 155.219 5.84419 154.054 6.57573C152.855 7.32876 152.106 8.44631 151.637 9.73076C151.183 10.9746 150.959 12.4575 150.837 14.1047C150.714 15.7676 150.688 17.731 150.688 19.984H154.688ZM158.016 9.6H192.576V5.6H158.016V9.6ZM192.576 9.6C193.591 9.6 194.117 9.7788 194.41 9.96301C194.669 10.1257 194.946 10.4167 195.197 11.1032C195.463 11.8304 195.653 12.881 195.765 14.3996C195.876 15.9024 195.904 17.737 195.904 19.984H199.904C199.904 17.731 199.877 15.7676 199.754 14.1047C199.633 12.4575 199.409 10.9746 198.954 9.73076C198.485 8.44631 197.737 7.32876 196.538 6.57573C195.373 5.84419 194.009 5.6 192.576 5.6V9.6ZM195.904 19.984C195.904 20.7981 195.668 21.5769 195.296 22.096C194.966 22.557 194.552 22.808 193.944 22.808V26.808C196 26.808 197.565 25.7989 198.549 24.424C199.492 23.1071 199.904 21.4739 199.904 19.984H195.904ZM193.944 22.808C193.222 22.808 192.739 22.5481 192.238 21.9127C191.649 21.1674 191.146 20.0273 190.567 18.4365L186.808 19.8035C187.382 21.3807 188.066 23.0846 189.098 24.3913C190.216 25.8079 191.786 26.808 193.944 26.808V22.808ZM190.559 18.4139C190.226 17.5309 189.943 16.5608 189.595 15.45C189.262 14.3873 188.877 13.2207 188.371 12.1532C187.868 11.0896 187.186 9.99171 186.186 9.15353C185.141 8.27633 183.836 7.76 182.28 7.76V11.76C182.883 11.76 183.28 11.9367 183.616 12.2182C183.998 12.5388 184.378 13.0654 184.756 13.8648C185.133 14.6603 185.449 15.5952 185.778 16.6452C186.092 17.6472 186.43 18.8011 186.817 19.8261L190.559 18.4139ZM182.28 7.76C181.177 7.76 180.569 8.52241 180.368 8.82083C180.128 9.17595 179.983 9.56518 179.89 9.86115C179.696 10.4807 179.554 11.2725 179.442 12.1141C179.214 13.8293 179.058 16.1543 178.95 18.6832C178.732 23.7601 178.696 29.8807 178.696 34.096H182.696C182.696 29.8873 182.732 23.8399 182.946 18.8548C183.053 16.3527 183.204 14.1732 183.407 12.6417C183.511 11.8599 183.617 11.3427 183.707 11.0592C183.755 10.9036 183.761 10.9428 183.682 11.0607C183.64 11.1219 183.202 11.76 182.28 11.76V7.76ZM178.696 34.096C178.696 38.2938 178.73 43.3042 179.232 47.5517C179.482 49.6724 179.859 51.6975 180.449 53.3779C181.015 54.993 181.9 56.6486 183.411 57.555L185.469 54.125C185.179 53.9514 184.696 53.402 184.223 52.0538C183.773 50.771 183.439 49.0746 183.204 47.0823C182.734 43.1038 182.696 38.3222 182.696 34.096H178.696ZM183.392 57.5433C183.298 57.4859 183.257 57.4252 183.241 57.3961C183.227 57.3718 183.201 57.3181 183.197 57.2129C183.194 57.1229 183.204 56.8268 183.454 56.5079C183.755 56.1257 184.173 56 184.44 56V60C185.247 60 186.052 59.6763 186.6 58.9791C187.098 58.3452 187.216 57.6171 187.194 57.0591C187.153 55.9834 186.573 54.8042 185.488 54.1367L183.392 57.5433ZM184.44 56H166.152V60H184.44V56ZM166.152 56C166.419 56 166.837 56.1257 167.137 56.5079C167.388 56.8268 167.398 57.1229 167.394 57.2129C167.39 57.3181 167.365 57.3718 167.351 57.3961C167.335 57.4252 167.293 57.4859 167.2 57.5433L165.104 54.1367C164.019 54.8042 163.439 55.9834 163.397 57.0591C163.376 57.6171 163.494 58.3452 163.992 58.9791C164.54 59.6763 165.345 60 166.152 60V56ZM167.181 57.555C168.691 56.6486 169.576 54.993 170.143 53.3779C170.732 51.6975 171.109 49.6724 171.36 47.5517C171.862 43.3042 171.896 38.2938 171.896 34.096H167.896C167.896 38.3222 167.858 43.1038 167.388 47.0823C167.152 49.0746 166.818 50.771 166.368 52.0538C165.895 53.402 165.412 53.9514 165.123 54.125L167.181 57.555ZM171.896 34.096C171.896 29.8807 171.86 23.7601 171.642 18.6832C171.533 16.1543 171.378 13.8293 171.149 12.1141C171.037 11.2725 170.896 10.4807 170.702 9.86115C170.609 9.56518 170.464 9.17595 170.224 8.82084C170.022 8.52241 169.414 7.76 168.312 7.76V11.76C167.389 11.76 166.951 11.1219 166.91 11.0607C166.83 10.9428 166.836 10.9036 166.885 11.0592C166.974 11.3427 167.08 11.8599 167.184 12.6417C167.388 14.1732 167.538 16.3527 167.646 18.8548C167.86 23.8399 167.896 29.8873 167.896 34.096H171.896ZM168.312 7.76C166.755 7.76 165.451 8.27633 164.405 9.15353C163.406 9.99171 162.724 11.0896 162.22 12.1532C161.715 13.2207 161.329 14.3873 160.996 15.45C160.649 16.5608 160.366 17.5309 160.033 18.4139L163.775 19.8261C164.162 18.8011 164.5 17.6472 164.814 16.6452C165.142 15.5952 165.459 14.6603 165.835 13.8648C166.214 13.0654 166.594 12.5388 166.976 12.2182C167.312 11.9367 167.708 11.76 168.312 11.76V7.76ZM160.024 18.4365C159.446 20.0273 158.942 21.1674 158.354 21.9127C157.852 22.5481 157.37 22.808 156.648 22.808V26.808C158.806 26.808 160.375 25.8079 161.494 24.3913C162.525 23.0846 163.21 21.3807 163.783 19.8035L160.024 18.4365ZM156.648 22.808C156.04 22.808 155.625 22.557 155.295 22.096C154.924 21.5769 154.688 20.7981 154.688 19.984H150.688C150.688 21.4739 151.1 23.1071 152.042 24.424C153.026 25.7989 154.592 26.808 156.648 26.808V22.808Z" fill="#D53400" mask="url(#path-1-outside-1_1226_1154)"/>
</g>
<mask id="path-3-outside-2_1226_1154" maskUnits="userSpaceOnUse" x="0" y="5" width="199" height="55" fill="black">
<rect fill="white" y="5" width="199" height="55"/>
<path d="M2.232 9.76C1.296 9.184 1.152 7.6 2.232 7.6H31.176C37.656 7.6 40.392 11.992 40.392 17.032C40.392 19.408 39.816 23.368 36.432 23.368C33.408 23.368 32.4 20.848 31.536 18.472C29.808 13.864 28.8 9.76 23.4 9.76C17.856 9.832 17.496 20.632 17.496 29.848C20.304 29.128 22.176 27.472 23.184 25.528C24.12 23.656 25.2 22.792 25.992 22.792C26.856 22.792 27.504 23.728 27.504 25.528V37.264C27.504 39.064 26.856 39.928 25.992 39.928C25.2 39.928 24.12 39.064 23.184 37.264C22.176 35.32 20.304 33.664 17.496 32.944C17.496 42.592 17.28 55.84 23.4 55.84C24.48 55.84 24.48 58 23.4 58H2.232C1.152 58 1.296 56.416 2.232 55.84C5.4 53.968 5.256 42.52 5.256 32.8C5.256 23.08 5.544 11.704 2.232 9.76ZM71.1872 59.44C56.7872 59.44 46.3472 48.64 46.3472 32.8C46.3472 16.96 56.7872 6.16 71.1872 6.16C85.5872 6.16 96.0272 16.96 96.0272 32.8C96.0272 48.64 85.5872 59.44 71.1872 59.44ZM61.1072 10.192C51.7472 14.512 55.3472 28.48 59.6672 37.984C63.4112 46.12 69.7472 56.128 77.3072 56.128C78.6032 56.128 79.8992 55.84 81.2672 55.192C90.6992 50.872 86.9552 37.048 82.7072 27.616C79.0352 19.48 72.6272 9.328 64.9952 9.328C63.6992 9.328 62.4032 9.616 61.1072 10.192ZM103.052 58C101.972 58 102.116 56.416 103.052 55.84C106.652 53.68 106.796 43.456 106.796 32.872C106.796 22.288 106.652 11.92 103.052 9.76C102.116 9.184 101.972 7.6 103.052 7.6H114.212C114.86 7.6 115.508 7.96 115.868 8.536L138.98 47.2C139.484 43.096 139.484 38.272 139.484 34.096C139.484 25.672 139.34 11.92 135.74 9.76C134.804 9.184 134.66 7.6 135.74 7.6H145.388C146.468 7.6 146.396 9.184 145.388 9.76C141.788 11.92 141.644 25.672 141.644 34.096C141.644 42.52 142.004 53.32 144.596 54.904C146.396 56.056 145.676 58 144.596 58H134.3C133.652 58 133.004 57.64 132.644 57.064L109.46 18.328C108.956 22.504 108.956 27.688 108.956 32.872C108.956 43.456 109.1 53.68 112.7 55.84C113.636 56.416 113.78 58 112.7 58H103.052ZM152.688 19.984C152.688 10.984 153.12 7.6 158.016 7.6H192.576C197.472 7.6 197.904 10.984 197.904 19.984C197.904 22.288 196.608 24.808 193.944 24.808C191.064 24.808 189.84 22.288 188.688 19.12C187.248 15.304 186.6 9.76 182.28 9.76C180.84 9.76 180.696 25.672 180.696 34.096C180.696 42.52 180.84 53.68 184.44 55.84C185.376 56.416 185.52 58 184.44 58H166.152C165.072 58 165.216 56.416 166.152 55.84C169.752 53.68 169.896 42.52 169.896 34.096C169.896 25.672 169.752 9.76 168.312 9.76C163.992 9.76 163.344 15.304 161.904 19.12C160.752 22.288 159.528 24.808 156.648 24.808C153.984 24.808 152.688 22.288 152.688 19.984Z"/>
</mask>
<path d="M2.232 9.76C1.296 9.184 1.152 7.6 2.232 7.6H31.176C37.656 7.6 40.392 11.992 40.392 17.032C40.392 19.408 39.816 23.368 36.432 23.368C33.408 23.368 32.4 20.848 31.536 18.472C29.808 13.864 28.8 9.76 23.4 9.76C17.856 9.832 17.496 20.632 17.496 29.848C20.304 29.128 22.176 27.472 23.184 25.528C24.12 23.656 25.2 22.792 25.992 22.792C26.856 22.792 27.504 23.728 27.504 25.528V37.264C27.504 39.064 26.856 39.928 25.992 39.928C25.2 39.928 24.12 39.064 23.184 37.264C22.176 35.32 20.304 33.664 17.496 32.944C17.496 42.592 17.28 55.84 23.4 55.84C24.48 55.84 24.48 58 23.4 58H2.232C1.152 58 1.296 56.416 2.232 55.84C5.4 53.968 5.256 42.52 5.256 32.8C5.256 23.08 5.544 11.704 2.232 9.76ZM71.1872 59.44C56.7872 59.44 46.3472 48.64 46.3472 32.8C46.3472 16.96 56.7872 6.16 71.1872 6.16C85.5872 6.16 96.0272 16.96 96.0272 32.8C96.0272 48.64 85.5872 59.44 71.1872 59.44ZM61.1072 10.192C51.7472 14.512 55.3472 28.48 59.6672 37.984C63.4112 46.12 69.7472 56.128 77.3072 56.128C78.6032 56.128 79.8992 55.84 81.2672 55.192C90.6992 50.872 86.9552 37.048 82.7072 27.616C79.0352 19.48 72.6272 9.328 64.9952 9.328C63.6992 9.328 62.4032 9.616 61.1072 10.192ZM103.052 58C101.972 58 102.116 56.416 103.052 55.84C106.652 53.68 106.796 43.456 106.796 32.872C106.796 22.288 106.652 11.92 103.052 9.76C102.116 9.184 101.972 7.6 103.052 7.6H114.212C114.86 7.6 115.508 7.96 115.868 8.536L138.98 47.2C139.484 43.096 139.484 38.272 139.484 34.096C139.484 25.672 139.34 11.92 135.74 9.76C134.804 9.184 134.66 7.6 135.74 7.6H145.388C146.468 7.6 146.396 9.184 145.388 9.76C141.788 11.92 141.644 25.672 141.644 34.096C141.644 42.52 142.004 53.32 144.596 54.904C146.396 56.056 145.676 58 144.596 58H134.3C133.652 58 133.004 57.64 132.644 57.064L109.46 18.328C108.956 22.504 108.956 27.688 108.956 32.872C108.956 43.456 109.1 53.68 112.7 55.84C113.636 56.416 113.78 58 112.7 58H103.052ZM152.688 19.984C152.688 10.984 153.12 7.6 158.016 7.6H192.576C197.472 7.6 197.904 10.984 197.904 19.984C197.904 22.288 196.608 24.808 193.944 24.808C191.064 24.808 189.84 22.288 188.688 19.12C187.248 15.304 186.6 9.76 182.28 9.76C180.84 9.76 180.696 25.672 180.696 34.096C180.696 42.52 180.84 53.68 184.44 55.84C185.376 56.416 185.52 58 184.44 58H166.152C165.072 58 165.216 56.416 166.152 55.84C169.752 53.68 169.896 42.52 169.896 34.096C169.896 25.672 169.752 9.76 168.312 9.76C163.992 9.76 163.344 15.304 161.904 19.12C160.752 22.288 159.528 24.808 156.648 24.808C153.984 24.808 152.688 22.288 152.688 19.984Z" fill="#FF52CF"/>
<path d="M2.232 9.76C1.296 9.184 1.152 7.6 2.232 7.6H31.176C37.656 7.6 40.392 11.992 40.392 17.032C40.392 19.408 39.816 23.368 36.432 23.368C33.408 23.368 32.4 20.848 31.536 18.472C29.808 13.864 28.8 9.76 23.4 9.76C17.856 9.832 17.496 20.632 17.496 29.848C20.304 29.128 22.176 27.472 23.184 25.528C24.12 23.656 25.2 22.792 25.992 22.792C26.856 22.792 27.504 23.728 27.504 25.528V37.264C27.504 39.064 26.856 39.928 25.992 39.928C25.2 39.928 24.12 39.064 23.184 37.264C22.176 35.32 20.304 33.664 17.496 32.944C17.496 42.592 17.28 55.84 23.4 55.84C24.48 55.84 24.48 58 23.4 58H2.232C1.152 58 1.296 56.416 2.232 55.84C5.4 53.968 5.256 42.52 5.256 32.8C5.256 23.08 5.544 11.704 2.232 9.76ZM71.1872 59.44C56.7872 59.44 46.3472 48.64 46.3472 32.8C46.3472 16.96 56.7872 6.16 71.1872 6.16C85.5872 6.16 96.0272 16.96 96.0272 32.8C96.0272 48.64 85.5872 59.44 71.1872 59.44ZM61.1072 10.192C51.7472 14.512 55.3472 28.48 59.6672 37.984C63.4112 46.12 69.7472 56.128 77.3072 56.128C78.6032 56.128 79.8992 55.84 81.2672 55.192C90.6992 50.872 86.9552 37.048 82.7072 27.616C79.0352 19.48 72.6272 9.328 64.9952 9.328C63.6992 9.328 62.4032 9.616 61.1072 10.192ZM103.052 58C101.972 58 102.116 56.416 103.052 55.84C106.652 53.68 106.796 43.456 106.796 32.872C106.796 22.288 106.652 11.92 103.052 9.76C102.116 9.184 101.972 7.6 103.052 7.6H114.212C114.86 7.6 115.508 7.96 115.868 8.536L138.98 47.2C139.484 43.096 139.484 38.272 139.484 34.096C139.484 25.672 139.34 11.92 135.74 9.76C134.804 9.184 134.66 7.6 135.74 7.6H145.388C146.468 7.6 146.396 9.184 145.388 9.76C141.788 11.92 141.644 25.672 141.644 34.096C141.644 42.52 142.004 53.32 144.596 54.904C146.396 56.056 145.676 58 144.596 58H134.3C133.652 58 133.004 57.64 132.644 57.064L109.46 18.328C108.956 22.504 108.956 27.688 108.956 32.872C108.956 43.456 109.1 53.68 112.7 55.84C113.636 56.416 113.78 58 112.7 58H103.052ZM152.688 19.984C152.688 10.984 153.12 7.6 158.016 7.6H192.576C197.472 7.6 197.904 10.984 197.904 19.984C197.904 22.288 196.608 24.808 193.944 24.808C191.064 24.808 189.84 22.288 188.688 19.12C187.248 15.304 186.6 9.76 182.28 9.76C180.84 9.76 180.696 25.672 180.696 34.096C180.696 42.52 180.84 53.68 184.44 55.84C185.376 56.416 185.52 58 184.44 58H166.152C165.072 58 165.216 56.416 166.152 55.84C169.752 53.68 169.896 42.52 169.896 34.096C169.896 25.672 169.752 9.76 168.312 9.76C163.992 9.76 163.344 15.304 161.904 19.12C160.752 22.288 159.528 24.808 156.648 24.808C153.984 24.808 152.688 22.288 152.688 19.984Z" fill="#FCFF62"/>
<path d="M2.232 9.76L1.96989 10.1859L1.9789 10.1912L2.232 9.76ZM31.536 18.472L32.0059 18.3011L32.0042 18.2964L31.536 18.472ZM23.4 9.76V9.25996L23.3935 9.26004L23.4 9.76ZM17.496 29.848H16.996V30.4924L17.6202 30.3323L17.496 29.848ZM23.184 25.528L23.6279 25.7582L23.6312 25.7516L23.184 25.528ZM23.184 37.264L22.7401 37.4942L22.7404 37.4947L23.184 37.264ZM17.496 32.944L17.6202 32.4597L16.996 32.2996V32.944H17.496ZM2.232 55.84L1.97759 55.4095L1.96995 55.4142L2.232 55.84ZM2.49405 9.33417C2.18024 9.14106 1.98779 8.76086 1.97563 8.44478C1.96975 8.29177 2.00774 8.20381 2.03791 8.16541C2.05566 8.14282 2.09632 8.1 2.232 8.1V7.1C1.82768 7.1 1.48135 7.25517 1.25159 7.54759C1.03426 7.82419 0.964255 8.16823 0.97637 8.48321C1.00021 9.10314 1.34776 9.80294 1.96995 10.1858L2.49405 9.33417ZM2.232 8.1H31.176V7.1H2.232V8.1ZM31.176 8.1C34.2945 8.1 36.4512 9.15162 37.8358 10.753C39.2306 12.3663 39.892 14.5962 39.892 17.032H40.892C40.892 14.4278 40.1854 11.9417 38.5922 10.099C36.9888 8.24438 34.5375 7.1 31.176 7.1V8.1ZM39.892 17.032C39.892 18.1948 39.7489 19.6967 39.2234 20.8894C38.9629 21.4807 38.6185 21.9729 38.1732 22.3161C37.7348 22.6539 37.1728 22.868 36.432 22.868V23.868C37.3832 23.868 38.1622 23.587 38.7836 23.1082C39.398 22.6346 39.8321 21.9883 40.1386 21.2926C40.7471 19.9113 40.892 18.2452 40.892 17.032H39.892ZM36.432 22.868C35.09 22.868 34.2199 22.322 33.5652 21.4996C32.8858 20.6462 32.4418 19.4998 32.0059 18.3011L31.0661 18.6429C31.4942 19.8202 31.9862 21.1218 32.7828 22.1224C33.6041 23.154 34.75 23.868 36.432 23.868V22.868ZM32.0042 18.2964C31.158 16.0401 30.4446 13.769 29.252 12.0976C28.6445 11.2461 27.9015 10.5297 26.9365 10.0294C25.9721 9.52929 24.8148 9.26 23.4 9.26V10.26C24.6852 10.26 25.6789 10.5037 26.4762 10.9171C27.273 11.3303 27.9025 11.9279 28.438 12.6784C29.5314 14.211 30.186 16.2959 31.0678 18.6476L32.0042 18.2964ZM23.3935 9.26004C21.8124 9.28057 20.6128 10.0788 19.7285 11.3472C18.8577 12.5961 18.2758 14.3189 17.879 16.2756C17.0845 20.1933 16.996 25.2464 16.996 29.848H17.996C17.996 25.2336 18.0875 20.2787 18.859 16.4744C19.2452 14.5701 19.7928 13.0034 20.5488 11.9191C21.2912 10.8542 22.2156 10.2754 23.4065 10.26L23.3935 9.26004ZM17.6202 30.3323C20.5641 29.5775 22.5534 27.8303 23.6279 25.7582L22.7401 25.2978C21.7986 27.1137 20.0439 28.6785 17.3718 29.3637L17.6202 30.3323ZM23.6312 25.7516C24.0803 24.8534 24.5513 24.2234 24.9817 23.8249C25.4204 23.4186 25.7723 23.292 25.992 23.292V22.292C25.4197 22.292 24.8356 22.5973 24.3023 23.0911C23.7607 23.5926 23.2237 24.3306 22.7368 25.3044L23.6312 25.7516ZM25.992 23.292C26.2124 23.292 26.4419 23.4 26.641 23.7385C26.8495 24.093 27.004 24.6783 27.004 25.528H28.004C28.004 24.5777 27.8345 23.795 27.503 23.2315C27.1621 22.652 26.6356 22.292 25.992 22.292V23.292ZM27.004 25.528V37.264H28.004V25.528H27.004ZM27.004 37.264C27.004 38.1145 26.8492 38.6773 26.6456 39.0099C26.4547 39.3217 26.2285 39.428 25.992 39.428V40.428C26.6195 40.428 27.1493 40.1023 27.4984 39.5321C27.8348 38.9827 28.004 38.2135 28.004 37.264H27.004ZM25.992 39.428C25.771 39.428 25.4182 39.3002 24.978 38.9007C24.5469 38.5095 24.0761 37.8958 23.6276 37.0333L22.7404 37.4947C23.2279 38.4322 23.7651 39.1505 24.306 39.6413C24.8378 40.1238 25.421 40.428 25.992 40.428V39.428ZM23.6279 37.0338C22.5534 34.9617 20.5641 33.2145 17.6202 32.4597L17.3718 33.4283C20.0439 34.1135 21.7986 35.6783 22.7401 37.4942L23.6279 37.0338ZM16.996 32.944C16.996 37.751 16.9405 43.5218 17.6591 48.0877C18.0179 50.3679 18.577 52.4017 19.4675 53.8776C20.3701 55.3734 21.6462 56.34 23.4 56.34V55.34C22.0938 55.34 21.1019 54.6506 20.3237 53.3609C19.5335 52.0513 18.9991 50.1701 18.6469 47.9323C17.9435 43.4622 17.996 37.785 17.996 32.944H16.996ZM23.4 56.34C23.476 56.34 23.5333 56.3676 23.5915 56.4548C23.6595 56.5569 23.71 56.7242 23.71 56.92C23.71 57.1158 23.6595 57.2831 23.5915 57.3852C23.5333 57.4724 23.476 57.5 23.4 57.5V58.5C23.864 58.5 24.2117 58.2576 24.4235 57.9398C24.6255 57.6369 24.71 57.2642 24.71 56.92C24.71 56.5758 24.6255 56.2031 24.4235 55.9002C24.2117 55.5824 23.864 55.34 23.4 55.34V56.34ZM23.4 57.5H2.232V58.5H23.4V57.5ZM2.232 57.5C2.09632 57.5 2.05565 57.4572 2.03791 57.4346C2.00774 57.3962 1.96975 57.3082 1.97563 57.1552C1.98779 56.8391 2.18024 56.4589 2.49405 56.2658L1.96995 55.4142C1.34776 55.7971 1.00021 56.4969 0.97637 57.1168C0.964255 57.4318 1.03426 57.7758 1.25159 58.0524C1.48135 58.3448 1.82768 58.5 2.232 58.5V57.5ZM2.48636 56.2705C3.4549 55.6982 4.08391 54.463 4.52118 52.9565C4.96686 51.421 5.24924 49.4724 5.43027 47.3046C5.79244 42.9676 5.756 37.65 5.756 32.8H4.756C4.756 37.67 4.79156 42.9364 4.43373 47.2214C4.25476 49.3646 3.97914 51.2365 3.56082 52.6778C3.13409 54.148 2.5931 55.0458 1.97764 55.4095L2.48636 56.2705ZM5.756 32.8C5.756 27.9539 5.82846 22.6519 5.48443 18.3244C5.31242 16.1607 5.03457 14.2128 4.58143 12.6722C4.13559 11.1563 3.48702 9.91687 2.4851 9.32879L1.9789 10.1912C2.63298 10.5751 3.19041 11.4867 3.62207 12.9543C4.04643 14.3972 4.31758 16.2653 4.48757 18.4036C4.82754 22.6801 4.756 27.9261 4.756 32.8H5.756ZM61.1072 10.192L60.9041 9.73505L60.8977 9.73802L61.1072 10.192ZM59.6672 37.984L59.212 38.1909L59.213 38.193L59.6672 37.984ZM81.2672 55.192L81.059 54.7374L81.0531 54.7401L81.2672 55.192ZM82.7072 27.616L83.1631 27.4107L83.1629 27.4103L82.7072 27.616ZM71.1872 58.94C64.1173 58.94 58.0415 56.2914 53.7311 51.7171C49.4191 47.1411 46.8472 40.6088 46.8472 32.8H45.8472C45.8472 40.8312 48.4953 47.6189 53.0033 52.4029C57.5129 57.1886 63.857 59.94 71.1872 59.94V58.94ZM46.8472 32.8C46.8472 24.9912 49.4191 18.4589 53.7311 13.8829C58.0415 9.30857 64.1173 6.66 71.1872 6.66V5.66C63.857 5.66 57.5129 8.41142 53.0033 13.1971C48.4953 17.9811 45.8472 24.7688 45.8472 32.8H46.8472ZM71.1872 6.66C78.257 6.66 84.3329 9.30857 88.6433 13.8829C92.9553 18.4589 95.5272 24.9912 95.5272 32.8H96.5272C96.5272 24.7688 93.8791 17.9811 89.3711 13.1971C84.8615 8.41142 78.5173 5.66 71.1872 5.66V6.66ZM95.5272 32.8C95.5272 40.6088 92.9553 47.1411 88.6433 51.7171C84.3329 56.2914 78.257 58.94 71.1872 58.94V59.94C78.5173 59.94 84.8615 57.1886 89.3711 52.4029C93.8791 47.6189 96.5272 40.8312 96.5272 32.8H95.5272ZM60.8977 9.73802C55.9477 12.0226 54.4831 16.8579 54.7579 22.1698C55.0325 27.4804 57.0409 33.4146 59.212 38.1909L60.1224 37.7771C57.9734 33.0494 56.0218 27.2476 55.7565 22.1182C55.4913 16.9901 56.9067 12.6814 61.3167 10.646L60.8977 9.73802ZM59.213 38.193C61.0941 42.2809 63.6366 46.8629 66.6755 50.4312C69.7013 53.984 73.3026 56.628 77.3072 56.628V55.628C73.7518 55.628 70.4051 53.268 67.4368 49.7828C64.4818 46.3131 61.9842 41.8231 60.1214 37.775L59.213 38.193ZM77.3072 56.628C78.6823 56.628 80.0511 56.3213 81.4812 55.6439L81.0531 54.7401C79.7473 55.3587 78.524 55.628 77.3072 55.628V56.628ZM81.4754 55.6466C86.4618 53.3627 87.9097 48.5633 87.6164 43.2932C87.3234 38.0276 85.2965 32.1476 83.1631 27.4107L82.2513 27.8213C84.3659 32.5164 86.335 38.2644 86.618 43.3488C86.9007 48.4287 85.5046 52.7013 81.059 54.7374L81.4754 55.6466ZM83.1629 27.4103C81.3172 23.3207 78.7746 18.7022 75.7175 15.0976C72.6739 11.5089 69.0365 8.828 64.9952 8.828V9.828C68.5859 9.828 71.9685 12.2231 74.9549 15.7444C77.9278 19.2498 80.4252 23.7753 82.2515 27.8217L83.1629 27.4103ZM64.9952 8.828C63.6229 8.828 62.258 9.13338 60.9041 9.73509L61.3103 10.6489C62.5484 10.0986 63.7755 9.828 64.9952 9.828V8.828ZM103.052 55.84L102.794 55.4112L102.79 55.4142L103.052 55.84ZM103.052 9.76L102.79 10.1859L102.794 10.1887L103.052 9.76ZM115.868 8.536L116.297 8.2794L116.292 8.271L115.868 8.536ZM138.98 47.2L138.551 47.4565L139.298 48.7075L139.476 47.2609L138.98 47.2ZM135.74 9.76L135.478 10.1859L135.482 10.1887L135.74 9.76ZM145.388 9.76L145.14 9.32578L145.13 9.33125L145.388 9.76ZM144.596 54.904L144.865 54.4828L144.856 54.4774L144.596 54.904ZM132.644 57.064L132.215 57.3208L132.22 57.329L132.644 57.064ZM109.46 18.328L109.889 18.0712L109.138 16.8175L108.963 18.2681L109.46 18.328ZM112.7 55.84L112.962 55.4141L112.957 55.4113L112.7 55.84ZM103.052 57.5C102.916 57.5 102.875 57.4572 102.858 57.4346C102.827 57.3962 102.789 57.3082 102.795 57.1552C102.807 56.8391 103 56.4589 103.314 56.2658L102.79 55.4142C102.167 55.7971 101.82 56.4969 101.796 57.1168C101.784 57.4318 101.854 57.7758 102.071 58.0524C102.301 58.3448 102.647 58.5 103.052 58.5V57.5ZM103.309 56.2687C104.354 55.6419 105.09 54.4695 105.625 52.9994C106.164 51.5194 106.525 49.6646 106.77 47.5732C107.26 43.39 107.296 38.1581 107.296 32.872H106.296C106.296 38.1699 106.259 43.342 105.777 47.4568C105.536 49.5144 105.186 51.2821 104.686 52.6573C104.181 54.0425 103.55 54.9581 102.794 55.4113L103.309 56.2687ZM107.296 32.872C107.296 27.5858 107.26 22.3182 106.77 18.0993C106.525 15.9902 106.164 14.1177 105.626 12.6245C105.091 11.1421 104.355 9.959 103.309 9.33125L102.794 10.1887C103.548 10.641 104.18 11.5639 104.685 12.9638C105.186 14.3528 105.536 16.1388 105.777 18.2147C106.259 22.3658 106.296 27.5742 106.296 32.872H107.296ZM103.314 9.33417C103 9.14106 102.807 8.76086 102.795 8.44478C102.789 8.29177 102.827 8.20381 102.858 8.16541C102.875 8.14282 102.916 8.1 103.052 8.1V7.1C102.647 7.1 102.301 7.25517 102.071 7.54759C101.854 7.82419 101.784 8.16823 101.796 8.48321C101.82 9.10314 102.167 9.80294 102.79 10.1858L103.314 9.33417ZM103.052 8.1H114.212V7.1H103.052V8.1ZM114.212 8.1C114.683 8.1 115.173 8.3671 115.444 8.801L116.292 8.271C115.843 7.5529 115.037 7.1 114.212 7.1V8.1ZM115.439 8.79254L138.551 47.4565L139.409 46.9435L116.297 8.27946L115.439 8.79254ZM139.476 47.2609C139.984 43.1208 139.984 38.2644 139.984 34.096H138.984C138.984 38.2796 138.983 43.0712 138.483 47.1391L139.476 47.2609ZM139.984 34.096C139.984 29.8859 139.948 24.3179 139.459 19.5282C139.215 17.1349 138.855 14.9139 138.322 13.1448C137.799 11.4092 137.072 9.97602 135.997 9.33125L135.482 10.1887C136.208 10.624 136.848 11.7198 137.365 13.4334C137.871 15.1136 138.223 17.2621 138.464 19.6298C138.947 24.3621 138.984 29.8821 138.984 34.096H139.984ZM136.002 9.33417C135.688 9.14106 135.495 8.76086 135.483 8.44478C135.477 8.29177 135.515 8.20381 135.546 8.16541C135.563 8.14282 135.604 8.1 135.74 8.1V7.1C135.335 7.1 134.989 7.25517 134.759 7.54759C134.542 7.82419 134.472 8.16823 134.484 8.48321C134.508 9.10314 134.855 9.80294 135.478 10.1858L136.002 9.33417ZM135.74 8.1H145.388V7.1H135.74V8.1ZM145.388 8.1C145.524 8.1 145.574 8.14382 145.599 8.17387C145.634 8.21689 145.674 8.30669 145.671 8.45438C145.665 8.75784 145.481 9.13072 145.14 9.32588L145.636 10.1941C146.302 9.81328 146.658 9.10615 146.671 8.47361C146.677 8.1533 146.595 7.81111 146.371 7.53913C146.137 7.25418 145.791 7.1 145.388 7.1V8.1ZM145.13 9.33125C144.056 9.97602 143.328 11.4092 142.805 13.1448C142.272 14.9139 141.913 17.1349 141.668 19.5282C141.179 24.3179 141.144 29.8859 141.144 34.096H142.144C142.144 29.8821 142.18 24.3621 142.663 19.6298C142.905 17.2621 143.256 15.1136 143.763 13.4334C144.279 11.7198 144.92 10.624 145.645 10.1887L145.13 9.33125ZM141.144 34.096C141.144 38.3106 141.234 43.1386 141.65 47.1171C141.859 49.1046 142.15 50.9003 142.561 52.309C142.766 53.0134 143.005 53.6365 143.288 54.1438C143.568 54.647 143.909 55.0704 144.335 55.3306L144.856 54.4774C144.634 54.3416 144.397 54.081 144.162 53.6575C143.928 53.2381 143.714 52.6917 143.521 52.0293C143.135 50.7042 142.851 48.9764 142.645 47.0129C142.234 43.0894 142.144 38.3054 142.144 34.096H141.144ZM144.326 55.3251C145.079 55.8068 145.24 56.3972 145.181 56.8133C145.114 57.2833 144.809 57.5 144.596 57.5V58.5C145.463 58.5 146.058 57.7447 146.171 56.9547C146.291 56.1108 145.913 55.1532 144.865 54.4829L144.326 55.3251ZM144.596 57.5H134.3V58.5H144.596V57.5ZM134.3 57.5C133.829 57.5 133.339 57.2329 133.068 56.799L132.22 57.329C132.669 58.0471 133.475 58.5 134.3 58.5V57.5ZM133.073 56.8072L109.889 18.0712L109.031 18.5848L132.215 57.3208L133.073 56.8072ZM108.963 18.2681C108.455 22.4803 108.456 27.6976 108.456 32.872H109.456C109.456 27.6784 109.456 22.5277 109.956 18.3879L108.963 18.2681ZM108.456 32.872C108.456 38.1581 108.491 43.39 108.981 47.5732C109.226 49.6646 109.587 51.5194 110.126 52.9994C110.661 54.4695 111.398 55.6419 112.442 56.2687L112.957 55.4113C112.202 54.9581 111.57 54.0425 111.066 52.6573C110.565 51.2821 110.215 49.5144 109.974 47.4568C109.492 43.342 109.456 38.1699 109.456 32.872H108.456ZM112.438 56.2658C112.751 56.4589 112.944 56.8391 112.956 57.1552C112.962 57.3082 112.924 57.3962 112.894 57.4346C112.876 57.4572 112.835 57.5 112.7 57.5V58.5C113.104 58.5 113.45 58.3448 113.68 58.0524C113.897 57.7758 113.967 57.4318 113.955 57.1168C113.931 56.4969 113.584 55.7971 112.962 55.4142L112.438 56.2658ZM112.7 57.5H103.052V58.5H112.7V57.5ZM188.688 19.12L189.158 18.9491L189.156 18.9435L188.688 19.12ZM184.44 55.84L184.702 55.4141L184.697 55.4113L184.44 55.84ZM166.152 55.84L165.895 55.4112L165.89 55.4142L166.152 55.84ZM161.904 19.12L161.436 18.9435L161.434 18.9491L161.904 19.12ZM153.188 19.984C153.188 17.7347 153.215 15.8518 153.33 14.289C153.446 12.7222 153.649 11.5095 153.985 10.5886C154.318 9.67779 154.772 9.07687 155.384 8.69278C156.004 8.30332 156.844 8.1 158.016 8.1V7.1C156.74 7.1 155.69 7.31967 154.852 7.84596C154.005 8.37763 153.433 9.1852 153.046 10.2454C152.663 11.2955 152.451 12.6163 152.333 14.2153C152.215 15.8182 152.188 17.7333 152.188 19.984H153.188ZM158.016 8.1H192.576V7.1H158.016V8.1ZM192.576 8.1C193.748 8.1 194.588 8.30332 195.208 8.69278C195.819 9.07687 196.273 9.67779 196.606 10.5886C196.943 11.5095 197.145 12.7222 197.261 14.289C197.377 15.8518 197.404 17.7347 197.404 19.984H198.404C198.404 17.7333 198.377 15.8182 198.258 14.2153C198.14 12.6163 197.929 11.2955 197.545 10.2454C197.158 9.1852 196.586 8.37763 195.74 7.84596C194.902 7.31967 193.852 7.1 192.576 7.1V8.1ZM197.404 19.984C197.404 21.0515 197.102 22.1507 196.516 22.969C195.941 23.7728 195.095 24.308 193.944 24.308V25.308C195.457 25.308 196.591 24.5832 197.329 23.551C198.058 22.5333 198.404 21.2205 198.404 19.984H197.404ZM193.944 24.308C192.683 24.308 191.793 23.7705 191.06 22.8422C190.306 21.8863 189.734 20.5348 189.158 18.9491L188.218 19.2909C188.793 20.8732 189.41 22.3657 190.275 23.4618C191.162 24.5855 192.324 25.308 193.944 25.308V24.308ZM189.156 18.9435C188.802 18.0072 188.499 16.9682 188.164 15.8982C187.832 14.8403 187.473 13.7606 187.016 12.795C186.559 11.8305 185.99 10.9469 185.222 10.3028C184.443 9.64896 183.479 9.26 182.28 9.26V10.26C183.241 10.26 183.978 10.564 184.58 11.069C185.193 11.5836 185.687 12.3245 186.112 13.2229C186.537 14.1204 186.879 15.1422 187.209 16.197C187.536 17.2398 187.853 18.3248 188.22 19.2965L189.156 18.9435ZM182.28 9.26C181.937 9.26 181.721 9.49722 181.61 9.66077C181.49 9.8385 181.398 10.0671 181.321 10.3104C181.166 10.804 181.038 11.4928 180.929 12.3119C180.71 13.9583 180.556 16.2287 180.448 18.7476C180.232 23.79 180.196 29.8832 180.196 34.096H181.196C181.196 29.8848 181.232 23.81 181.447 18.7904C181.555 16.2783 181.708 14.0442 181.92 12.4438C182.027 11.6396 182.147 11.0195 182.275 10.6099C182.341 10.4017 182.399 10.2802 182.439 10.2207C182.489 10.1471 182.443 10.26 182.28 10.26V9.26ZM180.196 34.096C180.196 38.3044 180.231 43.229 180.721 47.3757C180.966 49.4482 181.327 51.3501 181.864 52.8814C182.396 54.3964 183.13 55.6371 184.183 56.2687L184.697 55.4113C183.95 54.9629 183.316 53.9986 182.808 52.5504C182.306 51.1184 181.955 49.2988 181.714 47.2583C181.232 43.179 181.196 38.3116 181.196 34.096H180.196ZM184.178 56.2658C184.492 56.4589 184.684 56.8391 184.696 57.1552C184.702 57.3082 184.664 57.3962 184.634 57.4346C184.616 57.4572 184.576 57.5 184.44 57.5V58.5C184.844 58.5 185.19 58.3448 185.42 58.0524C185.638 57.7758 185.708 57.4318 185.695 57.1168C185.672 56.4969 185.324 55.7971 184.702 55.4142L184.178 56.2658ZM184.44 57.5H166.152V58.5H184.44V57.5ZM166.152 57.5C166.016 57.5 165.975 57.4572 165.958 57.4346C165.928 57.3962 165.89 57.3082 165.895 57.1552C165.908 56.8391 166.1 56.4589 166.414 56.2658L165.89 55.4142C165.268 55.7971 164.92 56.4969 164.896 57.1168C164.884 57.4318 164.954 57.7758 165.171 58.0524C165.401 58.3448 165.747 58.5 166.152 58.5V57.5ZM166.409 56.2687C167.462 55.6371 168.196 54.3964 168.727 52.8814C169.265 51.3501 169.625 49.4482 169.87 47.3757C170.36 43.229 170.396 38.3044 170.396 34.096H169.396C169.396 38.3116 169.359 43.179 168.877 47.2583C168.636 49.2988 168.286 51.1184 167.784 52.5504C167.276 53.9986 166.642 54.9629 165.895 55.4113L166.409 56.2687ZM170.396 34.096C170.396 29.8832 170.36 23.79 170.143 18.7476C170.035 16.2287 169.882 13.9583 169.662 12.3119C169.553 11.4928 169.425 10.804 169.27 10.3104C169.194 10.0671 169.101 9.8385 168.981 9.66077C168.871 9.49722 168.655 9.26 168.312 9.26V10.26C168.149 10.26 168.103 10.1471 168.153 10.2207C168.193 10.2802 168.251 10.4017 168.316 10.6099C168.445 11.0195 168.564 11.6396 168.671 12.4438C168.884 14.0442 169.036 16.2783 169.144 18.7904C169.36 23.81 169.396 29.8848 169.396 34.096H170.396ZM168.312 9.26C167.113 9.26 166.149 9.64896 165.369 10.3028C164.601 10.9469 164.033 11.8305 163.576 12.795C163.119 13.7606 162.759 14.8403 162.428 15.8982C162.093 16.9682 161.789 18.0072 161.436 18.9435L162.372 19.2965C162.738 18.3248 163.056 17.2398 163.382 16.197C163.712 15.1422 164.055 14.1204 164.48 13.2229C164.905 12.3245 165.398 11.5836 166.012 11.069C166.614 10.564 167.351 10.26 168.312 10.26V9.26ZM161.434 18.9491C160.857 20.5348 160.286 21.8863 159.531 22.8422C158.798 23.7705 157.908 24.308 156.648 24.308V25.308C158.267 25.308 159.429 24.5855 160.316 23.4618C161.182 22.3657 161.798 20.8732 162.374 19.2909L161.434 18.9491ZM156.648 24.308C155.497 24.308 154.651 23.7728 154.075 22.969C153.49 22.1507 153.188 21.0515 153.188 19.984H152.188C152.188 21.2205 152.534 22.5333 153.262 23.551C154.001 24.5832 155.135 25.308 156.648 25.308V24.308Z" fill="#FCFF62" mask="url(#path-3-outside-2_1226_1154)"/>
<defs>
<filter id="filter0_d_1226_1154" x="1.15234" y="6.16016" width="199.752" height="56.2793" filterUnits="userSpaceOnUse" color-interpolation-filters="sRGB">
<feFlood flood-opacity="0" result="BackgroundImageFix"/>
<feColorMatrix in="SourceAlpha" type="matrix" values="0 0 0 0 0 0 0 0 0 0 0 0 0 0 0 0 0 0 127 0" result="hardAlpha"/>
<feOffset dx="3" dy="3"/>
<feComposite in2="hardAlpha" operator="out"/>
<feColorMatrix type="matrix" values="0 0 0 0 0.834603 0 0 0 0 0.203011 0 0 0 0 0 0 0 0 1 0"/>
<feBlend mode="normal" in2="BackgroundImageFix" result="effect1_dropShadow_1226_1154"/>
<feBlend mode="normal" in="SourceGraphic" in2="effect1_dropShadow_1226_1154" result="shape"/>
</filter>
</defs>
</svg>
