<svg width="168" height="147" viewBox="0 0 168 147" fill="none" xmlns="http://www.w3.org/2000/svg">
<g filter="url(#filter0_d_1201_3792)">
<mask id="path-1-outside-1_1201_3792" maskUnits="userSpaceOnUse" x="-1" y="73" width="168" height="55" fill="black">
<rect fill="white" x="-1" y="73" width="168" height="55"/>
<path d="M2.232 126C1.152 126 1.296 124.416 2.232 123.84C5.4 121.968 5.256 110.52 5.256 100.8C5.256 91.08 5.544 79.704 2.232 77.76C1.296 77.184 1.152 75.6 2.232 75.6H20.52C21.6 75.6 21.6 77.112 20.52 77.76C17.352 79.776 17.496 91.08 17.496 100.8C17.496 110.52 17.28 123.84 23.4 123.84C27.72 123.84 28.368 118.296 29.808 114.48C30.96 111.312 32.184 108.792 35.064 108.792C37.728 108.792 39.024 111.312 39.024 113.616C39.024 122.616 38.592 126 33.696 126H2.232ZM46.6301 126C45.5501 126 45.6941 124.416 46.6301 123.84C49.5821 122.04 49.6541 110.52 49.6541 100.8C49.6541 91.08 50.0141 79.776 46.6301 77.76C45.6941 77.184 45.5501 75.6 46.6301 75.6H64.9181C65.9981 75.6 65.9261 77.184 64.9181 77.76C61.7501 79.704 61.8941 91.08 61.8941 100.8C61.8941 110.52 61.5341 121.824 64.9181 123.84C65.8541 124.416 65.9981 126 64.9181 126H46.6301ZM73.7314 126C72.6514 126 72.7954 124.416 73.7314 123.84C77.3314 121.68 77.4754 111.456 77.4754 100.872C77.4754 90.288 77.3314 79.92 73.7314 77.76C72.7954 77.184 72.6514 75.6 73.7314 75.6H84.8914C85.5394 75.6 86.1874 75.96 86.5474 76.536L109.659 115.2C110.163 111.096 110.163 106.272 110.163 102.096C110.163 93.672 110.019 79.92 106.419 77.76C105.483 77.184 105.339 75.6 106.419 75.6H116.067C117.147 75.6 117.075 77.184 116.067 77.76C112.467 79.92 112.323 93.672 112.323 102.096C112.323 110.52 112.683 121.32 115.275 122.904C117.075 124.056 116.355 126 115.275 126H104.979C104.331 126 103.683 125.64 103.323 125.064L80.1394 86.328C79.6354 90.504 79.6354 95.688 79.6354 100.872C79.6354 111.456 79.7794 121.68 83.3794 123.84C84.3154 124.416 84.4594 126 83.3794 126H73.7314ZM124.879 126C123.799 126 123.943 124.416 124.879 123.84C128.047 121.968 127.903 110.52 127.903 100.8C127.903 91.08 128.191 79.704 124.879 77.76C123.943 77.184 123.799 75.6 124.879 75.6H153.824C160.303 75.6 163.04 79.992 163.04 85.032C163.04 87.408 162.464 91.368 159.08 91.368C156.056 91.368 155.048 88.848 154.184 86.472C152.456 81.864 151.447 77.76 146.048 77.76C140.216 77.832 140.144 89.784 140.144 99.288C142.951 98.568 144.824 96.912 145.832 94.968C146.767 93.096 147.848 92.232 148.64 92.232C149.504 92.232 150.152 93.168 150.152 94.968V106.704C150.152 108.504 149.504 109.368 148.64 109.368C147.848 109.368 146.767 108.504 145.832 106.704C144.824 104.76 142.951 103.104 140.144 102.384C140.144 111.888 140.216 123.84 146.048 123.84C151.52 123.84 153.607 119.736 155.336 115.128C156.2 112.752 157.208 110.232 160.232 110.232C163.615 110.232 164.192 114.192 164.192 116.568C164.192 121.608 160.376 126 153.896 126H124.879Z"/>
</mask>
<path d="M2.232 126C1.152 126 1.296 124.416 2.232 123.84C5.4 121.968 5.256 110.52 5.256 100.8C5.256 91.08 5.544 79.704 2.232 77.76C1.296 77.184 1.152 75.6 2.232 75.6H20.52C21.6 75.6 21.6 77.112 20.52 77.76C17.352 79.776 17.496 91.08 17.496 100.8C17.496 110.52 17.28 123.84 23.4 123.84C27.72 123.84 28.368 118.296 29.808 114.48C30.96 111.312 32.184 108.792 35.064 108.792C37.728 108.792 39.024 111.312 39.024 113.616C39.024 122.616 38.592 126 33.696 126H2.232ZM46.6301 126C45.5501 126 45.6941 124.416 46.6301 123.84C49.5821 122.04 49.6541 110.52 49.6541 100.8C49.6541 91.08 50.0141 79.776 46.6301 77.76C45.6941 77.184 45.5501 75.6 46.6301 75.6H64.9181C65.9981 75.6 65.9261 77.184 64.9181 77.76C61.7501 79.704 61.8941 91.08 61.8941 100.8C61.8941 110.52 61.5341 121.824 64.9181 123.84C65.8541 124.416 65.9981 126 64.9181 126H46.6301ZM73.7314 126C72.6514 126 72.7954 124.416 73.7314 123.84C77.3314 121.68 77.4754 111.456 77.4754 100.872C77.4754 90.288 77.3314 79.92 73.7314 77.76C72.7954 77.184 72.6514 75.6 73.7314 75.6H84.8914C85.5394 75.6 86.1874 75.96 86.5474 76.536L109.659 115.2C110.163 111.096 110.163 106.272 110.163 102.096C110.163 93.672 110.019 79.92 106.419 77.76C105.483 77.184 105.339 75.6 106.419 75.6H116.067C117.147 75.6 117.075 77.184 116.067 77.76C112.467 79.92 112.323 93.672 112.323 102.096C112.323 110.52 112.683 121.32 115.275 122.904C117.075 124.056 116.355 126 115.275 126H104.979C104.331 126 103.683 125.64 103.323 125.064L80.1394 86.328C79.6354 90.504 79.6354 95.688 79.6354 100.872C79.6354 111.456 79.7794 121.68 83.3794 123.84C84.3154 124.416 84.4594 126 83.3794 126H73.7314ZM124.879 126C123.799 126 123.943 124.416 124.879 123.84C128.047 121.968 127.903 110.52 127.903 100.8C127.903 91.08 128.191 79.704 124.879 77.76C123.943 77.184 123.799 75.6 124.879 75.6H153.824C160.303 75.6 163.04 79.992 163.04 85.032C163.04 87.408 162.464 91.368 159.08 91.368C156.056 91.368 155.048 88.848 154.184 86.472C152.456 81.864 151.447 77.76 146.048 77.76C140.216 77.832 140.144 89.784 140.144 99.288C142.951 98.568 144.824 96.912 145.832 94.968C146.767 93.096 147.848 92.232 148.64 92.232C149.504 92.232 150.152 93.168 150.152 94.968V106.704C150.152 108.504 149.504 109.368 148.64 109.368C147.848 109.368 146.767 108.504 145.832 106.704C144.824 104.76 142.951 103.104 140.144 102.384C140.144 111.888 140.216 123.84 146.048 123.84C151.52 123.84 153.607 119.736 155.336 115.128C156.2 112.752 157.208 110.232 160.232 110.232C163.615 110.232 164.192 114.192 164.192 116.568C164.192 121.608 160.376 126 153.896 126H124.879Z" fill="#07641B"/>
<path d="M2.232 123.84L1.21454 122.118L1.19909 122.127L1.18381 122.137L2.232 123.84ZM2.232 77.76L1.1838 79.4633L1.20159 79.4743L1.2196 79.4848L2.232 77.76ZM20.52 77.76L19.491 76.045L19.4684 76.0585L19.4463 76.0727L20.52 77.76ZM29.808 114.48L31.6792 115.186L31.6835 115.175L31.6876 115.163L29.808 114.48ZM2.232 124C2.49928 124 2.91712 124.126 3.21739 124.508C3.46795 124.827 3.47798 125.123 3.47452 125.213C3.47048 125.318 3.44472 125.372 3.43114 125.396C3.41492 125.425 3.37345 125.486 3.28019 125.543L1.18381 122.137C0.0990234 122.804 -0.481149 123.983 -0.522522 125.059C-0.543981 125.617 -0.425949 126.345 0.0721134 126.979C0.619881 127.676 1.42472 128 2.232 128V124ZM3.24946 125.562C4.74758 124.677 5.50866 122.936 5.96173 121.375C6.44844 119.698 6.74096 117.634 6.92506 115.429C7.29375 111.014 7.256 105.62 7.256 100.8H3.256C3.256 105.7 3.29025 110.89 2.93894 115.097C2.76304 117.203 2.49756 118.96 2.12027 120.26C1.70934 121.675 1.30042 122.067 1.21454 122.118L3.24946 125.562ZM7.256 100.8C7.256 95.9956 7.32983 90.6096 6.97971 86.2055C6.80468 84.0039 6.51679 81.9363 6.02048 80.2489C5.55337 78.6607 4.76808 76.9295 3.2444 76.0352L1.2196 79.4848C1.35192 79.5625 1.77263 79.9823 2.18302 81.3776C2.56422 82.6736 2.82532 84.4221 2.99229 86.5225C3.32617 90.7224 3.256 95.8844 3.256 100.8H7.256ZM3.2802 76.0567C3.37345 76.1141 3.41492 76.1748 3.43114 76.2039C3.44472 76.2282 3.47048 76.2819 3.47452 76.3871C3.47798 76.4771 3.46795 76.7732 3.21739 77.0921C2.91712 77.4743 2.49928 77.6 2.232 77.6V73.6C1.42472 73.6 0.61988 73.9237 0.072113 74.6209C-0.42595 75.2548 -0.543981 75.9829 -0.522522 76.5409C-0.481149 77.6166 0.0990227 78.7958 1.1838 79.4633L3.2802 76.0567ZM2.232 77.6H20.52V73.6H2.232V77.6ZM20.52 77.6C20.29 77.6 19.9221 77.5007 19.6327 77.1751C19.3742 76.8843 19.33 76.5842 19.33 76.437C19.33 76.1626 19.4556 76.0663 19.491 76.045L21.549 79.475C22.6644 78.8057 23.33 77.6294 23.33 76.437C23.33 75.8308 23.1508 75.1122 22.6223 74.5176C22.0629 73.8883 21.2901 73.6 20.52 73.6V77.6ZM19.4463 76.0727C17.9989 76.9937 17.2457 78.71 16.7896 80.2885C16.3038 81.9698 16.0112 84.0271 15.827 86.2239C15.4582 90.6213 15.496 95.9803 15.496 100.8H19.496C19.496 95.8997 19.4618 90.7467 19.813 86.5581C19.9888 84.4619 20.2542 82.7077 20.6324 81.3988C21.0403 79.987 21.4571 79.5343 21.5938 79.4473L19.4463 76.0727ZM15.496 100.8C15.496 105.592 15.4362 111.538 16.177 116.274C16.5457 118.631 17.1411 120.903 18.1806 122.636C19.2674 124.447 20.9695 125.84 23.4 125.84V121.84C22.7705 121.84 22.2046 121.568 21.6106 120.578C20.9694 119.509 20.4713 117.844 20.129 115.656C19.4478 111.302 19.496 105.728 19.496 100.8H15.496ZM23.4 125.84C24.9566 125.84 26.2607 125.324 27.3065 124.446C28.3058 123.608 28.9881 122.51 29.4917 121.447C29.9971 120.379 30.3826 119.213 30.7154 118.15C31.0632 117.039 31.346 116.069 31.6792 115.186L27.9368 113.774C27.55 114.799 27.2118 115.953 26.8981 116.955C26.5694 118.005 26.2529 118.94 25.8763 119.735C25.4979 120.535 25.1182 121.061 24.736 121.382C24.4003 121.663 24.0034 121.84 23.4 121.84V125.84ZM31.6876 115.163C32.266 113.573 32.7693 112.433 33.3578 111.687C33.8594 111.052 34.342 110.792 35.064 110.792V106.792C32.906 106.792 31.3366 107.792 30.2182 109.209C29.1867 110.515 28.502 112.219 27.9284 113.797L31.6876 115.163ZM35.064 110.792C35.6717 110.792 36.0867 111.043 36.4166 111.504C36.7881 112.023 37.024 112.802 37.024 113.616H41.024C41.024 112.126 40.6119 110.493 39.6694 109.176C38.6853 107.801 37.1203 106.792 35.064 106.792V110.792ZM37.024 113.616C37.024 115.863 36.9965 117.698 36.8854 119.2C36.7732 120.719 36.583 121.77 36.3174 122.497C36.0666 123.183 35.7893 123.474 35.5302 123.637C35.2369 123.821 34.7111 124 33.696 124V128C35.1289 128 36.4931 127.756 37.6578 127.024C38.8567 126.271 39.6054 125.154 40.0746 123.869C40.529 122.625 40.7528 121.143 40.8746 119.495C40.9975 117.832 41.024 115.869 41.024 113.616H37.024ZM33.696 124H2.232V128H33.696V124ZM46.6301 123.84L45.5889 122.132L45.5819 122.137L46.6301 123.84ZM46.6301 77.76L45.5819 79.4633L45.5942 79.4708L45.6065 79.4782L46.6301 77.76ZM64.9181 77.76L63.9258 76.0235L63.8987 76.039L63.8721 76.0554L64.9181 77.76ZM64.9181 123.84L65.9663 122.137L65.9541 122.129L65.9417 122.122L64.9181 123.84ZM46.6301 124C46.8974 124 47.3152 124.126 47.6155 124.508C47.8661 124.827 47.8761 125.123 47.8726 125.213C47.8686 125.318 47.8428 125.372 47.8293 125.396C47.813 125.425 47.7716 125.486 47.6783 125.543L45.5819 122.137C44.4971 122.804 43.917 123.983 43.8756 125.059C43.8541 125.617 43.9722 126.345 44.4702 126.979C45.018 127.676 45.8228 128 46.6301 128V124ZM47.6713 125.548C48.4354 125.082 48.9695 124.391 49.3512 123.712C49.7384 123.023 50.0354 122.227 50.2719 121.394C50.7441 119.732 51.0434 117.676 51.2411 115.468C51.6376 111.043 51.6541 105.641 51.6541 100.8H47.6541C47.6541 105.679 47.6347 110.897 47.2571 115.112C47.0678 117.224 46.7957 118.993 46.4241 120.301C46.2387 120.953 46.0458 121.429 45.864 121.752C45.6768 122.085 45.5628 122.148 45.5889 122.132L47.6713 125.548ZM51.6541 100.8C51.6541 96.0039 51.746 90.6302 51.4051 86.2363C51.2346 84.0381 50.949 81.9703 50.4482 80.2765C49.9735 78.6713 49.1781 76.9499 47.6537 76.0418L45.6065 79.4782C45.7741 79.5781 46.2028 80.0257 46.6123 81.4108C46.9957 82.7072 47.2546 84.4509 47.4171 86.5457C47.7423 90.7378 47.6541 95.8761 47.6541 100.8H51.6541ZM47.6783 76.0567C47.7716 76.1141 47.813 76.1748 47.8293 76.2039C47.8428 76.2282 47.8686 76.2819 47.8726 76.3871C47.8761 76.4771 47.8661 76.7732 47.6155 77.0921C47.3152 77.4743 46.8974 77.6 46.6301 77.6V73.6C45.8228 73.6 45.018 73.9237 44.4702 74.6209C43.9722 75.2548 43.8541 75.9829 43.8756 76.5409C43.917 77.6166 44.4971 78.7958 45.5819 79.4633L47.6783 76.0567ZM46.6301 77.6H64.9181V73.6H46.6301V77.6ZM64.9181 77.6C64.6537 77.6 64.2594 77.4783 63.97 77.126C63.7233 76.8256 63.6994 76.5368 63.7015 76.4255C63.7052 76.2354 63.78 76.1069 63.9258 76.0235L65.9104 79.4965C67.0643 78.8371 67.6791 77.6286 67.7008 76.5025C67.7119 75.9232 67.5665 75.2024 67.061 74.587C66.5128 73.9197 65.7226 73.6 64.9181 73.6V77.6ZM63.8721 76.0554C62.3998 76.9588 61.6427 78.6871 61.1881 80.2569C60.7018 81.9361 60.4093 83.9965 60.2251 86.1972C59.8564 90.6034 59.8941 95.9803 59.8941 100.8H63.8941C63.8941 95.8997 63.8599 90.7286 64.2112 86.5308C64.387 84.4295 64.6525 82.6739 65.0302 81.3696C65.4396 79.9559 65.8525 79.5332 65.9642 79.4646L63.8721 76.0554ZM59.8941 100.8C59.8941 105.596 59.8023 110.97 60.1431 115.364C60.3136 117.562 60.5992 119.63 61.1001 121.324C61.5748 122.929 62.3701 124.65 63.8945 125.558L65.9417 122.122C65.7741 122.022 65.3455 121.574 64.9359 120.189C64.5525 118.893 64.2936 117.149 64.1311 115.054C63.806 110.862 63.8941 105.724 63.8941 100.8H59.8941ZM63.8699 125.543C63.7767 125.486 63.7352 125.425 63.719 125.396C63.7054 125.372 63.6796 125.318 63.6756 125.213C63.6721 125.123 63.6822 124.827 63.9327 124.508C64.233 124.126 64.6508 124 64.9181 124V128C65.7254 128 66.5302 127.676 67.078 126.979C67.5761 126.345 67.6941 125.617 67.6726 125.059C67.6313 123.983 67.0511 122.804 65.9663 122.137L63.8699 125.543ZM64.9181 124H46.6301V128H64.9181V124ZM73.7314 123.84L72.7024 122.125L72.6927 122.131L72.6832 122.137L73.7314 123.84ZM73.7314 77.76L72.6832 79.4633L72.6927 79.4692L72.7024 79.475L73.7314 77.76ZM86.5474 76.536L88.2641 75.5098L88.2539 75.4928L88.2434 75.476L86.5474 76.536ZM109.659 115.2L107.943 116.226L110.934 121.23L111.644 115.444L109.659 115.2ZM106.419 77.76L105.371 79.4633L105.381 79.4692L105.39 79.475L106.419 77.76ZM116.067 77.76L115.075 76.0235L115.057 76.0341L115.038 76.045L116.067 77.76ZM115.275 122.904L116.353 121.219L116.336 121.208L116.318 121.197L115.275 122.904ZM103.323 125.064L101.607 126.091L101.617 126.108L101.627 126.124L103.323 125.064ZM80.1394 86.328L81.8555 85.3009L78.8541 80.2861L78.1538 86.0884L80.1394 86.328ZM83.3794 123.84L84.4276 122.137L84.418 122.131L84.4084 122.125L83.3794 123.84ZM73.7314 124C73.9987 124 74.4165 124.126 74.7168 124.508C74.9673 124.827 74.9774 125.123 74.9739 125.213C74.9698 125.318 74.9441 125.372 74.9305 125.396C74.9143 125.425 74.8728 125.486 74.7796 125.543L72.6832 122.137C71.5984 122.804 71.0182 123.983 70.9769 125.059C70.9554 125.617 71.0734 126.345 71.5715 126.979C72.1193 127.676 72.9241 128 73.7314 128V124ZM74.7604 125.555C76.2395 124.667 77.1329 123.11 77.7145 121.513C78.3106 119.875 78.6889 117.89 78.9398 115.748C79.4418 111.462 79.4754 106.14 79.4754 100.872H75.4754C75.4754 106.188 75.437 111.27 74.967 115.282C74.7319 117.289 74.3992 118.926 73.9558 120.144C73.4978 121.402 73.0232 121.933 72.7024 122.125L74.7604 125.555ZM79.4754 100.872C79.4754 95.6032 79.4417 90.2466 78.94 85.9263C78.6893 83.7672 78.3114 81.765 77.7165 80.1156C77.1373 78.5096 76.2453 76.936 74.7604 76.045L72.7024 79.475C73.0174 79.664 73.4935 80.1964 73.9537 81.4727C74.3984 82.7055 74.7315 84.3618 74.9667 86.3877C75.437 90.4374 75.4754 95.5568 75.4754 100.872H79.4754ZM74.7796 76.0567C74.8728 76.1141 74.9143 76.1748 74.9305 76.2039C74.9441 76.2282 74.9698 76.2819 74.9739 76.3871C74.9774 76.4771 74.9673 76.7732 74.7168 77.0921C74.4165 77.4743 73.9987 77.6 73.7314 77.6V73.6C72.9241 73.6 72.1193 73.9237 71.5715 74.6209C71.0734 75.2548 70.9554 75.9829 70.9769 76.5409C71.0182 77.6166 71.5984 78.7958 72.6832 79.4633L74.7796 76.0567ZM73.7314 77.6H84.8914V73.6H73.7314V77.6ZM84.8914 77.6C84.8684 77.6 84.8544 77.5969 84.849 77.5954C84.8437 77.594 84.8436 77.5933 84.8469 77.5951C84.85 77.5969 84.8529 77.5991 84.8546 77.6008C84.8562 77.6023 84.8546 77.6012 84.8514 77.596L88.2434 75.476C87.5281 74.3316 86.248 73.6 84.8914 73.6V77.6ZM84.8307 77.5622L107.943 116.226L111.376 114.174L88.2641 75.5098L84.8307 77.5622ZM111.644 115.444C112.166 111.195 112.163 106.242 112.163 102.096H108.163C108.163 106.302 108.161 110.997 107.674 114.956L111.644 115.444ZM112.163 102.096C112.163 97.8917 112.129 92.2517 111.631 87.3759C111.383 84.9441 111.011 82.6145 110.438 80.712C109.905 78.9432 109.047 77.0041 107.448 76.045L105.39 79.475C105.592 79.5959 106.102 80.1858 106.608 81.8662C107.074 83.413 107.414 85.4529 107.652 87.7821C108.126 92.4282 108.163 97.8763 108.163 102.096H112.163ZM107.468 76.0567C107.561 76.1141 107.602 76.1748 107.619 76.2039C107.632 76.2282 107.658 76.2819 107.662 76.3871C107.665 76.4771 107.655 76.7732 107.405 77.0921C107.104 77.4743 106.687 77.6 106.419 77.6V73.6C105.612 73.6 104.807 73.9237 104.259 74.6209C103.761 75.2548 103.643 75.9829 103.665 76.5409C103.706 77.6166 104.286 78.7958 105.371 79.4633L107.468 76.0567ZM106.419 77.6H116.067V73.6H106.419V77.6ZM116.067 77.6C115.803 77.6 115.409 77.4783 115.119 77.126C114.873 76.8256 114.849 76.5368 114.851 76.4255C114.854 76.2354 114.929 76.1069 115.075 76.0235L117.06 79.4965C118.214 78.8371 118.828 77.6286 118.85 76.5025C118.861 75.9232 118.716 75.2024 118.21 74.587C117.662 73.9197 116.872 73.6 116.067 73.6V77.6ZM115.038 76.045C113.44 77.0041 112.582 78.9432 112.049 80.712C111.475 82.6145 111.104 84.9441 110.856 87.3759C110.358 92.2517 110.323 97.8917 110.323 102.096H114.323C114.323 97.8763 114.361 92.4282 114.835 87.7821C115.073 85.4529 115.412 83.413 115.879 81.8662C116.385 80.1858 116.895 79.5959 117.096 79.475L115.038 76.045ZM110.323 102.096C110.323 106.318 110.413 111.212 110.838 115.273C111.05 117.297 111.353 119.194 111.8 120.729C112.024 121.496 112.301 122.234 112.657 122.873C113.003 123.496 113.501 124.164 114.232 124.611L116.318 121.197C116.401 121.248 116.321 121.232 116.152 120.928C115.992 120.64 115.815 120.209 115.641 119.61C115.291 118.41 115.018 116.784 114.816 114.857C114.414 111.016 114.323 106.298 114.323 102.096H110.323ZM114.197 124.589C114.376 124.703 114.402 124.776 114.391 124.754C114.381 124.735 114.364 124.68 114.375 124.601C114.385 124.535 114.419 124.421 114.538 124.297C114.662 124.167 114.915 124 115.275 124V128C117.124 128 118.154 126.437 118.335 125.167C118.548 123.681 117.843 122.173 116.353 121.219L114.197 124.589ZM115.275 124H104.979V128H115.275V124ZM104.979 124C105.002 124 105.016 124.003 105.022 124.005C105.027 124.006 105.027 124.007 105.024 124.005C105.021 124.003 105.018 124.001 105.016 123.999C105.015 123.998 105.016 123.999 105.019 124.004L101.627 126.124C102.343 127.268 103.623 128 104.979 128V124ZM105.039 124.037L81.8555 85.3009L78.4233 87.3551L101.607 126.091L105.039 124.037ZM78.1538 86.0884C77.6323 90.4091 77.6354 95.7265 77.6354 100.872H81.6354C81.6354 95.6495 81.6384 90.5989 82.125 86.5676L78.1538 86.0884ZM77.6354 100.872C77.6354 106.14 77.669 111.462 78.171 115.748C78.4219 117.89 78.8002 119.875 79.3963 121.513C79.9778 123.11 80.8712 124.667 82.3504 125.555L84.4084 122.125C84.0875 121.933 83.6129 121.402 83.155 120.144C82.7116 118.926 82.3789 117.289 82.1438 115.282C81.6738 111.27 81.6354 106.188 81.6354 100.872H77.6354ZM82.3312 125.543C82.2379 125.486 82.1964 125.425 82.1802 125.396C82.1667 125.372 82.1409 125.318 82.1369 125.213C82.1334 125.123 82.1434 124.827 82.394 124.508C82.6943 124.126 83.1121 124 83.3794 124V128C84.1867 128 84.9915 127.676 85.5393 126.979C86.0373 126.345 86.1554 125.617 86.1339 125.059C86.0925 123.983 85.5124 122.804 84.4276 122.137L82.3312 125.543ZM83.3794 124H73.7314V128H83.3794V124ZM124.88 123.84L123.862 122.118L123.847 122.127L123.831 122.137L124.88 123.84ZM124.88 77.76L123.831 79.4633L123.849 79.4743L123.867 79.4848L124.88 77.76ZM154.184 86.472L156.063 85.7885L156.06 85.7791L156.056 85.7698L154.184 86.472ZM146.048 77.76V75.76H146.035L146.023 75.7602L146.048 77.76ZM140.143 99.288H138.143V101.866L140.64 101.225L140.143 99.288ZM145.831 94.968L147.607 95.8886L147.614 95.8756L147.62 95.8624L145.831 94.968ZM145.831 106.704L144.056 107.625L144.057 107.627L145.831 106.704ZM140.143 102.384L140.64 100.447L138.143 99.8065V102.384H140.143ZM155.335 115.128L157.208 115.83L157.212 115.821L157.215 115.811L155.335 115.128ZM124.88 124C125.147 124 125.565 124.126 125.865 124.508C126.115 124.827 126.125 125.123 126.122 125.213C126.118 125.318 126.092 125.372 126.079 125.396C126.062 125.425 126.021 125.486 125.928 125.543L123.831 122.137C122.747 122.804 122.166 123.983 122.125 125.059C122.104 125.617 122.222 126.345 122.72 126.979C123.267 127.676 124.072 128 124.88 128V124ZM125.897 125.562C127.395 124.677 128.156 122.936 128.609 121.375C129.096 119.698 129.388 117.634 129.573 115.429C129.941 111.014 129.904 105.62 129.904 100.8H125.903C125.903 105.7 125.938 110.89 125.586 115.097C125.411 117.203 125.145 118.96 124.768 120.26C124.357 121.675 123.948 122.067 123.862 122.118L125.897 125.562ZM129.904 100.8C129.904 95.9956 129.977 90.6096 129.627 86.2055C129.452 84.0039 129.164 81.9363 128.668 80.2489C128.201 78.6607 127.416 76.9295 125.892 76.0352L123.867 79.4848C123.999 79.5625 124.42 79.9823 124.831 81.3776C125.212 82.6736 125.473 84.4221 125.64 86.5225C125.974 90.7224 125.903 95.8844 125.903 100.8H129.904ZM125.928 76.0567C126.021 76.1141 126.062 76.1748 126.079 76.2039C126.092 76.2282 126.118 76.2819 126.122 76.3871C126.125 76.4771 126.115 76.7732 125.865 77.0921C125.565 77.4743 125.147 77.6 124.88 77.6V73.6C124.072 73.6 123.267 73.9237 122.72 74.6209C122.222 75.2548 122.104 75.9829 122.125 76.5409C122.166 77.6166 122.747 78.7958 123.831 79.4633L125.928 76.0567ZM124.88 77.6H153.824V73.6H124.88V77.6ZM153.824 77.6C156.577 77.6 158.292 78.5125 159.349 79.7341C160.446 81.0032 161.04 82.8489 161.04 85.032H165.04C165.04 82.1751 164.265 79.3048 162.374 77.1179C160.443 74.8835 157.549 73.6 153.824 73.6V77.6ZM161.04 85.032C161.04 86.119 160.899 87.3748 160.498 88.2847C160.307 88.7194 160.097 88.9802 159.905 89.128C159.741 89.2543 159.505 89.368 159.079 89.368V93.368C160.346 93.368 161.451 92.9867 162.347 92.2962C163.215 91.6273 163.783 90.7496 164.159 89.8973C164.892 88.2332 165.04 86.321 165.04 85.032H161.04ZM159.079 89.368C158.247 89.368 157.791 89.0739 157.386 88.5653C156.883 87.933 156.511 87.0191 156.063 85.7885L152.304 87.1555C152.72 88.3009 153.284 89.835 154.257 91.0567C155.328 92.4021 156.888 93.368 159.079 93.368V89.368ZM156.056 85.7698C155.264 83.6563 154.462 81.1061 153.121 79.2264C152.405 78.2234 151.492 77.3288 150.275 76.6977C149.059 76.0677 147.657 75.76 146.048 75.76V79.76C147.138 79.76 147.887 79.9653 148.433 80.2488C148.978 80.5312 149.437 80.9506 149.864 81.5496C150.809 82.8739 151.375 84.6797 152.311 87.1742L156.056 85.7698ZM146.023 75.7602C143.732 75.7884 142.077 77.0419 140.985 78.7319C139.944 80.3423 139.33 82.4483 138.94 84.6356C138.155 89.0294 138.143 94.5836 138.143 99.288H142.143C142.143 94.4884 142.168 89.3146 142.877 85.3384C143.234 83.3407 143.732 81.8512 144.344 80.9034C144.906 80.0351 145.447 79.7676 146.072 79.7598L146.023 75.7602ZM140.64 101.225C143.992 100.366 146.333 98.3454 147.607 95.8886L144.056 94.0474C143.314 95.4786 141.911 96.77 139.647 97.3507L140.64 101.225ZM147.62 95.8624C148.013 95.0778 148.385 94.6095 148.648 94.3655C148.945 94.0906 148.949 94.232 148.639 94.232V90.232C147.538 90.232 146.606 90.8054 145.931 91.4305C145.222 92.0865 144.586 92.9862 144.043 94.0736L147.62 95.8624ZM148.639 94.232C148.478 94.232 148.308 94.1837 148.167 94.0941C148.036 94.011 147.991 93.9315 147.996 93.939C148.002 93.9492 148.043 94.0269 148.083 94.2068C148.121 94.3841 148.152 94.6346 148.152 94.968H152.152C152.152 93.8668 151.959 92.7881 151.443 91.911C150.89 90.97 149.918 90.232 148.639 90.232V94.232ZM148.152 94.968V106.704H152.152V94.968H148.152ZM148.152 106.704C148.152 107.038 148.121 107.28 148.084 107.446C148.047 107.613 148.01 107.673 148.014 107.667C148.021 107.655 148.077 107.57 148.213 107.489C148.355 107.404 148.51 107.368 148.639 107.368V111.368C149.853 111.368 150.839 110.713 151.425 109.755C151.961 108.881 152.152 107.802 152.152 106.704H148.152ZM148.639 107.368C148.943 107.368 148.936 107.505 148.633 107.23C148.367 106.988 147.996 106.531 147.606 105.781L144.057 107.627C144.603 108.677 145.24 109.552 145.946 110.192C146.615 110.799 147.544 111.368 148.639 111.368V107.368ZM147.607 105.783C146.333 103.327 143.992 101.306 140.64 100.447L139.647 104.321C141.911 104.902 143.314 106.193 144.056 107.625L147.607 105.783ZM138.143 102.384C138.143 107.088 138.155 112.643 138.94 117.028C139.33 119.21 139.945 121.313 140.989 122.916C142.088 124.602 143.753 125.84 146.048 125.84V121.84C145.426 121.84 144.895 121.584 144.34 120.732C143.731 119.797 143.234 118.318 142.877 116.324C142.168 112.357 142.143 107.184 142.143 102.384H138.143ZM146.048 125.84C149.381 125.84 151.807 124.549 153.591 122.54C155.281 120.636 156.341 118.144 157.208 115.83L153.463 114.426C152.602 116.72 151.754 118.584 150.6 119.884C149.54 121.079 148.186 121.84 146.048 121.84V125.84ZM157.215 115.811C157.663 114.581 158.035 113.667 158.538 113.035C158.943 112.526 159.399 112.232 160.232 112.232V108.232C158.04 108.232 156.48 109.198 155.409 110.543C154.436 111.765 153.872 113.299 153.456 114.445L157.215 115.811ZM160.232 112.232C160.657 112.232 160.893 112.346 161.057 112.472C161.249 112.62 161.459 112.881 161.65 113.315C162.051 114.225 162.191 115.481 162.191 116.568H166.191C166.191 115.279 166.044 113.367 165.311 111.703C164.935 110.85 164.367 109.973 163.499 109.304C162.603 108.613 161.498 108.232 160.232 108.232V112.232ZM162.191 116.568C162.191 120.465 159.31 124 153.896 124V128C161.441 128 166.191 122.751 166.191 116.568H162.191ZM153.896 124H124.88V128H153.896V124Z" fill="#07641B" mask="url(#path-1-outside-1_1201_3792)"/>
</g>
<mask id="path-3-outside-2_1201_3792" maskUnits="userSpaceOnUse" x="1" y="75" width="165" height="52" fill="black">
<rect fill="white" x="1" y="75" width="165" height="52"/>
<path d="M2.62356 126C1.54356 126 1.68756 124.416 2.62356 123.84C5.79156 121.968 5.64756 110.52 5.64756 100.8C5.64756 91.08 5.93556 79.704 2.62356 77.76C1.68756 77.184 1.54356 75.6 2.62356 75.6H20.9116C21.9916 75.6 21.9916 77.112 20.9116 77.76C17.7436 79.776 17.8876 91.08 17.8876 100.8C17.8876 110.52 17.6716 123.84 23.7916 123.84C28.1116 123.84 28.7596 118.296 30.1996 114.48C31.3516 111.312 32.5756 108.792 35.4556 108.792C38.1196 108.792 39.4156 111.312 39.4156 113.616C39.4156 122.616 38.9836 126 34.0876 126H2.62356ZM47.0217 126C45.9417 126 46.0857 124.416 47.0217 123.84C49.9737 122.04 50.0457 110.52 50.0457 100.8C50.0457 91.08 50.4057 79.776 47.0217 77.76C46.0857 77.184 45.9417 75.6 47.0217 75.6H65.3097C66.3897 75.6 66.3177 77.184 65.3097 77.76C62.1417 79.704 62.2857 91.08 62.2857 100.8C62.2857 110.52 61.9257 121.824 65.3097 123.84C66.2457 124.416 66.3897 126 65.3097 126H47.0217ZM74.1229 126C73.0429 126 73.1869 124.416 74.1229 123.84C77.7229 121.68 77.8669 111.456 77.8669 100.872C77.8669 90.288 77.7229 79.92 74.1229 77.76C73.1869 77.184 73.0429 75.6 74.1229 75.6H85.2829C85.9309 75.6 86.5789 75.96 86.9389 76.536L110.051 115.2C110.555 111.096 110.555 106.272 110.555 102.096C110.555 93.672 110.411 79.92 106.811 77.76C105.875 77.184 105.731 75.6 106.811 75.6H116.459C117.539 75.6 117.467 77.184 116.459 77.76C112.859 79.92 112.715 93.672 112.715 102.096C112.715 110.52 113.075 121.32 115.667 122.904C117.467 124.056 116.747 126 115.667 126H105.371C104.723 126 104.075 125.64 103.715 125.064L80.5309 86.328C80.0269 90.504 80.0269 95.688 80.0269 100.872C80.0269 111.456 80.1709 121.68 83.7709 123.84C84.7069 124.416 84.8509 126 83.7709 126H74.1229ZM125.271 126C124.191 126 124.335 124.416 125.271 123.84C128.439 121.968 128.295 110.52 128.295 100.8C128.295 91.08 128.583 79.704 125.271 77.76C124.335 77.184 124.191 75.6 125.271 75.6H154.215C160.695 75.6 163.431 79.992 163.431 85.032C163.431 87.408 162.855 91.368 159.471 91.368C156.447 91.368 155.439 88.848 154.575 86.472C152.847 81.864 151.839 77.76 146.439 77.76C140.607 77.832 140.535 89.784 140.535 99.288C143.343 98.568 145.215 96.912 146.223 94.968C147.159 93.096 148.239 92.232 149.031 92.232C149.895 92.232 150.543 93.168 150.543 94.968V106.704C150.543 108.504 149.895 109.368 149.031 109.368C148.239 109.368 147.159 108.504 146.223 106.704C145.215 104.76 143.343 103.104 140.535 102.384C140.535 111.888 140.607 123.84 146.439 123.84C151.911 123.84 153.999 119.736 155.727 115.128C156.591 112.752 157.599 110.232 160.623 110.232C164.007 110.232 164.583 114.192 164.583 116.568C164.583 121.608 160.767 126 154.287 126H125.271Z"/>
</mask>
<path d="M2.62356 126C1.54356 126 1.68756 124.416 2.62356 123.84C5.79156 121.968 5.64756 110.52 5.64756 100.8C5.64756 91.08 5.93556 79.704 2.62356 77.76C1.68756 77.184 1.54356 75.6 2.62356 75.6H20.9116C21.9916 75.6 21.9916 77.112 20.9116 77.76C17.7436 79.776 17.8876 91.08 17.8876 100.8C17.8876 110.52 17.6716 123.84 23.7916 123.84C28.1116 123.84 28.7596 118.296 30.1996 114.48C31.3516 111.312 32.5756 108.792 35.4556 108.792C38.1196 108.792 39.4156 111.312 39.4156 113.616C39.4156 122.616 38.9836 126 34.0876 126H2.62356ZM47.0217 126C45.9417 126 46.0857 124.416 47.0217 123.84C49.9737 122.04 50.0457 110.52 50.0457 100.8C50.0457 91.08 50.4057 79.776 47.0217 77.76C46.0857 77.184 45.9417 75.6 47.0217 75.6H65.3097C66.3897 75.6 66.3177 77.184 65.3097 77.76C62.1417 79.704 62.2857 91.08 62.2857 100.8C62.2857 110.52 61.9257 121.824 65.3097 123.84C66.2457 124.416 66.3897 126 65.3097 126H47.0217ZM74.1229 126C73.0429 126 73.1869 124.416 74.1229 123.84C77.7229 121.68 77.8669 111.456 77.8669 100.872C77.8669 90.288 77.7229 79.92 74.1229 77.76C73.1869 77.184 73.0429 75.6 74.1229 75.6H85.2829C85.9309 75.6 86.5789 75.96 86.9389 76.536L110.051 115.2C110.555 111.096 110.555 106.272 110.555 102.096C110.555 93.672 110.411 79.92 106.811 77.76C105.875 77.184 105.731 75.6 106.811 75.6H116.459C117.539 75.6 117.467 77.184 116.459 77.76C112.859 79.92 112.715 93.672 112.715 102.096C112.715 110.52 113.075 121.32 115.667 122.904C117.467 124.056 116.747 126 115.667 126H105.371C104.723 126 104.075 125.64 103.715 125.064L80.5309 86.328C80.0269 90.504 80.0269 95.688 80.0269 100.872C80.0269 111.456 80.1709 121.68 83.7709 123.84C84.7069 124.416 84.8509 126 83.7709 126H74.1229ZM125.271 126C124.191 126 124.335 124.416 125.271 123.84C128.439 121.968 128.295 110.52 128.295 100.8C128.295 91.08 128.583 79.704 125.271 77.76C124.335 77.184 124.191 75.6 125.271 75.6H154.215C160.695 75.6 163.431 79.992 163.431 85.032C163.431 87.408 162.855 91.368 159.471 91.368C156.447 91.368 155.439 88.848 154.575 86.472C152.847 81.864 151.839 77.76 146.439 77.76C140.607 77.832 140.535 89.784 140.535 99.288C143.343 98.568 145.215 96.912 146.223 94.968C147.159 93.096 148.239 92.232 149.031 92.232C149.895 92.232 150.543 93.168 150.543 94.968V106.704C150.543 108.504 149.895 109.368 149.031 109.368C148.239 109.368 147.159 108.504 146.223 106.704C145.215 104.76 143.343 103.104 140.535 102.384C140.535 111.888 140.607 123.84 146.439 123.84C151.911 123.84 153.999 119.736 155.727 115.128C156.591 112.752 157.599 110.232 160.623 110.232C164.007 110.232 164.583 114.192 164.583 116.568C164.583 121.608 160.767 126 154.287 126H125.271Z" fill="#B5FF6A"/>
<path d="M2.62356 123.84L2.36915 123.409L2.36151 123.414L2.62356 123.84ZM2.62356 77.76L2.36145 78.1859L2.37046 78.1912L2.62356 77.76ZM20.9116 77.76L20.6542 77.3311L20.6431 77.3382L20.9116 77.76ZM30.1996 114.48L30.6674 114.657L30.6695 114.651L30.1996 114.48ZM2.62356 125.5C2.48788 125.5 2.44721 125.457 2.42947 125.435C2.39929 125.396 2.3613 125.308 2.36719 125.155C2.37934 124.839 2.5718 124.459 2.8856 124.266L2.36151 123.414C1.73931 123.797 1.39177 124.497 1.36793 125.117C1.35581 125.432 1.42582 125.776 1.64315 126.052C1.8729 126.345 2.21924 126.5 2.62356 126.5V125.5ZM2.87792 124.27C3.84645 123.698 4.47547 122.463 4.91274 120.956C5.35842 119.421 5.6408 117.472 5.82182 115.305C6.18399 110.968 6.14756 105.65 6.14756 100.8H5.14756C5.14756 105.67 5.18312 110.936 4.82529 115.221C4.64632 117.365 4.3707 119.237 3.95237 120.678C3.52564 122.148 2.98466 123.046 2.36919 123.41L2.87792 124.27ZM6.14756 100.8C6.14756 95.9539 6.22001 90.6519 5.87598 86.3244C5.70398 84.1607 5.42613 82.2128 4.97299 80.6722C4.52715 79.1563 3.87858 77.9169 2.87666 77.3288L2.37046 78.1912C3.02454 78.5751 3.58196 79.4867 4.01362 80.9543C4.43798 82.3972 4.70914 84.2653 4.87913 86.4036C5.2191 90.6801 5.14756 95.9261 5.14756 100.8H6.14756ZM2.88561 77.3342C2.5718 77.1411 2.37934 76.7609 2.36719 76.4448C2.3613 76.2918 2.39929 76.2038 2.42947 76.1654C2.44721 76.1428 2.48788 76.1 2.62356 76.1V75.1C2.21924 75.1 1.8729 75.2552 1.64315 75.5476C1.42582 75.8242 1.35581 76.1682 1.36793 76.4832C1.39177 77.1031 1.73931 77.8029 2.36151 78.1858L2.88561 77.3342ZM2.62356 76.1H20.9116V75.1H2.62356V76.1ZM20.9116 76.1C21.0565 76.1 21.1165 76.146 21.1454 76.1786C21.182 76.2198 21.2216 76.3017 21.2216 76.437C21.2216 76.7126 21.0505 77.0936 20.6543 77.3313L21.1688 78.1887C21.8527 77.7784 22.2216 77.0794 22.2216 76.437C22.2216 76.1133 22.1261 75.7767 21.8928 75.5142C21.6517 75.2429 21.3066 75.1 20.9116 75.1V76.1ZM20.6431 77.3382C19.6873 77.9464 19.0602 79.1889 18.6222 80.7048C18.1768 82.2465 17.8944 84.1901 17.7133 86.3492C17.3511 90.6683 17.3876 95.9501 17.3876 100.8H18.3876C18.3876 95.9299 18.352 90.6997 18.7098 86.4328C18.8888 84.2989 19.1644 82.431 19.5829 80.9824C20.0089 79.5081 20.5518 78.5816 21.18 78.1818L20.6431 77.3382ZM17.3876 100.8C17.3876 105.643 17.3321 111.45 18.0506 116.042C18.4094 118.336 18.9683 120.381 19.8584 121.864C20.7604 123.367 22.0364 124.34 23.7916 124.34V123.34C22.4867 123.34 21.4947 122.648 20.7159 121.35C19.9253 120.032 19.3908 118.139 19.0385 115.888C18.335 111.39 18.3876 105.677 18.3876 100.8H17.3876ZM23.7916 124.34C24.9907 124.34 25.9546 123.951 26.7341 123.297C27.502 122.653 28.0708 121.769 28.5275 120.805C28.9846 119.839 29.3442 118.76 29.6755 117.702C30.0105 116.632 30.3141 115.593 30.6674 114.657L29.7318 114.303C29.3651 115.275 29.0476 116.36 28.7211 117.403C28.3909 118.458 28.0485 119.48 27.6236 120.377C27.1983 121.276 26.7051 122.016 26.0915 122.531C25.4895 123.036 24.7524 123.34 23.7916 123.34V124.34ZM30.6695 114.651C31.2461 113.065 31.8174 111.714 32.572 110.758C33.3049 109.829 34.1951 109.292 35.4556 109.292V108.292C33.8361 108.292 32.6742 109.015 31.7871 110.138C30.9217 111.234 30.305 112.727 29.7297 114.309L30.6695 114.651ZM35.4556 109.292C36.6065 109.292 37.4527 109.827 38.028 110.631C38.6136 111.449 38.9156 112.548 38.9156 113.616H39.9156C39.9156 112.38 39.5695 111.067 38.8412 110.049C38.1024 109.017 36.9686 108.292 35.4556 108.292V109.292ZM38.9156 113.616C38.9156 115.865 38.8884 117.748 38.7729 119.311C38.6571 120.878 38.4543 122.091 38.1179 123.011C37.7852 123.922 37.3311 124.523 36.7196 124.907C36.0995 125.297 35.2593 125.5 34.0876 125.5V126.5C35.3638 126.5 36.4136 126.28 37.2515 125.754C38.098 125.222 38.6699 124.415 39.0572 123.355C39.4408 122.304 39.652 120.984 39.7702 119.385C39.8887 117.782 39.9156 115.867 39.9156 113.616H38.9156ZM34.0876 125.5H2.62356V126.5H34.0876V125.5ZM47.0217 123.84L46.7614 123.413L46.7596 123.414L47.0217 123.84ZM47.0217 77.76L46.7596 78.1859L46.7658 78.1895L47.0217 77.76ZM65.3097 77.76L65.0616 77.3259L65.0548 77.3298L65.0482 77.3338L65.3097 77.76ZM65.3097 123.84L65.5718 123.414L65.5656 123.41L65.3097 123.84ZM47.0217 125.5C46.886 125.5 46.8453 125.457 46.8276 125.435C46.7974 125.396 46.7594 125.308 46.7653 125.155C46.7775 124.839 46.9699 124.459 47.2837 124.266L46.7596 123.414C46.1374 123.797 45.7899 124.497 45.766 125.117C45.7539 125.432 45.8239 125.776 46.0413 126.052C46.271 126.345 46.6174 126.5 47.0217 126.5V125.5ZM47.282 124.267C47.7498 123.982 48.1263 123.526 48.4351 122.977C48.7452 122.425 49.0032 121.749 49.2205 120.984C49.655 119.455 49.9441 117.506 50.1387 115.335C50.528 110.988 50.5457 105.655 50.5457 100.8H49.5457C49.5457 105.665 49.5273 110.952 49.1427 115.245C48.9502 117.394 48.6679 119.27 48.2586 120.711C48.054 121.431 47.8221 122.026 47.5633 122.487C47.3031 122.95 47.0316 123.248 46.7614 123.413L47.282 124.267ZM50.5457 100.8C50.5457 95.956 50.6361 90.6706 50.3012 86.3523C50.1337 84.1929 49.8581 82.2466 49.4013 80.7018C48.951 79.1792 48.2932 77.9355 47.2776 77.3304L46.7658 78.1895C47.4422 78.5925 48.0083 79.5178 48.4423 80.9854C48.8698 82.4309 49.1387 84.2961 49.3042 86.4297C49.6352 90.6974 49.5457 95.924 49.5457 100.8H50.5457ZM47.2837 77.3342C46.9699 77.1411 46.7775 76.7609 46.7653 76.4448C46.7594 76.2918 46.7974 76.2038 46.8276 76.1654C46.8453 76.1428 46.886 76.1 47.0217 76.1V75.1C46.6174 75.1 46.271 75.2552 46.0413 75.5476C45.8239 75.8242 45.7539 76.1682 45.766 76.4832C45.7899 77.1031 46.1374 77.8029 46.7596 78.1858L47.2837 77.3342ZM47.0217 76.1H65.3097V75.1H47.0217V76.1ZM65.3097 76.1C65.4461 76.1 65.496 76.1438 65.5207 76.1739C65.556 76.2169 65.5956 76.3067 65.5928 76.4544C65.5869 76.7578 65.4031 77.1307 65.0616 77.3259L65.5578 78.1941C66.2242 77.8133 66.5804 77.1062 66.5926 76.4736C66.5987 76.1533 66.5168 75.8111 66.2934 75.5391C66.0594 75.2542 65.7133 75.1 65.3097 75.1V76.1ZM65.0482 77.3338C64.0861 77.9242 63.4581 79.1629 63.0204 80.6742C62.5748 82.2128 62.2925 84.1589 62.1114 86.3223C61.7492 90.6504 61.7857 95.9501 61.7857 100.8H62.7857C62.7857 95.9299 62.7501 90.6816 63.1079 86.4057C63.2869 84.2671 63.5625 82.3972 63.9809 80.9523C64.4073 79.4801 64.9493 78.5678 65.5712 78.1862L65.0482 77.3338ZM61.7857 100.8C61.7857 105.644 61.6952 110.929 62.0302 115.248C62.1977 117.407 62.4733 119.353 62.9301 120.898C63.3803 122.421 64.0382 123.665 65.0538 124.27L65.5656 123.41C64.8892 123.007 64.323 122.082 63.889 120.615C63.4616 119.169 63.1927 117.304 63.0272 115.17C62.6961 110.903 62.7857 105.676 62.7857 100.8H61.7857ZM65.0476 124.266C65.3614 124.459 65.5539 124.839 65.566 125.155C65.5719 125.308 65.5339 125.396 65.5038 125.435C65.486 125.457 65.4454 125.5 65.3097 125.5V126.5C65.714 126.5 66.0603 126.345 66.2901 126.052C66.5074 125.776 66.5774 125.432 66.5653 125.117C66.5415 124.497 66.1939 123.797 65.5717 123.414L65.0476 124.266ZM65.3097 125.5H47.0217V126.5H65.3097V125.5ZM74.1229 123.84L73.8657 123.411L73.8609 123.414L74.1229 123.84ZM74.1229 77.76L73.8609 78.1859L73.8657 78.1887L74.1229 77.76ZM86.9389 76.536L87.3682 76.2794L87.3629 76.271L86.9389 76.536ZM110.051 115.2L109.622 115.457L110.37 116.708L110.547 115.261L110.051 115.2ZM106.811 77.76L106.549 78.1859L106.554 78.1887L106.811 77.76ZM116.459 77.76L116.211 77.3258L116.202 77.3313L116.459 77.76ZM115.667 122.904L115.937 122.483L115.928 122.477L115.667 122.904ZM103.715 125.064L103.286 125.321L103.291 125.329L103.715 125.064ZM80.5309 86.328L80.96 86.0712L80.2096 84.8175L80.0345 86.2681L80.5309 86.328ZM83.7709 123.84L84.033 123.414L84.0282 123.411L83.7709 123.84ZM74.1229 125.5C73.9873 125.5 73.9466 125.457 73.9288 125.435C73.8987 125.396 73.8607 125.308 73.8666 125.155C73.8787 124.839 74.0712 124.459 74.385 124.266L73.8609 123.414C73.2387 123.797 72.8911 124.497 72.8673 125.117C72.8552 125.432 72.9252 125.776 73.1425 126.052C73.3723 126.345 73.7186 126.5 74.1229 126.5V125.5ZM74.3802 124.269C75.425 123.642 76.1613 122.469 76.6965 120.999C77.2354 119.519 77.5966 117.665 77.8415 115.573C78.3315 111.39 78.3669 106.158 78.3669 100.872H77.3669C77.3669 106.17 77.3303 111.342 76.8483 115.457C76.6073 117.514 76.2575 119.282 75.7569 120.657C75.2525 122.043 74.6209 122.958 73.8657 123.411L74.3802 124.269ZM78.3669 100.872C78.3669 95.5858 78.3315 90.3182 77.8416 86.0993C77.5967 83.9902 77.2356 82.1177 76.697 80.6245C76.1624 79.1421 75.4264 77.959 74.3802 77.3313L73.8657 78.1887C74.6194 78.641 75.2514 79.5639 75.7563 80.9638C76.2573 82.3528 76.6072 84.1388 76.8483 86.2147C77.3303 90.3658 77.3669 95.5742 77.3669 100.872H78.3669ZM74.385 77.3342C74.0712 77.1411 73.8787 76.7609 73.8666 76.4448C73.8607 76.2918 73.8987 76.2038 73.9288 76.1654C73.9466 76.1428 73.9873 76.1 74.1229 76.1V75.1C73.7186 75.1 73.3723 75.2552 73.1425 75.5476C72.9252 75.8242 72.8552 76.1682 72.8673 76.4832C72.8911 77.1031 73.2387 77.8029 73.8609 78.1858L74.385 77.3342ZM74.1229 76.1H85.2829V75.1H74.1229V76.1ZM85.2829 76.1C85.7538 76.1 86.2437 76.3671 86.5149 76.801L87.3629 76.271C86.9141 75.5529 86.1081 75.1 85.2829 75.1V76.1ZM86.5098 76.7925L109.622 115.457L110.48 114.943L87.3681 76.2795L86.5098 76.7925ZM110.547 115.261C111.056 111.121 111.055 106.264 111.055 102.096H110.055C110.055 106.28 110.054 111.071 109.555 115.139L110.547 115.261ZM111.055 102.096C111.055 97.8859 111.019 92.3179 110.53 87.5282C110.286 85.1349 109.927 82.9139 109.393 81.1448C108.87 79.4092 108.143 77.976 107.068 77.3313L106.554 78.1887C107.279 78.624 107.92 79.7198 108.436 81.4334C108.942 83.1136 109.294 85.2621 109.536 87.6298C110.019 92.3621 110.055 97.8821 110.055 102.096H111.055ZM107.073 77.3342C106.759 77.1411 106.567 76.7609 106.555 76.4448C106.549 76.2918 106.587 76.2038 106.617 76.1654C106.635 76.1428 106.675 76.1 106.811 76.1V75.1C106.407 75.1 106.06 75.2552 105.831 75.5476C105.613 75.8242 105.543 76.1682 105.555 76.4832C105.579 77.1031 105.927 77.8029 106.549 78.1858L107.073 77.3342ZM106.811 76.1H116.459V75.1H106.811V76.1ZM116.459 76.1C116.595 76.1 116.645 76.1438 116.67 76.1739C116.705 76.2169 116.745 76.3067 116.742 76.4544C116.736 76.7578 116.552 77.1307 116.211 77.3259L116.707 78.1941C117.373 77.8133 117.73 77.1062 117.742 76.4736C117.748 76.1533 117.666 75.8111 117.443 75.5391C117.209 75.2542 116.863 75.1 116.459 75.1V76.1ZM116.202 77.3313C115.127 77.976 114.4 79.4092 113.876 81.1448C113.343 82.9139 112.984 85.1349 112.74 87.5282C112.251 92.3179 112.215 97.8859 112.215 102.096H113.215C113.215 97.8821 113.251 92.3621 113.734 87.6298C113.976 85.2621 114.328 83.1136 114.834 81.4334C115.35 79.7198 115.991 78.624 116.716 78.1887L116.202 77.3313ZM112.215 102.096C112.215 106.311 112.305 111.139 112.722 115.117C112.93 117.105 113.222 118.9 113.632 120.309C113.837 121.013 114.077 121.636 114.359 122.144C114.639 122.647 114.98 123.07 115.406 123.331L115.928 122.477C115.705 122.342 115.469 122.081 115.233 121.657C114.999 121.238 114.785 120.692 114.592 120.029C114.206 118.704 113.922 116.976 113.716 115.013C113.305 111.089 113.215 106.305 113.215 102.096H112.215ZM115.397 123.325C116.15 123.807 116.311 124.397 116.252 124.813C116.185 125.283 115.88 125.5 115.667 125.5V126.5C116.534 126.5 117.129 125.745 117.242 124.955C117.362 124.111 116.984 123.153 115.936 122.483L115.397 123.325ZM115.667 125.5H105.371V126.5H115.667V125.5ZM105.371 125.5C104.9 125.5 104.41 125.233 104.139 124.799L103.291 125.329C103.74 126.047 104.546 126.5 105.371 126.5V125.5ZM104.144 124.807L80.96 86.0712L80.1019 86.5848L103.286 125.321L104.144 124.807ZM80.0345 86.2681C79.5262 90.4803 79.5269 95.6976 79.5269 100.872H80.5269C80.5269 95.6784 80.5277 90.5277 81.0273 86.3879L80.0345 86.2681ZM79.5269 100.872C79.5269 106.158 79.5623 111.39 80.0523 115.573C80.2973 117.665 80.6585 119.519 81.1973 120.999C81.7325 122.469 82.4689 123.642 83.5137 124.269L84.0282 123.411C83.273 122.958 82.6413 122.043 82.137 120.657C81.6364 119.282 81.2866 117.514 81.0455 115.457C80.5635 111.342 80.5269 106.17 80.5269 100.872H79.5269ZM83.5089 124.266C83.8227 124.459 84.0151 124.839 84.0273 125.155C84.0332 125.308 83.9952 125.396 83.965 125.435C83.9473 125.457 83.9066 125.5 83.7709 125.5V126.5C84.1752 126.5 84.5216 126.345 84.7513 126.052C84.9687 125.776 85.0387 125.432 85.0266 125.117C85.0027 124.497 84.6552 123.797 84.033 123.414L83.5089 124.266ZM83.7709 125.5H74.1229V126.5H83.7709V125.5ZM125.271 123.84L125.017 123.409L125.009 123.414L125.271 123.84ZM125.271 77.76L125.009 78.1859L125.018 78.1912L125.271 77.76ZM154.575 86.472L155.045 86.3011L155.043 86.2964L154.575 86.472ZM146.439 77.76V77.26L146.433 77.26L146.439 77.76ZM140.535 99.288H140.035V99.9324L140.659 99.7723L140.535 99.288ZM146.223 94.968L146.667 95.1982L146.67 95.1916L146.223 94.968ZM146.223 106.704L145.779 106.934L145.779 106.935L146.223 106.704ZM140.535 102.384L140.659 101.9L140.035 101.74V102.384H140.535ZM155.727 115.128L156.195 115.304L156.197 115.299L155.727 115.128ZM125.271 125.5C125.135 125.5 125.095 125.457 125.077 125.435C125.047 125.396 125.009 125.308 125.015 125.155C125.027 124.839 125.219 124.459 125.533 124.266L125.009 123.414C124.387 123.797 124.039 124.497 124.015 125.117C124.003 125.432 124.073 125.776 124.291 126.052C124.52 126.345 124.867 126.5 125.271 126.5V125.5ZM125.525 124.27C126.494 123.698 127.123 122.463 127.56 120.956C128.006 119.421 128.288 117.472 128.469 115.305C128.831 110.968 128.795 105.65 128.795 100.8H127.795C127.795 105.67 127.831 110.936 127.473 115.221C127.294 117.365 127.018 119.237 126.6 120.678C126.173 122.148 125.632 123.046 125.017 123.41L125.525 124.27ZM128.795 100.8C128.795 95.9539 128.868 90.6519 128.523 86.3244C128.351 84.1607 128.074 82.2128 127.62 80.6722C127.175 79.1563 126.526 77.9169 125.524 77.3288L125.018 78.1912C125.672 78.5751 126.229 79.4867 126.661 80.9543C127.085 82.3972 127.357 84.2653 127.527 86.4036C127.867 90.6801 127.795 95.9261 127.795 100.8H128.795ZM125.533 77.3342C125.219 77.1411 125.027 76.7609 125.015 76.4448C125.009 76.2918 125.047 76.2038 125.077 76.1654C125.095 76.1428 125.135 76.1 125.271 76.1V75.1C124.867 75.1 124.52 75.2552 124.291 75.5476C124.073 75.8242 124.003 76.1682 124.015 76.4832C124.039 77.1031 124.387 77.8029 125.009 78.1858L125.533 77.3342ZM125.271 76.1H154.215V75.1H125.271V76.1ZM154.215 76.1C157.334 76.1 159.49 77.1516 160.875 78.753C162.27 80.3663 162.931 82.5962 162.931 85.032H163.931C163.931 82.4278 163.224 79.9417 161.631 78.099C160.028 76.2444 157.577 75.1 154.215 75.1V76.1ZM162.931 85.032C162.931 86.1948 162.788 87.6967 162.262 88.8894C162.002 89.4807 161.658 89.9729 161.212 90.3161C160.774 90.6539 160.212 90.868 159.471 90.868V91.868C160.422 91.868 161.201 91.587 161.823 91.1082C162.437 90.6346 162.871 89.9883 163.178 89.2926C163.786 87.9113 163.931 86.2452 163.931 85.032H162.931ZM159.471 90.868C158.129 90.868 157.259 90.322 156.604 89.4996C155.925 88.6462 155.481 87.4998 155.045 86.3011L154.105 86.6429C154.533 87.8202 155.025 89.1218 155.822 90.1224C156.643 91.154 157.789 91.868 159.471 91.868V90.868ZM155.043 86.2964C154.197 84.0401 153.484 81.769 152.291 80.0976C151.684 79.2461 150.941 78.5297 149.976 78.0294C149.011 77.5293 147.854 77.26 146.439 77.26V78.26C147.724 78.26 148.718 78.5037 149.515 78.9171C150.312 79.3303 150.942 79.9279 151.477 80.6784C152.57 82.211 153.225 84.2959 154.107 86.6476L155.043 86.2964ZM146.433 77.26C144.767 77.2806 143.53 78.1644 142.636 79.5462C141.756 80.9081 141.186 82.783 140.808 84.8991C140.052 89.1363 140.035 94.5479 140.035 99.288H141.035C141.035 94.5241 141.055 89.2077 141.792 85.0749C142.162 83.006 142.703 81.2854 143.476 80.0891C144.237 78.9126 145.195 78.2754 146.445 78.26L146.433 77.26ZM140.659 99.7723C143.603 99.0175 145.592 97.2703 146.667 95.1982L145.779 94.7378C144.838 96.5537 143.083 98.1185 140.411 98.8037L140.659 99.7723ZM146.67 95.1916C147.119 94.2934 147.59 93.6634 148.021 93.2649C148.459 92.8587 148.811 92.732 149.031 92.732V91.732C148.459 91.732 147.875 92.0373 147.341 92.5311C146.8 93.0326 146.263 93.7706 145.776 94.7444L146.67 95.1916ZM149.031 92.732C149.251 92.732 149.481 92.84 149.68 93.1785C149.889 93.533 150.043 94.1183 150.043 94.968H151.043C151.043 94.0177 150.874 93.235 150.542 92.6715C150.201 92.092 149.675 91.732 149.031 91.732V92.732ZM150.043 94.968V106.704H151.043V94.968H150.043ZM150.043 106.704C150.043 107.554 149.888 108.117 149.685 108.45C149.494 108.762 149.268 108.868 149.031 108.868V109.868C149.659 109.868 150.188 109.542 150.537 108.972C150.874 108.423 151.043 107.654 151.043 106.704H150.043ZM149.031 108.868C148.81 108.868 148.457 108.74 148.017 108.341C147.586 107.95 147.115 107.336 146.667 106.473L145.779 106.935C146.267 107.872 146.804 108.59 147.345 109.081C147.877 109.564 148.46 109.868 149.031 109.868V108.868ZM146.667 106.474C145.592 104.402 143.603 102.655 140.659 101.9L140.411 102.868C143.083 103.553 144.838 105.118 145.779 106.934L146.667 106.474ZM140.035 102.384C140.035 107.124 140.052 112.536 140.808 116.764C141.186 118.876 141.756 120.744 142.637 122.097C143.532 123.47 144.772 124.34 146.439 124.34V123.34C145.19 123.34 144.234 122.716 143.475 121.551C142.703 120.366 142.162 118.652 141.792 116.588C141.055 112.464 141.035 107.148 141.035 102.384H140.035ZM146.439 124.34C149.324 124.34 151.348 123.248 152.861 121.544C154.35 119.866 155.33 117.61 156.195 115.304L155.259 114.952C154.396 117.254 153.468 119.354 152.113 120.88C150.782 122.38 149.026 123.34 146.439 123.34V124.34ZM156.197 115.299C156.633 114.1 157.077 112.954 157.756 112.1C158.411 111.278 159.281 110.732 160.623 110.732V109.732C158.941 109.732 157.795 110.446 156.974 111.478C156.177 112.478 155.685 113.78 155.257 114.957L156.197 115.299ZM160.623 110.732C161.364 110.732 161.926 110.946 162.364 111.284C162.81 111.627 163.154 112.119 163.414 112.711C163.94 113.903 164.083 115.405 164.083 116.568H165.083C165.083 115.355 164.938 113.689 164.33 112.307C164.023 111.612 163.589 110.965 162.975 110.492C162.353 110.013 161.574 109.732 160.623 109.732V110.732ZM164.083 116.568C164.083 121.322 160.501 125.5 154.287 125.5V126.5C161.033 126.5 165.083 121.894 165.083 116.568H164.083ZM154.287 125.5H125.271V126.5H154.287V125.5Z" fill="#B5FF6A" mask="url(#path-3-outside-2_1201_3792)"/>
<g filter="url(#filter1_d_1201_3792)">
<mask id="path-5-outside-3_1201_3792" maskUnits="userSpaceOnUse" x="7" y="4" width="159" height="58" fill="black">
<rect fill="white" x="7" y="4" width="159" height="58"/>
<path d="M9.72 19.984C9.72 10.984 10.152 7.6 15.048 7.6H49.608C54.504 7.6 54.936 10.984 54.936 19.984C54.936 22.288 53.64 24.808 50.976 24.808C48.096 24.808 46.872 22.288 45.72 19.12C44.28 15.304 43.632 9.76 39.312 9.76C37.872 9.76 37.728 25.672 37.728 34.096C37.728 42.52 37.872 53.68 41.472 55.84C42.408 56.416 42.552 58 41.472 58H23.184C22.104 58 22.248 56.416 23.184 55.84C26.784 53.68 26.928 42.52 26.928 34.096C26.928 25.672 26.784 9.76 25.344 9.76C21.024 9.76 20.376 15.304 18.936 19.12C17.784 22.288 16.56 24.808 13.68 24.808C11.016 24.808 9.72 22.288 9.72 19.984ZM56.889 58C55.809 58 55.737 56.416 56.889 55.84C61.281 53.68 66.249 42.52 69.345 34.096C73.953 21.64 78.057 11.056 74.529 9.76C73.161 9.256 73.449 7.6 74.529 7.6H86.121C87.057 7.6 87.921 8.248 88.209 9.184C90.009 14.44 94.905 27.904 96.705 32.8C100.233 42.52 104.553 54.04 108.153 55.84C109.305 56.416 109.233 58 108.153 58H90.657C89.577 58 89.577 56.416 90.657 55.84C92.313 54.976 90.657 49.576 88.353 43.24H69.417C67.113 49.288 65.313 54.832 67.185 55.84C68.265 56.416 68.265 58 67.185 58H56.889ZM72.945 34.096C72.369 35.824 71.577 37.696 70.857 39.64H86.985C84.249 32.368 81.657 25.096 79.065 17.752C76.761 22.576 74.889 28.624 72.945 34.096ZM112.612 32.8C112.612 16.96 123.053 6.16 137.453 6.16C145.589 6.16 152.717 8.824 156.029 14.08C159.701 19.84 155.092 24.52 150.772 24.52C148.973 24.52 147.317 23.728 146.165 22C142.997 17.104 138.029 9.328 131.764 9.328C125.285 9.328 121.397 13.864 121.397 21.424C121.397 29.488 129.1 53.248 142.925 53.248C152.933 53.248 146.021 36.76 144.365 35.752C143.429 35.176 143.285 33.592 144.365 33.592H162.653C163.733 33.592 163.661 35.176 162.653 35.752C160.709 36.976 160.781 52.672 163.084 56.272C163.517 56.992 163.373 58 161.933 58C157.901 58 155.669 55.84 152.428 55.84C151.493 55.84 150.485 56.056 149.333 56.488C145.949 58.216 141.916 59.44 137.453 59.44C123.053 59.44 112.612 48.64 112.612 32.8Z"/>
</mask>
<path d="M9.72 19.984C9.72 10.984 10.152 7.6 15.048 7.6H49.608C54.504 7.6 54.936 10.984 54.936 19.984C54.936 22.288 53.64 24.808 50.976 24.808C48.096 24.808 46.872 22.288 45.72 19.12C44.28 15.304 43.632 9.76 39.312 9.76C37.872 9.76 37.728 25.672 37.728 34.096C37.728 42.52 37.872 53.68 41.472 55.84C42.408 56.416 42.552 58 41.472 58H23.184C22.104 58 22.248 56.416 23.184 55.84C26.784 53.68 26.928 42.52 26.928 34.096C26.928 25.672 26.784 9.76 25.344 9.76C21.024 9.76 20.376 15.304 18.936 19.12C17.784 22.288 16.56 24.808 13.68 24.808C11.016 24.808 9.72 22.288 9.72 19.984ZM56.889 58C55.809 58 55.737 56.416 56.889 55.84C61.281 53.68 66.249 42.52 69.345 34.096C73.953 21.64 78.057 11.056 74.529 9.76C73.161 9.256 73.449 7.6 74.529 7.6H86.121C87.057 7.6 87.921 8.248 88.209 9.184C90.009 14.44 94.905 27.904 96.705 32.8C100.233 42.52 104.553 54.04 108.153 55.84C109.305 56.416 109.233 58 108.153 58H90.657C89.577 58 89.577 56.416 90.657 55.84C92.313 54.976 90.657 49.576 88.353 43.24H69.417C67.113 49.288 65.313 54.832 67.185 55.84C68.265 56.416 68.265 58 67.185 58H56.889ZM72.945 34.096C72.369 35.824 71.577 37.696 70.857 39.64H86.985C84.249 32.368 81.657 25.096 79.065 17.752C76.761 22.576 74.889 28.624 72.945 34.096ZM112.612 32.8C112.612 16.96 123.053 6.16 137.453 6.16C145.589 6.16 152.717 8.824 156.029 14.08C159.701 19.84 155.092 24.52 150.772 24.52C148.973 24.52 147.317 23.728 146.165 22C142.997 17.104 138.029 9.328 131.764 9.328C125.285 9.328 121.397 13.864 121.397 21.424C121.397 29.488 129.1 53.248 142.925 53.248C152.933 53.248 146.021 36.76 144.365 35.752C143.429 35.176 143.285 33.592 144.365 33.592H162.653C163.733 33.592 163.661 35.176 162.653 35.752C160.709 36.976 160.781 52.672 163.084 56.272C163.517 56.992 163.373 58 161.933 58C157.901 58 155.669 55.84 152.428 55.84C151.493 55.84 150.485 56.056 149.333 56.488C145.949 58.216 141.916 59.44 137.453 59.44C123.053 59.44 112.612 48.64 112.612 32.8Z" fill="#07641B"/>
<path d="M45.72 19.12L47.5996 18.4365L47.5955 18.4252L47.5912 18.4139L45.72 19.12ZM41.472 55.84L42.5202 54.1367L42.5106 54.1308L42.501 54.125L41.472 55.84ZM23.184 55.84L22.155 54.125L22.1454 54.1308L22.1358 54.1367L23.184 55.84ZM18.936 19.12L17.0648 18.4139L17.0605 18.4252L17.0564 18.4365L18.936 19.12ZM11.72 19.984C11.72 17.737 11.7475 15.9024 11.8586 14.3996C11.9708 12.881 12.161 11.8304 12.4266 11.1032C12.6774 10.4167 12.9547 10.1257 13.2138 9.96301C13.5071 9.7788 14.0329 9.6 15.048 9.6V5.6C13.6151 5.6 12.251 5.84419 11.0862 6.57573C9.88732 7.32876 9.13862 8.44631 8.66942 9.73076C8.21503 10.9746 7.9912 12.4575 7.86944 14.1047C7.74652 15.7676 7.72 17.731 7.72 19.984H11.72ZM15.048 9.6H49.608V5.6H15.048V9.6ZM49.608 9.6C50.6231 9.6 51.149 9.7788 51.4422 9.96301C51.7013 10.1257 51.9786 10.4167 52.2294 11.1032C52.495 11.8304 52.6852 12.881 52.7974 14.3996C52.9085 15.9024 52.936 17.737 52.936 19.984H56.936C56.936 17.731 56.9095 15.7676 56.7866 14.1047C56.6648 12.4575 56.441 10.9746 55.9866 9.73076C55.5174 8.44631 54.7687 7.32876 53.5698 6.57573C52.4051 5.84419 51.0409 5.6 49.608 5.6V9.6ZM52.936 19.984C52.936 20.7981 52.7001 21.5769 52.3286 22.096C51.9987 22.557 51.5837 22.808 50.976 22.808V26.808C53.0323 26.808 54.5973 25.7989 55.5814 24.424C56.5239 23.1071 56.936 21.4739 56.936 19.984H52.936ZM50.976 22.808C50.254 22.808 49.7714 22.5481 49.2698 21.9127C48.6814 21.1674 48.178 20.0273 47.5996 18.4365L43.8404 19.8035C44.414 21.3807 45.0987 23.0846 46.1302 24.3913C47.2486 25.8079 48.818 26.808 50.976 26.808V22.808ZM47.5912 18.4139C47.258 17.5309 46.9752 16.5608 46.6274 15.45C46.2946 14.3873 45.9091 13.2207 45.4037 12.1532C44.9001 11.0896 44.2178 9.99171 43.2185 9.15353C42.1727 8.27633 40.8687 7.76 39.312 7.76V11.76C39.9154 11.76 40.3123 11.9367 40.648 12.2182C41.0302 12.5388 41.4099 13.0654 41.7883 13.8648C42.1649 14.6603 42.4814 15.5952 42.8101 16.6452C43.1239 17.6472 43.462 18.8011 43.8488 19.8261L47.5912 18.4139ZM39.312 7.76C38.2096 7.76 37.6016 8.52241 37.3999 8.82083C37.1599 9.17595 37.0152 9.56518 36.9223 9.86115C36.7278 10.4807 36.5865 11.2725 36.4745 12.1141C36.2463 13.8293 36.0904 16.1543 35.9818 18.6832C35.7639 23.7601 35.728 29.8807 35.728 34.096H39.728C39.728 29.8873 39.7641 23.8399 39.9782 18.8548C40.0856 16.3527 40.2357 14.1732 40.4395 12.6417C40.5436 11.8599 40.6497 11.3427 40.7387 11.0592C40.7875 10.9036 40.7936 10.9428 40.7139 11.0607C40.6726 11.1219 40.2344 11.76 39.312 11.76V7.76ZM35.728 34.096C35.728 38.2938 35.7619 43.3042 36.2638 47.5517C36.5144 49.6724 36.8915 51.6975 37.481 53.3779C38.0476 54.993 38.9324 56.6486 40.443 57.555L42.501 54.125C42.2116 53.9514 41.7284 53.402 41.2555 52.0538C40.8055 50.771 40.4716 49.0746 40.2362 47.0823C39.7661 43.1038 39.728 38.3222 39.728 34.096H35.728ZM40.4238 57.5433C40.3306 57.4859 40.2891 57.4252 40.2729 57.3961C40.2593 57.3718 40.2335 57.3181 40.2295 57.2129C40.226 57.1229 40.2361 56.8268 40.4866 56.5079C40.7869 56.1257 41.2047 56 41.472 56V60C42.2793 60 43.0841 59.6763 43.6319 58.9791C44.13 58.3452 44.248 57.6171 44.2265 57.0591C44.1852 55.9834 43.605 54.8042 42.5202 54.1367L40.4238 57.5433ZM41.472 56H23.184V60H41.472V56ZM23.184 56C23.4513 56 23.8691 56.1257 24.1694 56.5079C24.42 56.8268 24.43 57.1229 24.4265 57.2129C24.4225 57.3181 24.3967 57.3718 24.3831 57.3961C24.3669 57.4252 24.3254 57.4859 24.2322 57.5433L22.1358 54.1367C21.051 54.8042 20.4709 55.9834 20.4295 57.0591C20.408 57.6171 20.5261 58.3452 21.0241 58.9791C21.5719 59.6763 22.3767 60 23.184 60V56ZM24.213 57.555C25.7236 56.6486 26.6084 54.993 27.175 53.3779C27.7645 51.6975 28.1416 49.6724 28.3922 47.5517C28.8941 43.3042 28.928 38.2938 28.928 34.096H24.928C24.928 38.3222 24.8899 43.1038 24.4198 47.0823C24.1844 49.0746 23.8505 50.771 23.4005 52.0538C22.9276 53.402 22.4444 53.9514 22.155 54.125L24.213 57.555ZM28.928 34.096C28.928 29.8807 28.8921 23.7601 28.6742 18.6832C28.5656 16.1543 28.4097 13.8293 28.1815 12.1141C28.0696 11.2725 27.9282 10.4807 27.7337 9.86115C27.6408 9.56518 27.4961 9.17595 27.2561 8.82084C27.0544 8.52241 26.4464 7.76 25.344 7.76V11.76C24.4216 11.76 23.9834 11.1219 23.9421 11.0607C23.8624 10.9428 23.8685 10.9036 23.9173 11.0592C24.0063 11.3427 24.1125 11.8599 24.2165 12.6417C24.4203 14.1732 24.5704 16.3527 24.6778 18.8548C24.8919 23.8399 24.928 29.8873 24.928 34.096H28.928ZM25.344 7.76C23.7874 7.76 22.4833 8.27633 21.4375 9.15353C20.4382 9.99171 19.7559 11.0896 19.2523 12.1532C18.7469 13.2207 18.3614 14.3873 18.0286 15.45C17.6808 16.5608 17.398 17.5309 17.0648 18.4139L20.8072 19.8261C21.194 18.8011 21.5322 17.6472 21.8459 16.6452C22.1746 15.5952 22.4911 14.6603 22.8677 13.8648C23.2461 13.0654 23.6258 12.5388 24.008 12.2182C24.3437 11.9367 24.7406 11.76 25.344 11.76V7.76ZM17.0564 18.4365C16.478 20.0273 15.9747 21.1674 15.3862 21.9127C14.8846 22.5481 14.402 22.808 13.68 22.808V26.808C15.838 26.808 17.4074 25.8079 18.5258 24.3913C19.5573 23.0846 20.242 21.3807 20.8156 19.8035L17.0564 18.4365ZM13.68 22.808C13.0723 22.808 12.6573 22.557 12.3274 22.096C11.9559 21.5769 11.72 20.7981 11.72 19.984H7.72C7.72 21.4739 8.13211 23.1071 9.07461 24.424C10.0587 25.7989 11.6237 26.808 13.68 26.808V22.808ZM56.889 55.84L56.0063 54.0453L55.9946 54.0511L56.889 55.84ZM69.345 34.096L67.4692 33.4021L67.4678 33.4061L69.345 34.096ZM74.529 9.76L73.8376 11.6367L73.8394 11.6373L74.529 9.76ZM88.209 9.184L86.2974 9.77217L86.3067 9.80223L86.3169 9.83198L88.209 9.184ZM96.705 32.8L98.585 32.1176L98.5822 32.1099L96.705 32.8ZM108.153 55.84L107.259 57.6289V57.6289L108.153 55.84ZM90.657 55.84L89.7319 54.0668L89.7238 54.071L89.7158 54.0753L90.657 55.84ZM88.353 43.24L90.2326 42.5565L89.7539 41.24H88.353V43.24ZM69.417 43.24V41.24H68.0387L67.548 42.528L69.417 43.24ZM67.185 55.84L66.2368 57.601L66.2438 57.6047L67.185 55.84ZM72.945 34.096L71.0604 33.4265L71.0538 33.4449L71.0476 33.4635L72.945 34.096ZM70.857 39.64L68.9815 38.9454L67.9835 41.64H70.857V39.64ZM86.985 39.64V41.64H89.8744L88.8569 38.9357L86.985 39.64ZM79.065 17.752L80.951 17.0864L79.3428 12.5298L77.2603 16.89L79.065 17.752ZM56.889 56C57.1474 56 57.4977 56.1141 57.7632 56.4115C57.9982 56.6747 58.0487 56.947 58.0516 57.0975C58.0574 57.3965 57.9013 57.5699 57.7834 57.6289L55.9946 54.0511C54.7247 54.6861 54.0286 55.9395 54.0524 57.1745C54.0643 57.793 54.2633 58.4973 54.7795 59.0755C55.3263 59.6879 56.0906 60 56.889 60V56ZM57.7716 57.6347C59.2872 56.8893 60.6491 55.4918 61.8421 53.9299C63.0653 52.3286 64.253 50.3632 65.3705 48.253C67.6072 44.029 69.6586 39.0405 71.2222 34.7859L67.4678 33.4061C65.9354 37.5755 63.9548 42.379 61.8355 46.381C60.775 48.3838 59.7037 50.1399 58.6634 51.5018C57.5929 52.9032 56.6868 53.7107 56.0064 54.0453L57.7716 57.6347ZM71.2208 34.7899C73.5057 28.6136 75.7289 22.7381 76.9208 18.2571C77.5119 16.0347 77.9026 13.9703 77.8545 12.3001C77.8087 10.7055 77.303 8.64835 75.2186 7.88266L73.8394 11.6373C73.519 11.5196 73.8233 11.2715 73.8562 12.4151C73.8869 13.4832 73.6251 15.0863 73.0552 17.2289C71.9251 21.4779 69.7923 27.1224 67.4692 33.4021L71.2208 34.7899ZM75.2204 7.88331C75.2448 7.89231 75.3654 7.9501 75.4717 8.11202C75.5715 8.26394 75.6197 8.45048 75.6053 8.64151C75.5916 8.824 75.5156 9.05298 75.3198 9.25581C75.1032 9.48014 74.8056 9.6 74.529 9.6V5.6C72.7481 5.6 71.7159 7.02633 71.6167 8.34048C71.511 9.74096 72.3463 11.0873 73.8376 11.6367L75.2204 7.88331ZM74.529 9.6H86.121V5.6H74.529V9.6ZM86.121 9.6C86.1247 9.6 86.1563 9.60193 86.2018 9.63632C86.2467 9.67027 86.2809 9.71854 86.2974 9.77217L90.1206 8.59583C89.5854 6.85654 87.972 5.6 86.121 5.6V9.6ZM86.3169 9.83198C88.1253 15.1125 93.0289 28.5971 94.8278 33.4901L98.5822 32.1099C96.7811 27.2109 91.8927 13.7675 90.1011 8.53601L86.3169 9.83198ZM94.825 33.4824C96.5857 38.3334 98.5733 43.7165 100.582 48.1202C101.586 50.3201 102.621 52.3339 103.665 53.9384C104.659 55.4657 105.848 56.9238 107.259 57.6289L109.047 54.0511C108.658 53.8562 107.957 53.1993 107.018 51.7566C106.129 50.3911 105.189 48.5799 104.222 46.4598C102.289 42.2234 100.352 36.9866 98.585 32.1176L94.825 33.4824ZM107.259 57.6289C107.141 57.5699 106.985 57.3965 106.99 57.0975C106.993 56.947 107.044 56.6746 107.279 56.4115C107.544 56.1141 107.895 56 108.153 56V60C108.951 60 109.716 59.6879 110.263 59.0755C110.779 58.4974 110.978 57.793 110.99 57.1745C111.013 55.9395 110.317 54.6861 109.047 54.0511L107.259 57.6289ZM108.153 56H90.657V60H108.153V56ZM90.657 56C90.9185 56 91.2902 56.1179 91.568 56.4419C91.8096 56.7237 91.847 57.0045 91.847 57.136C91.847 57.3794 91.7336 57.5325 91.5982 57.6047L89.7158 54.0753C88.5004 54.7235 87.847 55.9566 87.847 57.136C87.847 57.7355 88.0194 58.4483 88.531 59.0451C89.0788 59.6842 89.8555 60 90.657 60V56ZM91.5821 57.6132C92.9778 56.885 93.2647 55.4143 93.3164 54.5121C93.3737 53.5104 93.2033 52.3443 92.9433 51.1623C92.4166 48.7681 91.3834 45.7212 90.2326 42.5565L86.4734 43.9235C87.6266 47.0948 88.5734 49.9159 89.0367 52.0217C89.2717 53.0897 89.3488 53.8316 89.3229 54.2834C89.2913 54.8347 89.1642 54.363 89.7319 54.0668L91.5821 57.6132ZM88.353 41.24H69.417V45.24H88.353V41.24ZM67.548 42.528C66.3979 45.5472 65.3219 48.5693 64.7826 50.9961C64.5161 52.1957 64.3447 53.4001 64.426 54.4508C64.5037 55.4558 64.8694 56.8647 66.2368 57.6009L68.1332 54.0791C68.5646 54.3113 68.4533 54.6492 68.414 54.1422C68.3783 53.6809 68.4499 52.9323 68.6874 51.8639C69.1561 49.7547 70.1321 46.9808 71.286 43.952L67.548 42.528ZM66.2438 57.6047C66.1084 57.5325 65.995 57.3794 65.995 57.136C65.995 57.0045 66.0324 56.7237 66.274 56.4419C66.5518 56.1178 66.9235 56 67.185 56V60C67.9865 60 68.7632 59.6842 69.311 59.0451C69.8226 58.4483 69.995 57.7355 69.995 57.136C69.995 55.9566 69.3416 54.7235 68.1262 54.0753L66.2438 57.6047ZM67.185 56H56.889V60H67.185V56ZM71.0476 33.4635C70.4792 35.1688 69.7528 36.8628 68.9815 38.9454L72.7325 40.3346C73.4012 38.5292 74.2588 36.4792 74.8424 34.7285L71.0476 33.4635ZM70.857 41.64H86.985V37.64H70.857V41.64ZM88.8569 38.9357C86.1285 31.6839 83.5422 24.428 80.951 17.0864L77.179 18.4176C79.7719 25.764 82.3695 33.0521 85.1131 40.3443L88.8569 38.9357ZM77.2603 16.89C74.8964 21.8395 72.9604 28.0782 71.0604 33.4265L74.8296 34.7655C76.8176 29.1698 78.6256 23.3125 80.8697 18.614L77.2603 16.89ZM156.029 14.08L154.336 15.1463L154.342 15.1551L156.029 14.08ZM146.165 22L144.485 23.0865L144.493 23.098L144.5 23.1094L146.165 22ZM144.365 35.752L143.316 37.4553L143.325 37.4604L144.365 35.752ZM162.652 35.752L161.66 34.0155L161.623 34.0367L161.587 34.0595L162.652 35.752ZM163.085 56.272L164.799 55.243L164.785 55.2182L164.769 55.1939L163.085 56.272ZM149.333 56.488L148.63 54.6153L148.524 54.6552L148.423 54.7068L149.333 56.488ZM114.613 32.8C114.613 25.3246 117.07 19.1756 121.088 14.9116C125.1 10.6543 130.773 8.16 137.452 8.16V4.16C129.732 4.16 122.985 7.06571 118.177 12.1684C113.375 17.2644 110.613 24.4354 110.613 32.8H114.613ZM137.452 8.16C145.283 8.16 151.556 10.7335 154.336 15.1462L157.721 13.0138C153.877 6.91446 145.894 4.16 137.452 4.16V8.16ZM154.342 15.1551C155.788 17.4239 155.494 19.1841 154.722 20.3672C153.863 21.6849 152.264 22.52 150.773 22.52V26.52C153.601 26.52 156.466 25.0151 158.073 22.5528C159.767 19.9559 159.941 16.4961 157.715 13.0049L154.342 15.1551ZM150.773 22.52C149.626 22.52 148.601 22.0496 147.829 20.8906L144.5 23.1094C146.032 25.4064 148.319 26.52 150.773 26.52V22.52ZM147.844 20.9135C146.28 18.4971 144.148 15.1664 141.578 12.4527C139.044 9.77752 135.739 7.328 131.764 7.328V11.328C134.054 11.328 136.365 12.7665 138.673 15.2033C140.945 17.6016 142.881 20.6069 144.485 23.0865L147.844 20.9135ZM131.764 7.328C128.027 7.328 124.847 8.65573 122.632 11.2394C120.451 13.7834 119.396 17.3216 119.396 21.424H123.396C123.396 17.9664 124.286 15.4566 125.669 13.8426C127.018 12.2683 129.022 11.328 131.764 11.328V7.328ZM119.396 21.424C119.396 25.858 121.442 34.1335 125.206 41.2909C128.908 48.3295 134.796 55.248 142.924 55.248V51.248C137.229 51.248 132.353 46.2865 128.747 39.4291C125.203 32.6905 123.396 25.054 123.396 21.424H119.396ZM142.924 55.248C144.449 55.248 145.807 54.9329 146.946 54.259C148.097 53.578 148.898 52.6054 149.415 51.5063C150.406 49.3971 150.357 46.8173 149.993 44.5601C149.619 42.2397 148.857 39.9246 148.083 38.122C147.695 37.2185 147.289 36.4079 146.904 35.7652C146.713 35.4455 146.51 35.1396 146.301 34.8748C146.123 34.6503 145.82 34.2968 145.404 34.0436L143.325 37.4604C143.116 37.3332 143.061 37.2267 143.162 37.3544C143.231 37.4419 143.337 37.5935 143.473 37.8211C143.744 38.2731 144.071 38.916 144.408 39.7C145.083 41.2724 145.734 43.2683 146.044 45.1959C146.364 47.1867 146.27 48.7919 145.794 49.8057C145.577 50.2681 145.289 50.5915 144.91 50.8161C144.518 51.0479 143.902 51.248 142.924 51.248V55.248ZM145.413 34.0487C145.506 34.1061 145.547 34.1668 145.564 34.1959C145.577 34.2202 145.603 34.2739 145.607 34.3791C145.61 34.4691 145.6 34.7652 145.35 35.0841C145.05 35.4663 144.632 35.592 144.365 35.592V31.592C143.557 31.592 142.752 31.9157 142.205 32.6129C141.707 33.2468 141.589 33.9749 141.61 34.5329C141.651 35.6086 142.232 36.7878 143.316 37.4553L145.413 34.0487ZM144.365 35.592H162.652V31.592H144.365V35.592ZM162.652 35.592C162.388 35.592 161.994 35.4703 161.704 35.118C161.458 34.8176 161.434 34.5288 161.436 34.4175C161.44 34.2274 161.514 34.0989 161.66 34.0155L163.645 37.4885C164.799 36.8291 165.413 35.6206 165.435 34.4945C165.446 33.9152 165.301 33.1944 164.795 32.579C164.247 31.9117 163.457 31.592 162.652 31.592V35.592ZM161.587 34.0595C161.08 34.3789 160.767 34.8205 160.58 35.1446C160.381 35.4893 160.232 35.8635 160.116 36.2201C159.885 36.9337 159.717 37.7925 159.594 38.6995C159.346 40.5277 159.243 42.8219 159.276 45.1488C159.308 47.4804 159.477 49.9109 159.794 52.0166C160.095 54.0181 160.573 56.0578 161.4 57.3501L164.769 55.1939C164.444 54.6862 164.049 53.4139 163.749 51.4216C163.465 49.5336 163.306 47.2886 163.275 45.0932C163.245 42.8931 163.345 40.8088 163.558 39.2373C163.665 38.4443 163.793 37.848 163.921 37.4548C163.985 37.2581 164.031 37.166 164.044 37.1446C164.068 37.1026 163.982 37.2781 163.718 37.4445L161.587 34.0595ZM161.37 57.301C161.351 57.27 161.319 57.2056 161.305 57.0966C161.291 56.9852 161.293 56.783 161.403 56.5498C161.523 56.297 161.714 56.1295 161.879 56.0462C162.02 55.9746 162.07 56 161.932 56V60C163.099 60 164.405 59.5559 165.018 58.2622C165.558 57.1213 165.232 55.9633 164.799 55.243L161.37 57.301ZM161.932 56C160.294 56 159.011 55.572 157.574 55.0431C156.192 54.5341 154.473 53.84 152.428 53.84V57.84C153.624 57.84 154.641 58.2259 156.193 58.7969C157.69 59.348 159.539 60 161.932 60V56ZM152.428 53.84C151.182 53.84 149.93 54.128 148.63 54.6153L150.035 58.3607C151.039 57.984 151.803 57.84 152.428 57.84V53.84ZM148.423 54.7068C145.268 56.3178 141.546 57.44 137.452 57.44V61.44C142.287 61.44 146.629 60.1142 150.242 58.2692L148.423 54.7068ZM137.452 57.44C130.773 57.44 125.1 54.9457 121.088 50.6884C117.07 46.4244 114.613 40.2754 114.613 32.8H110.613C110.613 41.1646 113.375 48.3356 118.177 53.4316C122.985 58.5343 129.732 61.44 137.452 61.44V57.44Z" fill="#07641B" mask="url(#path-5-outside-3_1201_3792)"/>
</g>
<mask id="path-7-outside-4_1201_3792" maskUnits="userSpaceOnUse" x="9" y="5" width="156" height="55" fill="black">
<rect fill="white" x="9" y="5" width="156" height="55"/>
<path d="M10.2831 19.984C10.2831 10.984 10.7151 7.6 15.6111 7.6H50.1711C55.0671 7.6 55.4991 10.984 55.4991 19.984C55.4991 22.288 54.2031 24.808 51.5391 24.808C48.6591 24.808 47.4351 22.288 46.2831 19.12C44.8431 15.304 44.1951 9.76 39.8751 9.76C38.4351 9.76 38.2911 25.672 38.2911 34.096C38.2911 42.52 38.4351 53.68 42.0351 55.84C42.9711 56.416 43.1151 58 42.0351 58H23.7471C22.6671 58 22.8111 56.416 23.7471 55.84C27.3471 53.68 27.4911 42.52 27.4911 34.096C27.4911 25.672 27.3471 9.76 25.9071 9.76C21.5871 9.76 20.9391 15.304 19.4991 19.12C18.3471 22.288 17.1231 24.808 14.2431 24.808C11.5791 24.808 10.2831 22.288 10.2831 19.984ZM57.4521 58C56.3721 58 56.3001 56.416 57.4521 55.84C61.8441 53.68 66.8121 42.52 69.9081 34.096C74.5161 21.64 78.6201 11.056 75.0921 9.76C73.7241 9.256 74.0121 7.6 75.0921 7.6H86.6841C87.6201 7.6 88.4841 8.248 88.7721 9.184C90.5721 14.44 95.4681 27.904 97.2681 32.8C100.796 42.52 105.116 54.04 108.716 55.84C109.868 56.416 109.796 58 108.716 58H91.2201C90.1401 58 90.1401 56.416 91.2201 55.84C92.8761 54.976 91.2201 49.576 88.9161 43.24H69.9801C67.6761 49.288 65.8761 54.832 67.7481 55.84C68.8281 56.416 68.8281 58 67.7481 58H57.4521ZM73.5081 34.096C72.9321 35.824 72.1401 37.696 71.4201 39.64H87.5481C84.8121 32.368 82.2201 25.096 79.6281 17.752C77.3241 22.576 75.4521 28.624 73.5081 34.096ZM113.176 32.8C113.176 16.96 123.616 6.16 138.016 6.16C146.152 6.16 153.28 8.824 156.592 14.08C160.264 19.84 155.656 24.52 151.336 24.52C149.536 24.52 147.88 23.728 146.728 22C143.56 17.104 138.592 9.328 132.328 9.328C125.848 9.328 121.96 13.864 121.96 21.424C121.96 29.488 129.664 53.248 143.488 53.248C153.496 53.248 146.584 36.76 144.928 35.752C143.992 35.176 143.848 33.592 144.928 33.592H163.216C164.296 33.592 164.224 35.176 163.216 35.752C161.272 36.976 161.344 52.672 163.648 56.272C164.08 56.992 163.936 58 162.496 58C158.464 58 156.232 55.84 152.992 55.84C152.056 55.84 151.048 56.056 149.896 56.488C146.512 58.216 142.48 59.44 138.016 59.44C123.616 59.44 113.176 48.64 113.176 32.8Z"/>
</mask>
<path d="M10.2831 19.984C10.2831 10.984 10.7151 7.6 15.6111 7.6H50.1711C55.0671 7.6 55.4991 10.984 55.4991 19.984C55.4991 22.288 54.2031 24.808 51.5391 24.808C48.6591 24.808 47.4351 22.288 46.2831 19.12C44.8431 15.304 44.1951 9.76 39.8751 9.76C38.4351 9.76 38.2911 25.672 38.2911 34.096C38.2911 42.52 38.4351 53.68 42.0351 55.84C42.9711 56.416 43.1151 58 42.0351 58H23.7471C22.6671 58 22.8111 56.416 23.7471 55.84C27.3471 53.68 27.4911 42.52 27.4911 34.096C27.4911 25.672 27.3471 9.76 25.9071 9.76C21.5871 9.76 20.9391 15.304 19.4991 19.12C18.3471 22.288 17.1231 24.808 14.2431 24.808C11.5791 24.808 10.2831 22.288 10.2831 19.984ZM57.4521 58C56.3721 58 56.3001 56.416 57.4521 55.84C61.8441 53.68 66.8121 42.52 69.9081 34.096C74.5161 21.64 78.6201 11.056 75.0921 9.76C73.7241 9.256 74.0121 7.6 75.0921 7.6H86.6841C87.6201 7.6 88.4841 8.248 88.7721 9.184C90.5721 14.44 95.4681 27.904 97.2681 32.8C100.796 42.52 105.116 54.04 108.716 55.84C109.868 56.416 109.796 58 108.716 58H91.2201C90.1401 58 90.1401 56.416 91.2201 55.84C92.8761 54.976 91.2201 49.576 88.9161 43.24H69.9801C67.6761 49.288 65.8761 54.832 67.7481 55.84C68.8281 56.416 68.8281 58 67.7481 58H57.4521ZM73.5081 34.096C72.9321 35.824 72.1401 37.696 71.4201 39.64H87.5481C84.8121 32.368 82.2201 25.096 79.6281 17.752C77.3241 22.576 75.4521 28.624 73.5081 34.096ZM113.176 32.8C113.176 16.96 123.616 6.16 138.016 6.16C146.152 6.16 153.28 8.824 156.592 14.08C160.264 19.84 155.656 24.52 151.336 24.52C149.536 24.52 147.88 23.728 146.728 22C143.56 17.104 138.592 9.328 132.328 9.328C125.848 9.328 121.96 13.864 121.96 21.424C121.96 29.488 129.664 53.248 143.488 53.248C153.496 53.248 146.584 36.76 144.928 35.752C143.992 35.176 143.848 33.592 144.928 33.592H163.216C164.296 33.592 164.224 35.176 163.216 35.752C161.272 36.976 161.344 52.672 163.648 56.272C164.08 56.992 163.936 58 162.496 58C158.464 58 156.232 55.84 152.992 55.84C152.056 55.84 151.048 56.056 149.896 56.488C146.512 58.216 142.48 59.44 138.016 59.44C123.616 59.44 113.176 48.64 113.176 32.8Z" fill="#B5FF6A"/>
<path d="M46.2831 19.12L46.7531 18.9491L46.7509 18.9435L46.2831 19.12ZM42.0351 55.84L42.2972 55.4141L42.2924 55.4113L42.0351 55.84ZM23.7471 55.84L23.4899 55.4112L23.4851 55.4142L23.7471 55.84ZM19.4991 19.12L19.0313 18.9435L19.0292 18.9491L19.4991 19.12ZM10.7831 19.984C10.7831 17.7347 10.8102 15.8518 10.9258 14.289C11.0416 12.7222 11.2444 11.5095 11.5808 10.5886C11.9135 9.67779 12.3675 9.07687 12.9791 8.69278C13.5991 8.30332 14.4394 8.1 15.6111 8.1V7.1C14.3349 7.1 13.2851 7.31967 12.4472 7.84596C11.6007 8.37763 11.0288 9.1852 10.6415 10.2454C10.2579 11.2955 10.0467 12.6163 9.92849 14.2153C9.81001 15.8182 9.78313 17.7333 9.78313 19.984H10.7831ZM15.6111 8.1H50.1711V7.1H15.6111V8.1ZM50.1711 8.1C51.3429 8.1 52.1831 8.30332 52.8032 8.69278C53.4147 9.07687 53.8688 9.67779 54.2015 10.5886C54.5379 11.5095 54.7407 12.7222 54.8565 14.289C54.972 15.8518 54.9991 17.7347 54.9991 19.984H55.9991C55.9991 17.7333 55.9722 15.8182 55.8538 14.2153C55.7356 12.6163 55.5244 11.2955 55.1408 10.2454C54.7535 9.1852 54.1815 8.37763 53.3351 7.84596C52.4971 7.31967 51.4474 7.1 50.1711 7.1V8.1ZM54.9991 19.984C54.9991 21.0515 54.6972 22.1507 54.1115 22.969C53.5363 23.7728 52.6901 24.308 51.5391 24.308V25.308C53.0522 25.308 54.186 24.5832 54.9247 23.551C55.6531 22.5333 55.9991 21.2205 55.9991 19.984H54.9991ZM51.5391 24.308C50.2786 24.308 49.3885 23.7705 48.6556 22.8422C47.901 21.8863 47.3296 20.5348 46.753 18.9491L45.8132 19.2909C46.3886 20.8732 47.0053 22.3657 47.8707 23.4618C48.7578 24.5855 49.9196 25.308 51.5391 25.308V24.308ZM46.7509 18.9435C46.3976 18.0072 46.094 16.9682 45.759 15.8982C45.4278 14.8403 45.0681 13.7606 44.611 12.795C44.1544 11.8305 43.5856 10.9469 42.8177 10.3028C42.0382 9.64896 41.0743 9.26 39.8751 9.26V10.26C40.836 10.26 41.5731 10.564 42.1751 11.069C42.7887 11.5836 43.2819 12.3245 43.7072 13.2229C44.1321 14.1204 44.4745 15.1422 44.8047 16.197C45.1312 17.2398 45.4486 18.3248 45.8153 19.2965L46.7509 18.9435ZM39.8751 9.26C39.532 9.26 39.3163 9.49722 39.2058 9.66077C39.0857 9.8385 38.993 10.0671 38.9166 10.3104C38.7616 10.804 38.6335 11.4928 38.5245 12.3119C38.3054 13.9583 38.1517 16.2287 38.0436 18.7476C37.8271 23.79 37.7911 29.8832 37.7911 34.096H38.7911C38.7911 29.8848 38.8272 23.81 39.0427 18.7904C39.1505 16.2783 39.3028 14.0442 39.5158 12.4438C39.6228 11.6396 39.7421 11.0195 39.8707 10.6099C39.936 10.4017 39.9941 10.2802 40.0343 10.2207C40.0841 10.1471 40.0382 10.26 39.8751 10.26V9.26ZM37.7911 34.096C37.7911 38.3044 37.8266 43.229 38.3166 47.3757C38.5615 49.4482 38.9224 51.3501 39.4596 52.8814C39.991 54.3964 40.7252 55.6371 41.7779 56.2687L42.2924 55.4113C41.545 54.9629 40.9112 53.9986 40.4032 52.5504C39.9009 51.1184 39.5508 49.2988 39.3097 47.2583C38.8276 43.179 38.7911 38.3116 38.7911 34.096H37.7911ZM41.7731 56.2658C42.0869 56.4589 42.2793 56.8391 42.2915 57.1552C42.2974 57.3082 42.2594 57.3962 42.2292 57.4346C42.2115 57.4572 42.1708 57.5 42.0351 57.5V58.5C42.4394 58.5 42.7858 58.3448 43.0155 58.0524C43.2329 57.7758 43.3029 57.4318 43.2908 57.1168C43.2669 56.4969 42.9194 55.7971 42.2972 55.4142L41.7731 56.2658ZM42.0351 57.5H23.7471V58.5H42.0351V57.5ZM23.7471 57.5C23.6114 57.5 23.5708 57.4572 23.553 57.4346C23.5229 57.3962 23.4849 57.3082 23.4908 57.1552C23.5029 56.8391 23.6954 56.4589 24.0092 56.2658L23.4851 55.4142C22.8629 55.7971 22.5153 56.4969 22.4915 57.1168C22.4794 57.4318 22.5494 57.7758 22.7667 58.0524C22.9965 58.3448 23.3428 58.5 23.7471 58.5V57.5ZM24.0044 56.2687C25.057 55.6371 25.7912 54.3964 26.3227 52.8814C26.8599 51.3501 27.2208 49.4482 27.4657 47.3757C27.9556 43.229 27.9911 38.3044 27.9911 34.096H26.9911C26.9911 38.3116 26.9546 43.179 26.4726 47.2583C26.2315 49.2988 25.8814 51.1184 25.3791 52.5504C24.871 53.9986 24.2372 54.9629 23.4899 55.4113L24.0044 56.2687ZM27.9911 34.096C27.9911 29.8832 27.9552 23.79 27.7387 18.7476C27.6305 16.2287 27.4768 13.9583 27.2578 12.3119C27.1488 11.4928 27.0206 10.804 26.8657 10.3104C26.7893 10.0671 26.6966 9.8385 26.5765 9.66077C26.4659 9.49722 26.2502 9.26 25.9071 9.26V10.26C25.744 10.26 25.6982 10.1471 25.748 10.2207C25.7882 10.2802 25.8462 10.4017 25.9116 10.6099C26.0401 11.0195 26.1595 11.6396 26.2665 12.4438C26.4794 14.0442 26.6317 16.2783 26.7396 18.7904C26.9551 23.81 26.9911 29.8848 26.9911 34.096H27.9911ZM25.9071 9.26C24.708 9.26 23.7441 9.64896 22.9646 10.3028C22.1967 10.9469 21.6279 11.8305 21.1712 12.795C20.7141 13.7606 20.3545 14.8403 20.0232 15.8982C19.6882 16.9682 19.3846 18.0072 19.0313 18.9435L19.9669 19.2965C20.3336 18.3248 20.651 17.2398 20.9775 16.197C21.3078 15.1422 21.6501 14.1204 22.075 13.2229C22.5004 12.3245 22.9936 11.5836 23.6072 11.069C24.2092 10.564 24.9463 10.26 25.9071 10.26V9.26ZM19.0292 18.9491C18.4526 20.5348 17.8813 21.8863 17.1267 22.8422C16.3938 23.7705 15.5036 24.308 14.2431 24.308V25.308C15.8626 25.308 17.0245 24.5855 17.9116 23.4618C18.777 22.3657 19.3936 20.8732 19.969 19.2909L19.0292 18.9491ZM14.2431 24.308C13.0922 24.308 12.246 23.7728 11.6707 22.969C11.0851 22.1507 10.7831 21.0515 10.7831 19.984H9.78313C9.78313 21.2205 10.1292 22.5333 10.8575 23.551C11.5963 24.5832 12.7301 25.308 14.2431 25.308V24.308ZM57.4521 55.84L57.2315 55.3913L57.2285 55.3928L57.4521 55.84ZM69.9081 34.096L69.4392 33.9225L69.4388 33.9235L69.9081 34.096ZM75.0921 9.76L74.9193 10.2292L74.9197 10.2293L75.0921 9.76ZM88.7721 9.184L88.2942 9.33104L88.2965 9.33856L88.2991 9.34599L88.7721 9.184ZM97.2681 32.8L97.7381 32.6294L97.7374 32.6275L97.2681 32.8ZM108.716 55.84L108.493 56.2872L108.716 55.84ZM91.2201 55.84L90.9888 55.3967L90.9848 55.3988L91.2201 55.84ZM88.9161 43.24L89.386 43.0691L89.2663 42.74H88.9161V43.24ZM69.9801 43.24V42.74H69.6355L69.5129 43.062L69.9801 43.24ZM67.7481 55.84L67.5111 56.2802L67.5128 56.2812L67.7481 55.84ZM73.5081 34.096L73.0369 33.9286L73.0338 33.9379L73.5081 34.096ZM71.4201 39.64L70.9513 39.4663L70.7017 40.14H71.4201V39.64ZM87.5481 39.64V40.14H88.2705L88.0161 39.4639L87.5481 39.64ZM79.6281 17.752L80.0996 17.5856L79.6976 16.4464L79.1769 17.5365L79.6281 17.752ZM57.4521 57.5C57.3142 57.5 57.2466 57.4543 57.2075 57.4105C57.1607 57.3582 57.1177 57.2642 57.115 57.1264C57.1097 56.8501 57.2732 56.4885 57.6757 56.2872L57.2285 55.3928C56.4791 55.7675 56.1025 56.4859 56.1152 57.1456C56.1216 57.4757 56.227 57.8138 56.4615 58.0765C56.7037 58.3477 57.05 58.5 57.4521 58.5V57.5ZM57.6728 56.2887C58.8752 55.6973 60.0661 54.5211 61.2132 53.0194C62.3678 51.5078 63.5119 49.6209 64.608 47.551C66.8007 43.4102 68.8255 38.4911 70.3774 34.2685L69.4388 33.9235C67.8947 38.1249 65.8876 42.9977 63.7243 47.083C62.6424 49.1261 61.5274 50.9607 60.4185 52.4124C59.3021 53.8739 58.2251 54.9027 57.2315 55.3913L57.6728 56.2887ZM70.3771 34.2695C72.6763 28.0544 74.8656 22.2655 76.0343 17.8715C76.6175 15.6791 76.9598 13.7876 76.9183 12.3433C76.8773 10.9177 76.4471 9.72509 75.2645 9.29066L74.9197 10.2293C75.5011 10.4429 75.881 11.0593 75.9187 12.372C75.9559 13.6659 75.6458 15.4419 75.0679 17.6145C73.9146 21.9505 71.748 27.6816 69.4392 33.9225L70.3771 34.2695ZM75.265 9.29083C74.7828 9.11318 74.6541 8.77476 74.6727 8.52863C74.6929 8.26091 74.8624 8.1 75.0921 8.1V7.1C74.2419 7.1 73.7273 7.76708 73.6755 8.45337C73.6221 9.16124 74.0335 9.90281 74.9193 10.2292L75.265 9.29083ZM75.0921 8.1H86.6841V7.1H75.0921V8.1ZM86.6841 8.1C87.3914 8.1 88.068 8.59586 88.2942 9.33104L89.25 9.03696C88.9002 7.90013 87.8489 7.1 86.6841 7.1V8.1ZM88.2991 9.34599C90.1012 14.6081 94.9991 28.0773 96.7988 32.9725L97.7374 32.6275C95.9371 27.7307 91.0431 14.2719 89.2452 9.022L88.2991 9.34599ZM96.7981 32.9706C98.5613 37.8283 100.53 43.1566 102.51 47.4975C103.5 49.6675 104.5 51.6054 105.486 53.1202C106.459 54.6158 107.465 55.7734 108.493 56.2872L108.94 55.3928C108.167 55.0066 107.283 54.0492 106.324 52.5748C105.377 51.1196 104.401 49.2325 103.42 47.0825C101.459 42.7834 99.5029 37.4917 97.7381 32.6294L96.7981 32.9706ZM108.493 56.2872C108.895 56.4885 109.059 56.8501 109.053 57.1264C109.051 57.2642 109.008 57.3582 108.961 57.4105C108.922 57.4543 108.854 57.5 108.716 57.5V58.5C109.118 58.5 109.465 58.3477 109.707 58.0765C109.941 57.8138 110.047 57.4758 110.053 57.1456C110.066 56.4859 109.689 55.7675 108.94 55.3928L108.493 56.2872ZM108.716 57.5H91.2201V58.5H108.716V57.5ZM91.2201 57.5C91.083 57.5 91.0241 57.4552 90.9923 57.4181C90.9514 57.3704 90.9101 57.2786 90.9101 57.136C90.9101 56.8458 91.0843 56.4791 91.4554 56.2812L90.9848 55.3988C90.276 55.7769 89.9101 56.4902 89.9101 57.136C89.9101 57.4614 90.0039 57.8016 90.233 58.0689C90.4712 58.3468 90.8173 58.5 91.2201 58.5V57.5ZM91.4514 56.2833C92.1108 55.9392 92.3378 55.1969 92.3819 54.4263C92.4275 53.6308 92.2921 52.6238 92.0415 51.4846C91.5385 49.1985 90.5377 46.2363 89.386 43.0691L88.4462 43.4109C89.5985 46.5797 90.5777 49.4855 91.0648 51.6994C91.3092 52.8102 91.4213 53.7112 91.3836 54.3692C91.3445 55.0521 91.1574 55.3088 90.9888 55.3967L91.4514 56.2833ZM88.9161 42.74H69.9801V43.74H88.9161V42.74ZM69.5129 43.062C68.3613 46.0848 67.3229 49.0138 66.81 51.3215C66.5544 52.4719 66.4204 53.5054 66.4846 54.3351C66.5479 55.1533 66.8182 55.9072 67.5111 56.2802L67.9852 55.3998C67.742 55.2688 67.5353 54.9517 67.4816 54.2579C67.4288 53.5756 67.5379 52.6561 67.7862 51.5385C68.2814 49.3102 69.2949 46.4432 70.4474 43.418L69.5129 43.062ZM67.5128 56.2812C67.884 56.4791 68.0581 56.8458 68.0581 57.136C68.0581 57.2786 68.0169 57.3704 67.976 57.4181C67.9442 57.4552 67.8853 57.5 67.7481 57.5V58.5C68.151 58.5 68.4971 58.3468 68.7353 58.0689C68.9644 57.8016 69.0581 57.4614 69.0581 57.136C69.0581 56.4902 68.6923 55.7769 67.9834 55.3988L67.5128 56.2812ZM67.7481 57.5H57.4521V58.5H67.7481V57.5ZM73.0338 33.9379C72.4597 35.6602 71.6841 37.4877 70.9513 39.4663L71.889 39.8137C72.5962 37.9043 73.4046 35.9878 73.9825 34.2541L73.0338 33.9379ZM71.4201 40.14H87.5481V39.14H71.4201V40.14ZM88.0161 39.4639C85.282 32.197 82.6914 24.929 80.0996 17.5856L79.1566 17.9184C81.7488 25.263 84.3422 32.539 87.0802 39.8161L88.0161 39.4639ZM79.1769 17.5365C76.858 22.3919 74.97 28.4876 73.037 33.9286L73.9793 34.2634C75.9343 28.7604 77.7903 22.7601 80.0793 17.9675L79.1769 17.5365ZM156.592 14.08L156.169 14.3466L156.17 14.3488L156.592 14.08ZM146.728 22L146.308 22.2717L146.312 22.2773L146.728 22ZM144.928 35.752L144.666 36.1778L144.668 36.1791L144.928 35.752ZM163.216 35.752L162.968 35.3179L162.958 35.3232L162.949 35.3289L163.216 35.752ZM163.648 56.272L164.076 56.0148L164.073 56.0086L164.069 56.0025L163.648 56.272ZM149.896 56.488L149.72 56.0198L149.693 56.0298L149.668 56.0427L149.896 56.488ZM113.676 32.8C113.676 24.9912 116.248 18.4589 120.56 13.8829C124.87 9.30857 130.946 6.66 138.016 6.66V5.66C130.685 5.66 124.341 8.41142 119.832 13.1971C115.324 17.9811 112.676 24.7688 112.676 32.8H113.676ZM138.016 6.66C146.075 6.66 152.989 9.30138 156.169 14.3466L157.015 13.8134C153.57 8.34661 146.228 5.66 138.016 5.66V6.66ZM156.17 14.3488C157.909 17.076 157.66 19.4735 156.542 21.1868C155.402 22.9337 153.329 24.02 151.336 24.02V25.02C153.663 25.02 156.053 23.7663 157.379 21.7332C158.728 19.6665 158.947 16.844 157.013 13.8112L156.17 14.3488ZM151.336 24.02C149.699 24.02 148.201 23.3084 147.144 21.7227L146.312 22.2773C147.558 24.1476 149.372 25.02 151.336 25.02V24.02ZM147.147 21.7284C145.569 19.2883 143.51 16.0796 141.052 13.4842C138.602 10.8984 135.67 8.828 132.328 8.828V9.828C135.249 9.828 137.933 11.6456 140.326 14.1718C142.709 16.6884 144.719 19.8157 146.308 22.2716L147.147 21.7284ZM132.328 8.828C128.963 8.828 126.224 10.0104 124.334 12.2156C122.452 14.4109 121.46 17.5634 121.46 21.424H122.46C122.46 17.7246 123.411 14.8291 125.093 12.8664C126.767 10.9136 129.212 9.828 132.328 9.828V8.828ZM121.46 21.424C121.46 25.5565 123.416 33.5924 127.097 40.5927C130.763 47.5634 136.271 53.748 143.488 53.748V52.748C136.88 52.748 131.624 47.0526 127.982 40.1273C124.356 33.2316 122.46 25.3555 122.46 21.424H121.46ZM143.488 53.748C144.807 53.748 145.886 53.476 146.745 52.9679C147.607 52.4581 148.216 51.7289 148.62 50.8686C149.418 49.1701 149.423 46.9558 149.075 44.7985C148.725 42.6254 148.005 40.43 147.268 38.7137C146.899 37.8551 146.523 37.1073 146.181 36.5362C146.01 36.251 145.843 36.0029 145.687 35.8046C145.538 35.6164 145.369 35.4355 145.188 35.3249L144.668 36.1791C144.693 36.1945 144.772 36.2605 144.902 36.4246C145.024 36.5785 145.166 36.788 145.323 37.0502C145.636 37.5737 145.993 38.2794 146.349 39.1083C147.061 40.767 147.754 42.8826 148.088 44.9575C148.425 47.0482 148.384 49.0189 147.715 50.4434C147.386 51.1446 146.905 51.7114 146.236 52.1072C145.564 52.5048 144.67 52.748 143.488 52.748V53.748ZM145.19 35.3262C144.876 35.1331 144.683 34.7529 144.671 34.4368C144.665 34.2838 144.703 34.1958 144.734 34.1574C144.751 34.1348 144.792 34.092 144.928 34.092V33.092C144.523 33.092 144.177 33.2472 143.947 33.5396C143.73 33.8162 143.66 34.1602 143.672 34.4752C143.696 35.0951 144.043 35.7949 144.666 36.1778L145.19 35.3262ZM144.928 34.092H163.216V33.092H144.928V34.092ZM163.216 34.092C163.352 34.092 163.402 34.1358 163.427 34.1659C163.462 34.2089 163.502 34.2987 163.499 34.4464C163.493 34.7498 163.309 35.1227 162.968 35.3179L163.464 36.1861C164.13 35.8053 164.486 35.0982 164.499 34.4656C164.505 34.1453 164.423 33.8031 164.199 33.5311C163.965 33.2462 163.619 33.092 163.216 33.092V34.092ZM162.949 35.3289C162.731 35.4661 162.568 35.6763 162.442 35.8946C162.313 36.1181 162.202 36.3865 162.106 36.6831C161.913 37.2766 161.761 38.037 161.644 38.9012C161.409 40.6331 161.307 42.8486 161.339 45.128C161.37 47.4085 161.536 49.7694 161.84 51.7935C162.141 53.7915 162.588 55.5434 163.226 56.5415L164.069 56.0025C163.556 55.2006 163.129 53.6405 162.829 51.6447C162.533 49.6751 162.37 47.3605 162.339 45.114C162.307 42.8664 162.408 40.7034 162.634 39.0356C162.748 38.1999 162.891 37.5051 163.057 36.9918C163.14 36.7351 163.225 36.5373 163.308 36.3946C163.393 36.2468 163.457 36.1909 163.482 36.1751L162.949 35.3289ZM163.219 56.5292C163.381 56.7992 163.389 57.0497 163.322 57.192C163.272 57.296 163.104 57.5 162.496 57.5V58.5C163.327 58.5 163.951 58.2 164.225 57.62C164.482 57.0783 164.346 56.4648 164.076 56.0148L163.219 56.5292ZM162.496 57.5C160.574 57.5 159.079 56.988 157.619 56.4508C156.173 55.9185 154.718 55.34 152.992 55.34V56.34C154.506 56.34 155.786 56.8415 157.274 57.3892C158.748 57.932 160.385 58.5 162.496 58.5V57.5ZM152.992 55.34C151.978 55.34 150.909 55.574 149.72 56.0198L150.071 56.9562C151.186 56.538 152.133 56.34 152.992 56.34V55.34ZM149.668 56.0427C146.342 57.7414 142.387 58.94 138.016 58.94V59.94C142.572 59.94 146.682 58.6906 150.123 56.9333L149.668 56.0427ZM138.016 58.94C130.946 58.94 124.87 56.2914 120.56 51.7171C116.248 47.1411 113.676 40.6088 113.676 32.8H112.676C112.676 40.8312 115.324 47.6189 119.832 52.4029C124.341 57.1886 130.685 59.94 138.016 59.94V58.94Z" fill="#B5FF6A" mask="url(#path-7-outside-4_1201_3792)"/>
<defs>
<filter id="filter0_d_1201_3792" x="1.15234" y="75.5996" width="166.039" height="53.4004" filterUnits="userSpaceOnUse" color-interpolation-filters="sRGB">
<feFlood flood-opacity="0" result="BackgroundImageFix"/>
<feColorMatrix in="SourceAlpha" type="matrix" values="0 0 0 0 0 0 0 0 0 0 0 0 0 0 0 0 0 0 127 0" result="hardAlpha"/>
<feOffset dx="3" dy="3"/>
<feComposite in2="hardAlpha" operator="out"/>
<feColorMatrix type="matrix" values="0 0 0 0 0.0276482 0 0 0 0 0.391406 0 0 0 0 0.107675 0 0 0 1 0"/>
<feBlend mode="normal" in2="BackgroundImageFix" result="effect1_dropShadow_1201_3792"/>
<feBlend mode="normal" in="SourceGraphic" in2="effect1_dropShadow_1201_3792" result="shape"/>
</filter>
<filter id="filter1_d_1201_3792" x="9.7207" y="6.16016" width="157.012" height="56.2793" filterUnits="userSpaceOnUse" color-interpolation-filters="sRGB">
<feFlood flood-opacity="0" result="BackgroundImageFix"/>
<feColorMatrix in="SourceAlpha" type="matrix" values="0 0 0 0 0 0 0 0 0 0 0 0 0 0 0 0 0 0 127 0" result="hardAlpha"/>
<feOffset dx="3" dy="3"/>
<feComposite in2="hardAlpha" operator="out"/>
<feColorMatrix type="matrix" values="0 0 0 0 0.0276482 0 0 0 0 0.391406 0 0 0 0 0.107675 0 0 0 1 0"/>
<feBlend mode="normal" in2="BackgroundImageFix" result="effect1_dropShadow_1201_3792"/>
<feBlend mode="normal" in="SourceGraphic" in2="effect1_dropShadow_1201_3792" result="shape"/>
</filter>
</defs>
</svg>
