<svg width="300" height="215" viewBox="0 0 300 215" fill="none" xmlns="http://www.w3.org/2000/svg">
<path fill-rule="evenodd" clip-rule="evenodd" d="M295 -2.18553e-07C297.761 -9.78474e-08 300 2.23858 300 5L300 210C300 212.761 297.761 215 295 215L4.99999 215C2.23858 215 -9.3001e-06 212.761 -9.1794e-06 210L-2.18557e-07 4.99999C-9.78514e-08 2.23857 2.23859 -1.30156e-05 5 -1.28949e-05L295 -2.18553e-07ZM286.262 7.13655C289.023 7.13655 291.262 9.37513 291.262 12.1365L291.262 19.9789C291.262 22.7403 289.023 24.9789 286.262 24.9789L284.611 24.9789C281.85 24.9789 279.611 22.7403 279.611 19.9789L279.611 12.1365C279.611 9.37512 281.85 7.13655 284.611 7.13655L286.262 7.13655ZM291.262 195.021C291.262 192.259 289.023 190.021 286.262 190.021L284.611 190.021C281.85 190.021 279.611 192.259 279.611 195.021L279.611 202.863C279.611 205.624 281.85 207.863 284.611 207.863L286.262 207.863C289.023 207.863 291.262 205.624 291.262 202.863L291.262 195.021ZM247.428 7.13655C250.189 7.13655 252.428 9.37513 252.428 12.1365L252.428 19.9789C252.428 22.7403 250.189 24.9789 247.428 24.9789L245.777 24.9789C243.016 24.9789 240.777 22.7403 240.777 19.9789L240.777 12.1365C240.777 9.37512 243.016 7.13655 245.777 7.13655L247.428 7.13655ZM252.428 195.021C252.428 192.259 250.189 190.021 247.428 190.021L245.777 190.021C243.016 190.021 240.777 192.259 240.777 195.021L240.777 202.863C240.777 205.624 243.016 207.863 245.777 207.863L247.428 207.863C250.189 207.863 252.428 205.624 252.428 202.863L252.428 195.021ZM208.592 7.13655C211.353 7.13655 213.592 9.37512 213.592 12.1365L213.592 19.9789C213.592 22.7403 211.353 24.9789 208.592 24.9789L206.941 24.9789C204.18 24.9789 201.941 22.7403 201.941 19.9789L201.941 12.1365C201.941 9.37512 204.18 7.13655 206.941 7.13655L208.592 7.13655ZM213.592 195.021C213.592 192.259 211.353 190.021 208.592 190.021L206.941 190.021C204.18 190.021 201.941 192.259 201.941 195.021L201.941 202.863C201.941 205.624 204.18 207.863 206.941 207.863L208.592 207.863C211.353 207.863 213.592 205.624 213.592 202.863L213.592 195.021ZM169.758 7.13655C172.519 7.13655 174.758 9.37513 174.758 12.1365L174.758 19.9789C174.758 22.7403 172.519 24.9789 169.758 24.9789L168.107 24.9789C165.346 24.9789 163.107 22.7403 163.107 19.9789L163.107 12.1365C163.107 9.37512 165.346 7.13655 168.107 7.13655L169.758 7.13655ZM174.758 195.021C174.758 192.259 172.519 190.021 169.758 190.021L168.107 190.021C165.346 190.021 163.107 192.259 163.107 195.021L163.107 202.863C163.107 205.624 165.346 207.863 168.107 207.863L169.758 207.863C172.519 207.863 174.758 205.624 174.758 202.863L174.758 195.021ZM130.922 7.13655C133.683 7.13655 135.922 9.37512 135.922 12.1365L135.922 19.9789C135.922 22.7403 133.683 24.9789 130.922 24.9789L129.271 24.9789C126.51 24.9789 124.271 22.7403 124.271 19.9789L124.271 12.1365C124.271 9.37512 126.51 7.13655 129.271 7.13655L130.922 7.13655ZM135.922 195.021C135.922 192.259 133.683 190.021 130.922 190.021L129.271 190.021C126.51 190.021 124.271 192.259 124.271 195.021L124.271 202.863C124.271 205.624 126.51 207.863 129.271 207.863L130.922 207.863C133.683 207.863 135.922 205.624 135.922 202.863L135.922 195.021ZM92.0879 7.13655C94.8493 7.13655 97.0879 9.37512 97.0879 12.1365L97.0879 19.9789C97.0879 22.7403 94.8493 24.9789 92.0879 24.9789L90.4374 24.9789C87.676 24.9789 85.4374 22.7403 85.4374 19.9789L85.4374 12.1365C85.4374 9.37512 87.676 7.13655 90.4374 7.13655L92.0879 7.13655ZM97.0879 195.021C97.0879 192.259 94.8493 190.021 92.0879 190.021L90.4374 190.021C87.676 190.021 85.4374 192.259 85.4374 195.021L85.4374 202.863C85.4374 205.624 87.676 207.863 90.4374 207.863L92.0879 207.863C94.8493 207.863 97.0879 205.624 97.0879 202.863L97.0879 195.021ZM53.252 7.13655C56.0134 7.13655 58.252 9.37512 58.252 12.1365L58.252 19.9789C58.252 22.7403 56.0134 24.9789 53.252 24.9789L51.6015 24.9789C48.84 24.9789 46.6015 22.7403 46.6015 19.9789L46.6015 12.1365C46.6015 9.37512 48.84 7.13655 51.6015 7.13655L53.252 7.13655ZM58.252 195.021C58.252 192.259 56.0134 190.021 53.252 190.021L51.6015 190.021C48.84 190.021 46.6015 192.259 46.6015 195.021L46.6015 202.863C46.6015 205.624 48.84 207.863 51.6015 207.863L53.252 207.863C56.0134 207.863 58.252 205.624 58.252 202.863L58.252 195.021ZM14.418 7.13655C17.1794 7.13655 19.418 9.37512 19.418 12.1365L19.418 19.9789C19.418 22.7403 17.1794 24.9789 14.418 24.9789L12.7675 24.9789C10.0061 24.9789 7.76749 22.7403 7.76749 19.9789L7.76749 12.1365C7.76749 9.37512 10.0061 7.13655 12.7675 7.13655L14.418 7.13655ZM19.418 195.021C19.418 192.259 17.1794 190.021 14.418 190.021L12.7675 190.021C10.0061 190.021 7.76748 192.259 7.76748 195.021L7.76748 202.863C7.76748 205.624 10.0061 207.863 12.7675 207.863L14.418 207.863C17.1794 207.863 19.418 205.624 19.418 202.863L19.418 195.021Z" fill="#3A7DFF"/>
<path fill-rule="evenodd" clip-rule="evenodd" d="M295 -2.18553e-07C297.761 -9.78474e-08 300 2.23858 300 5L300 210C300 212.761 297.761 215 295 215L4.99999 215C2.23858 215 -9.3001e-06 212.761 -9.1794e-06 210L-2.18557e-07 4.99999C-9.78514e-08 2.23857 2.23859 -1.30156e-05 5 -1.28949e-05L295 -2.18553e-07ZM286.262 7.13655C289.023 7.13655 291.262 9.37513 291.262 12.1365L291.262 19.9789C291.262 22.7403 289.023 24.9789 286.262 24.9789L284.611 24.9789C281.85 24.9789 279.611 22.7403 279.611 19.9789L279.611 12.1365C279.611 9.37512 281.85 7.13655 284.611 7.13655L286.262 7.13655ZM291.262 195.021C291.262 192.259 289.023 190.021 286.262 190.021L284.611 190.021C281.85 190.021 279.611 192.259 279.611 195.021L279.611 202.863C279.611 205.624 281.85 207.863 284.611 207.863L286.262 207.863C289.023 207.863 291.262 205.624 291.262 202.863L291.262 195.021ZM247.428 7.13655C250.189 7.13655 252.428 9.37513 252.428 12.1365L252.428 19.9789C252.428 22.7403 250.189 24.9789 247.428 24.9789L245.777 24.9789C243.016 24.9789 240.777 22.7403 240.777 19.9789L240.777 12.1365C240.777 9.37512 243.016 7.13655 245.777 7.13655L247.428 7.13655ZM252.428 195.021C252.428 192.259 250.189 190.021 247.428 190.021L245.777 190.021C243.016 190.021 240.777 192.259 240.777 195.021L240.777 202.863C240.777 205.624 243.016 207.863 245.777 207.863L247.428 207.863C250.189 207.863 252.428 205.624 252.428 202.863L252.428 195.021ZM208.592 7.13655C211.353 7.13655 213.592 9.37512 213.592 12.1365L213.592 19.9789C213.592 22.7403 211.353 24.9789 208.592 24.9789L206.941 24.9789C204.18 24.9789 201.941 22.7403 201.941 19.9789L201.941 12.1365C201.941 9.37512 204.18 7.13655 206.941 7.13655L208.592 7.13655ZM213.592 195.021C213.592 192.259 211.353 190.021 208.592 190.021L206.941 190.021C204.18 190.021 201.941 192.259 201.941 195.021L201.941 202.863C201.941 205.624 204.18 207.863 206.941 207.863L208.592 207.863C211.353 207.863 213.592 205.624 213.592 202.863L213.592 195.021ZM169.758 7.13655C172.519 7.13655 174.758 9.37513 174.758 12.1365L174.758 19.9789C174.758 22.7403 172.519 24.9789 169.758 24.9789L168.107 24.9789C165.346 24.9789 163.107 22.7403 163.107 19.9789L163.107 12.1365C163.107 9.37512 165.346 7.13655 168.107 7.13655L169.758 7.13655ZM174.758 195.021C174.758 192.259 172.519 190.021 169.758 190.021L168.107 190.021C165.346 190.021 163.107 192.259 163.107 195.021L163.107 202.863C163.107 205.624 165.346 207.863 168.107 207.863L169.758 207.863C172.519 207.863 174.758 205.624 174.758 202.863L174.758 195.021ZM130.922 7.13655C133.683 7.13655 135.922 9.37512 135.922 12.1365L135.922 19.9789C135.922 22.7403 133.683 24.9789 130.922 24.9789L129.271 24.9789C126.51 24.9789 124.271 22.7403 124.271 19.9789L124.271 12.1365C124.271 9.37512 126.51 7.13655 129.271 7.13655L130.922 7.13655ZM135.922 195.021C135.922 192.259 133.683 190.021 130.922 190.021L129.271 190.021C126.51 190.021 124.271 192.259 124.271 195.021L124.271 202.863C124.271 205.624 126.51 207.863 129.271 207.863L130.922 207.863C133.683 207.863 135.922 205.624 135.922 202.863L135.922 195.021ZM92.0879 7.13655C94.8493 7.13655 97.0879 9.37512 97.0879 12.1365L97.0879 19.9789C97.0879 22.7403 94.8493 24.9789 92.0879 24.9789L90.4374 24.9789C87.676 24.9789 85.4374 22.7403 85.4374 19.9789L85.4374 12.1365C85.4374 9.37512 87.676 7.13655 90.4374 7.13655L92.0879 7.13655ZM97.0879 195.021C97.0879 192.259 94.8493 190.021 92.0879 190.021L90.4374 190.021C87.676 190.021 85.4374 192.259 85.4374 195.021L85.4374 202.863C85.4374 205.624 87.676 207.863 90.4374 207.863L92.0879 207.863C94.8493 207.863 97.0879 205.624 97.0879 202.863L97.0879 195.021ZM53.252 7.13655C56.0134 7.13655 58.252 9.37512 58.252 12.1365L58.252 19.9789C58.252 22.7403 56.0134 24.9789 53.252 24.9789L51.6015 24.9789C48.84 24.9789 46.6015 22.7403 46.6015 19.9789L46.6015 12.1365C46.6015 9.37512 48.84 7.13655 51.6015 7.13655L53.252 7.13655ZM58.252 195.021C58.252 192.259 56.0134 190.021 53.252 190.021L51.6015 190.021C48.84 190.021 46.6015 192.259 46.6015 195.021L46.6015 202.863C46.6015 205.624 48.84 207.863 51.6015 207.863L53.252 207.863C56.0134 207.863 58.252 205.624 58.252 202.863L58.252 195.021ZM14.418 7.13655C17.1794 7.13655 19.418 9.37512 19.418 12.1365L19.418 19.9789C19.418 22.7403 17.1794 24.9789 14.418 24.9789L12.7675 24.9789C10.0061 24.9789 7.76749 22.7403 7.76749 19.9789L7.76749 12.1365C7.76749 9.37512 10.0061 7.13655 12.7675 7.13655L14.418 7.13655ZM19.418 195.021C19.418 192.259 17.1794 190.021 14.418 190.021L12.7675 190.021C10.0061 190.021 7.76748 192.259 7.76748 195.021L7.76748 202.863C7.76748 205.624 10.0061 207.863 12.7675 207.863L14.418 207.863C17.1794 207.863 19.418 205.624 19.418 202.863L19.418 195.021Z" fill="#5FA1E4"/>
<path d="M61.232 77.76C60.296 77.184 60.152 75.6 61.232 75.6H83.264C92.12 75.6 102.632 77.688 102.632 87.624C102.632 94.032 97.664 97.416 92.408 98.928C99.248 100.44 106.232 103.896 106.232 111.528C106.232 123.192 94.928 126 83.264 126H61.232C60.152 126 60.296 124.416 61.232 123.84C64.112 122.112 64.112 112.248 64.112 100.944C64.112 89.64 64.472 79.704 61.232 77.76ZM76.352 100.08C76.352 100.296 76.352 100.584 76.352 100.8C76.352 112.104 75.776 123.84 83.264 123.84C90.248 123.84 93.992 117.288 93.992 112.248C93.992 102.528 88.88 100.224 76.352 100.08ZM83.264 77.76C75.992 77.76 76.28 87.552 76.352 97.92C87.008 97.776 90.392 95.04 90.392 87.912C90.392 82.8 88.376 77.76 83.264 77.76ZM110.24 126C109.16 126 109.304 124.416 110.24 123.84C113.408 121.968 113.264 110.52 113.264 100.8C113.264 91.08 113.552 79.704 110.24 77.76C109.304 77.184 109.16 75.6 110.24 75.6H128.528C129.608 75.6 129.608 77.112 128.528 77.76C125.36 79.776 125.504 91.08 125.504 100.8C125.504 110.52 125.288 123.84 131.408 123.84C135.728 123.84 136.376 118.296 137.816 114.48C138.968 111.312 140.192 108.792 143.072 108.792C145.736 108.792 147.032 111.312 147.032 113.616C147.032 122.616 146.6 126 141.704 126L110.24 126ZM148.27 77.76C147.262 77.184 147.19 75.6 148.27 75.6H166.558C167.638 75.6 167.494 77.184 166.558 77.76C163.174 79.776 163.534 91.08 163.534 100.8C163.534 114.624 163.03 125.28 173.542 125.28C181.606 125.28 187.798 121.464 187.798 100.8C187.798 91.08 188.158 79.776 184.774 77.76C183.838 77.184 183.694 75.6 184.774 75.6L194.422 75.6C195.502 75.6 195.43 77.184 194.422 77.76C191.614 79.488 191.398 91.08 191.398 105.264C191.398 119.016 184.558 127.44 173.47 127.44C158.278 127.44 151.294 119.016 151.294 105.264C151.294 91.08 151.078 79.488 148.27 77.76ZM198.552 126C197.472 126 197.616 124.416 198.552 123.84C201.72 121.968 201.576 110.52 201.576 100.8C201.576 91.08 201.864 79.704 198.552 77.76C197.616 77.184 197.472 75.6 198.552 75.6H227.496C233.976 75.6 236.712 79.992 236.712 85.032C236.712 87.408 236.136 91.368 232.752 91.368C229.728 91.368 228.72 88.848 227.856 86.472C226.128 81.864 225.12 77.76 219.72 77.76C213.888 77.832 213.816 89.784 213.816 99.288C216.624 98.568 218.496 96.912 219.504 94.968C220.44 93.096 221.52 92.232 222.312 92.232C223.176 92.232 223.824 93.168 223.824 94.968V106.704C223.824 108.504 223.176 109.368 222.312 109.368C221.52 109.368 220.44 108.504 219.504 106.704C218.496 104.76 216.624 103.104 213.816 102.384C213.816 111.888 213.888 123.84 219.72 123.84C225.192 123.84 227.28 119.736 229.008 115.128C229.872 112.752 230.88 110.232 233.904 110.232C237.288 110.232 237.864 114.192 237.864 116.568C237.864 121.608 234.048 126 227.568 126H198.552Z" fill="#366CAB"/>
</svg>
