<svg width="300" height="215" viewBox="0 0 300 215" fill="none" xmlns="http://www.w3.org/2000/svg">
<path fill-rule="evenodd" clip-rule="evenodd" d="M295 -2.18553e-07C297.761 -9.78474e-08 300 2.23858 300 5L300 210C300 212.761 297.761 215 295 215L4.99999 215C2.23858 215 -9.3001e-06 212.761 -9.1794e-06 210L-2.18557e-07 4.99999C-9.78514e-08 2.23857 2.23859 -1.30156e-05 5 -1.28949e-05L295 -2.18553e-07ZM286.262 7.13655C289.023 7.13655 291.262 9.37513 291.262 12.1365L291.262 19.9789C291.262 22.7403 289.023 24.9789 286.262 24.9789L284.611 24.9789C281.85 24.9789 279.611 22.7403 279.611 19.9789L279.611 12.1365C279.611 9.37512 281.85 7.13655 284.611 7.13655L286.262 7.13655ZM291.262 195.021C291.262 192.259 289.023 190.021 286.262 190.021L284.611 190.021C281.85 190.021 279.611 192.259 279.611 195.021L279.611 202.863C279.611 205.624 281.85 207.863 284.611 207.863L286.262 207.863C289.023 207.863 291.262 205.624 291.262 202.863L291.262 195.021ZM247.428 7.13655C250.189 7.13655 252.428 9.37513 252.428 12.1365L252.428 19.9789C252.428 22.7403 250.189 24.9789 247.428 24.9789L245.777 24.9789C243.016 24.9789 240.777 22.7403 240.777 19.9789L240.777 12.1365C240.777 9.37512 243.016 7.13655 245.777 7.13655L247.428 7.13655ZM252.428 195.021C252.428 192.259 250.189 190.021 247.428 190.021L245.777 190.021C243.016 190.021 240.777 192.259 240.777 195.021L240.777 202.863C240.777 205.624 243.016 207.863 245.777 207.863L247.428 207.863C250.189 207.863 252.428 205.624 252.428 202.863L252.428 195.021ZM208.592 7.13655C211.353 7.13655 213.592 9.37512 213.592 12.1365L213.592 19.9789C213.592 22.7403 211.353 24.9789 208.592 24.9789L206.941 24.9789C204.18 24.9789 201.941 22.7403 201.941 19.9789L201.941 12.1365C201.941 9.37512 204.18 7.13655 206.941 7.13655L208.592 7.13655ZM213.592 195.021C213.592 192.259 211.353 190.021 208.592 190.021L206.941 190.021C204.18 190.021 201.941 192.259 201.941 195.021L201.941 202.863C201.941 205.624 204.18 207.863 206.941 207.863L208.592 207.863C211.353 207.863 213.592 205.624 213.592 202.863L213.592 195.021ZM169.758 7.13655C172.519 7.13655 174.758 9.37513 174.758 12.1365L174.758 19.9789C174.758 22.7403 172.519 24.9789 169.758 24.9789L168.107 24.9789C165.346 24.9789 163.107 22.7403 163.107 19.9789L163.107 12.1365C163.107 9.37512 165.346 7.13655 168.107 7.13655L169.758 7.13655ZM174.758 195.021C174.758 192.259 172.519 190.021 169.758 190.021L168.107 190.021C165.346 190.021 163.107 192.259 163.107 195.021L163.107 202.863C163.107 205.624 165.346 207.863 168.107 207.863L169.758 207.863C172.519 207.863 174.758 205.624 174.758 202.863L174.758 195.021ZM130.922 7.13655C133.683 7.13655 135.922 9.37512 135.922 12.1365L135.922 19.9789C135.922 22.7403 133.683 24.9789 130.922 24.9789L129.271 24.9789C126.51 24.9789 124.271 22.7403 124.271 19.9789L124.271 12.1365C124.271 9.37512 126.51 7.13655 129.271 7.13655L130.922 7.13655ZM135.922 195.021C135.922 192.259 133.683 190.021 130.922 190.021L129.271 190.021C126.51 190.021 124.271 192.259 124.271 195.021L124.271 202.863C124.271 205.624 126.51 207.863 129.271 207.863L130.922 207.863C133.683 207.863 135.922 205.624 135.922 202.863L135.922 195.021ZM92.0879 7.13655C94.8493 7.13655 97.0879 9.37512 97.0879 12.1365L97.0879 19.9789C97.0879 22.7403 94.8493 24.9789 92.0879 24.9789L90.4374 24.9789C87.676 24.9789 85.4374 22.7403 85.4374 19.9789L85.4374 12.1365C85.4374 9.37512 87.676 7.13655 90.4374 7.13655L92.0879 7.13655ZM97.0879 195.021C97.0879 192.259 94.8493 190.021 92.0879 190.021L90.4374 190.021C87.676 190.021 85.4374 192.259 85.4374 195.021L85.4374 202.863C85.4374 205.624 87.676 207.863 90.4374 207.863L92.0879 207.863C94.8493 207.863 97.0879 205.624 97.0879 202.863L97.0879 195.021ZM53.252 7.13655C56.0134 7.13655 58.252 9.37512 58.252 12.1365L58.252 19.9789C58.252 22.7403 56.0134 24.9789 53.252 24.9789L51.6015 24.9789C48.84 24.9789 46.6015 22.7403 46.6015 19.9789L46.6015 12.1365C46.6015 9.37512 48.84 7.13655 51.6015 7.13655L53.252 7.13655ZM58.252 195.021C58.252 192.259 56.0134 190.021 53.252 190.021L51.6015 190.021C48.84 190.021 46.6015 192.259 46.6015 195.021L46.6015 202.863C46.6015 205.624 48.84 207.863 51.6015 207.863L53.252 207.863C56.0134 207.863 58.252 205.624 58.252 202.863L58.252 195.021ZM14.418 7.13655C17.1794 7.13655 19.418 9.37512 19.418 12.1365L19.418 19.9789C19.418 22.7403 17.1794 24.9789 14.418 24.9789L12.7675 24.9789C10.0061 24.9789 7.76749 22.7403 7.76749 19.9789L7.76749 12.1365C7.76749 9.37512 10.0061 7.13655 12.7675 7.13655L14.418 7.13655ZM19.418 195.021C19.418 192.259 17.1794 190.021 14.418 190.021L12.7675 190.021C10.0061 190.021 7.76748 192.259 7.76748 195.021L7.76748 202.863C7.76748 205.624 10.0061 207.863 12.7675 207.863L14.418 207.863C17.1794 207.863 19.418 205.624 19.418 202.863L19.418 195.021Z" fill="#74C598"/>
<path d="M32.16 100.8C32.16 84.96 42.6 74.16 57 74.16C65.136 74.16 72.264 76.824 75.576 82.08C79.248 87.84 74.64 92.52 70.32 92.52C68.52 92.52 66.864 91.728 65.712 90C62.544 85.104 57.576 77.328 51.312 77.328C44.832 77.328 40.944 81.864 40.944 89.424C40.944 97.488 48.648 121.248 62.472 121.248C72.48 121.248 65.568 104.76 63.912 103.752C62.976 103.176 62.832 101.592 63.912 101.592H82.2C83.28 101.592 83.208 103.176 82.2 103.752C80.256 104.976 80.328 120.672 82.632 124.272C83.064 124.992 82.92 126 81.48 126C77.448 126 75.216 123.84 71.976 123.84C71.04 123.84 70.032 124.056 68.88 124.488C65.496 126.216 61.464 127.44 57 127.44C42.6 127.44 32.16 116.64 32.16 100.8ZM87.2164 77.76C86.2804 77.184 86.1364 75.6 87.2164 75.6H109.248C118.104 75.6 128.616 79.128 128.616 89.424C128.616 97.704 117.96 103.32 112.704 103.32H110.4C118.896 103.32 122.64 106.056 126.672 113.544C130.128 120.024 131.64 122.832 134.448 123.624C135.96 124.056 135.744 126 134.304 126H117.744C116.664 126 116.664 124.488 117.672 123.84C119.256 122.832 116.952 117.432 115.944 115.272C113.064 109.296 111.408 103.968 104.64 103.968H102.336C102.408 112.824 102.696 122.04 105.504 123.84C106.584 124.488 106.584 126 105.504 126H87.2164C86.1364 126 86.2804 124.416 87.2164 123.84C90.2404 122.04 90.0964 110.52 90.0964 100.8C90.0964 91.08 90.5284 79.704 87.2164 77.76ZM109.248 77.76C101.04 77.76 102.336 91.08 102.336 100.8C102.336 101.16 102.336 101.448 102.336 101.808C112.344 101.592 116.376 97.992 116.376 89.856C116.376 82.656 113.784 77.76 109.248 77.76ZM139.107 126C138.027 126 138.171 124.416 139.107 123.84C142.275 121.968 142.131 110.52 142.131 100.8C142.131 91.08 142.419 79.704 139.107 77.76C138.171 77.184 138.027 75.6 139.107 75.6H168.051C174.531 75.6 177.267 79.992 177.267 85.032C177.267 87.408 176.691 91.368 173.307 91.368C170.283 91.368 169.275 88.848 168.411 86.472C166.683 81.864 165.675 77.76 160.275 77.76C154.443 77.832 154.371 89.784 154.371 99.288C157.179 98.568 159.051 96.912 160.059 94.968C160.995 93.096 162.075 92.232 162.867 92.232C163.731 92.232 164.379 93.168 164.379 94.968V106.704C164.379 108.504 163.731 109.368 162.867 109.368C162.075 109.368 160.995 108.504 160.059 106.704C159.051 104.76 157.179 103.104 154.371 102.384C154.371 111.888 154.443 123.84 160.275 123.84C165.747 123.84 167.835 119.736 169.563 115.128C170.427 112.752 171.435 110.232 174.459 110.232C177.843 110.232 178.419 114.192 178.419 116.568C178.419 121.608 174.603 126 168.123 126H139.107ZM182.068 126C180.988 126 181.132 124.416 182.068 123.84C185.236 121.968 185.092 110.52 185.092 100.8C185.092 91.08 185.38 79.704 182.068 77.76C181.132 77.184 180.988 75.6 182.068 75.6H211.012C217.492 75.6 220.228 79.992 220.228 85.032C220.228 87.408 219.652 91.368 216.268 91.368C213.244 91.368 212.236 88.848 211.372 86.472C209.644 81.864 208.636 77.76 203.236 77.76C197.404 77.832 197.332 89.784 197.332 99.288C200.14 98.568 202.012 96.912 203.02 94.968C203.956 93.096 205.036 92.232 205.828 92.232C206.692 92.232 207.34 93.168 207.34 94.968V106.704C207.34 108.504 206.692 109.368 205.828 109.368C205.036 109.368 203.956 108.504 203.02 106.704C202.012 104.76 200.14 103.104 197.332 102.384C197.332 111.888 197.404 123.84 203.236 123.84C208.708 123.84 210.796 119.736 212.524 115.128C213.388 112.752 214.396 110.232 217.42 110.232C220.804 110.232 221.38 114.192 221.38 116.568C221.38 121.608 217.564 126 211.084 126H182.068ZM225.029 126C223.949 126 224.093 124.416 225.029 123.84C228.629 121.68 228.773 111.456 228.773 100.872C228.773 90.288 228.629 79.92 225.029 77.76C224.093 77.184 223.949 75.6 225.029 75.6H236.189C236.837 75.6 237.485 75.96 237.845 76.536L260.957 115.2C261.461 111.096 261.461 106.272 261.461 102.096C261.461 93.672 261.317 79.92 257.717 77.76C256.781 77.184 256.637 75.6 257.717 75.6H267.365C268.445 75.6 268.373 77.184 267.365 77.76C263.765 79.92 263.621 93.672 263.621 102.096C263.621 110.52 263.981 121.32 266.573 122.904C268.373 124.056 267.653 126 266.573 126H256.277C255.629 126 254.981 125.64 254.621 125.064L231.437 86.328C230.933 90.504 230.933 95.688 230.933 100.872C230.933 111.456 231.077 121.68 234.677 123.84C235.613 124.416 235.757 126 234.677 126H225.029Z" fill="#006E48"/>
</svg>
