<svg width="300" height="215" viewBox="0 0 300 215" fill="none" xmlns="http://www.w3.org/2000/svg">
<path fill-rule="evenodd" clip-rule="evenodd" d="M295 -2.18557e-07C297.761 -9.78511e-08 300 2.23858 300 5L300 210C300 212.761 297.761 215 295 215L4.99999 215C2.23858 215 -9.3001e-06 212.761 -9.17939e-06 210L-2.18553e-07 4.99999C-9.78478e-08 2.23857 2.23859 -1.30156e-05 5 -1.28949e-05L295 -2.18557e-07ZM286.262 7.13655C289.023 7.13655 291.262 9.37513 291.262 12.1365L291.262 19.9789C291.262 22.7403 289.023 24.9789 286.262 24.9789L284.611 24.9789C281.85 24.9789 279.611 22.7403 279.611 19.9789L279.611 12.1365C279.611 9.37512 281.85 7.13655 284.611 7.13655L286.262 7.13655ZM291.262 195.021C291.262 192.259 289.023 190.021 286.262 190.021L284.611 190.021C281.85 190.021 279.611 192.259 279.611 195.021L279.611 202.863C279.611 205.624 281.85 207.863 284.611 207.863L286.262 207.863C289.023 207.863 291.262 205.624 291.262 202.863L291.262 195.021ZM247.428 7.13655C250.189 7.13655 252.428 9.37513 252.428 12.1365L252.428 19.9789C252.428 22.7403 250.189 24.9789 247.428 24.9789L245.777 24.9789C243.016 24.9789 240.777 22.7403 240.777 19.9789L240.777 12.1365C240.777 9.37512 243.016 7.13655 245.777 7.13655L247.428 7.13655ZM252.428 195.021C252.428 192.259 250.189 190.021 247.428 190.021L245.777 190.021C243.016 190.021 240.777 192.259 240.777 195.021L240.777 202.863C240.777 205.624 243.016 207.863 245.777 207.863L247.428 207.863C250.189 207.863 252.428 205.624 252.428 202.863L252.428 195.021ZM208.592 7.13655C211.353 7.13655 213.592 9.37512 213.592 12.1365L213.592 19.9789C213.592 22.7403 211.353 24.9789 208.592 24.9789L206.941 24.9789C204.18 24.9789 201.941 22.7403 201.941 19.9789L201.941 12.1365C201.941 9.37512 204.18 7.13655 206.941 7.13655L208.592 7.13655ZM213.592 195.021C213.592 192.259 211.353 190.021 208.592 190.021L206.941 190.021C204.18 190.021 201.941 192.259 201.941 195.021L201.941 202.863C201.941 205.624 204.18 207.863 206.941 207.863L208.592 207.863C211.353 207.863 213.592 205.624 213.592 202.863L213.592 195.021ZM169.758 7.13655C172.519 7.13655 174.758 9.37513 174.758 12.1365L174.758 19.9789C174.758 22.7403 172.519 24.9789 169.758 24.9789L168.107 24.9789C165.346 24.9789 163.107 22.7403 163.107 19.9789L163.107 12.1365C163.107 9.37512 165.346 7.13655 168.107 7.13655L169.758 7.13655ZM174.758 195.021C174.758 192.259 172.519 190.021 169.758 190.021L168.107 190.021C165.346 190.021 163.107 192.259 163.107 195.021L163.107 202.863C163.107 205.624 165.346 207.863 168.107 207.863L169.758 207.863C172.519 207.863 174.758 205.624 174.758 202.863L174.758 195.021ZM130.922 7.13655C133.683 7.13655 135.922 9.37512 135.922 12.1365L135.922 19.9789C135.922 22.7403 133.683 24.9789 130.922 24.9789L129.271 24.9789C126.51 24.9789 124.271 22.7403 124.271 19.9789L124.271 12.1365C124.271 9.37512 126.51 7.13655 129.271 7.13655L130.922 7.13655ZM135.922 195.021C135.922 192.259 133.683 190.021 130.922 190.021L129.271 190.021C126.51 190.021 124.271 192.259 124.271 195.021L124.271 202.863C124.271 205.624 126.51 207.863 129.271 207.863L130.922 207.863C133.683 207.863 135.922 205.624 135.922 202.863L135.922 195.021ZM92.0879 7.13655C94.8493 7.13655 97.0879 9.37512 97.0879 12.1365L97.0879 19.9789C97.0879 22.7403 94.8493 24.9789 92.0879 24.9789L90.4374 24.9789C87.676 24.9789 85.4374 22.7403 85.4374 19.9789L85.4374 12.1365C85.4374 9.37512 87.676 7.13655 90.4374 7.13655L92.0879 7.13655ZM97.0879 195.021C97.0879 192.259 94.8493 190.021 92.0879 190.021L90.4374 190.021C87.676 190.021 85.4374 192.259 85.4374 195.021L85.4374 202.863C85.4374 205.624 87.676 207.863 90.4374 207.863L92.0879 207.863C94.8493 207.863 97.0879 205.624 97.0879 202.863L97.0879 195.021ZM53.252 7.13655C56.0134 7.13655 58.252 9.37512 58.252 12.1365L58.252 19.9789C58.252 22.7403 56.0134 24.9789 53.252 24.9789L51.6015 24.9789C48.84 24.9789 46.6015 22.7403 46.6015 19.9789L46.6015 12.1365C46.6015 9.37512 48.84 7.13655 51.6015 7.13655L53.252 7.13655ZM58.252 195.021C58.252 192.259 56.0134 190.021 53.252 190.021L51.6015 190.021C48.84 190.021 46.6015 192.259 46.6015 195.021L46.6015 202.863C46.6015 205.624 48.84 207.863 51.6015 207.863L53.252 207.863C56.0134 207.863 58.252 205.624 58.252 202.863L58.252 195.021ZM14.418 7.13655C17.1794 7.13655 19.418 9.37512 19.418 12.1365L19.418 19.9789C19.418 22.7403 17.1794 24.9789 14.418 24.9789L12.7675 24.9789C10.0061 24.9789 7.76749 22.7403 7.76749 19.9789L7.76749 12.1365C7.76749 9.37512 10.0061 7.13655 12.7675 7.13655L14.418 7.13655ZM19.418 195.021C19.418 192.259 17.1794 190.021 14.418 190.021L12.7675 190.021C10.0061 190.021 7.76748 192.259 7.76748 195.021L7.76748 202.863C7.76748 205.624 10.0061 207.863 12.7675 207.863L14.418 207.863C17.1794 207.863 19.418 205.624 19.418 202.863L19.418 195.021Z" fill="#FF9F48"/>
<path d="M35.75 125.32C22.55 125.32 12.98 115.42 12.98 100.9C12.98 86.38 22.55 76.48 35.75 76.48C48.95 76.48 58.52 86.38 58.52 100.9C58.52 115.42 48.95 125.32 35.75 125.32ZM26.51 80.176C17.93 84.136 21.23 96.94 25.19 105.652C28.622 113.11 34.43 122.284 41.36 122.284C42.548 122.284 43.736 122.02 44.99 121.426C53.636 117.466 50.204 104.794 46.31 96.148C42.944 88.69 37.07 79.384 30.074 79.384C28.886 79.384 27.698 79.648 26.51 80.176ZM61.3858 79.78C60.5278 79.252 60.3958 77.8 61.3858 77.8H81.5818C89.6998 77.8 99.3358 81.034 99.3358 90.472C99.3358 98.062 89.5678 103.21 84.7498 103.21H82.6378C90.4258 103.21 93.8578 105.718 97.5538 112.582C100.722 118.522 102.108 121.096 104.682 121.822C106.068 122.218 105.87 124 104.55 124H89.3698C88.3798 124 88.3798 122.614 89.3038 122.02C90.7558 121.096 88.6438 116.146 87.7198 114.166C85.0798 108.688 83.5618 103.804 77.3578 103.804L75.2458 103.804C75.3118 111.922 75.5758 120.37 78.1498 122.02C79.1398 122.614 79.1398 124 78.1498 124L61.3858 124C60.3958 124 60.5278 122.548 61.3858 122.02C64.1578 120.37 64.0258 109.81 64.0258 100.9C64.0258 91.99 64.4218 81.562 61.3858 79.78ZM81.5818 79.78C74.0578 79.78 75.2458 91.99 75.2458 100.9C75.2458 101.23 75.2458 101.494 75.2458 101.824C84.4198 101.626 88.1158 98.326 88.1158 90.868C88.1158 84.268 85.7398 79.78 81.5818 79.78ZM108.688 124C107.698 124 107.632 122.548 108.688 122.02C112.714 120.04 117.268 109.81 120.106 102.088C124.33 90.67 128.092 80.968 124.858 79.78C123.604 79.318 123.868 77.8 124.858 77.8H135.484C136.342 77.8 137.134 78.394 137.398 79.252C139.048 84.07 143.536 96.412 145.186 100.9C148.42 109.81 152.38 120.37 155.68 122.02C156.736 122.548 156.67 124 155.68 124H139.642C138.652 124 138.652 122.548 139.642 122.02C141.16 121.228 139.642 116.278 137.53 110.47L120.172 110.47C118.06 116.014 116.41 121.096 118.126 122.02C119.116 122.548 119.116 124 118.126 124H108.688ZM123.406 102.088C122.878 103.672 122.152 105.388 121.492 107.17H136.276C133.768 100.504 131.392 93.838 129.016 87.106C126.904 91.528 125.188 97.072 123.406 102.088ZM159.484 124C158.494 124 158.626 122.548 159.484 122.02C162.784 120.04 162.916 110.668 162.916 100.966C162.916 91.264 162.784 81.76 159.484 79.78C158.626 79.252 158.494 77.8 159.484 77.8H169.714C170.308 77.8 170.902 78.13 171.232 78.658L192.418 114.1C192.88 110.338 192.88 105.916 192.88 102.088C192.88 94.366 192.748 81.76 189.448 79.78C188.59 79.252 188.458 77.8 189.448 77.8H198.292C199.282 77.8 199.216 79.252 198.292 79.78C194.992 81.76 194.86 94.366 194.86 102.088C194.86 109.81 195.19 119.71 197.566 121.162C199.216 122.218 198.556 124 197.566 124H188.128C187.534 124 186.94 123.67 186.61 123.142L165.358 87.634C164.896 91.462 164.896 96.214 164.896 100.966C164.896 110.668 165.028 120.04 168.328 122.02C169.186 122.548 169.318 124 168.328 124H159.484ZM201.183 100.9C201.183 86.38 210.753 76.48 223.953 76.48C231.411 76.48 237.945 78.922 240.981 83.74C244.347 89.02 240.123 93.31 236.163 93.31C234.513 93.31 232.995 92.584 231.939 91C229.035 86.512 224.481 79.384 218.739 79.384C212.799 79.384 209.235 83.542 209.235 90.472C209.235 97.864 216.297 119.644 228.969 119.644C238.143 119.644 231.807 104.53 230.289 103.606C229.431 103.078 229.299 101.626 230.289 101.626L247.053 101.626C248.043 101.626 247.977 103.078 247.053 103.606C245.271 104.728 245.337 119.116 247.449 122.416C247.845 123.076 247.713 124 246.393 124C242.697 124 240.651 122.02 237.681 122.02C236.823 122.02 235.899 122.218 234.843 122.614C231.741 124.198 228.045 125.32 223.953 125.32C210.753 125.32 201.183 115.42 201.183 100.9ZM251.651 124C250.661 124 250.793 122.548 251.651 122.02C254.555 120.304 254.423 109.81 254.423 100.9C254.423 91.99 254.687 81.562 251.651 79.78C250.793 79.252 250.661 77.8 251.651 77.8H278.183C284.123 77.8 286.631 81.826 286.631 86.446C286.631 88.624 286.103 92.254 283.001 92.254C280.229 92.254 279.305 89.944 278.513 87.766C276.929 83.542 276.005 79.78 271.055 79.78C265.709 79.846 265.643 90.802 265.643 99.514C268.217 98.854 269.933 97.336 270.857 95.554C271.715 93.838 272.705 93.046 273.431 93.046C274.223 93.046 274.817 93.904 274.817 95.554V106.312C274.817 107.962 274.223 108.754 273.431 108.754C272.705 108.754 271.715 107.962 270.857 106.312C269.933 104.53 268.217 103.012 265.643 102.352C265.643 111.064 265.709 122.02 271.055 122.02C276.071 122.02 277.985 118.258 279.569 114.034C280.361 111.856 281.285 109.546 284.057 109.546C287.159 109.546 287.687 113.176 287.687 115.354C287.687 119.974 284.189 124 278.249 124L251.651 124Z" fill="#E45130"/>
</svg>
