<svg width="300" height="215" viewBox="0 0 300 215" fill="none" xmlns="http://www.w3.org/2000/svg">
<path fill-rule="evenodd" clip-rule="evenodd" d="M295 -2.18553e-07C297.761 -9.78474e-08 300 2.23858 300 5L300 210C300 212.761 297.761 215 295 215L4.99999 215C2.23858 215 -9.3001e-06 212.761 -9.1794e-06 210L-2.18557e-07 4.99999C-9.78514e-08 2.23857 2.23859 -1.30156e-05 5 -1.28949e-05L295 -2.18553e-07ZM286.262 7.13655C289.023 7.13655 291.262 9.37513 291.262 12.1365L291.262 19.9789C291.262 22.7403 289.023 24.9789 286.262 24.9789L284.611 24.9789C281.85 24.9789 279.611 22.7403 279.611 19.9789L279.611 12.1365C279.611 9.37512 281.85 7.13655 284.611 7.13655L286.262 7.13655ZM291.262 195.021C291.262 192.259 289.023 190.021 286.262 190.021L284.611 190.021C281.85 190.021 279.611 192.259 279.611 195.021L279.611 202.863C279.611 205.624 281.85 207.863 284.611 207.863L286.262 207.863C289.023 207.863 291.262 205.624 291.262 202.863L291.262 195.021ZM247.428 7.13655C250.189 7.13655 252.428 9.37513 252.428 12.1365L252.428 19.9789C252.428 22.7403 250.189 24.9789 247.428 24.9789L245.777 24.9789C243.016 24.9789 240.777 22.7403 240.777 19.9789L240.777 12.1365C240.777 9.37512 243.016 7.13655 245.777 7.13655L247.428 7.13655ZM252.428 195.021C252.428 192.259 250.189 190.021 247.428 190.021L245.777 190.021C243.016 190.021 240.777 192.259 240.777 195.021L240.777 202.863C240.777 205.624 243.016 207.863 245.777 207.863L247.428 207.863C250.189 207.863 252.428 205.624 252.428 202.863L252.428 195.021ZM208.592 7.13655C211.353 7.13655 213.592 9.37512 213.592 12.1365L213.592 19.9789C213.592 22.7403 211.353 24.9789 208.592 24.9789L206.941 24.9789C204.18 24.9789 201.941 22.7403 201.941 19.9789L201.941 12.1365C201.941 9.37512 204.18 7.13655 206.941 7.13655L208.592 7.13655ZM213.592 195.021C213.592 192.259 211.353 190.021 208.592 190.021L206.941 190.021C204.18 190.021 201.941 192.259 201.941 195.021L201.941 202.863C201.941 205.624 204.18 207.863 206.941 207.863L208.592 207.863C211.353 207.863 213.592 205.624 213.592 202.863L213.592 195.021ZM169.758 7.13655C172.519 7.13655 174.758 9.37513 174.758 12.1365L174.758 19.9789C174.758 22.7403 172.519 24.9789 169.758 24.9789L168.107 24.9789C165.346 24.9789 163.107 22.7403 163.107 19.9789L163.107 12.1365C163.107 9.37512 165.346 7.13655 168.107 7.13655L169.758 7.13655ZM174.758 195.021C174.758 192.259 172.519 190.021 169.758 190.021L168.107 190.021C165.346 190.021 163.107 192.259 163.107 195.021L163.107 202.863C163.107 205.624 165.346 207.863 168.107 207.863L169.758 207.863C172.519 207.863 174.758 205.624 174.758 202.863L174.758 195.021ZM130.922 7.13655C133.683 7.13655 135.922 9.37512 135.922 12.1365L135.922 19.9789C135.922 22.7403 133.683 24.9789 130.922 24.9789L129.271 24.9789C126.51 24.9789 124.271 22.7403 124.271 19.9789L124.271 12.1365C124.271 9.37512 126.51 7.13655 129.271 7.13655L130.922 7.13655ZM135.922 195.021C135.922 192.259 133.683 190.021 130.922 190.021L129.271 190.021C126.51 190.021 124.271 192.259 124.271 195.021L124.271 202.863C124.271 205.624 126.51 207.863 129.271 207.863L130.922 207.863C133.683 207.863 135.922 205.624 135.922 202.863L135.922 195.021ZM92.0879 7.13655C94.8493 7.13655 97.0879 9.37512 97.0879 12.1365L97.0879 19.9789C97.0879 22.7403 94.8493 24.9789 92.0879 24.9789L90.4374 24.9789C87.676 24.9789 85.4374 22.7403 85.4374 19.9789L85.4374 12.1365C85.4374 9.37512 87.676 7.13655 90.4374 7.13655L92.0879 7.13655ZM97.0879 195.021C97.0879 192.259 94.8493 190.021 92.0879 190.021L90.4374 190.021C87.676 190.021 85.4374 192.259 85.4374 195.021L85.4374 202.863C85.4374 205.624 87.676 207.863 90.4374 207.863L92.0879 207.863C94.8493 207.863 97.0879 205.624 97.0879 202.863L97.0879 195.021ZM53.252 7.13655C56.0134 7.13655 58.252 9.37512 58.252 12.1365L58.252 19.9789C58.252 22.7403 56.0134 24.9789 53.252 24.9789L51.6015 24.9789C48.84 24.9789 46.6015 22.7403 46.6015 19.9789L46.6015 12.1365C46.6015 9.37512 48.84 7.13655 51.6015 7.13655L53.252 7.13655ZM58.252 195.021C58.252 192.259 56.0134 190.021 53.252 190.021L51.6015 190.021C48.84 190.021 46.6015 192.259 46.6015 195.021L46.6015 202.863C46.6015 205.624 48.84 207.863 51.6015 207.863L53.252 207.863C56.0134 207.863 58.252 205.624 58.252 202.863L58.252 195.021ZM14.418 7.13655C17.1794 7.13655 19.418 9.37512 19.418 12.1365L19.418 19.9789C19.418 22.7403 17.1794 24.9789 14.418 24.9789L12.7675 24.9789C10.0061 24.9789 7.76749 22.7403 7.76749 19.9789L7.76749 12.1365C7.76749 9.37512 10.0061 7.13655 12.7675 7.13655L14.418 7.13655ZM19.418 195.021C19.418 192.259 17.1794 190.021 14.418 190.021L12.7675 190.021C10.0061 190.021 7.76748 192.259 7.76748 195.021L7.76748 202.863C7.76748 205.624 10.0061 207.863 12.7675 207.863L14.418 207.863C17.1794 207.863 19.418 205.624 19.418 202.863L19.418 195.021Z" fill="#FFBADB"/>
<path d="M70.232 77.76C69.296 77.184 69.152 75.6 70.232 75.6H92.264C101.12 75.6 111.632 78.264 111.632 90.576C111.632 102.888 99.104 107.568 91.04 107.568H85.424C85.496 115.2 86.072 122.256 88.52 123.84C89.6 124.488 89.6 126 88.52 126H70.232C69.152 126 69.296 124.416 70.232 123.84C73.256 122.04 73.112 110.52 73.112 100.8C73.112 91.08 73.544 79.704 70.232 77.76ZM92.264 77.76C84.056 77.76 85.352 91.08 85.352 100.8C85.352 102.312 85.352 103.824 85.352 105.408C95.36 105.12 99.392 100.656 99.392 90.216C99.392 82.656 96.8 77.76 92.264 77.76ZM114.599 126C113.519 126 113.663 124.416 114.599 123.84C117.551 122.04 117.623 110.52 117.623 100.8C117.623 91.08 117.983 79.776 114.599 77.76C113.663 77.184 113.519 75.6 114.599 75.6L132.887 75.6C133.967 75.6 133.895 77.184 132.887 77.76C129.719 79.704 129.863 91.08 129.863 100.8C129.863 110.52 129.503 121.824 132.887 123.84C133.823 124.416 133.967 126 132.887 126H114.599ZM137.38 126C136.3 126 136.444 124.416 137.38 123.84C140.98 121.68 141.124 111.456 141.124 100.872C141.124 90.288 140.98 79.92 137.38 77.76C136.444 77.184 136.3 75.6 137.38 75.6H148.54C149.188 75.6 149.836 75.96 150.196 76.536L173.308 115.2C173.812 111.096 173.812 106.272 173.812 102.096C173.812 93.672 173.668 79.92 170.068 77.76C169.132 77.184 168.988 75.6 170.068 75.6H179.716C180.796 75.6 180.724 77.184 179.716 77.76C176.116 79.92 175.972 93.672 175.972 102.096C175.972 110.52 176.332 121.32 178.924 122.904C180.724 124.056 180.004 126 178.924 126L168.628 126C167.98 126 167.332 125.64 166.972 125.064L143.788 86.328C143.284 90.504 143.284 95.688 143.284 100.872C143.284 111.456 143.428 121.68 147.028 123.84C147.964 124.416 148.108 126 147.028 126H137.38ZM184.209 126C183.129 126 183.273 124.416 184.209 123.84C187.161 122.04 187.233 110.52 187.233 100.8C187.233 91.08 187.593 79.776 184.209 77.76C183.273 77.184 183.129 75.6 184.209 75.6L202.497 75.6C203.577 75.6 203.505 77.184 202.497 77.76C199.473 79.632 199.473 89.928 199.473 99.288C200.553 97.92 205.161 91.872 206.241 90.36C210.777 83.736 214.017 78.408 212.001 77.76C210.849 77.4 210.993 75.6 212.073 75.6H223.089C224.169 75.6 224.529 77.184 223.089 77.76C219.561 79.2 214.881 84.528 209.553 91.152C207.177 94.176 202.857 99.576 202.857 99.576H206.889C207.609 99.576 208.401 100.008 208.905 100.728C210.633 102.888 214.233 107.496 216.249 110.16C221.433 116.856 226.257 122.616 229.209 123.84C230.505 124.416 230.289 126 229.209 126H210.921C209.841 126 209.625 124.272 210.921 123.84C213.585 122.832 209.049 117.504 204.873 111.528C203.433 109.584 201.273 106.56 199.473 104.04C199.473 112.896 199.473 122.04 202.497 123.84C203.433 124.416 203.577 126 202.497 126H184.209Z" fill="#CB4786"/>
</svg>
