<svg width="300" height="215" viewBox="0 0 300 215" fill="none" xmlns="http://www.w3.org/2000/svg">
<path fill-rule="evenodd" clip-rule="evenodd" d="M295 -2.18553e-07C297.761 -9.78474e-08 300 2.23858 300 5L300 210C300 212.761 297.761 215 295 215L4.99999 215C2.23858 215 -9.3001e-06 212.761 -9.1794e-06 210L-2.18557e-07 4.99999C-9.78514e-08 2.23857 2.23859 -1.30156e-05 5 -1.28949e-05L295 -2.18553e-07ZM286.262 7.13655C289.023 7.13655 291.262 9.37513 291.262 12.1365L291.262 19.9789C291.262 22.7403 289.023 24.9789 286.262 24.9789L284.611 24.9789C281.85 24.9789 279.611 22.7403 279.611 19.9789L279.611 12.1365C279.611 9.37512 281.85 7.13655 284.611 7.13655L286.262 7.13655ZM291.262 195.021C291.262 192.259 289.023 190.021 286.262 190.021L284.611 190.021C281.85 190.021 279.611 192.259 279.611 195.021L279.611 202.863C279.611 205.624 281.85 207.863 284.611 207.863L286.262 207.863C289.023 207.863 291.262 205.624 291.262 202.863L291.262 195.021ZM247.428 7.13655C250.189 7.13655 252.428 9.37513 252.428 12.1365L252.428 19.9789C252.428 22.7403 250.189 24.9789 247.428 24.9789L245.777 24.9789C243.016 24.9789 240.777 22.7403 240.777 19.9789L240.777 12.1365C240.777 9.37512 243.016 7.13655 245.777 7.13655L247.428 7.13655ZM252.428 195.021C252.428 192.259 250.189 190.021 247.428 190.021L245.777 190.021C243.016 190.021 240.777 192.259 240.777 195.021L240.777 202.863C240.777 205.624 243.016 207.863 245.777 207.863L247.428 207.863C250.189 207.863 252.428 205.624 252.428 202.863L252.428 195.021ZM208.592 7.13655C211.353 7.13655 213.592 9.37512 213.592 12.1365L213.592 19.9789C213.592 22.7403 211.353 24.9789 208.592 24.9789L206.941 24.9789C204.18 24.9789 201.941 22.7403 201.941 19.9789L201.941 12.1365C201.941 9.37512 204.18 7.13655 206.941 7.13655L208.592 7.13655ZM213.592 195.021C213.592 192.259 211.353 190.021 208.592 190.021L206.941 190.021C204.18 190.021 201.941 192.259 201.941 195.021L201.941 202.863C201.941 205.624 204.18 207.863 206.941 207.863L208.592 207.863C211.353 207.863 213.592 205.624 213.592 202.863L213.592 195.021ZM169.758 7.13655C172.519 7.13655 174.758 9.37513 174.758 12.1365L174.758 19.9789C174.758 22.7403 172.519 24.9789 169.758 24.9789L168.107 24.9789C165.346 24.9789 163.107 22.7403 163.107 19.9789L163.107 12.1365C163.107 9.37512 165.346 7.13655 168.107 7.13655L169.758 7.13655ZM174.758 195.021C174.758 192.259 172.519 190.021 169.758 190.021L168.107 190.021C165.346 190.021 163.107 192.259 163.107 195.021L163.107 202.863C163.107 205.624 165.346 207.863 168.107 207.863L169.758 207.863C172.519 207.863 174.758 205.624 174.758 202.863L174.758 195.021ZM130.922 7.13655C133.683 7.13655 135.922 9.37512 135.922 12.1365L135.922 19.9789C135.922 22.7403 133.683 24.9789 130.922 24.9789L129.271 24.9789C126.51 24.9789 124.271 22.7403 124.271 19.9789L124.271 12.1365C124.271 9.37512 126.51 7.13655 129.271 7.13655L130.922 7.13655ZM135.922 195.021C135.922 192.259 133.683 190.021 130.922 190.021L129.271 190.021C126.51 190.021 124.271 192.259 124.271 195.021L124.271 202.863C124.271 205.624 126.51 207.863 129.271 207.863L130.922 207.863C133.683 207.863 135.922 205.624 135.922 202.863L135.922 195.021ZM92.0879 7.13655C94.8493 7.13655 97.0879 9.37512 97.0879 12.1365L97.0879 19.9789C97.0879 22.7403 94.8493 24.9789 92.0879 24.9789L90.4374 24.9789C87.676 24.9789 85.4374 22.7403 85.4374 19.9789L85.4374 12.1365C85.4374 9.37512 87.676 7.13655 90.4374 7.13655L92.0879 7.13655ZM97.0879 195.021C97.0879 192.259 94.8493 190.021 92.0879 190.021L90.4374 190.021C87.676 190.021 85.4374 192.259 85.4374 195.021L85.4374 202.863C85.4374 205.624 87.676 207.863 90.4374 207.863L92.0879 207.863C94.8493 207.863 97.0879 205.624 97.0879 202.863L97.0879 195.021ZM53.252 7.13655C56.0134 7.13655 58.252 9.37512 58.252 12.1365L58.252 19.9789C58.252 22.7403 56.0134 24.9789 53.252 24.9789L51.6015 24.9789C48.84 24.9789 46.6015 22.7403 46.6015 19.9789L46.6015 12.1365C46.6015 9.37512 48.84 7.13655 51.6015 7.13655L53.252 7.13655ZM58.252 195.021C58.252 192.259 56.0134 190.021 53.252 190.021L51.6015 190.021C48.84 190.021 46.6015 192.259 46.6015 195.021L46.6015 202.863C46.6015 205.624 48.84 207.863 51.6015 207.863L53.252 207.863C56.0134 207.863 58.252 205.624 58.252 202.863L58.252 195.021ZM14.418 7.13655C17.1794 7.13655 19.418 9.37512 19.418 12.1365L19.418 19.9789C19.418 22.7403 17.1794 24.9789 14.418 24.9789L12.7675 24.9789C10.0061 24.9789 7.76749 22.7403 7.76749 19.9789L7.76749 12.1365C7.76749 9.37512 10.0061 7.13655 12.7675 7.13655L14.418 7.13655ZM19.418 195.021C19.418 192.259 17.1794 190.021 14.418 190.021L12.7675 190.021C10.0061 190.021 7.76748 192.259 7.76748 195.021L7.76748 202.863C7.76748 205.624 10.0061 207.863 12.7675 207.863L14.418 207.863C17.1794 207.863 19.418 205.624 19.418 202.863L19.418 195.021Z" fill="#D967E3"/>
<path d="M15.232 77.76C14.296 77.184 14.152 75.6 15.232 75.6H37.264C46.12 75.6 56.632 78.264 56.632 90.576C56.632 102.888 44.104 107.568 36.04 107.568H30.424C30.496 115.2 31.072 122.256 33.52 123.84C34.6 124.488 34.6 126 33.52 126H15.232C14.152 126 14.296 124.416 15.232 123.84C18.256 122.04 18.112 110.52 18.112 100.8C18.112 91.08 18.544 79.704 15.232 77.76ZM37.264 77.76C29.056 77.76 30.352 91.08 30.352 100.8C30.352 102.312 30.352 103.824 30.352 105.408C40.36 105.12 44.392 100.656 44.392 90.216C44.392 82.656 41.8 77.76 37.264 77.76ZM59.2392 77.76C58.2312 77.184 58.1592 75.6 59.2392 75.6L77.5272 75.6C78.6072 75.6 78.4632 77.184 77.5272 77.76C74.1432 79.776 74.5032 91.08 74.5032 100.8C74.5032 114.624 73.9992 125.28 84.5112 125.28C92.5752 125.28 98.7672 121.464 98.7672 100.8C98.7672 91.08 99.1272 79.776 95.7432 77.76C94.8072 77.184 94.6632 75.6 95.7432 75.6H105.391C106.471 75.6 106.399 77.184 105.391 77.76C102.583 79.488 102.367 91.08 102.367 105.264C102.367 119.016 95.5272 127.44 84.4392 127.44C69.2472 127.44 62.2632 119.016 62.2632 105.264C62.2632 91.08 62.0472 79.488 59.2392 77.76ZM109.521 77.76C108.585 77.184 108.441 75.6 109.521 75.6H131.553C140.409 75.6 150.921 79.128 150.921 89.424C150.921 97.704 140.265 103.32 135.009 103.32H132.705C141.201 103.32 144.945 106.056 148.977 113.544C152.433 120.024 153.945 122.832 156.753 123.624C158.265 124.056 158.049 126 156.609 126H140.049C138.969 126 138.969 124.488 139.977 123.84C141.561 122.832 139.257 117.432 138.249 115.272C135.369 109.296 133.713 103.968 126.945 103.968H124.641C124.713 112.824 125.001 122.04 127.809 123.84C128.889 124.488 128.889 126 127.809 126L109.521 126C108.441 126 108.585 124.416 109.521 123.84C112.545 122.04 112.401 110.52 112.401 100.8C112.401 91.08 112.833 79.704 109.521 77.76ZM131.553 77.76C123.345 77.76 124.641 91.08 124.641 100.8C124.641 101.16 124.641 101.448 124.641 101.808C134.649 101.592 138.681 97.992 138.681 89.856C138.681 82.656 136.089 77.76 131.553 77.76ZM161.412 77.76C160.476 77.184 160.332 75.6 161.412 75.6H183.444C192.3 75.6 202.812 78.264 202.812 90.576C202.812 102.888 190.284 107.568 182.22 107.568H176.604C176.676 115.2 177.252 122.256 179.7 123.84C180.78 124.488 180.78 126 179.7 126H161.412C160.332 126 160.476 124.416 161.412 123.84C164.436 122.04 164.292 110.52 164.292 100.8C164.292 91.08 164.724 79.704 161.412 77.76ZM183.444 77.76C175.236 77.76 176.532 91.08 176.532 100.8C176.532 102.312 176.532 103.824 176.532 105.408C186.54 105.12 190.572 100.656 190.572 90.216C190.572 82.656 187.98 77.76 183.444 77.76ZM204.513 126C203.433 126 203.577 124.416 204.513 123.84C207.681 121.968 207.537 110.52 207.537 100.8C207.537 91.08 207.825 79.704 204.513 77.76C203.577 77.184 203.433 75.6 204.513 75.6H222.801C223.881 75.6 223.881 77.112 222.801 77.76C219.633 79.776 219.777 91.08 219.777 100.8C219.777 110.52 219.561 123.84 225.681 123.84C230.001 123.84 230.649 118.296 232.089 114.48C233.241 111.312 234.465 108.792 237.345 108.792C240.009 108.792 241.305 111.312 241.305 113.616C241.305 122.616 240.873 126 235.977 126H204.513ZM244.591 126C243.511 126 243.655 124.416 244.591 123.84C247.759 121.968 247.615 110.52 247.615 100.8C247.615 91.08 247.903 79.704 244.591 77.76C243.655 77.184 243.511 75.6 244.591 75.6H273.535C280.015 75.6 282.751 79.992 282.751 85.032C282.751 87.408 282.175 91.368 278.791 91.368C275.767 91.368 274.759 88.848 273.895 86.472C272.167 81.864 271.159 77.76 265.759 77.76C259.927 77.832 259.855 89.784 259.855 99.288C262.663 98.568 264.535 96.912 265.543 94.968C266.479 93.096 267.559 92.232 268.351 92.232C269.215 92.232 269.863 93.168 269.863 94.968V106.704C269.863 108.504 269.215 109.368 268.351 109.368C267.559 109.368 266.479 108.504 265.543 106.704C264.535 104.76 262.663 103.104 259.855 102.384C259.855 111.888 259.927 123.84 265.759 123.84C271.231 123.84 273.319 119.736 275.047 115.128C275.911 112.752 276.919 110.232 279.943 110.232C283.327 110.232 283.903 114.192 283.903 116.568C283.903 121.608 280.087 126 273.607 126L244.591 126Z" fill="#9C2AB9"/>
</svg>
