<svg width="300" height="215" viewBox="0 0 300 215" fill="none" xmlns="http://www.w3.org/2000/svg">
<path fill-rule="evenodd" clip-rule="evenodd" d="M295 -2.18553e-07C297.761 -9.78474e-08 300 2.23858 300 5L300 210C300 212.761 297.761 215 295 215L4.99999 215C2.23858 215 -9.3001e-06 212.761 -9.1794e-06 210L-2.18557e-07 4.99999C-9.78514e-08 2.23857 2.23859 -1.30156e-05 5 -1.28949e-05L295 -2.18553e-07ZM286.262 7.13655C289.023 7.13655 291.262 9.37513 291.262 12.1365L291.262 19.9789C291.262 22.7403 289.023 24.9789 286.262 24.9789L284.611 24.9789C281.85 24.9789 279.611 22.7403 279.611 19.9789L279.611 12.1365C279.611 9.37512 281.85 7.13655 284.611 7.13655L286.262 7.13655ZM291.262 195.021C291.262 192.259 289.023 190.021 286.262 190.021L284.611 190.021C281.85 190.021 279.611 192.259 279.611 195.021L279.611 202.863C279.611 205.624 281.85 207.863 284.611 207.863L286.262 207.863C289.023 207.863 291.262 205.624 291.262 202.863L291.262 195.021ZM247.428 7.13655C250.189 7.13655 252.428 9.37513 252.428 12.1365L252.428 19.9789C252.428 22.7403 250.189 24.9789 247.428 24.9789L245.777 24.9789C243.016 24.9789 240.777 22.7403 240.777 19.9789L240.777 12.1365C240.777 9.37512 243.016 7.13655 245.777 7.13655L247.428 7.13655ZM252.428 195.021C252.428 192.259 250.189 190.021 247.428 190.021L245.777 190.021C243.016 190.021 240.777 192.259 240.777 195.021L240.777 202.863C240.777 205.624 243.016 207.863 245.777 207.863L247.428 207.863C250.189 207.863 252.428 205.624 252.428 202.863L252.428 195.021ZM208.592 7.13655C211.353 7.13655 213.592 9.37512 213.592 12.1365L213.592 19.9789C213.592 22.7403 211.353 24.9789 208.592 24.9789L206.941 24.9789C204.18 24.9789 201.941 22.7403 201.941 19.9789L201.941 12.1365C201.941 9.37512 204.18 7.13655 206.941 7.13655L208.592 7.13655ZM213.592 195.021C213.592 192.259 211.353 190.021 208.592 190.021L206.941 190.021C204.18 190.021 201.941 192.259 201.941 195.021L201.941 202.863C201.941 205.624 204.18 207.863 206.941 207.863L208.592 207.863C211.353 207.863 213.592 205.624 213.592 202.863L213.592 195.021ZM169.758 7.13655C172.519 7.13655 174.758 9.37513 174.758 12.1365L174.758 19.9789C174.758 22.7403 172.519 24.9789 169.758 24.9789L168.107 24.9789C165.346 24.9789 163.107 22.7403 163.107 19.9789L163.107 12.1365C163.107 9.37512 165.346 7.13655 168.107 7.13655L169.758 7.13655ZM174.758 195.021C174.758 192.259 172.519 190.021 169.758 190.021L168.107 190.021C165.346 190.021 163.107 192.259 163.107 195.021L163.107 202.863C163.107 205.624 165.346 207.863 168.107 207.863L169.758 207.863C172.519 207.863 174.758 205.624 174.758 202.863L174.758 195.021ZM130.922 7.13655C133.683 7.13655 135.922 9.37512 135.922 12.1365L135.922 19.9789C135.922 22.7403 133.683 24.9789 130.922 24.9789L129.271 24.9789C126.51 24.9789 124.271 22.7403 124.271 19.9789L124.271 12.1365C124.271 9.37512 126.51 7.13655 129.271 7.13655L130.922 7.13655ZM135.922 195.021C135.922 192.259 133.683 190.021 130.922 190.021L129.271 190.021C126.51 190.021 124.271 192.259 124.271 195.021L124.271 202.863C124.271 205.624 126.51 207.863 129.271 207.863L130.922 207.863C133.683 207.863 135.922 205.624 135.922 202.863L135.922 195.021ZM92.0879 7.13655C94.8493 7.13655 97.0879 9.37512 97.0879 12.1365L97.0879 19.9789C97.0879 22.7403 94.8493 24.9789 92.0879 24.9789L90.4374 24.9789C87.676 24.9789 85.4374 22.7403 85.4374 19.9789L85.4374 12.1365C85.4374 9.37512 87.676 7.13655 90.4374 7.13655L92.0879 7.13655ZM97.0879 195.021C97.0879 192.259 94.8493 190.021 92.0879 190.021L90.4374 190.021C87.676 190.021 85.4374 192.259 85.4374 195.021L85.4374 202.863C85.4374 205.624 87.676 207.863 90.4374 207.863L92.0879 207.863C94.8493 207.863 97.0879 205.624 97.0879 202.863L97.0879 195.021ZM53.252 7.13655C56.0134 7.13655 58.252 9.37512 58.252 12.1365L58.252 19.9789C58.252 22.7403 56.0134 24.9789 53.252 24.9789L51.6015 24.9789C48.84 24.9789 46.6015 22.7403 46.6015 19.9789L46.6015 12.1365C46.6015 9.37512 48.84 7.13655 51.6015 7.13655L53.252 7.13655ZM58.252 195.021C58.252 192.259 56.0134 190.021 53.252 190.021L51.6015 190.021C48.84 190.021 46.6015 192.259 46.6015 195.021L46.6015 202.863C46.6015 205.624 48.84 207.863 51.6015 207.863L53.252 207.863C56.0134 207.863 58.252 205.624 58.252 202.863L58.252 195.021ZM14.418 7.13655C17.1794 7.13655 19.418 9.37512 19.418 12.1365L19.418 19.9789C19.418 22.7403 17.1794 24.9789 14.418 24.9789L12.7675 24.9789C10.0061 24.9789 7.76749 22.7403 7.76749 19.9789L7.76749 12.1365C7.76749 9.37512 10.0061 7.13655 12.7675 7.13655L14.418 7.13655ZM19.418 195.021C19.418 192.259 17.1794 190.021 14.418 190.021L12.7675 190.021C10.0061 190.021 7.76748 192.259 7.76748 195.021L7.76748 202.863C7.76748 205.624 10.0061 207.863 12.7675 207.863L14.418 207.863C17.1794 207.863 19.418 205.624 19.418 202.863L19.418 195.021Z" fill="#EF5045"/>
<path d="M79.232 77.76C78.296 77.184 78.152 75.6 79.232 75.6H101.264C110.12 75.6 120.632 79.128 120.632 89.424C120.632 97.704 109.976 103.32 104.72 103.32H102.416C110.912 103.32 114.656 106.056 118.688 113.544C122.144 120.024 123.656 122.832 126.464 123.624C127.976 124.056 127.76 126 126.32 126H109.76C108.68 126 108.68 124.488 109.688 123.84C111.272 122.832 108.968 117.432 107.96 115.272C105.08 109.296 103.424 103.968 96.656 103.968H94.352C94.424 112.824 94.712 122.04 97.52 123.84C98.6 124.488 98.6 126 97.52 126H79.232C78.152 126 78.296 124.416 79.232 123.84C82.256 122.04 82.112 110.52 82.112 100.8C82.112 91.08 82.544 79.704 79.232 77.76ZM101.264 77.76C93.056 77.76 94.352 91.08 94.352 100.8C94.352 101.16 94.352 101.448 94.352 101.808C104.36 101.592 108.392 97.992 108.392 89.856C108.392 82.656 105.8 77.76 101.264 77.76ZM131.123 126C130.043 126 130.187 124.416 131.123 123.84C134.291 121.968 134.147 110.52 134.147 100.8C134.147 91.08 134.435 79.704 131.123 77.76C130.187 77.184 130.043 75.6 131.123 75.6H160.067C166.547 75.6 169.283 79.992 169.283 85.032C169.283 87.408 168.707 91.368 165.323 91.368C162.299 91.368 161.291 88.848 160.427 86.472C158.699 81.864 157.691 77.76 152.291 77.76C146.459 77.832 146.387 89.784 146.387 99.288C149.195 98.568 151.067 96.912 152.075 94.968C153.011 93.096 154.091 92.232 154.883 92.232C155.747 92.232 156.395 93.168 156.395 94.968V106.704C156.395 108.504 155.747 109.368 154.883 109.368C154.091 109.368 153.011 108.504 152.075 106.704C151.067 104.76 149.195 103.104 146.387 102.384C146.387 111.888 146.459 123.84 152.291 123.84C157.763 123.84 159.851 119.736 161.579 115.128C162.443 112.752 163.451 110.232 166.475 110.232C169.859 110.232 170.435 114.192 170.435 116.568C170.435 121.608 166.619 126 160.139 126L131.123 126ZM174.084 126C173.004 126 173.148 124.416 174.084 123.84C176.964 122.112 176.964 112.248 176.964 100.944C176.964 89.64 177.324 79.704 174.084 77.76C173.148 77.184 173.004 75.6 174.084 75.6H196.116C210.948 75.6 220.308 85.896 220.308 100.584C220.308 115.272 211.092 126 196.116 126L174.084 126ZM196.116 77.76C188.196 77.76 189.204 89.496 189.204 100.8C189.204 112.104 188.628 123.84 196.116 123.84C203.46 123.84 208.068 115.272 208.068 100.872C208.068 86.472 203.46 77.76 196.116 77.76Z" fill="#FFD8D8"/>
</svg>
