<svg width="300" height="215" viewBox="0 0 300 215" fill="none" xmlns="http://www.w3.org/2000/svg">
<path fill-rule="evenodd" clip-rule="evenodd" d="M295 -2.18557e-07C297.761 -9.78511e-08 300 2.23858 300 5L300 210C300 212.761 297.761 215 295 215L4.99999 215C2.23858 215 -9.3001e-06 212.761 -9.17939e-06 210L-2.18553e-07 4.99999C-9.78478e-08 2.23857 2.23859 -1.30156e-05 5 -1.28949e-05L295 -2.18557e-07ZM286.262 7.13655C289.023 7.13655 291.262 9.37513 291.262 12.1365L291.262 19.9789C291.262 22.7403 289.023 24.9789 286.262 24.9789L284.611 24.9789C281.85 24.9789 279.611 22.7403 279.611 19.9789L279.611 12.1365C279.611 9.37512 281.85 7.13655 284.611 7.13655L286.262 7.13655ZM291.262 195.021C291.262 192.259 289.023 190.021 286.262 190.021L284.611 190.021C281.85 190.021 279.611 192.259 279.611 195.021L279.611 202.863C279.611 205.624 281.85 207.863 284.611 207.863L286.262 207.863C289.023 207.863 291.262 205.624 291.262 202.863L291.262 195.021ZM247.428 7.13655C250.189 7.13655 252.428 9.37513 252.428 12.1365L252.428 19.9789C252.428 22.7403 250.189 24.9789 247.428 24.9789L245.777 24.9789C243.016 24.9789 240.777 22.7403 240.777 19.9789L240.777 12.1365C240.777 9.37512 243.016 7.13655 245.777 7.13655L247.428 7.13655ZM252.428 195.021C252.428 192.259 250.189 190.021 247.428 190.021L245.777 190.021C243.016 190.021 240.777 192.259 240.777 195.021L240.777 202.863C240.777 205.624 243.016 207.863 245.777 207.863L247.428 207.863C250.189 207.863 252.428 205.624 252.428 202.863L252.428 195.021ZM208.592 7.13655C211.353 7.13655 213.592 9.37512 213.592 12.1365L213.592 19.9789C213.592 22.7403 211.353 24.9789 208.592 24.9789L206.941 24.9789C204.18 24.9789 201.941 22.7403 201.941 19.9789L201.941 12.1365C201.941 9.37512 204.18 7.13655 206.941 7.13655L208.592 7.13655ZM213.592 195.021C213.592 192.259 211.353 190.021 208.592 190.021L206.941 190.021C204.18 190.021 201.941 192.259 201.941 195.021L201.941 202.863C201.941 205.624 204.18 207.863 206.941 207.863L208.592 207.863C211.353 207.863 213.592 205.624 213.592 202.863L213.592 195.021ZM169.758 7.13655C172.519 7.13655 174.758 9.37513 174.758 12.1365L174.758 19.9789C174.758 22.7403 172.519 24.9789 169.758 24.9789L168.107 24.9789C165.346 24.9789 163.107 22.7403 163.107 19.9789L163.107 12.1365C163.107 9.37512 165.346 7.13655 168.107 7.13655L169.758 7.13655ZM174.758 195.021C174.758 192.259 172.519 190.021 169.758 190.021L168.107 190.021C165.346 190.021 163.107 192.259 163.107 195.021L163.107 202.863C163.107 205.624 165.346 207.863 168.107 207.863L169.758 207.863C172.519 207.863 174.758 205.624 174.758 202.863L174.758 195.021ZM130.922 7.13655C133.683 7.13655 135.922 9.37512 135.922 12.1365L135.922 19.9789C135.922 22.7403 133.683 24.9789 130.922 24.9789L129.271 24.9789C126.51 24.9789 124.271 22.7403 124.271 19.9789L124.271 12.1365C124.271 9.37512 126.51 7.13655 129.271 7.13655L130.922 7.13655ZM135.922 195.021C135.922 192.259 133.683 190.021 130.922 190.021L129.271 190.021C126.51 190.021 124.271 192.259 124.271 195.021L124.271 202.863C124.271 205.624 126.51 207.863 129.271 207.863L130.922 207.863C133.683 207.863 135.922 205.624 135.922 202.863L135.922 195.021ZM92.0879 7.13655C94.8493 7.13655 97.0879 9.37512 97.0879 12.1365L97.0879 19.9789C97.0879 22.7403 94.8493 24.9789 92.0879 24.9789L90.4374 24.9789C87.676 24.9789 85.4374 22.7403 85.4374 19.9789L85.4374 12.1365C85.4374 9.37512 87.676 7.13655 90.4374 7.13655L92.0879 7.13655ZM97.0879 195.021C97.0879 192.259 94.8493 190.021 92.0879 190.021L90.4374 190.021C87.676 190.021 85.4374 192.259 85.4374 195.021L85.4374 202.863C85.4374 205.624 87.676 207.863 90.4374 207.863L92.0879 207.863C94.8493 207.863 97.0879 205.624 97.0879 202.863L97.0879 195.021ZM53.252 7.13655C56.0134 7.13655 58.252 9.37512 58.252 12.1365L58.252 19.9789C58.252 22.7403 56.0134 24.9789 53.252 24.9789L51.6015 24.9789C48.84 24.9789 46.6015 22.7403 46.6015 19.9789L46.6015 12.1365C46.6015 9.37512 48.84 7.13655 51.6015 7.13655L53.252 7.13655ZM58.252 195.021C58.252 192.259 56.0134 190.021 53.252 190.021L51.6015 190.021C48.84 190.021 46.6015 192.259 46.6015 195.021L46.6015 202.863C46.6015 205.624 48.84 207.863 51.6015 207.863L53.252 207.863C56.0134 207.863 58.252 205.624 58.252 202.863L58.252 195.021ZM14.418 7.13655C17.1794 7.13655 19.418 9.37512 19.418 12.1365L19.418 19.9789C19.418 22.7403 17.1794 24.9789 14.418 24.9789L12.7675 24.9789C10.0061 24.9789 7.76749 22.7403 7.76749 19.9789L7.76749 12.1365C7.76749 9.37512 10.0061 7.13655 12.7675 7.13655L14.418 7.13655ZM19.418 195.021C19.418 192.259 17.1794 190.021 14.418 190.021L12.7675 190.021C10.0061 190.021 7.76748 192.259 7.76748 195.021L7.76748 202.863C7.76748 205.624 10.0061 207.863 12.7675 207.863L14.418 207.863C17.1794 207.863 19.418 205.624 19.418 202.863L19.418 195.021Z" fill="#F8F289"/>
<path d="M14.452 79.78C13.264 79.252 13.528 77.8 14.518 77.8H30.358C31.348 77.8 31.216 79.054 30.292 79.78C28.246 81.364 36.232 95.092 39.928 101.428C43.624 95.026 51.016 81.496 47.782 79.78C46.858 79.252 46.924 77.8 47.914 77.8H58.54C59.53 77.8 59.596 79.252 58.408 79.78C54.118 81.694 46.858 94.96 41.512 104.068C41.512 112.714 41.182 120.172 44.284 122.02C45.142 122.548 45.274 124 44.284 124H27.52C26.53 124 26.662 122.548 27.52 122.02C30.556 120.172 30.358 108.622 30.292 104.068C24.946 94.96 18.148 81.43 14.452 79.78ZM61.9679 124C60.9779 124 61.1099 122.548 61.9679 122.02C64.8719 120.304 64.7399 109.81 64.7399 100.9C64.7399 91.99 65.0039 81.562 61.9679 79.78C61.1099 79.252 60.9779 77.8 61.9679 77.8H88.4999C94.4399 77.8 96.9479 81.826 96.9479 86.446C96.9479 88.624 96.4199 92.254 93.3179 92.254C90.5459 92.254 89.6219 89.944 88.8299 87.766C87.2459 83.542 86.3219 79.78 81.3719 79.78C76.0259 79.846 75.9599 90.802 75.9599 99.514C78.5339 98.854 80.2499 97.336 81.1739 95.554C82.0319 93.838 83.0219 93.046 83.7479 93.046C84.5399 93.046 85.1339 93.904 85.1339 95.554V106.312C85.1339 107.962 84.5399 108.754 83.7479 108.754C83.0219 108.754 82.0319 107.962 81.1739 106.312C80.2499 104.53 78.5339 103.012 75.9599 102.352C75.9599 111.064 76.0259 122.02 81.3719 122.02C86.3879 122.02 88.3019 118.258 89.8859 114.034C90.6779 111.856 91.6019 109.546 94.3739 109.546C97.4759 109.546 98.0039 113.176 98.0039 115.354C98.0039 119.974 94.5059 124 88.5659 124L61.9679 124ZM101.349 124C100.359 124 100.491 122.548 101.349 122.02C104.253 120.304 104.121 109.81 104.121 100.9C104.121 91.99 104.385 81.562 101.349 79.78C100.491 79.252 100.359 77.8 101.349 77.8H118.113C119.103 77.8 119.103 79.186 118.113 79.78C115.209 81.628 115.341 91.99 115.341 100.9C115.341 109.81 115.143 122.02 120.753 122.02C124.713 122.02 125.307 116.938 126.627 113.44C127.683 110.536 128.805 108.226 131.445 108.226C133.887 108.226 135.075 110.536 135.075 112.648C135.075 120.898 134.679 124 130.191 124L101.349 124ZM138.087 124C137.097 124 137.229 122.548 138.087 122.02C140.991 120.304 140.859 109.81 140.859 100.9C140.859 91.99 141.123 81.562 138.087 79.78C137.229 79.252 137.097 77.8 138.087 77.8L154.851 77.8C155.841 77.8 155.841 79.186 154.851 79.78C151.947 81.628 152.079 91.99 152.079 100.9C152.079 109.81 151.881 122.02 157.491 122.02C161.451 122.02 162.045 116.938 163.365 113.44C164.421 110.536 165.543 108.226 168.183 108.226C170.625 108.226 171.813 110.536 171.813 112.648C171.813 120.898 171.417 124 166.929 124H138.087ZM196.369 125.32C183.169 125.32 173.599 115.42 173.599 100.9C173.599 86.38 183.169 76.48 196.369 76.48C209.569 76.48 219.139 86.38 219.139 100.9C219.139 115.42 209.569 125.32 196.369 125.32ZM187.129 80.176C178.549 84.136 181.849 96.94 185.809 105.652C189.241 113.11 195.049 122.284 201.979 122.284C203.167 122.284 204.355 122.02 205.609 121.426C214.255 117.466 210.823 104.794 206.929 96.148C203.563 88.69 197.689 79.384 190.693 79.384C189.505 79.384 188.317 79.648 187.129 80.176ZM263.776 124H263.05V123.934V124C262.06 124 261.796 123.736 261.334 122.218C260.41 119.314 255.592 105.982 253.678 100.9C252.952 98.92 252.226 96.808 251.434 94.762C248.068 104.002 243.118 117.796 241.468 122.548C241.204 123.406 240.412 124 239.554 124H238.828V123.934V124C237.838 124 237.574 123.736 237.112 122.218C236.188 119.314 231.37 105.982 229.456 100.9C226.222 91.99 222.262 81.43 218.962 79.78C217.906 79.252 217.972 77.8 218.962 77.8H235C235.99 77.8 235.99 79.252 235 79.78C232.69 81.034 237.442 91.99 240.676 100.9C241.468 103.012 242.59 105.982 243.316 108.16C245.626 101.758 248.134 94.696 249.652 90.406C247.474 85.126 245.23 80.77 243.184 79.78C242.128 79.252 242.194 77.8 243.184 77.8H259.222C260.212 77.8 260.212 79.252 259.222 79.78C256.912 81.034 261.664 91.99 264.898 100.9C265.69 103.012 266.812 105.982 267.538 108.16C268.726 104.794 269.782 101.89 270.178 100.9C273.412 91.99 275.788 82.288 271.234 79.78C270.244 79.252 270.244 77.8 271.234 77.8H283.972C284.962 77.8 285.028 79.252 283.972 79.78C280.672 81.43 276.712 91.99 273.478 100.9C271.828 105.388 267.34 117.73 265.69 122.548C265.426 123.406 264.634 124 263.776 124Z" fill="#ECA842"/>
</svg>
