<svg width="47" height="16" viewBox="0 0 47 16" fill="none" xmlns="http://www.w3.org/2000/svg">
<path d="M1 7C0.447715 7 4.82823e-08 7.44772 0 8C-4.82823e-08 8.55228 0.447715 9 1 9L1 7ZM46.7071 8.70711C47.0976 8.31659 47.0976 7.68342 46.7071 7.2929L40.3431 0.928936C39.9526 0.538411 39.3195 0.538411 38.9289 0.928936C38.5384 1.31946 38.5384 1.95262 38.9289 2.34315L44.5858 8L38.9289 13.6569C38.5384 14.0474 38.5384 14.6805 38.9289 15.0711C39.3195 15.4616 39.9526 15.4616 40.3431 15.0711L46.7071 8.70711ZM1 9L46 9L46 7L1 7L1 9Z" fill="white"/>
</svg>
