<svg width="24" height="20" viewBox="0 0 24 20" fill="none" xmlns="http://www.w3.org/2000/svg">
<path d="M2 8.75C1.30964 8.75 0.75 9.30964 0.75 10C0.75 10.6904 1.30964 11.25 2 11.25L2 8.75ZM22.8839 10.8839C23.372 10.3957 23.372 9.60427 22.8839 9.11612L14.9289 1.16117C14.4408 0.67301 13.6493 0.67301 13.1612 1.16117C12.673 1.64932 12.673 2.44078 13.1612 2.92893L20.2322 10L13.1612 17.0711C12.673 17.5592 12.673 18.3507 13.1612 18.8388C13.6493 19.327 14.4408 19.327 14.9289 18.8388L22.8839 10.8839ZM2 11.25L22 11.25V8.75L2 8.75L2 11.25Z" fill="#1C1411"/>
</svg>
