<svg width="237" height="215" viewBox="0 0 237 215" fill="none" xmlns="http://www.w3.org/2000/svg">
<mask id="path-1-inside-1_1370_3514" fill="white">
<path d="M0 0H20V20H0V0Z"/>
</mask>

<path d="M0 0V-1.5H-1.5V0H0ZM0 1.5H20V-1.5H0V1.5ZM1.5 20V0H-1.5V20H1.5Z" fill="white" mask="url(#path-1-inside-1_1370_3514)"/>
<mask id="path-3-inside-2_1370_3514" fill="white">
<path d="M0 195H20V215H0V195Z"/>
</mask>

<path d="M0 215H-1.5V216.5H0V215ZM20 213.5H0V216.5H20V213.5ZM1.5 215V195H-1.5V215H1.5Z" fill="white" mask="url(#path-3-inside-2_1370_3514)"/>
<mask id="path-5-inside-3_1370_3514" fill="white">
<path d="M217 0H237V20H217V0Z"/>
</mask>

<!-- <path d="M237 0H238.5V-1.5H237V0ZM217 1.5H237V-1.5H217V1.5ZM235.5 0V20H238.5V0H235.5Z" fill="white" mask="url(#path-5-inside-3_1370_3514)"/>
<mask id="path-7-inside-4_1370_3514" fill="white">
<path d="M217 195H237V215H217V195Z"/>
</mask>

<path d="M237 215V216.5H238.5V215H237ZM235.5 195V215H238.5V195H235.5ZM237 213.5H217V216.5H237V213.5Z" fill="white" mask="url(#path-7-inside-4_1370_3514)"/> -->
</svg>
