<svg width="162" height="164" viewBox="0 0 162 164" fill="none" xmlns="http://www.w3.org/2000/svg">
<path d="M159.388 88.8907C159.778 83.9204 159.724 78.9629 159.226 74.0496L157.871 74.0054C158.377 78.8973 158.437 83.832 158.049 88.7809C157.209 99.4628 154.303 109.738 149.41 119.324C144.518 128.91 137.931 137.23 129.834 144.056C122.014 150.648 113.119 155.574 103.4 158.699C93.6803 161.823 83.6263 162.988 73.5136 162.161C63.0446 161.304 52.9739 158.34 43.5792 153.346C34.1846 148.353 26.029 141.634 19.3403 133.373C12.8793 125.392 8.04996 116.318 4.98779 106.402C1.92563 96.4837 0.784299 86.2252 1.59454 75.9069C2.43413 65.2251 5.34123 54.9495 10.2348 45.3638C15.1284 35.7781 21.7138 27.4567 29.8106 20.632C32.4453 18.4112 35.2029 16.3786 38.0723 14.5413L37.0721 13.5649C34.2572 15.3852 31.5485 17.3907 28.9571 19.5758C20.7205 26.5188 14.022 34.9813 9.04461 44.7309C4.06858 54.4791 1.11259 64.9314 0.25764 75.7971C-0.567972 86.2908 0.592914 96.726 3.70817 106.813C6.82202 116.899 11.7338 126.129 18.3051 134.245C25.1098 142.648 33.4036 149.484 42.959 154.562C52.5129 159.64 62.7583 162.656 73.406 163.528C83.6905 164.369 93.9178 163.184 103.804 160.007C113.689 156.829 122.735 151.817 130.69 145.113C138.925 138.17 145.625 129.708 150.601 119.958C155.577 110.209 158.533 99.7564 159.388 88.8907Z" fill="white"/>
<path d="M147.437 87.9044C147.812 83.1279 147.703 78.3657 147.114 73.6548L145.755 73.6106C146.355 78.2987 146.471 83.0395 146.098 87.7946C145.387 96.8444 142.924 105.549 138.78 113.671C134.635 121.791 129.054 128.841 122.195 134.623C115.569 140.207 108.035 144.381 99.7998 147.028C91.566 149.675 83.0473 150.663 74.481 149.961C65.6117 149.236 57.0789 146.723 49.1204 142.494C41.1618 138.265 34.2524 132.57 28.5863 125.572C23.1115 118.811 19.0212 111.124 16.427 102.721C13.8328 94.32 12.8647 85.628 13.552 76.8876C14.2631 67.8378 16.7259 59.1316 20.8708 51.0112C25.0156 42.8908 30.5965 35.8408 37.4556 30.0595C40.4759 27.5123 43.6875 25.2602 47.0654 23.3103L46.0526 22.3225C42.7348 24.2625 39.5776 26.4918 36.6007 29.0019C29.6019 34.9015 23.9092 42.094 19.6805 50.3783C15.4519 58.6626 12.9401 67.5442 12.2137 76.7778C11.5124 85.695 12.5001 94.5623 15.146 103.135C17.7918 111.705 21.966 119.548 27.5497 126.445C33.3318 133.586 40.3809 139.395 48.5001 143.71C56.6193 148.024 65.3239 150.588 74.3735 151.328C83.1129 152.044 91.8035 151.036 100.204 148.336C108.604 145.635 116.29 141.378 123.05 135.679C130.048 129.779 135.741 122.588 139.97 114.304C144.198 106.02 146.712 97.138 147.437 87.9044Z" fill="white"/>
<path d="M135.495 86.9013C135.855 82.3158 135.674 77.746 134.955 73.2418L133.585 73.1976C134.323 77.679 134.514 82.2274 134.155 86.7929C133.572 94.2106 131.554 101.348 128.155 108.005C124.756 114.663 120.184 120.442 114.56 125.181C109.128 129.76 102.951 133.181 96.2006 135.351C89.4504 137.521 82.4669 138.33 75.4444 137.756C68.1731 137.162 61.1784 135.101 54.6546 131.634C48.1293 128.166 42.466 123.499 37.821 117.762C33.334 112.22 29.9798 105.917 27.8536 99.0298C25.7274 92.1424 24.9339 85.0169 25.4969 77.8515C26.0795 70.4324 28.0995 63.2955 31.4969 56.639C34.8958 49.981 39.4695 44.2025 45.0923 39.4631C48.5149 36.5781 52.2322 34.1521 56.2052 32.2093L55.1701 31.1987C51.2711 33.1515 47.6138 35.5604 44.2373 38.4055C38.4748 43.2632 33.788 49.1842 30.3067 56.0061C26.8255 62.8265 24.7565 70.1388 24.1586 77.7417C23.5817 85.0839 24.3947 92.3847 26.5726 99.4418C28.7519 106.497 32.1884 112.956 36.7859 118.635C41.5468 124.514 47.3498 129.296 54.0357 132.848C60.7202 136.401 67.8867 138.512 75.3382 139.122C82.534 139.71 89.6893 138.882 96.6057 136.659C103.522 134.435 109.85 130.928 115.416 126.238C121.179 121.38 125.865 115.459 129.347 108.638C132.828 101.818 134.897 94.5043 135.495 86.9027V86.9013Z" fill="white"/>
<path d="M123.324 85.9179C123.669 81.5206 123.377 77.1433 122.455 72.8543L121.07 72.8101C122.022 77.0735 122.33 81.4308 121.986 85.8082C121.533 91.5653 119.966 97.1043 117.33 102.271C114.692 107.438 111.143 111.923 106.779 115.602C102.564 119.155 97.7694 121.81 92.5308 123.495C87.2907 125.179 81.8718 125.807 76.4209 125.361C70.7785 124.899 65.3498 123.301 60.2858 120.61C55.2218 117.919 50.8255 114.297 47.2213 109.844C43.7386 105.544 41.1361 100.652 39.4863 95.3069C37.835 89.9617 37.2204 84.4298 37.6576 78.8694C38.1102 73.1123 39.6762 67.5733 42.3137 62.4063C44.9512 57.2393 48.5023 52.755 52.8651 49.0761C56.7333 45.8162 61.0877 43.3118 65.8276 41.6213L64.7408 40.5609C60.1 42.2998 55.8253 44.8042 52.0087 48.0199C47.5063 51.8157 43.842 56.4425 41.1221 61.7734C38.4008 67.1029 36.7845 72.8187 36.3179 78.7597C35.8667 84.4983 36.5023 90.2026 38.2052 95.7174C39.9081 101.232 42.5931 106.278 46.1861 110.717C49.9063 115.311 54.4409 119.05 59.6655 121.825C64.8888 124.601 70.4907 126.251 76.3133 126.727C81.9375 127.187 87.5282 126.538 92.9331 124.801C98.338 123.063 103.283 120.324 107.633 116.658C112.136 112.862 115.8 108.235 118.52 102.904C121.241 97.5733 122.858 91.8589 123.324 85.9179Z" fill="white"/>
<path d="M48.4911 14.6264C49.5221 14.2273 50.7542 14.0833 51.7111 14.7632C53.4615 16.1587 56.194 17.1123 58.4012 16.5165C59.333 16.2642 60.5917 15.5729 60.4408 14.4938C60.1167 12.1847 54.5302 12.5325 52.8455 12.5254C50.7598 12.5154 45.2459 13.298 44.3267 10.6809C42.7803 6.27367 52.8972 3.31457 55.395 2.63467C58.0366 1.91485 63.3675 0.925633 65.6026 3.21337C67.2986 4.94949 63.7838 6.31215 62.7822 6.54164C61.6269 6.80676 60.2872 6.5958 59.2227 5.99714C57.5994 5.00223 55.5989 3.56259 53.6348 4.02299C52.7728 4.22539 51.7698 5.09487 52.0059 6.06271C52.6289 8.61272 58.1861 8.32479 60.1824 8.52149C61.951 8.69539 67.3908 8.85931 67.5528 11.3837C67.8001 15.2507 60.2438 16.9198 57.5295 17.6767C55.462 18.2526 53.3218 18.723 51.1845 19.0038C49.6576 19.2047 47.1263 19.6224 45.9919 18.321C44.7277 16.87 47.435 15.0369 48.4911 14.6278V14.6264Z" fill="white"/>
<path d="M69.1674 7.8245C68.9285 1.72101 77.7183 -0.271669 82.1243 0.0290869C86.3613 0.319865 94.5029 3.44003 93.05 9.42236C91.8305 14.4426 84.6417 15.5715 80.4913 15.3163C76.3869 15.064 69.3671 12.916 69.1674 7.8245ZM77.1762 8.71537C78.6179 10.9261 80.9984 13.908 83.8258 14.2501C84.1904 14.2943 84.5662 14.2815 84.9099 14.2116C88.3883 13.6201 86.3683 8.61274 85.4296 6.82103C84.0913 4.26675 81.3685 1.23639 78.2407 1.19647C77.8105 1.19077 77.3704 1.23924 76.9793 1.35042C73.2549 2.11157 76.095 7.0605 77.1762 8.71679V8.71537Z" fill="white"/>
<path d="M95.8739 2.73657C98.7601 3.31813 101.602 4.0351 104.422 4.89175C105.202 5.11839 105.576 5.60587 105.4 6.05914C104.678 7.91926 103.932 9.79364 103.197 11.6295C102.262 13.9615 100.059 18.0024 103.366 19.482C105.347 20.3686 107.776 20.149 108.762 17.9597C108.778 17.9668 108.785 17.9711 108.8 17.9796C109.552 16.4659 110.302 14.9521 111.053 13.4383C111.808 12.0172 112.312 10.4764 110.972 9.17217C110.521 8.69895 110.686 8.11027 111.337 8.39392C114.004 9.53565 116.602 10.7971 119.152 12.1883C119.868 12.5689 120.184 13.1504 119.93 13.5652C118.842 15.3455 117.753 17.1272 116.665 18.9075C115.669 20.5154 113.082 23.7082 114.503 25.7066C114.881 26.2426 114.549 26.7429 113.889 26.291C111.879 24.9127 108.577 23.0369 108.266 20.2517C106.477 21.2908 104.495 20.8617 102.73 20.1419C98.876 18.5697 94.2995 15.1132 95.8111 10.15C96.3894 8.25138 97.697 5.02004 95.6532 3.56472C95.1168 3.19555 95.174 2.58976 95.8739 2.73372V2.73657Z" fill="white"/>
<path d="M138.063 39.7815C136.502 40.9959 133.232 43.0014 133.721 45.4417C133.84 46.0375 133.389 46.4736 133.048 45.9462C131.111 43.0057 129.006 40.229 126.701 37.5807C126.295 37.1203 126.786 36.7397 127.305 36.9834C129.199 37.7417 131.491 35.3898 132.731 34.241C134.935 32.1998 138.172 29.389 135.321 26.4613C133.876 24.9774 131.61 23.8599 129.85 25.6516C129.22 26.3715 128.591 27.0913 127.961 27.8111C126.666 29.275 123.763 31.9005 124.684 34.1783C124.906 34.727 124.539 35.2416 124.11 34.8069C121.675 32.378 119.109 30.1387 116.378 28.062C115.894 27.7013 116.313 27.2295 116.867 27.3592C118.653 27.7584 120.075 25.8726 120.99 24.5954C121.752 23.5506 122.512 22.5058 123.273 21.4596C124.215 20.1981 125.079 18.5247 124.048 17.0238C123.687 16.4679 123.948 15.9163 124.537 16.3211C126.957 17.966 129.287 19.7178 131.545 21.5864C132.163 22.1238 132.374 22.7638 132.057 23.1273C131.87 23.3411 131.776 23.448 131.589 23.6618C133.523 23.7331 135.101 25.0487 136.354 26.3729C139.484 29.6812 142.72 36.1596 138.064 39.78L138.063 39.7815Z" fill="white"/>
<path d="M151.365 49.6817C152.456 52.2916 153.234 55.4574 151.939 58.2026C152.829 57.832 153.544 57.5356 153.821 57.4172C155.41 56.7388 157.277 55.5272 157.21 53.5032C157.165 52.5638 157.742 52.541 157.965 53.1653C159.529 56.8385 160.867 60.5816 162 64.4145C157.576 65.7458 153.153 67.0785 148.729 68.4098C147.083 68.8844 144.619 69.7611 144.317 71.7637C143.89 73.2304 143.162 70.3697 143.131 70.2371C142.588 67.9736 141.632 64.4615 143.234 62.3248C141.019 61.28 139.753 58.9353 138.807 56.7986C137.03 52.7862 135.469 45.6992 139.841 42.636C144.658 39.2622 149.73 45.7733 151.365 49.6803V49.6817ZM140.07 57.5256C140.839 59.4071 142.301 61.1717 144.415 61.3413C144.492 61.31 144.592 61.2672 144.669 61.2358C146.22 60.5887 147.872 59.9815 149.321 59.2945C152.415 57.8278 151.95 53.0584 150.731 50.3046C147.213 42.3581 137.652 51.6003 140.07 57.5256Z" fill="white"/>
<path d="M56.7872 23.2324C56.7313 22.9872 56.9269 22.752 57.2761 22.648C57.6337 22.5425 57.8125 22.4912 58.1702 22.39C60.5422 21.76 63.4703 19.9255 63.1043 17.0234C63.0721 16.7726 63.3865 16.5687 63.6756 16.516C64.0067 16.4561 64.3099 16.5459 64.3378 16.7982C64.4845 18.1637 64.6312 19.5278 64.7778 20.8933C65.8856 20.7023 66.9976 20.5398 68.1124 20.4059C68.4603 20.3645 68.702 20.5085 68.7145 20.7636C68.7285 21.0459 68.5064 21.2126 68.1627 21.254C67.0605 21.3851 65.9611 21.5462 64.8673 21.7357C65.067 23.5959 65.2668 25.456 65.468 27.3175C65.6524 29.1249 65.5643 32.9549 67.5201 33.8657C67.949 34.0311 68.0552 34.6226 66.6582 34.8564C64.5208 35.2127 60.6875 35.2127 60.2069 32.3021C59.5839 29.2732 58.9608 26.2442 58.3378 23.2153C57.9844 23.3151 57.8083 23.365 57.4549 23.4704C57.1099 23.5731 56.8416 23.4804 56.7858 23.2338L56.7872 23.2324Z" fill="white"/>
<path d="M70.4758 20.1527C72.8213 19.8277 75.1655 19.6139 77.5305 19.5098C78.1843 19.4998 78.616 19.8348 78.5741 20.318C78.4986 21.1889 78.4218 22.0598 78.3464 22.9307C79.8481 20.4705 83.1757 19.8448 85.7587 20.2296C87.206 20.4449 89.8505 21.3999 89.4481 23.3883C89.1394 24.912 87.2535 25.3325 85.9892 25.113C83.9301 24.7552 83.8951 21.9544 82.0246 21.7505C80.0116 21.531 78.6146 24.1266 78.0963 25.7986C78.0712 26.0937 78.0572 26.2419 78.0321 26.537C77.863 28.37 77.0304 32.1102 78.7277 33.4558C79.1021 33.7109 79.0882 34.3395 78.6341 34.3067C76.0316 34.1485 73.4542 34.1642 70.853 34.3495C70.3892 34.388 70.4283 33.7594 70.8307 33.5C72.2151 32.5435 72.1438 30.2244 72.1298 28.7263C72.1256 27.4392 72.1201 26.1535 72.1159 24.8664C72.1284 23.5736 72.0167 21.4597 70.501 21.0036C69.9994 20.8183 69.9003 20.2296 70.4786 20.1541L70.4758 20.1527Z" fill="white"/>
<path d="M95.5936 30.0543C97.0074 30.1227 99.9983 30.9751 100.76 29.4128C101.464 27.9689 101.622 25.8765 99.7594 25.1125C98.1138 24.4368 96.8146 25.7653 95.7249 26.803C94.9398 27.5513 93.7817 27.7152 92.7731 27.4173C91.6555 27.088 90.51 25.9321 90.7391 24.7219C91.3817 21.3295 97.9727 23.4505 99.9829 24.2729C104.214 26.0048 107.271 30.0343 104.663 34.5713C103.721 36.2091 101.455 39.1853 102.354 41.2079C102.569 41.6155 102.259 42.1957 100.909 41.3576C99.2746 40.3441 97.4013 39.0057 97.6262 36.7721C96.1356 37.9666 94.2246 37.9851 92.5231 37.3194C90.4919 36.5255 86.6767 34.8065 87.364 31.9386C88.0695 29.0009 93.5359 29.9531 95.5922 30.0514L95.5936 30.0543ZM92.5147 33.5436C92.1249 34.7894 92.6404 36.2846 93.8823 36.7992C96.1315 37.7328 98.0216 35.294 98.8569 33.4894C99.2551 32.6271 99.677 31.7647 100.079 30.8981C98.8514 31.1347 97.5857 31.0378 96.3494 30.995C94.5543 30.9337 93.0763 31.7533 92.5147 33.5436Z" fill="white"/>
<path d="M118.422 36.0469C120.592 38.031 122.637 40.9901 121.831 44.1388C121.37 46.2826 118.801 45.2278 117.851 44.2129C117.095 43.4062 116.696 42.2958 116.869 41.1783C117.162 39.2284 117.031 36.59 115.438 35.2159C114.424 34.3407 112.959 34.5773 112.224 35.702C110.31 38.6297 108.864 44.6719 111.668 47.517C112.841 48.7072 114.479 49.36 116.142 49.2117C116.453 49.1832 116.684 49.2816 116.833 49.4583C117.064 49.7363 116.982 50.124 116.444 50.2694C113.763 50.8908 110.584 49.6508 108.618 47.8277C105.687 45.1081 104.148 40.0594 106.4 36.4503C109.121 32.09 115.065 32.9781 118.421 36.0455L118.422 36.0469Z" fill="white"/>
<path d="M129.445 40.727C131.178 42.6185 132.81 44.5812 134.359 46.6324C134.785 47.2125 134.795 47.7755 134.405 48.0492C131.883 49.8124 129.358 51.5756 126.835 53.3402C130.234 53.3787 132.852 55.1405 134.266 58.1466C134.788 59.2584 135.452 61.7671 134 62.5838C132.735 63.2965 131.574 61.7072 131.151 60.6866C130.532 59.1914 131.328 57.357 130.625 56.047C129.811 54.5276 127.331 54.3152 125.732 54.3765C126.116 55.8489 126.971 57.2158 127.65 58.5357C127.732 58.6954 127.749 58.9862 127.692 59.1871C127.444 60.0752 127.147 60.9446 126.841 61.8127C125.959 64.3256 124.477 67.1679 124.357 69.8789C124.342 70.536 123.748 70.6657 123.594 70.1954C122.71 67.5841 121.671 65.0597 120.458 62.591C120.243 62.1648 120.77 61.7272 121.175 62.1619C122.537 62.9559 123.642 57.9 123.881 57.1332C124.09 56.3706 124.303 55.6308 124.497 54.978C124.231 55.1633 124.097 55.2574 123.832 55.4427C122.415 56.4148 119.959 57.8231 119.917 59.8086C119.936 60.2947 119.452 60.6838 119.219 60.2719C117.89 57.9798 116.438 55.8047 114.831 53.7065C114.546 53.3431 115.045 52.9753 115.464 53.1449C116.868 53.755 118.498 52.3139 119.462 51.4744C121.854 49.4461 124.245 47.4192 126.637 45.3909C127.711 44.4986 129.355 42.9107 128.816 41.2915C128.657 40.7227 129.024 40.2794 129.449 40.7299L129.445 40.727Z" fill="white"/>
</svg>
